%TF.GenerationSoftware,Altium Limited,Altium Designer,25.3.3 (18)*%
G04 Layer_Color=8388736*
%FSLAX45Y45*%
%MOMM*%
%TF.SameCoordinates,566CE66E-0970-42B3-A130-ADE81A1B3EF9*%
%TF.FilePolarity,Negative*%
%TF.FileFunction,Soldermask,Top*%
%TF.Part,Single*%
G01*
G75*
%TA.AperFunction,SMDPad,CuDef*%
G04:AMPARAMS|DCode=55|XSize=1.5032mm|YSize=1.1032mm|CornerRadius=0.1916mm|HoleSize=0mm|Usage=FLASHONLY|Rotation=90.000|XOffset=0mm|YOffset=0mm|HoleType=Round|Shape=RoundedRectangle|*
%AMROUNDEDRECTD55*
21,1,1.50320,0.72000,0,0,90.0*
21,1,1.12000,1.10320,0,0,90.0*
1,1,0.38320,0.36000,0.56000*
1,1,0.38320,0.36000,-0.56000*
1,1,0.38320,-0.36000,-0.56000*
1,1,0.38320,-0.36000,0.56000*
%
%ADD55ROUNDEDRECTD55*%
G04:AMPARAMS|DCode=56|XSize=1.5032mm|YSize=1.1032mm|CornerRadius=0.1916mm|HoleSize=0mm|Usage=FLASHONLY|Rotation=0.000|XOffset=0mm|YOffset=0mm|HoleType=Round|Shape=RoundedRectangle|*
%AMROUNDEDRECTD56*
21,1,1.50320,0.72000,0,0,0.0*
21,1,1.12000,1.10320,0,0,0.0*
1,1,0.38320,0.56000,-0.36000*
1,1,0.38320,-0.56000,-0.36000*
1,1,0.38320,-0.56000,0.36000*
1,1,0.38320,0.56000,0.36000*
%
%ADD56ROUNDEDRECTD56*%
G04:AMPARAMS|DCode=57|XSize=1.6032mm|YSize=1.1532mm|CornerRadius=0.1966mm|HoleSize=0mm|Usage=FLASHONLY|Rotation=180.000|XOffset=0mm|YOffset=0mm|HoleType=Round|Shape=RoundedRectangle|*
%AMROUNDEDRECTD57*
21,1,1.60320,0.76000,0,0,180.0*
21,1,1.21000,1.15320,0,0,180.0*
1,1,0.39320,-0.60500,0.38000*
1,1,0.39320,0.60500,0.38000*
1,1,0.39320,0.60500,-0.38000*
1,1,0.39320,-0.60500,-0.38000*
%
%ADD57ROUNDEDRECTD57*%
G04:AMPARAMS|DCode=58|XSize=0.8032mm|YSize=1.6032mm|CornerRadius=0.1616mm|HoleSize=0mm|Usage=FLASHONLY|Rotation=90.000|XOffset=0mm|YOffset=0mm|HoleType=Round|Shape=RoundedRectangle|*
%AMROUNDEDRECTD58*
21,1,0.80320,1.28000,0,0,90.0*
21,1,0.48000,1.60320,0,0,90.0*
1,1,0.32320,0.64000,0.24000*
1,1,0.32320,0.64000,-0.24000*
1,1,0.32320,-0.64000,-0.24000*
1,1,0.32320,-0.64000,0.24000*
%
%ADD58ROUNDEDRECTD58*%
G04:AMPARAMS|DCode=59|XSize=0.9652mm|YSize=0.9652mm|CornerRadius=0.2921mm|HoleSize=0mm|Usage=FLASHONLY|Rotation=90.000|XOffset=0mm|YOffset=0mm|HoleType=Round|Shape=RoundedRectangle|*
%AMROUNDEDRECTD59*
21,1,0.96520,0.38100,0,0,90.0*
21,1,0.38100,0.96520,0,0,90.0*
1,1,0.58420,0.19050,0.19050*
1,1,0.58420,0.19050,-0.19050*
1,1,0.58420,-0.19050,-0.19050*
1,1,0.58420,-0.19050,0.19050*
%
%ADD59ROUNDEDRECTD59*%
G04:AMPARAMS|DCode=60|XSize=1.1532mm|YSize=1.0532mm|CornerRadius=0.1866mm|HoleSize=0mm|Usage=FLASHONLY|Rotation=90.000|XOffset=0mm|YOffset=0mm|HoleType=Round|Shape=RoundedRectangle|*
%AMROUNDEDRECTD60*
21,1,1.15320,0.68000,0,0,90.0*
21,1,0.78000,1.05320,0,0,90.0*
1,1,0.37320,0.34000,0.39000*
1,1,0.37320,0.34000,-0.39000*
1,1,0.37320,-0.34000,-0.39000*
1,1,0.37320,-0.34000,0.39000*
%
%ADD60ROUNDEDRECTD60*%
%ADD61R,0.85320X1.40320*%
G04:AMPARAMS|DCode=62|XSize=1.2032mm|YSize=2.0032mm|CornerRadius=0mm|HoleSize=0mm|Usage=FLASHONLY|Rotation=225.000|XOffset=0mm|YOffset=0mm|HoleType=Round|Shape=Rectangle|*
%AMROTATEDRECTD62*
4,1,4,-0.28284,1.13364,1.13364,-0.28284,0.28284,-1.13364,-1.13364,0.28284,-0.28284,1.13364,0.0*
%
%ADD62ROTATEDRECTD62*%

%ADD63R,0.42320X1.90320*%
%ADD64R,1.90320X0.42320*%
%ADD65R,1.20320X0.80320*%
G04:AMPARAMS|DCode=66|XSize=1.6032mm|YSize=1.1532mm|CornerRadius=0.1966mm|HoleSize=0mm|Usage=FLASHONLY|Rotation=90.000|XOffset=0mm|YOffset=0mm|HoleType=Round|Shape=RoundedRectangle|*
%AMROUNDEDRECTD66*
21,1,1.60320,0.76000,0,0,90.0*
21,1,1.21000,1.15320,0,0,90.0*
1,1,0.39320,0.38000,0.60500*
1,1,0.39320,0.38000,-0.60500*
1,1,0.39320,-0.38000,-0.60500*
1,1,0.39320,-0.38000,0.60500*
%
%ADD66ROUNDEDRECTD66*%
G04:AMPARAMS|DCode=67|XSize=1.1532mm|YSize=1.0532mm|CornerRadius=0.1866mm|HoleSize=0mm|Usage=FLASHONLY|Rotation=180.000|XOffset=0mm|YOffset=0mm|HoleType=Round|Shape=RoundedRectangle|*
%AMROUNDEDRECTD67*
21,1,1.15320,0.68000,0,0,180.0*
21,1,0.78000,1.05320,0,0,180.0*
1,1,0.37320,-0.39000,0.34000*
1,1,0.37320,0.39000,0.34000*
1,1,0.37320,0.39000,-0.34000*
1,1,0.37320,-0.39000,-0.34000*
%
%ADD67ROUNDEDRECTD67*%
%ADD68R,0.80320X1.20320*%
%ADD69R,1.90320X3.10320*%
%ADD70R,1.20320X2.55320*%
%ADD71R,3.50320X2.55320*%
G04:AMPARAMS|DCode=72|XSize=0.9652mm|YSize=0.9652mm|CornerRadius=0.2921mm|HoleSize=0mm|Usage=FLASHONLY|Rotation=180.000|XOffset=0mm|YOffset=0mm|HoleType=Round|Shape=RoundedRectangle|*
%AMROUNDEDRECTD72*
21,1,0.96520,0.38100,0,0,180.0*
21,1,0.38100,0.96520,0,0,180.0*
1,1,0.58420,-0.19050,0.19050*
1,1,0.58420,0.19050,0.19050*
1,1,0.58420,0.19050,-0.19050*
1,1,0.58420,-0.19050,-0.19050*
%
%ADD72ROUNDEDRECTD72*%
%ADD73R,1.35320X1.60320*%
%ADD74R,2.50320X0.71120*%
%ADD75R,3.70320X2.20320*%
%ADD76R,1.40320X6.40320*%
%TA.AperFunction,ComponentPad*%
%ADD77R,1.85320X1.85320*%
%ADD78C,1.85320*%
%ADD79C,1.80320*%
%ADD80C,1.20320*%
%ADD81R,1.85320X1.85320*%
%ADD82C,6.20000*%
%TA.AperFunction,ViaPad*%
%ADD83C,1.00320*%
D55*
X4205000Y2210000D02*
D03*
X4415000D02*
D03*
X1879600Y2298700D02*
D03*
X1669600D02*
D03*
X1498600D02*
D03*
X1288600D02*
D03*
X2930000Y4250000D02*
D03*
X2720000D02*
D03*
X3318100Y4254500D02*
D03*
X3108100D02*
D03*
X3420000Y1600000D02*
D03*
X3630000D02*
D03*
X3420000Y1800000D02*
D03*
X3630000D02*
D03*
X3605000Y3925000D02*
D03*
X3395000D02*
D03*
X2930000Y3850000D02*
D03*
X2720000D02*
D03*
X2125000Y4050000D02*
D03*
X2335000D02*
D03*
X2120000Y4310000D02*
D03*
X2330000D02*
D03*
X2120000Y4535000D02*
D03*
X2330000D02*
D03*
X2120000Y4760000D02*
D03*
X2330000D02*
D03*
X5307800Y2832100D02*
D03*
X5517800D02*
D03*
X5307800Y2628900D02*
D03*
X5517800D02*
D03*
D56*
X5765800Y4143600D02*
D03*
Y3933600D02*
D03*
X5981700D02*
D03*
Y4143600D02*
D03*
X1808000Y1857600D02*
D03*
Y1647600D02*
D03*
X1985800Y1857600D02*
D03*
Y1647600D02*
D03*
X3500000Y495000D02*
D03*
Y705000D02*
D03*
X4000000Y495000D02*
D03*
Y705000D02*
D03*
X6517300Y2033300D02*
D03*
Y1823300D02*
D03*
X5602900Y2033300D02*
D03*
Y1823300D02*
D03*
X5907700Y2033300D02*
D03*
Y1823300D02*
D03*
X6212500Y2033300D02*
D03*
Y1823300D02*
D03*
D57*
X6362700Y5589600D02*
D03*
Y5789600D02*
D03*
X1710000Y1220000D02*
D03*
Y1420000D02*
D03*
X2260000Y2990000D02*
D03*
Y3190000D02*
D03*
X1473200Y3402000D02*
D03*
Y3202000D02*
D03*
X2080000Y3420000D02*
D03*
Y3620000D02*
D03*
X1860000Y3420000D02*
D03*
Y3620000D02*
D03*
X1473200Y3595700D02*
D03*
Y3795700D02*
D03*
X2300000Y3420000D02*
D03*
Y3620000D02*
D03*
D58*
X6242300Y3943600D02*
D03*
Y4133600D02*
D03*
X6432300Y4038600D02*
D03*
D59*
X1670000Y3200300D02*
D03*
Y3340000D02*
D03*
Y3479700D02*
D03*
D60*
X1727500Y4060000D02*
D03*
X1872500D02*
D03*
X1515000Y2108200D02*
D03*
X1660000D02*
D03*
X4777500Y3960000D02*
D03*
X4922500D02*
D03*
X5237500Y3280000D02*
D03*
X5382500D02*
D03*
X3496200Y4267200D02*
D03*
X3641200D02*
D03*
X5721300Y3035300D02*
D03*
X5866300D02*
D03*
X5879000Y2425700D02*
D03*
X5734000D02*
D03*
D61*
X1416300Y1668600D02*
D03*
X1511300D02*
D03*
X1606300D02*
D03*
Y1963600D02*
D03*
X1511300D02*
D03*
X1416300D02*
D03*
X1670300Y4279700D02*
D03*
X1765300D02*
D03*
X1860300D02*
D03*
Y4574700D02*
D03*
X1765300D02*
D03*
X1670300D02*
D03*
D62*
X4905300Y3724200D02*
D03*
X3705300Y2524200D02*
D03*
D63*
X3980650Y3714350D02*
D03*
X3930650D02*
D03*
X4030650D02*
D03*
X4230649D02*
D03*
X4180649D02*
D03*
X4280649D02*
D03*
X4080649D02*
D03*
X4130649D02*
D03*
X4530649D02*
D03*
X4480649D02*
D03*
X4580648D02*
D03*
X4380649D02*
D03*
X4330649D02*
D03*
X4430649D02*
D03*
X4680648D02*
D03*
X4630648D02*
D03*
X4079951Y2534050D02*
D03*
X4029951D02*
D03*
X4129951D02*
D03*
X3929951D02*
D03*
X3979951D02*
D03*
X4329950D02*
D03*
X4279951D02*
D03*
X4379950D02*
D03*
X4179951D02*
D03*
X4229951D02*
D03*
X4579950D02*
D03*
X4529950D02*
D03*
X4629950D02*
D03*
X4429950D02*
D03*
X4479950D02*
D03*
X4679950D02*
D03*
D64*
X3715150Y3249548D02*
D03*
Y3199549D02*
D03*
Y3299548D02*
D03*
Y3099549D02*
D03*
Y3149549D02*
D03*
Y3449548D02*
D03*
Y3399548D02*
D03*
Y3499548D02*
D03*
Y3349548D02*
D03*
X4895450Y3199549D02*
D03*
Y3149549D02*
D03*
Y3249548D02*
D03*
Y3099549D02*
D03*
Y3449548D02*
D03*
Y3399548D02*
D03*
Y3499548D02*
D03*
Y3299548D02*
D03*
Y3349548D02*
D03*
X3715150Y2949549D02*
D03*
Y2899549D02*
D03*
Y2999549D02*
D03*
Y2849549D02*
D03*
Y2799550D02*
D03*
Y3049549D02*
D03*
X3715150Y2749550D02*
D03*
X4895450Y2799549D02*
D03*
Y2849549D02*
D03*
Y2749550D02*
D03*
Y2999549D02*
D03*
Y2949549D02*
D03*
Y3049549D02*
D03*
Y2899549D02*
D03*
D65*
X6517300Y1604600D02*
D03*
Y1464600D02*
D03*
X5602900Y1604600D02*
D03*
Y1464600D02*
D03*
X5907700Y1604600D02*
D03*
Y1464600D02*
D03*
X6212500Y1604600D02*
D03*
Y1464600D02*
D03*
D66*
X3040000Y1720000D02*
D03*
X3240000D02*
D03*
X2725000Y3650000D02*
D03*
X2925000D02*
D03*
D67*
X4130000Y4082500D02*
D03*
Y3937500D02*
D03*
X3960000D02*
D03*
Y4082500D02*
D03*
X3780000Y3937500D02*
D03*
Y4082500D02*
D03*
X3480000Y2732500D02*
D03*
Y2587500D02*
D03*
X4740000Y2332500D02*
D03*
Y2187500D02*
D03*
X5110000Y2447500D02*
D03*
Y2592500D02*
D03*
D68*
X2755000Y4050000D02*
D03*
X2895000D02*
D03*
D69*
X1993900Y3133700D02*
D03*
Y2733700D02*
D03*
D70*
X2507503Y3404903D02*
D03*
X2967503D02*
D03*
X2737503D02*
D03*
D71*
Y2799903D02*
D03*
D72*
X6527800Y4787900D02*
D03*
X6388100D02*
D03*
X6248400D02*
D03*
X6527800Y4559300D02*
D03*
X6388100D02*
D03*
X6248400D02*
D03*
D73*
X5713800Y2620500D02*
D03*
Y2840500D02*
D03*
X5873800D02*
D03*
Y2620500D02*
D03*
D74*
X961200Y1963420D02*
D03*
Y1883410D02*
D03*
Y1803400D02*
D03*
Y1723390D02*
D03*
Y1643380D02*
D03*
D75*
X966200Y1318420D02*
D03*
Y2288420D02*
D03*
X466200Y1318420D02*
D03*
Y2288420D02*
D03*
D76*
X351200Y1803690D02*
D03*
D77*
X1400000Y400000D02*
D03*
X3390900Y3149600D02*
D03*
X1200000Y4500000D02*
D03*
X800000D02*
D03*
X399999D02*
D03*
D78*
X1400000Y654000D02*
D03*
Y908000D02*
D03*
X3390900Y3403600D02*
D03*
X3784600Y4635500D02*
D03*
X4038600D02*
D03*
X3022600D02*
D03*
X3530600D02*
D03*
X3276600D02*
D03*
X2446000Y2500000D02*
D03*
X1200000Y2976000D02*
D03*
Y2722000D02*
D03*
Y3484000D02*
D03*
Y3992000D02*
D03*
Y4246000D02*
D03*
Y3738000D02*
D03*
Y3230000D02*
D03*
X800000Y2976000D02*
D03*
Y2722000D02*
D03*
Y3484000D02*
D03*
Y3992000D02*
D03*
Y4246000D02*
D03*
Y3738000D02*
D03*
Y3230000D02*
D03*
X399999Y3484000D02*
D03*
Y3738000D02*
D03*
Y3230000D02*
D03*
Y4246000D02*
D03*
Y3992000D02*
D03*
Y2976000D02*
D03*
Y2722000D02*
D03*
D79*
X4557000Y4305300D02*
D03*
Y4051300D02*
D03*
Y4559300D02*
D03*
Y4813300D02*
D03*
Y5067300D02*
D03*
Y5321300D02*
D03*
Y5575300D02*
D03*
Y5829300D02*
D03*
X6843000D02*
D03*
Y5575300D02*
D03*
Y5321300D02*
D03*
Y5067300D02*
D03*
Y4813300D02*
D03*
Y4559300D02*
D03*
Y4305300D02*
D03*
Y4051300D02*
D03*
X5700000Y500000D02*
D03*
X5446000D02*
D03*
X5954000D02*
D03*
X5192000D02*
D03*
X4938000D02*
D03*
X6716000D02*
D03*
X6208000D02*
D03*
X6462000D02*
D03*
X1950000Y1270000D02*
D03*
X2204000D02*
D03*
X2458000D02*
D03*
X2712000D02*
D03*
X2966000D02*
D03*
X3220000D02*
D03*
X3474000D02*
D03*
X3728000D02*
D03*
X3982000D02*
D03*
X4236000D02*
D03*
X3810000Y2032000D02*
D03*
X4064000D02*
D03*
X3556000D02*
D03*
X3302000D02*
D03*
X3048000D02*
D03*
D80*
X3995300Y3124200D02*
D03*
X4615300D02*
D03*
X686200Y2023110D02*
D03*
Y1583690D02*
D03*
D81*
X2768600Y4635500D02*
D03*
X2700000Y2500000D02*
D03*
D82*
X700000Y700000D02*
D03*
Y5300000D02*
D03*
X2500000Y2000000D02*
D03*
D83*
X6670000Y2480000D02*
D03*
X6910000Y2380000D02*
D03*
Y2250000D02*
D03*
X6670000Y2350000D02*
D03*
%TF.MD5,8bc6e2442a5034fac627385f4694fd4d*%
M02*
