%TF.GenerationSoftware,Altium Limited,Altium Designer,25.3.3 (18)*%
G04 Layer_Physical_Order=2*
G04 Layer_Color=16711680*
%FSLAX45Y45*%
%MOMM*%
%TF.SameCoordinates,566CE66E-0970-42B3-A130-ADE81A1B3EF9*%
%TF.FilePolarity,Positive*%
%TF.FileFunction,Copper,L2,Bot,Signal*%
%TF.Part,Single*%
G01*
G75*
%TA.AperFunction,Conductor*%
%ADD32C,0.20000*%
%ADD33C,1.00000*%
%TA.AperFunction,ComponentPad*%
%ADD38R,1.65000X1.65000*%
%ADD39C,1.65000*%
%ADD40C,1.60000*%
%ADD41C,1.00000*%
%ADD42R,1.65000X1.65000*%
%ADD43C,6.00000*%
%TA.AperFunction,ViaPad*%
%ADD44C,0.80000*%
%ADD45C,1.27000*%
%TA.AperFunction,SMDPad,CuDef*%
%ADD46R,2.10000X3.85000*%
%ADD47R,3.85000X2.10000*%
%TA.AperFunction,Conductor*%
%ADD48C,0.50000*%
G36*
X7149022Y50978D02*
X50978D01*
Y6249022D01*
X7149022D01*
Y50978D01*
D02*
G37*
%LPC*%
G36*
X6856876Y5934700D02*
X6855700D01*
Y5842000D01*
X6948400D01*
Y5843176D01*
X6941217Y5869983D01*
X6927341Y5894017D01*
X6907717Y5913641D01*
X6883683Y5927517D01*
X6856876Y5934700D01*
D02*
G37*
G36*
X6830300D02*
X6829124D01*
X6802317Y5927517D01*
X6778283Y5913641D01*
X6758659Y5894017D01*
X6744783Y5869983D01*
X6737600Y5843176D01*
Y5842000D01*
X6830300D01*
Y5934700D01*
D02*
G37*
G36*
X6948400Y5816600D02*
X6855700D01*
Y5723900D01*
X6856876D01*
X6883683Y5731083D01*
X6907717Y5744959D01*
X6927341Y5764583D01*
X6941217Y5788617D01*
X6948400Y5815424D01*
Y5816600D01*
D02*
G37*
G36*
X6395200Y6070604D02*
X2901200D01*
X2882926Y6068198D01*
X2865898Y6061145D01*
X2851275Y6049924D01*
X2159876Y5358524D01*
X2148655Y5343902D01*
X2141602Y5326873D01*
X2139196Y5308600D01*
Y4030200D01*
X2141602Y4011926D01*
X2148655Y3994898D01*
X2159876Y3980276D01*
X2418460Y3721691D01*
X2422190Y3707770D01*
X2429396Y3695289D01*
Y3574711D01*
X2422190Y3562230D01*
X2416500Y3540993D01*
Y3519007D01*
X2422190Y3497770D01*
X2433183Y3478730D01*
X2448730Y3463183D01*
X2467770Y3452190D01*
X2489007Y3446500D01*
X2510993D01*
X2532230Y3452190D01*
X2551270Y3463183D01*
X2566817Y3478730D01*
X2577810Y3497770D01*
X2583500Y3519007D01*
Y3540993D01*
X2577810Y3562230D01*
X2570604Y3574711D01*
Y3695289D01*
X2577810Y3707770D01*
X2583500Y3729007D01*
Y3750993D01*
X2577810Y3772230D01*
X2566817Y3791270D01*
X2551270Y3806817D01*
X2532230Y3817809D01*
X2518309Y3821539D01*
X2280404Y4059445D01*
Y5279355D01*
X2930445Y5929396D01*
X4325310D01*
X4338795Y5909715D01*
X4338761Y5909396D01*
X4336396Y5891432D01*
Y5818745D01*
X4232651Y5715000D01*
X3907500D01*
Y5465000D01*
X4332500D01*
Y5615151D01*
X4456925Y5739576D01*
X4462333Y5746624D01*
X4483784Y5750404D01*
X4487816Y5749426D01*
X4492283Y5744959D01*
X4516317Y5731083D01*
X4543124Y5723900D01*
X4544300D01*
Y5829300D01*
X4557000D01*
Y5842000D01*
X4662400D01*
Y5843176D01*
X4655217Y5869983D01*
X4641341Y5894017D01*
X4625962Y5909396D01*
X4631269Y5927076D01*
X4632918Y5929396D01*
X6365955D01*
X6746581Y5548770D01*
X6749815Y5536702D01*
X6762980Y5513899D01*
X6781599Y5495280D01*
X6804402Y5482115D01*
X6829835Y5475300D01*
X6856165D01*
X6881598Y5482115D01*
X6904401Y5495280D01*
X6923020Y5513899D01*
X6936185Y5536702D01*
X6943000Y5562135D01*
Y5588465D01*
X6936185Y5613898D01*
X6923020Y5636701D01*
X6904401Y5655320D01*
X6881598Y5668485D01*
X6856165Y5675300D01*
X6829835D01*
X6821880Y5673168D01*
X6764297Y5730752D01*
X6778283Y5744959D01*
X6802317Y5731083D01*
X6829124Y5723900D01*
X6830300D01*
Y5816600D01*
X6737600D01*
Y5815424D01*
X6744783Y5788617D01*
X6758659Y5764583D01*
X6744452Y5750597D01*
X6445125Y6049924D01*
X6430502Y6061145D01*
X6413474Y6068198D01*
X6395200Y6070604D01*
D02*
G37*
G36*
X4662400Y5816600D02*
X4569700D01*
Y5723900D01*
X4570876D01*
X4597683Y5731083D01*
X4621717Y5744959D01*
X4641341Y5764583D01*
X4655217Y5788617D01*
X4662400Y5815424D01*
Y5816600D01*
D02*
G37*
G36*
X3657900Y5720400D02*
X3452700D01*
Y5602699D01*
X3657900D01*
Y5720400D01*
D02*
G37*
G36*
X3427300D02*
X3222100D01*
Y5602699D01*
X3427300D01*
Y5720400D01*
D02*
G37*
G36*
X4570165Y5675300D02*
X4543835D01*
X4518402Y5668485D01*
X4495599Y5655320D01*
X4476980Y5636701D01*
X4463815Y5613898D01*
X4457000Y5588465D01*
Y5562135D01*
X4463815Y5536702D01*
X4476980Y5513899D01*
X4495599Y5495280D01*
X4518402Y5482115D01*
X4543835Y5475300D01*
X4570165D01*
X4595598Y5482115D01*
X4618401Y5495280D01*
X4637020Y5513899D01*
X4650185Y5536702D01*
X4657000Y5562135D01*
Y5588465D01*
X4650185Y5613898D01*
X4637020Y5636701D01*
X4618401Y5655320D01*
X4595598Y5668485D01*
X4570165Y5675300D01*
D02*
G37*
G36*
X3657900Y5577299D02*
X3452700D01*
Y5459600D01*
X3657900D01*
Y5577299D01*
D02*
G37*
G36*
X3427300D02*
X3222100D01*
Y5459600D01*
X3427300D01*
Y5577299D01*
D02*
G37*
G36*
X6856165Y5421300D02*
X6829835D01*
X6804402Y5414485D01*
X6781599Y5401320D01*
X6762980Y5382701D01*
X6749815Y5359898D01*
X6743000Y5334465D01*
Y5308135D01*
X6749815Y5282702D01*
X6762980Y5259899D01*
X6781599Y5241280D01*
X6804402Y5228115D01*
X6829835Y5221300D01*
X6856165D01*
X6881598Y5228115D01*
X6904401Y5241280D01*
X6923020Y5259899D01*
X6936185Y5282702D01*
X6943000Y5308135D01*
Y5334465D01*
X6936185Y5359898D01*
X6923020Y5382701D01*
X6904401Y5401320D01*
X6881598Y5414485D01*
X6856165Y5421300D01*
D02*
G37*
G36*
X4570165D02*
X4543835D01*
X4518402Y5414485D01*
X4495599Y5401320D01*
X4476980Y5382701D01*
X4463815Y5359898D01*
X4457000Y5334465D01*
Y5308135D01*
X4463815Y5282702D01*
X4476980Y5259899D01*
X4495599Y5241280D01*
X4518402Y5228115D01*
X4543835Y5221300D01*
X4570165D01*
X4595598Y5228115D01*
X4618401Y5241280D01*
X4637020Y5259899D01*
X4650185Y5282702D01*
X4657000Y5308135D01*
Y5334465D01*
X4650185Y5359898D01*
X4637020Y5382701D01*
X4618401Y5401320D01*
X4595598Y5414485D01*
X4570165Y5421300D01*
D02*
G37*
G36*
X6856165Y5167300D02*
X6829835D01*
X6804402Y5160485D01*
X6781599Y5147320D01*
X6762980Y5128701D01*
X6749815Y5105898D01*
X6743000Y5080465D01*
Y5054135D01*
X6749815Y5028702D01*
X6762980Y5005899D01*
X6781599Y4987280D01*
X6804402Y4974115D01*
X6829835Y4967300D01*
X6856165D01*
X6881598Y4974115D01*
X6904401Y4987280D01*
X6923020Y5005899D01*
X6936185Y5028702D01*
X6943000Y5054135D01*
Y5080465D01*
X6936185Y5105898D01*
X6923020Y5128701D01*
X6904401Y5147320D01*
X6881598Y5160485D01*
X6856165Y5167300D01*
D02*
G37*
G36*
X4570165D02*
X4543835D01*
X4518402Y5160485D01*
X4495599Y5147320D01*
X4476980Y5128701D01*
X4463815Y5105898D01*
X4457000Y5080465D01*
Y5054135D01*
X4463815Y5028702D01*
X4476980Y5005899D01*
X4495599Y4987280D01*
X4518402Y4974115D01*
X4543835Y4967300D01*
X4570165D01*
X4595598Y4974115D01*
X4618401Y4987280D01*
X4637020Y5005899D01*
X4650185Y5028702D01*
X4657000Y5054135D01*
Y5080465D01*
X4650185Y5105898D01*
X4637020Y5128701D01*
X4618401Y5147320D01*
X4595598Y5160485D01*
X4570165Y5167300D01*
D02*
G37*
G36*
X6856165Y4913300D02*
X6829835D01*
X6804402Y4906485D01*
X6781599Y4893320D01*
X6762980Y4874701D01*
X6749815Y4851898D01*
X6743000Y4826465D01*
Y4800135D01*
X6749815Y4774702D01*
X6762980Y4751899D01*
X6781599Y4733280D01*
X6804402Y4720115D01*
X6829835Y4713300D01*
X6856165D01*
X6881598Y4720115D01*
X6904401Y4733280D01*
X6923020Y4751899D01*
X6936185Y4774702D01*
X6943000Y4800135D01*
Y4826465D01*
X6936185Y4851898D01*
X6923020Y4874701D01*
X6904401Y4893320D01*
X6881598Y4906485D01*
X6856165Y4913300D01*
D02*
G37*
G36*
X4570165D02*
X4543835D01*
X4518402Y4906485D01*
X4495599Y4893320D01*
X4476980Y4874701D01*
X4463815Y4851898D01*
X4457000Y4826465D01*
Y4800135D01*
X4463815Y4774702D01*
X4476980Y4751899D01*
X4495599Y4733280D01*
X4518402Y4720115D01*
X4543835Y4713300D01*
X4570165D01*
X4595598Y4720115D01*
X4618401Y4733280D01*
X4637020Y4751899D01*
X4650185Y4774702D01*
X4657000Y4800135D01*
Y4826465D01*
X4650185Y4851898D01*
X4637020Y4874701D01*
X4618401Y4893320D01*
X4595598Y4906485D01*
X4570165Y4913300D01*
D02*
G37*
G36*
X4052805Y4743400D02*
X4051300D01*
Y4648200D01*
X4146500D01*
Y4649705D01*
X4139147Y4677148D01*
X4124941Y4701752D01*
X4104852Y4721841D01*
X4080248Y4736047D01*
X4052805Y4743400D01*
D02*
G37*
G36*
X4025900D02*
X4024395D01*
X3996952Y4736047D01*
X3972348Y4721841D01*
X3952259Y4701752D01*
X3938053Y4677148D01*
X3930700Y4649705D01*
Y4648200D01*
X4025900D01*
Y4743400D01*
D02*
G37*
G36*
X3798094Y4738000D02*
X3771106D01*
X3745036Y4731015D01*
X3721664Y4717520D01*
X3702580Y4698436D01*
X3689085Y4675064D01*
X3682100Y4648994D01*
Y4622006D01*
X3689085Y4595936D01*
X3702580Y4572564D01*
X3721664Y4553480D01*
X3745036Y4539985D01*
X3771106Y4533000D01*
X3798094D01*
X3824164Y4539985D01*
X3847536Y4553480D01*
X3866620Y4572564D01*
X3880115Y4595936D01*
X3887100Y4622006D01*
Y4648994D01*
X3880115Y4675064D01*
X3866620Y4698436D01*
X3847536Y4717520D01*
X3824164Y4731015D01*
X3798094Y4738000D01*
D02*
G37*
G36*
X3544094D02*
X3517106D01*
X3491036Y4731015D01*
X3467664Y4717520D01*
X3448580Y4698436D01*
X3435085Y4675064D01*
X3428100Y4648994D01*
Y4622006D01*
X3435085Y4595936D01*
X3448580Y4572564D01*
X3467664Y4553480D01*
X3491036Y4539985D01*
X3517106Y4533000D01*
X3544094D01*
X3570164Y4539985D01*
X3593536Y4553480D01*
X3612620Y4572564D01*
X3626115Y4595936D01*
X3633100Y4622006D01*
Y4648994D01*
X3626115Y4675064D01*
X3612620Y4698436D01*
X3593536Y4717520D01*
X3570164Y4731015D01*
X3544094Y4738000D01*
D02*
G37*
G36*
X3290094D02*
X3263106D01*
X3237036Y4731015D01*
X3213664Y4717520D01*
X3194580Y4698436D01*
X3181085Y4675064D01*
X3174100Y4648994D01*
Y4622006D01*
X3181085Y4595936D01*
X3194580Y4572564D01*
X3213664Y4553480D01*
X3237036Y4539985D01*
X3263106Y4533000D01*
X3290094D01*
X3316164Y4539985D01*
X3339536Y4553480D01*
X3358620Y4572564D01*
X3372115Y4595936D01*
X3379100Y4622006D01*
Y4648994D01*
X3372115Y4675064D01*
X3358620Y4698436D01*
X3339536Y4717520D01*
X3316164Y4731015D01*
X3290094Y4738000D01*
D02*
G37*
G36*
X3036094D02*
X3009106D01*
X2983036Y4731015D01*
X2959664Y4717520D01*
X2940580Y4698436D01*
X2927085Y4675064D01*
X2920100Y4648994D01*
Y4622006D01*
X2927085Y4595936D01*
X2940580Y4572564D01*
X2959664Y4553480D01*
X2983036Y4539985D01*
X3009106Y4533000D01*
X3036094D01*
X3062164Y4539985D01*
X3085536Y4553480D01*
X3104620Y4572564D01*
X3118115Y4595936D01*
X3125100Y4622006D01*
Y4648994D01*
X3118115Y4675064D01*
X3104620Y4698436D01*
X3085536Y4717520D01*
X3062164Y4731015D01*
X3036094Y4738000D01*
D02*
G37*
G36*
X2871100D02*
X2666100D01*
Y4533000D01*
X2871100D01*
Y4738000D01*
D02*
G37*
G36*
X4146500Y4622800D02*
X4051300D01*
Y4527600D01*
X4052805D01*
X4080248Y4534953D01*
X4104852Y4549159D01*
X4124941Y4569248D01*
X4139147Y4593852D01*
X4146500Y4621295D01*
Y4622800D01*
D02*
G37*
G36*
X4025900D02*
X3930700D01*
Y4621295D01*
X3938053Y4593852D01*
X3952259Y4569248D01*
X3972348Y4549159D01*
X3996952Y4534953D01*
X4024395Y4527600D01*
X4025900D01*
Y4622800D01*
D02*
G37*
G36*
X6856165Y4659300D02*
X6829835D01*
X6804402Y4652485D01*
X6781599Y4639320D01*
X6762980Y4620701D01*
X6749815Y4597898D01*
X6743000Y4572465D01*
Y4546135D01*
X6749815Y4520702D01*
X6762980Y4497899D01*
X6781599Y4479280D01*
X6804402Y4466115D01*
X6829835Y4459300D01*
X6856165D01*
X6881598Y4466115D01*
X6904401Y4479280D01*
X6923020Y4497899D01*
X6936185Y4520702D01*
X6943000Y4546135D01*
Y4572465D01*
X6936185Y4597898D01*
X6923020Y4620701D01*
X6904401Y4639320D01*
X6881598Y4652485D01*
X6856165Y4659300D01*
D02*
G37*
G36*
X4570165D02*
X4543835D01*
X4518402Y4652485D01*
X4495599Y4639320D01*
X4476980Y4620701D01*
X4463815Y4597898D01*
X4457000Y4572465D01*
Y4546135D01*
X4463815Y4520702D01*
X4476980Y4497899D01*
X4495599Y4479280D01*
X4518402Y4466115D01*
X4543835Y4459300D01*
X4570165D01*
X4595598Y4466115D01*
X4618401Y4479280D01*
X4637020Y4497899D01*
X4650185Y4520702D01*
X4657000Y4546135D01*
Y4572465D01*
X4650185Y4597898D01*
X4637020Y4620701D01*
X4618401Y4639320D01*
X4595598Y4652485D01*
X4570165Y4659300D01*
D02*
G37*
G36*
X1302500Y4602500D02*
X1097500D01*
Y4397500D01*
X1302500D01*
Y4602500D01*
D02*
G37*
G36*
X902500D02*
X697500D01*
Y4397500D01*
X902500D01*
Y4602500D01*
D02*
G37*
G36*
X502499D02*
X297500D01*
Y4397500D01*
X502499D01*
Y4602500D01*
D02*
G37*
G36*
X6161935Y5010000D02*
X6138065D01*
X6116013Y5000866D01*
X6099134Y4983987D01*
X6090000Y4961935D01*
Y4938065D01*
X6099134Y4916013D01*
X6116013Y4899134D01*
X6138065Y4890000D01*
X6161935D01*
X6176815Y4896163D01*
X6745433Y4327545D01*
X6743000Y4318465D01*
Y4292135D01*
X6749815Y4266702D01*
X6762980Y4243899D01*
X6781599Y4225280D01*
X6804402Y4212115D01*
X6829835Y4205300D01*
X6856165D01*
X6881598Y4212115D01*
X6904401Y4225280D01*
X6923020Y4243899D01*
X6936185Y4266702D01*
X6943000Y4292135D01*
Y4318465D01*
X6936185Y4343898D01*
X6923020Y4366701D01*
X6904401Y4385320D01*
X6881598Y4398485D01*
X6856165Y4405300D01*
X6829835D01*
X6804402Y4398485D01*
X6781599Y4385320D01*
X6777886Y4381607D01*
X6210000Y4949494D01*
Y4961935D01*
X6200865Y4983987D01*
X6183987Y5000866D01*
X6161935Y5010000D01*
D02*
G37*
G36*
X1213494Y4348500D02*
X1186506D01*
X1160436Y4341515D01*
X1137064Y4328020D01*
X1117979Y4308936D01*
X1104485Y4285563D01*
X1097500Y4259494D01*
Y4232506D01*
X1104485Y4206436D01*
X1117979Y4183064D01*
X1137064Y4163979D01*
X1160436Y4150485D01*
X1186506Y4143500D01*
X1213494D01*
X1239563Y4150485D01*
X1262936Y4163979D01*
X1282020Y4183064D01*
X1295515Y4206436D01*
X1302500Y4232506D01*
Y4259494D01*
X1295515Y4285563D01*
X1282020Y4308936D01*
X1262936Y4328020D01*
X1239563Y4341515D01*
X1213494Y4348500D01*
D02*
G37*
G36*
X813494D02*
X786506D01*
X760436Y4341515D01*
X737064Y4328020D01*
X717980Y4308936D01*
X704485Y4285563D01*
X697500Y4259494D01*
Y4232506D01*
X704485Y4206436D01*
X717980Y4183064D01*
X737064Y4163979D01*
X760436Y4150485D01*
X786506Y4143500D01*
X813494D01*
X839563Y4150485D01*
X862936Y4163979D01*
X882020Y4183064D01*
X895515Y4206436D01*
X902500Y4232506D01*
Y4259494D01*
X895515Y4285563D01*
X882020Y4308936D01*
X862936Y4328020D01*
X839563Y4341515D01*
X813494Y4348500D01*
D02*
G37*
G36*
X413494D02*
X386505D01*
X360436Y4341515D01*
X337063Y4328020D01*
X317979Y4308936D01*
X304485Y4285563D01*
X297500Y4259494D01*
Y4232506D01*
X304485Y4206436D01*
X317979Y4183064D01*
X337063Y4163979D01*
X360436Y4150485D01*
X386505Y4143500D01*
X413494D01*
X439563Y4150485D01*
X462936Y4163979D01*
X482020Y4183064D01*
X495514Y4206436D01*
X502499Y4232506D01*
Y4259494D01*
X495514Y4285563D01*
X482020Y4308936D01*
X462936Y4328020D01*
X439563Y4341515D01*
X413494Y4348500D01*
D02*
G37*
G36*
X4570165Y4405300D02*
X4543835D01*
X4518402Y4398485D01*
X4495599Y4385320D01*
X4476980Y4366701D01*
X4463815Y4343898D01*
X4457000Y4318465D01*
Y4292135D01*
X4463815Y4266702D01*
X4476980Y4243899D01*
X4495599Y4225280D01*
X4518402Y4212115D01*
X4543835Y4205300D01*
X4570165D01*
X4595598Y4212115D01*
X4602780Y4216262D01*
X4636412Y4182630D01*
Y4138780D01*
X4631865Y4136896D01*
X4616412Y4132468D01*
X4595598Y4144485D01*
X4570165Y4151300D01*
X4543835D01*
X4518402Y4144485D01*
X4495599Y4131320D01*
X4476980Y4112701D01*
X4463815Y4089898D01*
X4457000Y4064465D01*
Y4038135D01*
X4463815Y4012702D01*
X4476980Y3989899D01*
X4495599Y3971280D01*
X4518402Y3958115D01*
X4526412Y3955968D01*
Y3709670D01*
X4365334Y3548592D01*
X4361935Y3550000D01*
X4338065D01*
X4316013Y3540865D01*
X4308066Y3532918D01*
X4295000Y3526134D01*
X4281934Y3532918D01*
X4273987Y3540865D01*
X4251935Y3550000D01*
X4228065D01*
X4206013Y3540865D01*
X4189134Y3523987D01*
X4180000Y3501935D01*
Y3478065D01*
X4189134Y3456013D01*
X4206013Y3439134D01*
X4228065Y3430000D01*
X4240506D01*
X4287905Y3382602D01*
X4287905Y3382601D01*
X4297828Y3375970D01*
X4309534Y3373642D01*
X4363223D01*
X4363225Y3373642D01*
X4374930Y3375970D01*
X4384854Y3382601D01*
X4457365Y3455113D01*
X4476981Y3451211D01*
X4479135Y3446013D01*
X4496013Y3429134D01*
X4518065Y3420000D01*
X4541935D01*
X4563987Y3429134D01*
X4580866Y3446013D01*
X4582274Y3449412D01*
X5214214D01*
X5214215Y3449412D01*
X5225921Y3451741D01*
X5235844Y3458371D01*
X5243185Y3465712D01*
X5258065Y3459548D01*
X5281935D01*
X5303987Y3468683D01*
X5320865Y3485561D01*
X5330000Y3507614D01*
Y3531483D01*
X5329961Y3531577D01*
X5341823Y3548707D01*
X5358410Y3547762D01*
X5359135Y3546013D01*
X5376013Y3529134D01*
X5398065Y3520000D01*
X5421935D01*
X5443987Y3529134D01*
X5460866Y3546013D01*
X5470000Y3568065D01*
Y3591935D01*
X5460866Y3613987D01*
X5443987Y3630865D01*
X5421935Y3640000D01*
X5398065D01*
X5376013Y3630865D01*
X5362785Y3617638D01*
X5310954D01*
X5310700Y3617808D01*
X5298995Y3620136D01*
X5298993Y3620136D01*
X5241005D01*
X5236191Y3619178D01*
X5219702Y3633520D01*
Y3640632D01*
X5210568Y3662685D01*
X5193690Y3679563D01*
X5171637Y3688697D01*
X5147768D01*
X5125715Y3679563D01*
X5108837Y3662685D01*
X5099703Y3640632D01*
Y3616763D01*
X5108837Y3594710D01*
X5125715Y3577832D01*
X5147768Y3568697D01*
X5171637D01*
X5186138Y3574704D01*
X5195421Y3565421D01*
X5205344Y3558791D01*
X5212292Y3537017D01*
X5210000Y3531483D01*
Y3519042D01*
X5201545Y3510588D01*
X4582274D01*
X4580866Y3513987D01*
X4563987Y3530865D01*
X4556510Y3533963D01*
X4551817Y3557554D01*
X4688629Y3694366D01*
X4695259Y3704290D01*
X4697588Y3715995D01*
X4697588Y3715996D01*
Y4195299D01*
X4697588Y4195300D01*
X4695259Y4207005D01*
X4688629Y4216929D01*
X4646038Y4259520D01*
X4650185Y4266702D01*
X4657000Y4292135D01*
Y4318465D01*
X4650185Y4343898D01*
X4637020Y4366701D01*
X4618401Y4385320D01*
X4595598Y4398485D01*
X4570165Y4405300D01*
D02*
G37*
G36*
X6856165Y4151300D02*
X6829835D01*
X6804402Y4144485D01*
X6781599Y4131320D01*
X6762980Y4112701D01*
X6749815Y4089898D01*
X6743000Y4064465D01*
Y4038135D01*
X6749815Y4012702D01*
X6762980Y3989899D01*
X6781599Y3971280D01*
X6804402Y3958115D01*
X6829835Y3951300D01*
X6856165D01*
X6881598Y3958115D01*
X6904401Y3971280D01*
X6923020Y3989899D01*
X6936185Y4012702D01*
X6943000Y4038135D01*
Y4064465D01*
X6936185Y4089898D01*
X6923020Y4112701D01*
X6904401Y4131320D01*
X6881598Y4144485D01*
X6856165Y4151300D01*
D02*
G37*
G36*
X1213494Y4094500D02*
X1186506D01*
X1160436Y4087515D01*
X1137064Y4074020D01*
X1117979Y4054936D01*
X1104485Y4031563D01*
X1097500Y4005494D01*
Y3978506D01*
X1104485Y3952436D01*
X1117979Y3929064D01*
X1137064Y3909979D01*
X1160436Y3896485D01*
X1186506Y3889500D01*
X1213494D01*
X1239563Y3896485D01*
X1262936Y3909979D01*
X1282020Y3929064D01*
X1295515Y3952436D01*
X1302500Y3978506D01*
Y4005494D01*
X1295515Y4031563D01*
X1282020Y4054936D01*
X1262936Y4074020D01*
X1239563Y4087515D01*
X1213494Y4094500D01*
D02*
G37*
G36*
X813494D02*
X786506D01*
X760436Y4087515D01*
X737064Y4074020D01*
X717980Y4054936D01*
X704485Y4031563D01*
X697500Y4005494D01*
Y3978506D01*
X704485Y3952436D01*
X717980Y3929064D01*
X737064Y3909979D01*
X760436Y3896485D01*
X786506Y3889500D01*
X813494D01*
X839563Y3896485D01*
X862936Y3909979D01*
X882020Y3929064D01*
X895515Y3952436D01*
X902500Y3978506D01*
Y4005494D01*
X895515Y4031563D01*
X882020Y4054936D01*
X862936Y4074020D01*
X839563Y4087515D01*
X813494Y4094500D01*
D02*
G37*
G36*
X413494D02*
X386505D01*
X360436Y4087515D01*
X337063Y4074020D01*
X317979Y4054936D01*
X304485Y4031563D01*
X297500Y4005494D01*
Y3978506D01*
X304485Y3952436D01*
X317979Y3929064D01*
X337063Y3909979D01*
X360436Y3896485D01*
X386505Y3889500D01*
X413494D01*
X439563Y3896485D01*
X462936Y3909979D01*
X482020Y3929064D01*
X495514Y3952436D01*
X502499Y3978506D01*
Y4005494D01*
X495514Y4031563D01*
X482020Y4054936D01*
X462936Y4074020D01*
X439563Y4087515D01*
X413494Y4094500D01*
D02*
G37*
G36*
X1213494Y3840500D02*
X1186506D01*
X1160436Y3833515D01*
X1137064Y3820020D01*
X1117979Y3800936D01*
X1104485Y3777563D01*
X1097500Y3751494D01*
Y3724506D01*
X1104485Y3698436D01*
X1117979Y3675064D01*
X1137064Y3655979D01*
X1160436Y3642485D01*
X1186506Y3635500D01*
X1213494D01*
X1239563Y3642485D01*
X1262936Y3655979D01*
X1282020Y3675064D01*
X1295515Y3698436D01*
X1302500Y3724506D01*
Y3751494D01*
X1295515Y3777563D01*
X1282020Y3800936D01*
X1262936Y3820020D01*
X1239563Y3833515D01*
X1213494Y3840500D01*
D02*
G37*
G36*
X813494D02*
X786506D01*
X760436Y3833515D01*
X737064Y3820020D01*
X717980Y3800936D01*
X704485Y3777563D01*
X697500Y3751494D01*
Y3724506D01*
X704485Y3698436D01*
X717980Y3675064D01*
X737064Y3655979D01*
X760436Y3642485D01*
X786506Y3635500D01*
X813494D01*
X839563Y3642485D01*
X862936Y3655979D01*
X882020Y3675064D01*
X895515Y3698436D01*
X902500Y3724506D01*
Y3751494D01*
X895515Y3777563D01*
X882020Y3800936D01*
X862936Y3820020D01*
X839563Y3833515D01*
X813494Y3840500D01*
D02*
G37*
G36*
X413494D02*
X386505D01*
X360436Y3833515D01*
X337063Y3820020D01*
X317979Y3800936D01*
X304485Y3777563D01*
X297500Y3751494D01*
Y3724506D01*
X304485Y3698436D01*
X317979Y3675064D01*
X337063Y3655979D01*
X360436Y3642485D01*
X386505Y3635500D01*
X413494D01*
X439563Y3642485D01*
X462936Y3655979D01*
X482020Y3675064D01*
X495514Y3698436D01*
X502499Y3724506D01*
Y3751494D01*
X495514Y3777563D01*
X482020Y3800936D01*
X462936Y3820020D01*
X439563Y3833515D01*
X413494Y3840500D01*
D02*
G37*
G36*
X1213494Y3586500D02*
X1186506D01*
X1160436Y3579515D01*
X1137064Y3566020D01*
X1117979Y3546936D01*
X1104485Y3523563D01*
X1097500Y3497494D01*
Y3470506D01*
X1104485Y3444436D01*
X1117979Y3421064D01*
X1137064Y3401979D01*
X1160436Y3388485D01*
X1186506Y3381500D01*
X1213494D01*
X1239563Y3388485D01*
X1262936Y3401979D01*
X1282020Y3421064D01*
X1295515Y3444436D01*
X1302500Y3470506D01*
Y3497494D01*
X1295515Y3523563D01*
X1282020Y3546936D01*
X1262936Y3566020D01*
X1239563Y3579515D01*
X1213494Y3586500D01*
D02*
G37*
G36*
X813494D02*
X786506D01*
X760436Y3579515D01*
X737064Y3566020D01*
X717980Y3546936D01*
X704485Y3523563D01*
X697500Y3497494D01*
Y3470506D01*
X704485Y3444436D01*
X717980Y3421064D01*
X737064Y3401979D01*
X760436Y3388485D01*
X786506Y3381500D01*
X813494D01*
X839563Y3388485D01*
X862936Y3401979D01*
X882020Y3421064D01*
X895515Y3444436D01*
X902500Y3470506D01*
Y3497494D01*
X895515Y3523563D01*
X882020Y3546936D01*
X862936Y3566020D01*
X839563Y3579515D01*
X813494Y3586500D01*
D02*
G37*
G36*
X413494D02*
X386505D01*
X360436Y3579515D01*
X337063Y3566020D01*
X317979Y3546936D01*
X304485Y3523563D01*
X297500Y3497494D01*
Y3470506D01*
X304485Y3444436D01*
X317979Y3421064D01*
X337063Y3401979D01*
X360436Y3388485D01*
X386505Y3381500D01*
X413494D01*
X439563Y3388485D01*
X462936Y3401979D01*
X482020Y3421064D01*
X495514Y3444436D01*
X502499Y3470506D01*
Y3497494D01*
X495514Y3523563D01*
X482020Y3546936D01*
X462936Y3566020D01*
X439563Y3579515D01*
X413494Y3586500D01*
D02*
G37*
G36*
X5121935Y3389548D02*
X5098065D01*
X5076013Y3380414D01*
X5069489Y3373890D01*
X5051628Y3367253D01*
X5041705Y3373883D01*
X5029999Y3376212D01*
X5029998Y3376211D01*
X4795625D01*
X4795624Y3376212D01*
X4783918Y3373883D01*
X4773995Y3367253D01*
X4773994Y3367252D01*
X4708371Y3301629D01*
X4701741Y3291705D01*
X4699412Y3280000D01*
X4699412Y3279999D01*
Y3164274D01*
X4696800Y3162639D01*
X4671313Y3167181D01*
X4658280Y3180214D01*
X4642319Y3189429D01*
X4624515Y3194200D01*
X4606084D01*
X4588281Y3189429D01*
X4572319Y3180214D01*
X4559286Y3167181D01*
X4550070Y3151219D01*
X4545300Y3133415D01*
Y3114984D01*
X4550070Y3097181D01*
X4559286Y3081219D01*
X4572319Y3068186D01*
X4588281Y3058970D01*
X4606084Y3054200D01*
X4624515D01*
X4642319Y3058970D01*
X4658280Y3068186D01*
X4671313Y3081219D01*
X4696800Y3085760D01*
X4699412Y3084125D01*
Y2860001D01*
X4699412Y2860000D01*
X4701741Y2848295D01*
X4708371Y2838371D01*
X4881408Y2665334D01*
X4880000Y2661935D01*
Y2638065D01*
X4889134Y2616013D01*
X4906013Y2599135D01*
X4928065Y2590000D01*
X4951935D01*
X4973987Y2599135D01*
X4990866Y2616013D01*
X5000000Y2638065D01*
Y2661935D01*
X4990866Y2683987D01*
X4973987Y2700866D01*
X4951935Y2710000D01*
X4928065D01*
X4924666Y2708592D01*
X4760588Y2872670D01*
Y3267330D01*
X4808293Y3315036D01*
X5017330D01*
X5018370Y3313995D01*
X5018371Y3313994D01*
X5028294Y3307364D01*
X5040000Y3305036D01*
X5055210D01*
X5059134Y3295561D01*
X5076013Y3278683D01*
X5098065Y3269548D01*
X5121935D01*
X5143987Y3278683D01*
X5160865Y3295561D01*
X5170000Y3317613D01*
Y3341483D01*
X5160865Y3363535D01*
X5143987Y3380414D01*
X5121935Y3389548D01*
D02*
G37*
G36*
X3286935Y4010000D02*
X3263065D01*
X3241013Y4000866D01*
X3224135Y3983987D01*
X3215000Y3961935D01*
Y3938065D01*
X3224135Y3916013D01*
X3241013Y3899134D01*
X3263065Y3890000D01*
X3286935D01*
X3290334Y3891408D01*
X3360312Y3821430D01*
Y3501520D01*
X3351336Y3499115D01*
X3327964Y3485620D01*
X3308880Y3466536D01*
X3295385Y3443164D01*
X3288400Y3417094D01*
Y3390106D01*
X3295385Y3364036D01*
X3308880Y3340664D01*
X3327964Y3321580D01*
X3351336Y3308085D01*
X3377406Y3301100D01*
X3404394D01*
X3430464Y3308085D01*
X3453836Y3321580D01*
X3472920Y3340664D01*
X3486415Y3364036D01*
X3493400Y3390106D01*
Y3417094D01*
X3486415Y3443164D01*
X3472920Y3466536D01*
X3453836Y3485620D01*
X3430464Y3499115D01*
X3421488Y3501520D01*
Y3834100D01*
X3419159Y3845805D01*
X3412529Y3855729D01*
X3412528Y3855729D01*
X3333592Y3934666D01*
X3335000Y3938065D01*
Y3961935D01*
X3325866Y3983987D01*
X3308987Y4000866D01*
X3286935Y4010000D01*
D02*
G37*
G36*
X3661935Y3760000D02*
X3638065D01*
X3616013Y3750865D01*
X3599135Y3733987D01*
X3590000Y3711935D01*
Y3688065D01*
X3599135Y3666013D01*
X3616013Y3649134D01*
X3619412Y3647726D01*
Y3580001D01*
X3619412Y3580000D01*
X3621741Y3568295D01*
X3628371Y3558371D01*
X3861408Y3325334D01*
X3860000Y3321935D01*
Y3298065D01*
X3869135Y3276013D01*
X3886013Y3259134D01*
X3908065Y3250000D01*
X3931935D01*
X3953987Y3259134D01*
X3970866Y3276013D01*
X3980000Y3298065D01*
Y3321935D01*
X3970866Y3343987D01*
X3953987Y3360866D01*
X3931935Y3370000D01*
X3908065D01*
X3904666Y3368592D01*
X3680588Y3592670D01*
Y3647726D01*
X3683987Y3649134D01*
X3700866Y3666013D01*
X3710000Y3688065D01*
Y3711935D01*
X3700866Y3733987D01*
X3683987Y3750865D01*
X3661935Y3760000D01*
D02*
G37*
G36*
X1214205Y3337900D02*
X1212700D01*
Y3242700D01*
X1307900D01*
Y3244205D01*
X1300547Y3271648D01*
X1286341Y3296252D01*
X1266252Y3316341D01*
X1241648Y3330547D01*
X1214205Y3337900D01*
D02*
G37*
G36*
X814205D02*
X812700D01*
Y3242700D01*
X907900D01*
Y3244205D01*
X900547Y3271648D01*
X886341Y3296252D01*
X866252Y3316341D01*
X841648Y3330547D01*
X814205Y3337900D01*
D02*
G37*
G36*
X414205D02*
X412699D01*
Y3242700D01*
X507899D01*
Y3244205D01*
X500546Y3271648D01*
X486341Y3296252D01*
X466252Y3316341D01*
X441647Y3330547D01*
X414205Y3337900D01*
D02*
G37*
G36*
X1187300D02*
X1185795D01*
X1158352Y3330547D01*
X1133748Y3316341D01*
X1113658Y3296252D01*
X1099453Y3271648D01*
X1092100Y3244205D01*
Y3242700D01*
X1187300D01*
Y3337900D01*
D02*
G37*
G36*
X787300D02*
X785795D01*
X758352Y3330547D01*
X733748Y3316341D01*
X713658Y3296252D01*
X699453Y3271648D01*
X692100Y3244205D01*
Y3242700D01*
X787300D01*
Y3337900D01*
D02*
G37*
G36*
X387299D02*
X385794D01*
X358352Y3330547D01*
X333747Y3316341D01*
X313658Y3296252D01*
X299453Y3271648D01*
X292099Y3244205D01*
Y3242700D01*
X387299D01*
Y3337900D01*
D02*
G37*
G36*
X3498800Y3257500D02*
X3403600D01*
Y3162300D01*
X3498800D01*
Y3257500D01*
D02*
G37*
G36*
X3378200D02*
X3283000D01*
Y3162300D01*
X3378200D01*
Y3257500D01*
D02*
G37*
G36*
X1307900Y3217300D02*
X1212700D01*
Y3122100D01*
X1214205D01*
X1241648Y3129453D01*
X1266252Y3143658D01*
X1286341Y3163748D01*
X1300547Y3188352D01*
X1307900Y3215795D01*
Y3217300D01*
D02*
G37*
G36*
X1187300D02*
X1092100D01*
Y3215795D01*
X1099453Y3188352D01*
X1113658Y3163748D01*
X1133748Y3143658D01*
X1158352Y3129453D01*
X1185795Y3122100D01*
X1187300D01*
Y3217300D01*
D02*
G37*
G36*
X907900D02*
X812700D01*
Y3122100D01*
X814205D01*
X841648Y3129453D01*
X866252Y3143658D01*
X886341Y3163748D01*
X900547Y3188352D01*
X907900Y3215795D01*
Y3217300D01*
D02*
G37*
G36*
X787300D02*
X692100D01*
Y3215795D01*
X699453Y3188352D01*
X713658Y3163748D01*
X733748Y3143658D01*
X758352Y3129453D01*
X785795Y3122100D01*
X787300D01*
Y3217300D01*
D02*
G37*
G36*
X507899D02*
X412699D01*
Y3122100D01*
X414205D01*
X441647Y3129453D01*
X466252Y3143658D01*
X486341Y3163748D01*
X500546Y3188352D01*
X507899Y3215795D01*
Y3217300D01*
D02*
G37*
G36*
X387299D02*
X292099D01*
Y3215795D01*
X299453Y3188352D01*
X313658Y3163748D01*
X333747Y3143658D01*
X358352Y3129453D01*
X385794Y3122100D01*
X387299D01*
Y3217300D01*
D02*
G37*
G36*
X4004515Y3194200D02*
X3986084D01*
X3968281Y3189429D01*
X3952319Y3180214D01*
X3939286Y3167181D01*
X3930070Y3151219D01*
X3925300Y3133415D01*
Y3114984D01*
X3930070Y3097181D01*
X3939286Y3081219D01*
X3952319Y3068186D01*
X3968281Y3058970D01*
X3986084Y3054200D01*
X4004515D01*
X4022319Y3058970D01*
X4038281Y3068186D01*
X4051314Y3081219D01*
X4060529Y3097181D01*
X4065300Y3114984D01*
Y3133415D01*
X4060529Y3151219D01*
X4051314Y3167181D01*
X4038281Y3180214D01*
X4022319Y3189429D01*
X4004515Y3194200D01*
D02*
G37*
G36*
X3498800Y3136900D02*
X3390900D01*
X3283000D01*
Y3051258D01*
X3240334Y3008592D01*
X3236935Y3010000D01*
X3213065D01*
X3191013Y3000865D01*
X3174134Y2983987D01*
X3165000Y2961935D01*
Y2938065D01*
X3174134Y2916013D01*
X3191013Y2899134D01*
X3213065Y2890000D01*
X3236935D01*
X3258987Y2899134D01*
X3264434Y2904581D01*
X3277500Y2914741D01*
X3290566Y2904581D01*
X3296013Y2899134D01*
X3318065Y2890000D01*
X3341935D01*
X3363987Y2899134D01*
X3380865Y2916013D01*
X3390000Y2938065D01*
Y2950506D01*
X3398906Y2959412D01*
X3730762D01*
X3749412Y2940762D01*
Y2482670D01*
X3722330Y2455588D01*
X3677274D01*
X3675866Y2458987D01*
X3658987Y2475866D01*
X3636935Y2485000D01*
X3613065D01*
X3591013Y2475866D01*
X3574135Y2458987D01*
X3565000Y2436935D01*
Y2413065D01*
X3574135Y2391013D01*
X3591013Y2374134D01*
X3613065Y2365000D01*
X3636935D01*
X3658987Y2374134D01*
X3675866Y2391013D01*
X3677274Y2394412D01*
X3734999D01*
X3735000Y2394412D01*
X3746705Y2396741D01*
X3747685Y2397395D01*
X3758818Y2390669D01*
X3765000Y2384911D01*
Y2363065D01*
X3774134Y2341013D01*
X3791013Y2324135D01*
X3813065Y2315000D01*
X3836935D01*
X3858987Y2324135D01*
X3875866Y2341013D01*
X3885000Y2363065D01*
Y2386935D01*
X3875866Y2408987D01*
X3858987Y2425866D01*
X3855588Y2427274D01*
Y2965000D01*
X3853259Y2976706D01*
X3846629Y2986629D01*
X3846628Y2986630D01*
X3774529Y3058729D01*
X3764606Y3065359D01*
X3752900Y3067688D01*
X3752899Y3067688D01*
X3498800D01*
Y3136900D01*
D02*
G37*
G36*
X1214205Y3083900D02*
X1212700D01*
Y2988700D01*
X1307900D01*
Y2990205D01*
X1300547Y3017648D01*
X1286341Y3042252D01*
X1266252Y3062341D01*
X1241648Y3076547D01*
X1214205Y3083900D01*
D02*
G37*
G36*
X1187300D02*
X1185795D01*
X1158352Y3076547D01*
X1133748Y3062341D01*
X1113658Y3042252D01*
X1099453Y3017648D01*
X1092100Y2990205D01*
Y2988700D01*
X1187300D01*
Y3083900D01*
D02*
G37*
G36*
X813494Y3078500D02*
X786506D01*
X760436Y3071515D01*
X737064Y3058020D01*
X717980Y3038936D01*
X704485Y3015563D01*
X697500Y2989494D01*
Y2962506D01*
X704485Y2936436D01*
X717980Y2913064D01*
X737064Y2893979D01*
X760436Y2880485D01*
X786506Y2873500D01*
X813494D01*
X839563Y2880485D01*
X862936Y2893979D01*
X882020Y2913064D01*
X895515Y2936436D01*
X902500Y2962506D01*
Y2989494D01*
X895515Y3015563D01*
X882020Y3038936D01*
X862936Y3058020D01*
X839563Y3071515D01*
X813494Y3078500D01*
D02*
G37*
G36*
X413494D02*
X386505D01*
X360436Y3071515D01*
X337063Y3058020D01*
X317979Y3038936D01*
X304485Y3015563D01*
X297500Y2989494D01*
Y2962506D01*
X304485Y2936436D01*
X317979Y2913064D01*
X337063Y2893979D01*
X360436Y2880485D01*
X386505Y2873500D01*
X413494D01*
X439563Y2880485D01*
X462936Y2893979D01*
X482020Y2913064D01*
X495514Y2936436D01*
X502499Y2962506D01*
Y2989494D01*
X495514Y3015563D01*
X482020Y3038936D01*
X462936Y3058020D01*
X439563Y3071515D01*
X413494Y3078500D01*
D02*
G37*
G36*
X1307900Y2963300D02*
X1212700D01*
Y2868100D01*
X1214205D01*
X1241648Y2875453D01*
X1266252Y2889658D01*
X1286341Y2909748D01*
X1300547Y2934352D01*
X1307900Y2961795D01*
Y2963300D01*
D02*
G37*
G36*
X1187300D02*
X1092100D01*
Y2961795D01*
X1099453Y2934352D01*
X1113658Y2909748D01*
X1133748Y2889658D01*
X1158352Y2875453D01*
X1185795Y2868100D01*
X1187300D01*
Y2963300D01*
D02*
G37*
G36*
X1214205Y2829900D02*
X1212700D01*
Y2734700D01*
X1307900D01*
Y2736205D01*
X1300547Y2763648D01*
X1286341Y2788252D01*
X1266252Y2808341D01*
X1241648Y2822547D01*
X1214205Y2829900D01*
D02*
G37*
G36*
X1187300D02*
X1185795D01*
X1158352Y2822547D01*
X1133748Y2808341D01*
X1113658Y2788252D01*
X1099453Y2763648D01*
X1092100Y2736205D01*
Y2734700D01*
X1187300D01*
Y2829900D01*
D02*
G37*
G36*
X813494Y2824500D02*
X786506D01*
X760436Y2817515D01*
X737064Y2804020D01*
X717980Y2784936D01*
X704485Y2761563D01*
X697500Y2735494D01*
Y2708506D01*
X704485Y2682436D01*
X717980Y2659064D01*
X737064Y2639979D01*
X760436Y2626485D01*
X786506Y2619500D01*
X813494D01*
X839563Y2626485D01*
X862936Y2639979D01*
X882020Y2659064D01*
X895515Y2682436D01*
X902500Y2708506D01*
Y2735494D01*
X895515Y2761563D01*
X882020Y2784936D01*
X862936Y2804020D01*
X839563Y2817515D01*
X813494Y2824500D01*
D02*
G37*
G36*
X413494D02*
X386505D01*
X360436Y2817515D01*
X337063Y2804020D01*
X317979Y2784936D01*
X304485Y2761563D01*
X297500Y2735494D01*
Y2708506D01*
X304485Y2682436D01*
X317979Y2659064D01*
X337063Y2639979D01*
X360436Y2626485D01*
X386505Y2619500D01*
X413494D01*
X439563Y2626485D01*
X462936Y2639979D01*
X482020Y2659064D01*
X495514Y2682436D01*
X502499Y2708506D01*
Y2735494D01*
X495514Y2761563D01*
X482020Y2784936D01*
X462936Y2804020D01*
X439563Y2817515D01*
X413494Y2824500D01*
D02*
G37*
G36*
X1307900Y2709300D02*
X1212700D01*
Y2614100D01*
X1214205D01*
X1241648Y2621453D01*
X1266252Y2635658D01*
X1286341Y2655748D01*
X1300547Y2680352D01*
X1307900Y2707795D01*
Y2709300D01*
D02*
G37*
G36*
X1187300D02*
X1092100D01*
Y2707795D01*
X1099453Y2680352D01*
X1113658Y2655748D01*
X1133748Y2635658D01*
X1158352Y2621453D01*
X1185795Y2614100D01*
X1187300D01*
Y2709300D01*
D02*
G37*
G36*
X2807900Y2607900D02*
X2712699D01*
Y2512700D01*
X2807900D01*
Y2607900D01*
D02*
G37*
G36*
X2460205D02*
X2458699D01*
Y2512700D01*
X2553900D01*
Y2514205D01*
X2546547Y2541648D01*
X2532341Y2566252D01*
X2512252Y2586342D01*
X2487648Y2600547D01*
X2460205Y2607900D01*
D02*
G37*
G36*
X2687299D02*
X2592100D01*
Y2512700D01*
X2687299D01*
Y2607900D01*
D02*
G37*
G36*
X2433299D02*
X2431795D01*
X2404352Y2600547D01*
X2379748Y2586342D01*
X2359658Y2566252D01*
X2345453Y2541648D01*
X2338100Y2514205D01*
Y2512700D01*
X2433299D01*
Y2607900D01*
D02*
G37*
G36*
X2807900Y2487300D02*
X2712699D01*
Y2392100D01*
X2807900D01*
Y2487300D01*
D02*
G37*
G36*
X2687299D02*
X2592100D01*
Y2392100D01*
X2687299D01*
Y2487300D01*
D02*
G37*
G36*
X2553900D02*
X2458699D01*
Y2392100D01*
X2460205D01*
X2487648Y2399453D01*
X2512252Y2413659D01*
X2532341Y2433748D01*
X2546547Y2458352D01*
X2553900Y2485795D01*
Y2487300D01*
D02*
G37*
G36*
X2433299D02*
X2338100D01*
Y2485795D01*
X2345453Y2458352D01*
X2359658Y2433748D01*
X2379748Y2413659D01*
X2404352Y2399453D01*
X2431795Y2392100D01*
X2433299D01*
Y2487300D01*
D02*
G37*
G36*
X1810400Y2487900D02*
X1692700D01*
Y2282700D01*
X1810400D01*
Y2487900D01*
D02*
G37*
G36*
X1667300D02*
X1549600D01*
Y2282700D01*
X1667300D01*
Y2487900D01*
D02*
G37*
G36*
X5121935Y2340000D02*
X5098065D01*
X5076013Y2330866D01*
X5059134Y2313987D01*
X5050000Y2291935D01*
Y2268065D01*
X5051408Y2264666D01*
X4737330Y1950588D01*
X4622274D01*
X4620866Y1953987D01*
X4603987Y1970866D01*
X4581935Y1980000D01*
X4558065D01*
X4536013Y1970866D01*
X4519134Y1953987D01*
X4510000Y1931935D01*
Y1908065D01*
X4519134Y1886013D01*
X4536013Y1869134D01*
X4558065Y1860000D01*
X4581935D01*
X4603987Y1869134D01*
X4620866Y1886013D01*
X4622274Y1889412D01*
X4749999D01*
X4750000Y1889412D01*
X4761705Y1891741D01*
X4771629Y1898371D01*
X5094666Y2221408D01*
X5098065Y2220000D01*
X5121935D01*
X5143987Y2229134D01*
X5160865Y2246013D01*
X5170000Y2268065D01*
Y2291935D01*
X5160865Y2313987D01*
X5143987Y2330866D01*
X5121935Y2340000D01*
D02*
G37*
G36*
X6681935Y2540000D02*
X6658065D01*
X6636013Y2530866D01*
X6619135Y2513987D01*
X6610000Y2491935D01*
Y2468065D01*
X6619135Y2446013D01*
X6636013Y2429135D01*
X6644005Y2425824D01*
Y2404176D01*
X6636013Y2400866D01*
X6619135Y2383987D01*
X6610000Y2361935D01*
Y2338065D01*
X6619135Y2316013D01*
X6636013Y2299135D01*
X6658065Y2290000D01*
X6681935D01*
X6703987Y2299135D01*
X6720866Y2316013D01*
X6722274Y2319412D01*
X6797330D01*
X6851408Y2265334D01*
X6850000Y2261935D01*
Y2238065D01*
X6859135Y2216013D01*
X6876013Y2199135D01*
X6898065Y2190000D01*
X6921935D01*
X6943987Y2199135D01*
X6960866Y2216013D01*
X6970000Y2238065D01*
Y2261935D01*
X6960866Y2283987D01*
X6943987Y2300866D01*
X6935995Y2304176D01*
Y2325824D01*
X6943987Y2329135D01*
X6960866Y2346013D01*
X6970000Y2368065D01*
Y2391935D01*
X6960866Y2413987D01*
X6943987Y2430866D01*
X6921935Y2440000D01*
X6898065D01*
X6876013Y2430866D01*
X6865735Y2420588D01*
X6772670D01*
X6728592Y2464666D01*
X6730000Y2468065D01*
Y2491935D01*
X6720866Y2513987D01*
X6703987Y2530866D01*
X6681935Y2540000D01*
D02*
G37*
G36*
X1810400Y2257300D02*
X1692700D01*
Y2052100D01*
X1810400D01*
Y2257300D01*
D02*
G37*
G36*
X1667300D02*
X1549600D01*
Y2052100D01*
X1667300D01*
Y2257300D01*
D02*
G37*
G36*
X3315876Y2137400D02*
X3314700D01*
Y2044700D01*
X3407400D01*
Y2045876D01*
X3400217Y2072683D01*
X3386341Y2096717D01*
X3366717Y2116341D01*
X3342683Y2130217D01*
X3315876Y2137400D01*
D02*
G37*
G36*
X3289300D02*
X3288124D01*
X3261317Y2130217D01*
X3237283Y2116341D01*
X3217659Y2096717D01*
X3203783Y2072683D01*
X3196600Y2045876D01*
Y2044700D01*
X3289300D01*
Y2137400D01*
D02*
G37*
G36*
X695415Y2093110D02*
X676984D01*
X659181Y2088339D01*
X643219Y2079124D01*
X630186Y2066091D01*
X620970Y2050129D01*
X616200Y2032326D01*
Y2013894D01*
X620970Y1996091D01*
X630186Y1980129D01*
X643219Y1967096D01*
X659181Y1957881D01*
X676984Y1953110D01*
X695415D01*
X713219Y1957881D01*
X729181Y1967096D01*
X742214Y1980129D01*
X751429Y1996091D01*
X756200Y2013894D01*
Y2032326D01*
X751429Y2050129D01*
X742214Y2066091D01*
X729181Y2079124D01*
X713219Y2088339D01*
X695415Y2093110D01*
D02*
G37*
G36*
X4077165Y2132000D02*
X4050835D01*
X4025402Y2125185D01*
X4002599Y2112020D01*
X3983980Y2093401D01*
X3970815Y2070598D01*
X3964000Y2045165D01*
Y2018835D01*
X3970815Y1993402D01*
X3983980Y1970599D01*
X4002599Y1951980D01*
X4025402Y1938815D01*
X4050835Y1932000D01*
X4077165D01*
X4102598Y1938815D01*
X4125401Y1951980D01*
X4144020Y1970599D01*
X4157185Y1993402D01*
X4164000Y2018835D01*
Y2045165D01*
X4157185Y2070598D01*
X4144020Y2093401D01*
X4125401Y2112020D01*
X4102598Y2125185D01*
X4077165Y2132000D01*
D02*
G37*
G36*
X3823165D02*
X3796835D01*
X3771402Y2125185D01*
X3748599Y2112020D01*
X3729980Y2093401D01*
X3716815Y2070598D01*
X3710000Y2045165D01*
Y2018835D01*
X3716815Y1993402D01*
X3729980Y1970599D01*
X3748599Y1951980D01*
X3771402Y1938815D01*
X3796835Y1932000D01*
X3823165D01*
X3848598Y1938815D01*
X3871401Y1951980D01*
X3890020Y1970599D01*
X3903185Y1993402D01*
X3910000Y2018835D01*
Y2045165D01*
X3903185Y2070598D01*
X3890020Y2093401D01*
X3871401Y2112020D01*
X3848598Y2125185D01*
X3823165Y2132000D01*
D02*
G37*
G36*
X3569165D02*
X3542835D01*
X3517402Y2125185D01*
X3494599Y2112020D01*
X3475980Y2093401D01*
X3462815Y2070598D01*
X3456000Y2045165D01*
Y2018835D01*
X3462815Y1993402D01*
X3475980Y1970599D01*
X3494599Y1951980D01*
X3517402Y1938815D01*
X3542835Y1932000D01*
X3569165D01*
X3594598Y1938815D01*
X3617401Y1951980D01*
X3636020Y1970599D01*
X3649185Y1993402D01*
X3656000Y2018835D01*
Y2045165D01*
X3649185Y2070598D01*
X3636020Y2093401D01*
X3617401Y2112020D01*
X3594598Y2125185D01*
X3569165Y2132000D01*
D02*
G37*
G36*
X3407400Y2019300D02*
X3314700D01*
Y1926600D01*
X3315876D01*
X3342683Y1933783D01*
X3366717Y1947659D01*
X3386341Y1967283D01*
X3400217Y1991317D01*
X3407400Y2018124D01*
Y2019300D01*
D02*
G37*
G36*
X3289300D02*
X3196600D01*
Y2018124D01*
X3203783Y1991317D01*
X3217659Y1967283D01*
X3237283Y1947659D01*
X3261317Y1933783D01*
X3288124Y1926600D01*
X3289300D01*
Y2019300D01*
D02*
G37*
G36*
X695415Y1653690D02*
X676984D01*
X659181Y1648919D01*
X643219Y1639704D01*
X630186Y1626671D01*
X620970Y1610709D01*
X616200Y1592906D01*
Y1574474D01*
X620970Y1556671D01*
X630186Y1540709D01*
X643219Y1527676D01*
X659181Y1518461D01*
X676984Y1513690D01*
X695415D01*
X713219Y1518461D01*
X729181Y1527676D01*
X742214Y1540709D01*
X751429Y1556671D01*
X756200Y1574474D01*
Y1592906D01*
X751429Y1610709D01*
X742214Y1626671D01*
X729181Y1639704D01*
X713219Y1648919D01*
X695415Y1653690D01*
D02*
G37*
G36*
X3061165Y2132000D02*
X3034835D01*
X3009402Y2125185D01*
X2986599Y2112020D01*
X2967980Y2093401D01*
X2954815Y2070598D01*
X2948000Y2045165D01*
Y2018835D01*
X2954815Y1993402D01*
X2967980Y1970599D01*
X2986599Y1951980D01*
X3002118Y1943020D01*
Y1797005D01*
X2752995Y1547882D01*
X2182000D01*
X2164442Y1544389D01*
X2149557Y1534443D01*
X1980475Y1365362D01*
X1963165Y1370000D01*
X1936835D01*
X1919525Y1365362D01*
X1829943Y1454943D01*
X1815058Y1464889D01*
X1805000Y1466890D01*
Y1802500D01*
X1555000D01*
Y1377500D01*
X1755568D01*
X1760000Y1376618D01*
X1778495D01*
X1854638Y1300475D01*
X1850000Y1283165D01*
Y1256835D01*
X1856815Y1231402D01*
X1869980Y1208599D01*
X1888599Y1189980D01*
X1911402Y1176815D01*
X1936835Y1170000D01*
X1963165D01*
X1988598Y1176815D01*
X2011401Y1189980D01*
X2030020Y1208599D01*
X2043185Y1231402D01*
X2050000Y1256835D01*
Y1283165D01*
X2045361Y1300475D01*
X2201005Y1456119D01*
X2772000D01*
X2789558Y1459611D01*
X2804443Y1469557D01*
X3080443Y1745557D01*
X3090389Y1760442D01*
X3093882Y1778000D01*
Y1943020D01*
X3109401Y1951980D01*
X3128020Y1970599D01*
X3141185Y1993402D01*
X3148000Y2018835D01*
Y2045165D01*
X3141185Y2070598D01*
X3128020Y2093401D01*
X3109401Y2112020D01*
X3086598Y2125185D01*
X3061165Y2132000D01*
D02*
G37*
G36*
X2217876Y1375400D02*
X2216699D01*
Y1282700D01*
X2309400D01*
Y1283876D01*
X2302217Y1310683D01*
X2288341Y1334717D01*
X2268717Y1354341D01*
X2244683Y1368217D01*
X2217876Y1375400D01*
D02*
G37*
G36*
X2191299D02*
X2190124D01*
X2163317Y1368217D01*
X2139283Y1354341D01*
X2119659Y1334717D01*
X2105783Y1310683D01*
X2098600Y1283876D01*
Y1282700D01*
X2191299D01*
Y1375400D01*
D02*
G37*
G36*
X4249165Y1370000D02*
X4222835D01*
X4197402Y1363185D01*
X4174599Y1350020D01*
X4155980Y1331401D01*
X4142815Y1308598D01*
X4136000Y1283165D01*
Y1256835D01*
X4142815Y1231402D01*
X4155980Y1208599D01*
X4174599Y1189980D01*
X4197402Y1176815D01*
X4222835Y1170000D01*
X4249165D01*
X4274598Y1176815D01*
X4297401Y1189980D01*
X4316020Y1208599D01*
X4329185Y1231402D01*
X4336000Y1256835D01*
Y1283165D01*
X4329185Y1308598D01*
X4316020Y1331401D01*
X4297401Y1350020D01*
X4274598Y1363185D01*
X4249165Y1370000D01*
D02*
G37*
G36*
X3995165D02*
X3968835D01*
X3943402Y1363185D01*
X3920599Y1350020D01*
X3901980Y1331401D01*
X3888815Y1308598D01*
X3882000Y1283165D01*
Y1256835D01*
X3888815Y1231402D01*
X3901980Y1208599D01*
X3920599Y1189980D01*
X3943402Y1176815D01*
X3968835Y1170000D01*
X3995165D01*
X4020598Y1176815D01*
X4043401Y1189980D01*
X4062020Y1208599D01*
X4075185Y1231402D01*
X4082000Y1256835D01*
Y1283165D01*
X4075185Y1308598D01*
X4062020Y1331401D01*
X4043401Y1350020D01*
X4020598Y1363185D01*
X3995165Y1370000D01*
D02*
G37*
G36*
X3741165D02*
X3714835D01*
X3689402Y1363185D01*
X3666599Y1350020D01*
X3647980Y1331401D01*
X3634815Y1308598D01*
X3628000Y1283165D01*
Y1256835D01*
X3634815Y1231402D01*
X3647980Y1208599D01*
X3666599Y1189980D01*
X3689402Y1176815D01*
X3714835Y1170000D01*
X3741165D01*
X3766598Y1176815D01*
X3789401Y1189980D01*
X3808020Y1208599D01*
X3821185Y1231402D01*
X3828000Y1256835D01*
Y1283165D01*
X3821185Y1308598D01*
X3808020Y1331401D01*
X3789401Y1350020D01*
X3766598Y1363185D01*
X3741165Y1370000D01*
D02*
G37*
G36*
X3487165D02*
X3460835D01*
X3435402Y1363185D01*
X3412599Y1350020D01*
X3393980Y1331401D01*
X3380815Y1308598D01*
X3374000Y1283165D01*
Y1256835D01*
X3380815Y1231402D01*
X3393980Y1208599D01*
X3412599Y1189980D01*
X3435402Y1176815D01*
X3460835Y1170000D01*
X3487165D01*
X3512598Y1176815D01*
X3535401Y1189980D01*
X3554020Y1208599D01*
X3567185Y1231402D01*
X3574000Y1256835D01*
Y1283165D01*
X3567185Y1308598D01*
X3554020Y1331401D01*
X3535401Y1350020D01*
X3512598Y1363185D01*
X3487165Y1370000D01*
D02*
G37*
G36*
X3233165D02*
X3206835D01*
X3181402Y1363185D01*
X3158599Y1350020D01*
X3139980Y1331401D01*
X3126815Y1308598D01*
X3120000Y1283165D01*
Y1256835D01*
X3126815Y1231402D01*
X3139980Y1208599D01*
X3158599Y1189980D01*
X3181402Y1176815D01*
X3206835Y1170000D01*
X3233165D01*
X3258598Y1176815D01*
X3281401Y1189980D01*
X3300020Y1208599D01*
X3313185Y1231402D01*
X3320000Y1256835D01*
Y1283165D01*
X3313185Y1308598D01*
X3300020Y1331401D01*
X3281401Y1350020D01*
X3258598Y1363185D01*
X3233165Y1370000D01*
D02*
G37*
G36*
X2979165D02*
X2952835D01*
X2927402Y1363185D01*
X2904599Y1350020D01*
X2885980Y1331401D01*
X2872815Y1308598D01*
X2866000Y1283165D01*
Y1256835D01*
X2872815Y1231402D01*
X2885980Y1208599D01*
X2904599Y1189980D01*
X2927402Y1176815D01*
X2952835Y1170000D01*
X2979165D01*
X3004598Y1176815D01*
X3027401Y1189980D01*
X3046020Y1208599D01*
X3059185Y1231402D01*
X3066000Y1256835D01*
Y1283165D01*
X3059185Y1308598D01*
X3046020Y1331401D01*
X3027401Y1350020D01*
X3004598Y1363185D01*
X2979165Y1370000D01*
D02*
G37*
G36*
X2725165D02*
X2698835D01*
X2673402Y1363185D01*
X2650599Y1350020D01*
X2631980Y1331401D01*
X2618815Y1308598D01*
X2612000Y1283165D01*
Y1256835D01*
X2618815Y1231402D01*
X2631980Y1208599D01*
X2650599Y1189980D01*
X2673402Y1176815D01*
X2698835Y1170000D01*
X2725165D01*
X2750598Y1176815D01*
X2773401Y1189980D01*
X2792020Y1208599D01*
X2805185Y1231402D01*
X2812000Y1256835D01*
Y1283165D01*
X2805185Y1308598D01*
X2792020Y1331401D01*
X2773401Y1350020D01*
X2750598Y1363185D01*
X2725165Y1370000D01*
D02*
G37*
G36*
X2471165D02*
X2444835D01*
X2419402Y1363185D01*
X2396599Y1350020D01*
X2377980Y1331401D01*
X2364815Y1308598D01*
X2358000Y1283165D01*
Y1256835D01*
X2364815Y1231402D01*
X2377980Y1208599D01*
X2396599Y1189980D01*
X2419402Y1176815D01*
X2444835Y1170000D01*
X2471165D01*
X2496598Y1176815D01*
X2519401Y1189980D01*
X2538020Y1208599D01*
X2551185Y1231402D01*
X2558000Y1256835D01*
Y1283165D01*
X2551185Y1308598D01*
X2538020Y1331401D01*
X2519401Y1350020D01*
X2496598Y1363185D01*
X2471165Y1370000D01*
D02*
G37*
G36*
X2309400Y1257300D02*
X2216699D01*
Y1164600D01*
X2217876D01*
X2244683Y1171783D01*
X2268717Y1185659D01*
X2288341Y1205283D01*
X2302217Y1229317D01*
X2309400Y1256124D01*
Y1257300D01*
D02*
G37*
G36*
X2191299D02*
X2098600D01*
Y1256124D01*
X2105783Y1229317D01*
X2119659Y1205283D01*
X2139283Y1185659D01*
X2163317Y1171783D01*
X2190124Y1164600D01*
X2191299D01*
Y1257300D01*
D02*
G37*
G36*
X1413494Y1010500D02*
X1386506D01*
X1360436Y1003515D01*
X1337064Y990020D01*
X1317980Y970936D01*
X1304485Y947564D01*
X1297500Y921494D01*
Y894506D01*
X1304485Y868436D01*
X1317980Y845064D01*
X1337064Y825980D01*
X1360436Y812485D01*
X1386506Y805500D01*
X1413494D01*
X1439564Y812485D01*
X1462936Y825980D01*
X1482020Y845064D01*
X1495515Y868436D01*
X1502500Y894506D01*
Y921494D01*
X1495515Y947564D01*
X1482020Y970936D01*
X1462936Y990020D01*
X1439564Y1003515D01*
X1413494Y1010500D01*
D02*
G37*
G36*
Y756500D02*
X1386506D01*
X1360436Y749515D01*
X1337064Y736020D01*
X1317980Y716936D01*
X1304485Y693564D01*
X1297500Y667494D01*
Y640506D01*
X1304485Y614436D01*
X1317980Y591064D01*
X1337064Y571980D01*
X1360436Y558485D01*
X1386506Y551500D01*
X1413494D01*
X1439564Y558485D01*
X1462936Y571980D01*
X1482020Y591064D01*
X1495515Y614436D01*
X1502500Y640506D01*
Y667494D01*
X1495515Y693564D01*
X1482020Y716936D01*
X1462936Y736020D01*
X1439564Y749515D01*
X1413494Y756500D01*
D02*
G37*
G36*
X6475876Y605400D02*
X6474700D01*
Y512700D01*
X6567400D01*
Y513876D01*
X6560217Y540683D01*
X6546341Y564717D01*
X6526717Y584341D01*
X6502683Y598217D01*
X6475876Y605400D01*
D02*
G37*
G36*
X6449300D02*
X6448124D01*
X6421317Y598217D01*
X6397283Y584341D01*
X6377659Y564717D01*
X6363783Y540683D01*
X6356600Y513876D01*
Y512700D01*
X6449300D01*
Y605400D01*
D02*
G37*
G36*
X1507900Y507900D02*
X1412700D01*
Y412700D01*
X1507900D01*
Y507900D01*
D02*
G37*
G36*
X1387300D02*
X1292100D01*
Y412700D01*
X1387300D01*
Y507900D01*
D02*
G37*
G36*
X6729165Y600000D02*
X6702835D01*
X6677402Y593185D01*
X6654599Y580020D01*
X6635980Y561401D01*
X6622815Y538598D01*
X6616000Y513165D01*
Y486835D01*
X6622815Y461402D01*
X6635980Y438599D01*
X6654599Y419980D01*
X6677402Y406815D01*
X6702835Y400000D01*
X6729165D01*
X6754598Y406815D01*
X6777401Y419980D01*
X6796020Y438599D01*
X6809185Y461402D01*
X6816000Y486835D01*
Y513165D01*
X6809185Y538598D01*
X6796020Y561401D01*
X6777401Y580020D01*
X6754598Y593185D01*
X6729165Y600000D01*
D02*
G37*
G36*
X6221165D02*
X6194835D01*
X6169402Y593185D01*
X6146599Y580020D01*
X6127980Y561401D01*
X6114815Y538598D01*
X6108000Y513165D01*
Y486835D01*
X6114815Y461402D01*
X6127980Y438599D01*
X6146599Y419980D01*
X6169402Y406815D01*
X6194835Y400000D01*
X6221165D01*
X6246598Y406815D01*
X6269401Y419980D01*
X6288020Y438599D01*
X6301185Y461402D01*
X6308000Y486835D01*
Y513165D01*
X6301185Y538598D01*
X6288020Y561401D01*
X6269401Y580020D01*
X6246598Y593185D01*
X6221165Y600000D01*
D02*
G37*
G36*
X5967165D02*
X5940835D01*
X5915402Y593185D01*
X5892599Y580020D01*
X5873980Y561401D01*
X5860815Y538598D01*
X5854000Y513165D01*
Y486835D01*
X5860815Y461402D01*
X5873980Y438599D01*
X5892599Y419980D01*
X5915402Y406815D01*
X5940835Y400000D01*
X5967165D01*
X5992598Y406815D01*
X6015401Y419980D01*
X6034020Y438599D01*
X6047185Y461402D01*
X6054000Y486835D01*
Y513165D01*
X6047185Y538598D01*
X6034020Y561401D01*
X6015401Y580020D01*
X5992598Y593185D01*
X5967165Y600000D01*
D02*
G37*
G36*
X5713165D02*
X5686835D01*
X5661402Y593185D01*
X5638599Y580020D01*
X5619980Y561401D01*
X5606815Y538598D01*
X5600000Y513165D01*
Y486835D01*
X5606815Y461402D01*
X5619980Y438599D01*
X5638599Y419980D01*
X5661402Y406815D01*
X5686835Y400000D01*
X5713165D01*
X5738598Y406815D01*
X5761401Y419980D01*
X5780020Y438599D01*
X5793185Y461402D01*
X5800000Y486835D01*
Y513165D01*
X5793185Y538598D01*
X5780020Y561401D01*
X5761401Y580020D01*
X5738598Y593185D01*
X5713165Y600000D01*
D02*
G37*
G36*
X5459165D02*
X5432835D01*
X5407402Y593185D01*
X5384599Y580020D01*
X5365980Y561401D01*
X5352815Y538598D01*
X5346000Y513165D01*
Y486835D01*
X5352815Y461402D01*
X5365980Y438599D01*
X5384599Y419980D01*
X5407402Y406815D01*
X5432835Y400000D01*
X5459165D01*
X5484598Y406815D01*
X5507401Y419980D01*
X5526020Y438599D01*
X5539185Y461402D01*
X5546000Y486835D01*
Y513165D01*
X5539185Y538598D01*
X5526020Y561401D01*
X5507401Y580020D01*
X5484598Y593185D01*
X5459165Y600000D01*
D02*
G37*
G36*
X5205165D02*
X5178835D01*
X5153402Y593185D01*
X5130599Y580020D01*
X5111980Y561401D01*
X5098815Y538598D01*
X5092000Y513165D01*
Y486835D01*
X5098815Y461402D01*
X5111980Y438599D01*
X5130599Y419980D01*
X5153402Y406815D01*
X5178835Y400000D01*
X5205165D01*
X5230598Y406815D01*
X5253401Y419980D01*
X5272020Y438599D01*
X5285185Y461402D01*
X5292000Y486835D01*
Y513165D01*
X5285185Y538598D01*
X5272020Y561401D01*
X5253401Y580020D01*
X5230598Y593185D01*
X5205165Y600000D01*
D02*
G37*
G36*
X4951165D02*
X4924835D01*
X4899402Y593185D01*
X4876599Y580020D01*
X4857980Y561401D01*
X4844815Y538598D01*
X4838000Y513165D01*
Y486835D01*
X4844815Y461402D01*
X4857980Y438599D01*
X4876599Y419980D01*
X4899402Y406815D01*
X4924835Y400000D01*
X4951165D01*
X4976598Y406815D01*
X4999401Y419980D01*
X5018020Y438599D01*
X5031185Y461402D01*
X5038000Y486835D01*
Y513165D01*
X5031185Y538598D01*
X5018020Y561401D01*
X4999401Y580020D01*
X4976598Y593185D01*
X4951165Y600000D01*
D02*
G37*
G36*
X6567400Y487300D02*
X6474700D01*
Y394600D01*
X6475876D01*
X6502683Y401783D01*
X6526717Y415659D01*
X6546341Y435283D01*
X6560217Y459317D01*
X6567400Y486124D01*
Y487300D01*
D02*
G37*
G36*
X6449300D02*
X6356600D01*
Y486124D01*
X6363783Y459317D01*
X6377659Y435283D01*
X6397283Y415659D01*
X6421317Y401783D01*
X6448124Y394600D01*
X6449300D01*
Y487300D01*
D02*
G37*
G36*
X1507900Y387300D02*
X1412700D01*
Y292100D01*
X1507900D01*
Y387300D01*
D02*
G37*
G36*
X1387300D02*
X1292100D01*
Y292100D01*
X1387300D01*
Y387300D01*
D02*
G37*
%LPD*%
D32*
X6670000Y2480000D02*
X6760000Y2390000D01*
X6900000D02*
X6910000Y2380000D01*
X6760000Y2390000D02*
X6900000D01*
X6810000Y2350000D02*
X6910000Y2250000D01*
X6670000Y2350000D02*
X6810000D01*
X5029999Y3345624D02*
X5040000Y3335623D01*
X5103925D01*
X5110000Y3329548D01*
X4795624Y3345624D02*
X5029999D01*
X5238507Y3587050D02*
X5241005Y3589548D01*
X5301493Y3587050D02*
X5402950D01*
X4530000Y3480000D02*
X5214215D01*
X5298995Y3589548D02*
X5301493Y3587050D01*
X5214215Y3480000D02*
X5253764Y3519548D01*
X5217050Y3587050D02*
X5238507D01*
X5241005Y3589548D02*
X5298995D01*
X5253764Y3519548D02*
X5270000D01*
X5175402Y3628697D02*
X5217050Y3587050D01*
X5159702Y3628697D02*
X5175402D01*
X3330000Y2950000D02*
X3346236D01*
X3386236Y2990000D01*
X3743432D01*
X3225000Y2950000D02*
X3312100Y3037100D01*
X3752900D01*
X3735000Y2425000D02*
X3780000Y2470000D01*
X3625000Y2425000D02*
X3735000D01*
X3780000Y2470000D02*
Y2953432D01*
X3825000Y2375000D02*
Y2965000D01*
X3743432Y2990000D02*
X3780000Y2953432D01*
X3752900Y3037100D02*
X3825000Y2965000D01*
X3650000Y3580000D02*
X3920000Y3310000D01*
X3650000Y3580000D02*
Y3700000D01*
X4570000Y1920000D02*
X4750000D01*
X5110000Y2280000D01*
X4730000Y3280000D02*
X4795624Y3345624D01*
X5402950Y3587050D02*
X5410000Y3580000D01*
X4730000Y2860000D02*
Y3280000D01*
Y2860000D02*
X4940000Y2650000D01*
X4309534Y3404230D02*
X4363225D01*
X4460000Y3501005D02*
Y3508995D01*
X4667000Y3715995D02*
Y4195300D01*
X4363225Y3404230D02*
X4460000Y3501005D01*
Y3508995D02*
X4667000Y3715995D01*
X4240000Y3473764D02*
X4309534Y3404230D01*
X4350000Y3490000D02*
X4557000Y3697000D01*
Y4051300D01*
X4240000Y3473764D02*
Y3490000D01*
X6810936Y4305300D02*
X6843000D01*
X6166236Y4950000D02*
X6810936Y4305300D01*
X6150000Y4950000D02*
X6166236D01*
X3390900Y3403600D02*
Y3834100D01*
X3275000Y3950000D02*
X3390900Y3834100D01*
X4557000Y4305300D02*
X4667000Y4195300D01*
D33*
X4515568Y6000000D02*
X4560000D01*
X4407000Y5891432D02*
X4515568Y6000000D01*
X4407000Y5789500D02*
Y5891432D01*
X4207500Y5590000D02*
X4407000Y5789500D01*
X4120000Y5590000D02*
X4207500D01*
X4560000Y6000000D02*
X6395200D01*
X2901200D02*
X4560000D01*
X2209800Y4030200D02*
X2499033Y3740967D01*
X2209800Y4030200D02*
Y5308600D01*
X2500000Y3530000D02*
Y3740000D01*
X6395200Y6000000D02*
X6819900Y5575300D01*
X2209800Y5308600D02*
X2901200Y6000000D01*
X6819900Y5575300D02*
X6843000D01*
D38*
X1400000Y400000D02*
D03*
X3390900Y3149600D02*
D03*
X1200000Y4500000D02*
D03*
X800000D02*
D03*
X399999D02*
D03*
D39*
X1400000Y654000D02*
D03*
Y908000D02*
D03*
X3390900Y3403600D02*
D03*
X3784600Y4635500D02*
D03*
X4038600D02*
D03*
X3022600D02*
D03*
X3530600D02*
D03*
X3276600D02*
D03*
X2446000Y2500000D02*
D03*
X1200000Y2976000D02*
D03*
Y2722000D02*
D03*
Y3484000D02*
D03*
Y3992000D02*
D03*
Y4246000D02*
D03*
Y3738000D02*
D03*
Y3230000D02*
D03*
X800000Y2976000D02*
D03*
Y2722000D02*
D03*
Y3484000D02*
D03*
Y3992000D02*
D03*
Y4246000D02*
D03*
Y3738000D02*
D03*
Y3230000D02*
D03*
X399999Y3484000D02*
D03*
Y3738000D02*
D03*
Y3230000D02*
D03*
Y4246000D02*
D03*
Y3992000D02*
D03*
Y2976000D02*
D03*
Y2722000D02*
D03*
D40*
X4557000Y4305300D02*
D03*
Y4051300D02*
D03*
Y4559300D02*
D03*
Y4813300D02*
D03*
Y5067300D02*
D03*
Y5321300D02*
D03*
Y5575300D02*
D03*
Y5829300D02*
D03*
X6843000D02*
D03*
Y5575300D02*
D03*
Y5321300D02*
D03*
Y5067300D02*
D03*
Y4813300D02*
D03*
Y4559300D02*
D03*
Y4305300D02*
D03*
Y4051300D02*
D03*
X5700000Y500000D02*
D03*
X5446000D02*
D03*
X5954000D02*
D03*
X5192000D02*
D03*
X4938000D02*
D03*
X6716000D02*
D03*
X6208000D02*
D03*
X6462000D02*
D03*
X1950000Y1270000D02*
D03*
X2204000D02*
D03*
X2458000D02*
D03*
X2712000D02*
D03*
X2966000D02*
D03*
X3220000D02*
D03*
X3474000D02*
D03*
X3728000D02*
D03*
X3982000D02*
D03*
X4236000D02*
D03*
X3810000Y2032000D02*
D03*
X4064000D02*
D03*
X3556000D02*
D03*
X3302000D02*
D03*
X3048000D02*
D03*
D41*
X3995300Y3124200D02*
D03*
X4615300D02*
D03*
X686200Y2023110D02*
D03*
Y1583690D02*
D03*
D42*
X2768600Y4635500D02*
D03*
X2700000Y2500000D02*
D03*
D43*
X700000Y700000D02*
D03*
Y5300000D02*
D03*
X2500000Y2000000D02*
D03*
D44*
X1020000Y4400000D02*
D03*
X1000000Y3930000D02*
D03*
X2750000Y5390000D02*
D03*
X6348025Y5089329D02*
D03*
X6654375Y4844763D02*
D03*
X5910000Y4830000D02*
D03*
X2000000Y740000D02*
D03*
X2470000Y110000D02*
D03*
X6800000Y100000D02*
D03*
X6680000Y2640000D02*
D03*
X6670000Y2480000D02*
D03*
X1902200Y544000D02*
D03*
X6910000Y2380000D02*
D03*
X1662200Y544000D02*
D03*
X6990000Y2000832D02*
D03*
Y577400D02*
D03*
X1419997Y471500D02*
D03*
X6990000Y1057400D02*
D03*
Y1537401D02*
D03*
X7062201Y1777401D02*
D03*
X6910000Y2250000D02*
D03*
X6670000Y2350000D02*
D03*
X3136147Y418098D02*
D03*
X7062201Y2257401D02*
D03*
X1542200Y817400D02*
D03*
X2262200D02*
D03*
X6629987Y1729997D02*
D03*
X6616600Y2240000D02*
D03*
X3342200Y577400D02*
D03*
X5110000Y3329548D02*
D03*
X1419997Y1109998D02*
D03*
X5820000Y770000D02*
D03*
X5050000Y1990000D02*
D03*
X5347262Y1589735D02*
D03*
X5300000Y2020000D02*
D03*
X6025723Y3513393D02*
D03*
X6215182Y3330382D02*
D03*
X5742201Y3519548D02*
D03*
X6296539Y2539943D02*
D03*
X5994673Y2838306D02*
D03*
X5270000Y3519548D02*
D03*
X6222201Y3457401D02*
D03*
X5518802Y3327797D02*
D03*
X5159702Y3628697D02*
D03*
X1664443Y2595548D02*
D03*
X4297000Y5857401D02*
D03*
X4179992Y5759988D02*
D03*
X2310000Y300000D02*
D03*
X5220000Y1070000D02*
D03*
X5012276Y1187085D02*
D03*
X5520000Y1100000D02*
D03*
X2767935Y523301D02*
D03*
X6677579Y3098305D02*
D03*
X6620000Y3450000D02*
D03*
X6910000Y3217401D02*
D03*
X6942201Y3457401D02*
D03*
Y2497401D02*
D03*
Y2977401D02*
D03*
X3859992Y5619989D02*
D03*
X5999988Y1519997D02*
D03*
X6039988Y1989996D02*
D03*
X4300000Y1537401D02*
D03*
X6156600Y845284D02*
D03*
X5870050Y1185250D02*
D03*
X5990050Y1065250D02*
D03*
X5382201Y817400D02*
D03*
X5142201D02*
D03*
X4577764Y541837D02*
D03*
X4546591Y1189998D02*
D03*
X756600Y1760000D02*
D03*
X1366600Y4720000D02*
D03*
X2946600Y5330000D02*
D03*
X2566600Y5450000D02*
D03*
X3330000Y2950000D02*
D03*
X3225000D02*
D03*
X3625000Y2425000D02*
D03*
X6628330Y6117819D02*
D03*
X6146600Y6150000D02*
D03*
X4986600D02*
D03*
X4006600Y6130000D02*
D03*
X3216600D02*
D03*
X2716600Y6040000D02*
D03*
X6026600Y2420000D02*
D03*
X6176600Y5850000D02*
D03*
X4046600Y4260000D02*
D03*
X4461862Y3180930D02*
D03*
X4646600Y3280000D02*
D03*
X5316600Y2470000D02*
D03*
X2496600Y3060000D02*
D03*
X4456600Y2840000D02*
D03*
X4186600D02*
D03*
X5057711Y3831854D02*
D03*
X3652815Y4510160D02*
D03*
X3026600Y4400000D02*
D03*
X2846600Y3170000D02*
D03*
X2446600Y4170000D02*
D03*
X3766600Y440000D02*
D03*
X3986600Y2200000D02*
D03*
X1009248Y4161207D02*
D03*
X1006600Y3730000D02*
D03*
X1496600Y4040000D02*
D03*
X5586600Y2390000D02*
D03*
X6296600Y1270000D02*
D03*
X5966600Y1260000D02*
D03*
X1906600Y1450000D02*
D03*
X1226600Y1670000D02*
D03*
X6136600Y5310000D02*
D03*
X5816600Y5620000D02*
D03*
X2976600Y5860000D02*
D03*
X2366600Y5260000D02*
D03*
X1976600Y4200000D02*
D03*
X2186600Y3810000D02*
D03*
X1986600D02*
D03*
X1766600D02*
D03*
X7062201Y5617401D02*
D03*
Y3697401D02*
D03*
Y3217401D02*
D03*
Y2737401D02*
D03*
Y1297401D02*
D03*
Y817400D02*
D03*
Y337400D02*
D03*
X6702201Y3937401D02*
D03*
X6462201Y5377401D02*
D03*
X6582201Y5137401D02*
D03*
X6462201Y4417401D02*
D03*
X6582201Y4177401D02*
D03*
X6462201Y3937401D02*
D03*
X6582201Y3697401D02*
D03*
Y1297401D02*
D03*
X6462201Y1057400D02*
D03*
X6582201Y817400D02*
D03*
X6342201Y4657401D02*
D03*
X6222201Y4417401D02*
D03*
X6342201Y3697401D02*
D03*
Y2257401D02*
D03*
X6222201Y1057400D02*
D03*
X6342201Y817400D02*
D03*
X5982201Y5857401D02*
D03*
X6102201Y5617401D02*
D03*
Y4657401D02*
D03*
X5982201Y4417401D02*
D03*
X6102201Y3697401D02*
D03*
X5742201Y5377401D02*
D03*
X5862201Y5137401D02*
D03*
Y3697401D02*
D03*
Y2257401D02*
D03*
X5502201Y5857401D02*
D03*
Y5377401D02*
D03*
X5622201Y5137401D02*
D03*
Y4657401D02*
D03*
X5502201Y4417401D02*
D03*
X5622201Y2257401D02*
D03*
X5262201Y5857401D02*
D03*
X5382201Y5617401D02*
D03*
X5262201Y5377401D02*
D03*
X5382201Y5137401D02*
D03*
Y4657401D02*
D03*
X5262201Y4417401D02*
D03*
X5382201Y4177401D02*
D03*
X5262201Y3937401D02*
D03*
X5382201Y2257401D02*
D03*
X5022201Y5857401D02*
D03*
X5142201Y5617401D02*
D03*
X5022201Y5377401D02*
D03*
Y4897401D02*
D03*
X5142201Y4657401D02*
D03*
X5022201Y4417401D02*
D03*
X5142201Y4177401D02*
D03*
Y1777401D02*
D03*
X4782200Y5857401D02*
D03*
X4902201Y5617401D02*
D03*
Y5137401D02*
D03*
X4782200Y4897401D02*
D03*
X4902201Y4657401D02*
D03*
X4782200Y4417401D02*
D03*
X4902201Y4177401D02*
D03*
X4782200Y1537401D02*
D03*
X4902201Y1297401D02*
D03*
Y817400D02*
D03*
X4782200Y577400D02*
D03*
X4662200Y1777401D02*
D03*
X4542200Y1537401D02*
D03*
X4662200Y1297401D02*
D03*
Y817400D02*
D03*
X4302200Y5377401D02*
D03*
Y2977401D02*
D03*
Y2017401D02*
D03*
Y577400D02*
D03*
X4062200Y5857401D02*
D03*
Y5377401D02*
D03*
Y4897401D02*
D03*
Y4417401D02*
D03*
Y2977401D02*
D03*
X4182200Y1777401D02*
D03*
X4062200Y1537401D02*
D03*
X3822200Y5857401D02*
D03*
Y5377401D02*
D03*
X3942200Y5137401D02*
D03*
X3822200Y4897401D02*
D03*
X3942200Y1777401D02*
D03*
X3822200Y1537401D02*
D03*
Y1057400D02*
D03*
X3582200Y5857401D02*
D03*
X3702200Y5617401D02*
D03*
X3582200Y5377401D02*
D03*
X3702200Y5137401D02*
D03*
X3582200Y4897401D02*
D03*
Y1057400D02*
D03*
X3702200Y817400D02*
D03*
X3342200Y5857401D02*
D03*
Y5377401D02*
D03*
X3462200Y5137401D02*
D03*
X3342200Y4897401D02*
D03*
Y4417401D02*
D03*
Y2497401D02*
D03*
X3462200Y2257401D02*
D03*
X3342200Y1057400D02*
D03*
X3102200Y5377401D02*
D03*
X3222200Y5137401D02*
D03*
X3102200Y4897401D02*
D03*
X3222200Y3697401D02*
D03*
X3102200Y3457401D02*
D03*
X3222200Y3217401D02*
D03*
X2982200Y5617401D02*
D03*
Y5137401D02*
D03*
X2862200Y4897401D02*
D03*
X2982200Y3217401D02*
D03*
Y2737401D02*
D03*
X2862200Y2497401D02*
D03*
Y1057400D02*
D03*
X2982200Y817400D02*
D03*
X2742200Y5617401D02*
D03*
Y5137401D02*
D03*
X2622200Y4897401D02*
D03*
Y4417401D02*
D03*
Y1057400D02*
D03*
X2742200Y817400D02*
D03*
X2382200Y5857401D02*
D03*
X2502200Y5137401D02*
D03*
Y4657401D02*
D03*
Y2737401D02*
D03*
X2382200Y1057400D02*
D03*
X2502200Y817400D02*
D03*
X2142200Y5857401D02*
D03*
X2262200Y5617401D02*
D03*
Y2737401D02*
D03*
X2142200Y2497401D02*
D03*
Y1057400D02*
D03*
X1902200Y5857401D02*
D03*
X2022200Y5617401D02*
D03*
X1902200Y5377401D02*
D03*
X2022200Y5137401D02*
D03*
X1902200Y4897401D02*
D03*
X2022200Y4657401D02*
D03*
X1902200Y4417401D02*
D03*
Y2497401D02*
D03*
Y2017401D02*
D03*
X2022200Y337400D02*
D03*
X1662200Y5857401D02*
D03*
X1782200Y5617401D02*
D03*
X1662200Y5377401D02*
D03*
X1782200Y5137401D02*
D03*
X1662200Y4897401D02*
D03*
X1782200Y2737401D02*
D03*
X1662200Y1057400D02*
D03*
X1782200Y817400D02*
D03*
Y337400D02*
D03*
X1422200Y5857401D02*
D03*
X1542200Y5617401D02*
D03*
X1422200Y5377401D02*
D03*
X1542200Y5137401D02*
D03*
X1422200Y4897401D02*
D03*
X1542200Y4657401D02*
D03*
X1422200Y4417401D02*
D03*
Y2977401D02*
D03*
X1542200Y2737401D02*
D03*
X1422200Y1537401D02*
D03*
X1542200Y1297401D02*
D03*
Y337400D02*
D03*
X1182200Y5857401D02*
D03*
X1302200Y5617401D02*
D03*
X1182200Y5377401D02*
D03*
X1302200Y5137401D02*
D03*
X1182200Y4897401D02*
D03*
Y2497401D02*
D03*
Y1537401D02*
D03*
X1302200Y1297401D02*
D03*
X1182200Y1057400D02*
D03*
Y577400D02*
D03*
X1302200Y337400D02*
D03*
X942200Y5857401D02*
D03*
X1062200Y5617401D02*
D03*
Y5137401D02*
D03*
X942200Y4897401D02*
D03*
X1062200Y4657401D02*
D03*
X942200Y2497401D02*
D03*
Y1537401D02*
D03*
Y1057400D02*
D03*
X1062200Y817400D02*
D03*
Y337400D02*
D03*
X702200Y5857401D02*
D03*
Y4897401D02*
D03*
Y2497401D02*
D03*
X822200Y337400D02*
D03*
X462200Y5857401D02*
D03*
Y4897401D02*
D03*
X582200Y3217401D02*
D03*
X462200Y2497401D02*
D03*
X582200Y1777401D02*
D03*
X462200Y1057400D02*
D03*
X582200Y337400D02*
D03*
X222200Y5857401D02*
D03*
X342200Y5617401D02*
D03*
X222200Y5377401D02*
D03*
X342200Y5137401D02*
D03*
X222200Y4897401D02*
D03*
Y4417401D02*
D03*
Y3937401D02*
D03*
Y2977401D02*
D03*
Y2497401D02*
D03*
Y2017401D02*
D03*
Y1537401D02*
D03*
Y1057400D02*
D03*
X342200Y817400D02*
D03*
X222200Y577400D02*
D03*
X342200Y337400D02*
D03*
X3920000Y3310000D02*
D03*
X3825000Y2375000D02*
D03*
X5410000Y3580000D02*
D03*
X4940000Y2650000D02*
D03*
X4570000Y1920000D02*
D03*
X5110000Y2280000D02*
D03*
X4530000Y3480000D02*
D03*
X4350000Y3490000D02*
D03*
X4240000D02*
D03*
X6150000Y4950000D02*
D03*
X3275000Y3950000D02*
D03*
X3650000Y3700000D02*
D03*
D45*
X2500000Y3530000D02*
D03*
Y3740000D02*
D03*
D46*
X1680000Y2270000D02*
D03*
Y1590000D02*
D03*
D47*
X3440000Y5590000D02*
D03*
X4120000D02*
D03*
D48*
X1680000Y1502500D02*
Y1590000D01*
Y1502500D02*
X1760000Y1422500D01*
X1797500D01*
X1950000Y1270000D01*
X2182000Y1502000D02*
X2772000D01*
X1950000Y1270000D02*
X2182000Y1502000D01*
X3048000Y1778000D02*
Y2032000D01*
X2772000Y1502000D02*
X3048000Y1778000D01*
%TF.MD5,91450f3675138ec42c94288f50d05adc*%
M02*
