%TF.GenerationSoftware,Altium Limited,Altium Designer,25.3.3 (18)*%
G04 Layer_Color=8421504*
%FSLAX45Y45*%
%MOMM*%
%TF.SameCoordinates,566CE66E-0970-42B3-A130-ADE81A1B3EF9*%
%TF.FilePolarity,Positive*%
%TF.FileFunction,Paste,Top*%
%TF.Part,Single*%
G01*
G75*
%TA.AperFunction,SMDPad,CuDef*%
G04:AMPARAMS|DCode=10|XSize=1.3mm|YSize=0.9mm|CornerRadius=0.09mm|HoleSize=0mm|Usage=FLASHONLY|Rotation=90.000|XOffset=0mm|YOffset=0mm|HoleType=Round|Shape=RoundedRectangle|*
%AMROUNDEDRECTD10*
21,1,1.30000,0.72000,0,0,90.0*
21,1,1.12000,0.90000,0,0,90.0*
1,1,0.18000,0.36000,0.56000*
1,1,0.18000,0.36000,-0.56000*
1,1,0.18000,-0.36000,-0.56000*
1,1,0.18000,-0.36000,0.56000*
%
%ADD10ROUNDEDRECTD10*%
G04:AMPARAMS|DCode=11|XSize=1.3mm|YSize=0.9mm|CornerRadius=0.09mm|HoleSize=0mm|Usage=FLASHONLY|Rotation=0.000|XOffset=0mm|YOffset=0mm|HoleType=Round|Shape=RoundedRectangle|*
%AMROUNDEDRECTD11*
21,1,1.30000,0.72000,0,0,0.0*
21,1,1.12000,0.90000,0,0,0.0*
1,1,0.18000,0.56000,-0.36000*
1,1,0.18000,-0.56000,-0.36000*
1,1,0.18000,-0.56000,0.36000*
1,1,0.18000,0.56000,0.36000*
%
%ADD11ROUNDEDRECTD11*%
G04:AMPARAMS|DCode=12|XSize=1.4mm|YSize=0.95mm|CornerRadius=0.095mm|HoleSize=0mm|Usage=FLASHONLY|Rotation=180.000|XOffset=0mm|YOffset=0mm|HoleType=Round|Shape=RoundedRectangle|*
%AMROUNDEDRECTD12*
21,1,1.40000,0.76000,0,0,180.0*
21,1,1.21000,0.95000,0,0,180.0*
1,1,0.19000,-0.60500,0.38000*
1,1,0.19000,0.60500,0.38000*
1,1,0.19000,0.60500,-0.38000*
1,1,0.19000,-0.60500,-0.38000*
%
%ADD12ROUNDEDRECTD12*%
G04:AMPARAMS|DCode=13|XSize=0.6mm|YSize=1.4mm|CornerRadius=0.06mm|HoleSize=0mm|Usage=FLASHONLY|Rotation=90.000|XOffset=0mm|YOffset=0mm|HoleType=Round|Shape=RoundedRectangle|*
%AMROUNDEDRECTD13*
21,1,0.60000,1.28000,0,0,90.0*
21,1,0.48000,1.40000,0,0,90.0*
1,1,0.12000,0.64000,0.24000*
1,1,0.12000,0.64000,-0.24000*
1,1,0.12000,-0.64000,-0.24000*
1,1,0.12000,-0.64000,0.24000*
%
%ADD13ROUNDEDRECTD13*%
G04:AMPARAMS|DCode=14|XSize=0.762mm|YSize=0.762mm|CornerRadius=0.1905mm|HoleSize=0mm|Usage=FLASHONLY|Rotation=90.000|XOffset=0mm|YOffset=0mm|HoleType=Round|Shape=RoundedRectangle|*
%AMROUNDEDRECTD14*
21,1,0.76200,0.38100,0,0,90.0*
21,1,0.38100,0.76200,0,0,90.0*
1,1,0.38100,0.19050,0.19050*
1,1,0.38100,0.19050,-0.19050*
1,1,0.38100,-0.19050,-0.19050*
1,1,0.38100,-0.19050,0.19050*
%
%ADD14ROUNDEDRECTD14*%
G04:AMPARAMS|DCode=15|XSize=0.95mm|YSize=0.85mm|CornerRadius=0.085mm|HoleSize=0mm|Usage=FLASHONLY|Rotation=90.000|XOffset=0mm|YOffset=0mm|HoleType=Round|Shape=RoundedRectangle|*
%AMROUNDEDRECTD15*
21,1,0.95000,0.68000,0,0,90.0*
21,1,0.78000,0.85000,0,0,90.0*
1,1,0.17000,0.34000,0.39000*
1,1,0.17000,0.34000,-0.39000*
1,1,0.17000,-0.34000,-0.39000*
1,1,0.17000,-0.34000,0.39000*
%
%ADD15ROUNDEDRECTD15*%
%ADD16R,0.65000X1.20000*%
G04:AMPARAMS|DCode=17|XSize=1mm|YSize=1.8mm|CornerRadius=0mm|HoleSize=0mm|Usage=FLASHONLY|Rotation=225.000|XOffset=0mm|YOffset=0mm|HoleType=Round|Shape=Rectangle|*
%AMROTATEDRECTD17*
4,1,4,-0.28284,0.98995,0.98995,-0.28284,0.28284,-0.98995,-0.98995,0.28284,-0.28284,0.98995,0.0*
%
%ADD17ROTATEDRECTD17*%

%ADD18R,0.22000X1.70000*%
%ADD19R,1.70000X0.22000*%
%ADD20R,1.00000X0.60000*%
G04:AMPARAMS|DCode=21|XSize=1.4mm|YSize=0.95mm|CornerRadius=0.095mm|HoleSize=0mm|Usage=FLASHONLY|Rotation=90.000|XOffset=0mm|YOffset=0mm|HoleType=Round|Shape=RoundedRectangle|*
%AMROUNDEDRECTD21*
21,1,1.40000,0.76000,0,0,90.0*
21,1,1.21000,0.95000,0,0,90.0*
1,1,0.19000,0.38000,0.60500*
1,1,0.19000,0.38000,-0.60500*
1,1,0.19000,-0.38000,-0.60500*
1,1,0.19000,-0.38000,0.60500*
%
%ADD21ROUNDEDRECTD21*%
G04:AMPARAMS|DCode=22|XSize=0.95mm|YSize=0.85mm|CornerRadius=0.085mm|HoleSize=0mm|Usage=FLASHONLY|Rotation=180.000|XOffset=0mm|YOffset=0mm|HoleType=Round|Shape=RoundedRectangle|*
%AMROUNDEDRECTD22*
21,1,0.95000,0.68000,0,0,180.0*
21,1,0.78000,0.85000,0,0,180.0*
1,1,0.17000,-0.39000,0.34000*
1,1,0.17000,0.39000,0.34000*
1,1,0.17000,0.39000,-0.34000*
1,1,0.17000,-0.39000,-0.34000*
%
%ADD22ROUNDEDRECTD22*%
%ADD23R,0.60000X1.00000*%
%ADD24R,1.70000X2.90000*%
%ADD25R,1.00000X2.35000*%
%ADD26R,3.30000X2.35000*%
G04:AMPARAMS|DCode=27|XSize=0.762mm|YSize=0.762mm|CornerRadius=0.1905mm|HoleSize=0mm|Usage=FLASHONLY|Rotation=180.000|XOffset=0mm|YOffset=0mm|HoleType=Round|Shape=RoundedRectangle|*
%AMROUNDEDRECTD27*
21,1,0.76200,0.38100,0,0,180.0*
21,1,0.38100,0.76200,0,0,180.0*
1,1,0.38100,-0.19050,0.19050*
1,1,0.38100,0.19050,0.19050*
1,1,0.38100,0.19050,-0.19050*
1,1,0.38100,-0.19050,-0.19050*
%
%ADD27ROUNDEDRECTD27*%
%ADD28R,1.15000X1.40000*%
%ADD29R,2.30000X0.50800*%
%ADD30R,3.50000X2.00000*%
%ADD31R,1.20000X6.20000*%
D10*
X4205000Y2210000D02*
D03*
X4415000D02*
D03*
X1879600Y2298700D02*
D03*
X1669600D02*
D03*
X1498600D02*
D03*
X1288600D02*
D03*
X2930000Y4250000D02*
D03*
X2720000D02*
D03*
X3318100Y4254500D02*
D03*
X3108100D02*
D03*
X3420000Y1600000D02*
D03*
X3630000D02*
D03*
X3420000Y1800000D02*
D03*
X3630000D02*
D03*
X3605000Y3925000D02*
D03*
X3395000D02*
D03*
X2930000Y3850000D02*
D03*
X2720000D02*
D03*
X2125000Y4050000D02*
D03*
X2335000D02*
D03*
X2120000Y4310000D02*
D03*
X2330000D02*
D03*
X2120000Y4535000D02*
D03*
X2330000D02*
D03*
X2120000Y4760000D02*
D03*
X2330000D02*
D03*
X5307800Y2832100D02*
D03*
X5517800D02*
D03*
X5307800Y2628900D02*
D03*
X5517800D02*
D03*
D11*
X5765800Y4143600D02*
D03*
Y3933600D02*
D03*
X5981700D02*
D03*
Y4143600D02*
D03*
X1808000Y1857600D02*
D03*
Y1647600D02*
D03*
X1985800Y1857600D02*
D03*
Y1647600D02*
D03*
X3500000Y495000D02*
D03*
Y705000D02*
D03*
X4000000Y495000D02*
D03*
Y705000D02*
D03*
X6517300Y2033300D02*
D03*
Y1823300D02*
D03*
X5602900Y2033300D02*
D03*
Y1823300D02*
D03*
X5907700Y2033300D02*
D03*
Y1823300D02*
D03*
X6212500Y2033300D02*
D03*
Y1823300D02*
D03*
D12*
X6362700Y5589600D02*
D03*
Y5789600D02*
D03*
X1710000Y1220000D02*
D03*
Y1420000D02*
D03*
X2260000Y2990000D02*
D03*
Y3190000D02*
D03*
X1473200Y3402000D02*
D03*
Y3202000D02*
D03*
X2080000Y3420000D02*
D03*
Y3620000D02*
D03*
X1860000Y3420000D02*
D03*
Y3620000D02*
D03*
X1473200Y3595700D02*
D03*
Y3795700D02*
D03*
X2300000Y3420000D02*
D03*
Y3620000D02*
D03*
D13*
X6242300Y3943600D02*
D03*
Y4133600D02*
D03*
X6432300Y4038600D02*
D03*
D14*
X1670000Y3200300D02*
D03*
Y3340000D02*
D03*
Y3479700D02*
D03*
D15*
X1727500Y4060000D02*
D03*
X1872500D02*
D03*
X1515000Y2108200D02*
D03*
X1660000D02*
D03*
X4777500Y3960000D02*
D03*
X4922500D02*
D03*
X5237500Y3280000D02*
D03*
X5382500D02*
D03*
X3496200Y4267200D02*
D03*
X3641200D02*
D03*
X5721300Y3035300D02*
D03*
X5866300D02*
D03*
X5879000Y2425700D02*
D03*
X5734000D02*
D03*
D16*
X1416300Y1668600D02*
D03*
X1511300D02*
D03*
X1606300D02*
D03*
Y1963600D02*
D03*
X1511300D02*
D03*
X1416300D02*
D03*
X1670300Y4279700D02*
D03*
X1765300D02*
D03*
X1860300D02*
D03*
Y4574700D02*
D03*
X1765300D02*
D03*
X1670300D02*
D03*
D17*
X4905300Y3724200D02*
D03*
X3705300Y2524200D02*
D03*
D18*
X3980650Y3714350D02*
D03*
X3930650D02*
D03*
X4030650D02*
D03*
X4230649D02*
D03*
X4180649D02*
D03*
X4280649D02*
D03*
X4080649D02*
D03*
X4130649D02*
D03*
X4530649D02*
D03*
X4480649D02*
D03*
X4580648D02*
D03*
X4380649D02*
D03*
X4330649D02*
D03*
X4430649D02*
D03*
X4680648D02*
D03*
X4630648D02*
D03*
X4079951Y2534050D02*
D03*
X4029951D02*
D03*
X4129951D02*
D03*
X3929951D02*
D03*
X3979951D02*
D03*
X4329950D02*
D03*
X4279951D02*
D03*
X4379950D02*
D03*
X4179951D02*
D03*
X4229951D02*
D03*
X4579950D02*
D03*
X4529950D02*
D03*
X4629950D02*
D03*
X4429950D02*
D03*
X4479950D02*
D03*
X4679950D02*
D03*
D19*
X3715150Y3249548D02*
D03*
Y3199549D02*
D03*
Y3299548D02*
D03*
Y3099549D02*
D03*
Y3149549D02*
D03*
Y3449548D02*
D03*
Y3399548D02*
D03*
Y3499548D02*
D03*
Y3349548D02*
D03*
X4895450Y3199549D02*
D03*
Y3149549D02*
D03*
Y3249548D02*
D03*
Y3099549D02*
D03*
Y3449548D02*
D03*
Y3399548D02*
D03*
Y3499548D02*
D03*
Y3299548D02*
D03*
Y3349548D02*
D03*
X3715150Y2949549D02*
D03*
Y2899549D02*
D03*
Y2999549D02*
D03*
Y2849549D02*
D03*
Y2799550D02*
D03*
Y3049549D02*
D03*
X3715150Y2749550D02*
D03*
X4895450Y2799549D02*
D03*
Y2849549D02*
D03*
Y2749550D02*
D03*
Y2999549D02*
D03*
Y2949549D02*
D03*
Y3049549D02*
D03*
Y2899549D02*
D03*
D20*
X6517300Y1604600D02*
D03*
Y1464600D02*
D03*
X5602900Y1604600D02*
D03*
Y1464600D02*
D03*
X5907700Y1604600D02*
D03*
Y1464600D02*
D03*
X6212500Y1604600D02*
D03*
Y1464600D02*
D03*
D21*
X3040000Y1720000D02*
D03*
X3240000D02*
D03*
X2725000Y3650000D02*
D03*
X2925000D02*
D03*
D22*
X4130000Y4082500D02*
D03*
Y3937500D02*
D03*
X3960000D02*
D03*
Y4082500D02*
D03*
X3780000Y3937500D02*
D03*
Y4082500D02*
D03*
X3480000Y2732500D02*
D03*
Y2587500D02*
D03*
X4740000Y2332500D02*
D03*
Y2187500D02*
D03*
X5110000Y2447500D02*
D03*
Y2592500D02*
D03*
D23*
X2755000Y4050000D02*
D03*
X2895000D02*
D03*
D24*
X1993900Y3133700D02*
D03*
Y2733700D02*
D03*
D25*
X2507503Y3404903D02*
D03*
X2967503D02*
D03*
X2737503D02*
D03*
D26*
Y2799903D02*
D03*
D27*
X6527800Y4787900D02*
D03*
X6388100D02*
D03*
X6248400D02*
D03*
X6527800Y4559300D02*
D03*
X6388100D02*
D03*
X6248400D02*
D03*
D28*
X5713800Y2620500D02*
D03*
Y2840500D02*
D03*
X5873800D02*
D03*
Y2620500D02*
D03*
D29*
X961200Y1963420D02*
D03*
Y1883410D02*
D03*
Y1803400D02*
D03*
Y1723390D02*
D03*
Y1643380D02*
D03*
D30*
X966200Y1318420D02*
D03*
Y2288420D02*
D03*
X466200Y1318420D02*
D03*
Y2288420D02*
D03*
D31*
X351200Y1803690D02*
D03*
%TF.MD5,9c05e401f0cb228dfad34cf459188f44*%
M02*
