%TF.GenerationSoftware,Altium Limited,Altium Designer,25.3.3 (18)*%
G04 Layer_Physical_Order=1*
G04 Layer_Color=255*
%FSLAX45Y45*%
%MOMM*%
%TF.SameCoordinates,566CE66E-0970-42B3-A130-ADE81A1B3EF9*%
%TF.FilePolarity,Positive*%
%TF.FileFunction,Copper,L1,Top,Signal*%
%TF.Part,Single*%
G01*
G75*
%TA.AperFunction,SMDPad,CuDef*%
G04:AMPARAMS|DCode=10|XSize=1.3mm|YSize=0.9mm|CornerRadius=0.09mm|HoleSize=0mm|Usage=FLASHONLY|Rotation=90.000|XOffset=0mm|YOffset=0mm|HoleType=Round|Shape=RoundedRectangle|*
%AMROUNDEDRECTD10*
21,1,1.30000,0.72000,0,0,90.0*
21,1,1.12000,0.90000,0,0,90.0*
1,1,0.18000,0.36000,0.56000*
1,1,0.18000,0.36000,-0.56000*
1,1,0.18000,-0.36000,-0.56000*
1,1,0.18000,-0.36000,0.56000*
%
%ADD10ROUNDEDRECTD10*%
G04:AMPARAMS|DCode=11|XSize=1.3mm|YSize=0.9mm|CornerRadius=0.09mm|HoleSize=0mm|Usage=FLASHONLY|Rotation=0.000|XOffset=0mm|YOffset=0mm|HoleType=Round|Shape=RoundedRectangle|*
%AMROUNDEDRECTD11*
21,1,1.30000,0.72000,0,0,0.0*
21,1,1.12000,0.90000,0,0,0.0*
1,1,0.18000,0.56000,-0.36000*
1,1,0.18000,-0.56000,-0.36000*
1,1,0.18000,-0.56000,0.36000*
1,1,0.18000,0.56000,0.36000*
%
%ADD11ROUNDEDRECTD11*%
G04:AMPARAMS|DCode=12|XSize=1.4mm|YSize=0.95mm|CornerRadius=0.095mm|HoleSize=0mm|Usage=FLASHONLY|Rotation=180.000|XOffset=0mm|YOffset=0mm|HoleType=Round|Shape=RoundedRectangle|*
%AMROUNDEDRECTD12*
21,1,1.40000,0.76000,0,0,180.0*
21,1,1.21000,0.95000,0,0,180.0*
1,1,0.19000,-0.60500,0.38000*
1,1,0.19000,0.60500,0.38000*
1,1,0.19000,0.60500,-0.38000*
1,1,0.19000,-0.60500,-0.38000*
%
%ADD12ROUNDEDRECTD12*%
G04:AMPARAMS|DCode=13|XSize=0.6mm|YSize=1.4mm|CornerRadius=0.06mm|HoleSize=0mm|Usage=FLASHONLY|Rotation=90.000|XOffset=0mm|YOffset=0mm|HoleType=Round|Shape=RoundedRectangle|*
%AMROUNDEDRECTD13*
21,1,0.60000,1.28000,0,0,90.0*
21,1,0.48000,1.40000,0,0,90.0*
1,1,0.12000,0.64000,0.24000*
1,1,0.12000,0.64000,-0.24000*
1,1,0.12000,-0.64000,-0.24000*
1,1,0.12000,-0.64000,0.24000*
%
%ADD13ROUNDEDRECTD13*%
G04:AMPARAMS|DCode=14|XSize=0.762mm|YSize=0.762mm|CornerRadius=0.1905mm|HoleSize=0mm|Usage=FLASHONLY|Rotation=90.000|XOffset=0mm|YOffset=0mm|HoleType=Round|Shape=RoundedRectangle|*
%AMROUNDEDRECTD14*
21,1,0.76200,0.38100,0,0,90.0*
21,1,0.38100,0.76200,0,0,90.0*
1,1,0.38100,0.19050,0.19050*
1,1,0.38100,0.19050,-0.19050*
1,1,0.38100,-0.19050,-0.19050*
1,1,0.38100,-0.19050,0.19050*
%
%ADD14ROUNDEDRECTD14*%
G04:AMPARAMS|DCode=15|XSize=0.95mm|YSize=0.85mm|CornerRadius=0.085mm|HoleSize=0mm|Usage=FLASHONLY|Rotation=90.000|XOffset=0mm|YOffset=0mm|HoleType=Round|Shape=RoundedRectangle|*
%AMROUNDEDRECTD15*
21,1,0.95000,0.68000,0,0,90.0*
21,1,0.78000,0.85000,0,0,90.0*
1,1,0.17000,0.34000,0.39000*
1,1,0.17000,0.34000,-0.39000*
1,1,0.17000,-0.34000,-0.39000*
1,1,0.17000,-0.34000,0.39000*
%
%ADD15ROUNDEDRECTD15*%
%ADD16R,0.65000X1.20000*%
G04:AMPARAMS|DCode=17|XSize=1mm|YSize=1.8mm|CornerRadius=0mm|HoleSize=0mm|Usage=FLASHONLY|Rotation=225.000|XOffset=0mm|YOffset=0mm|HoleType=Round|Shape=Rectangle|*
%AMROTATEDRECTD17*
4,1,4,-0.28284,0.98995,0.98995,-0.28284,0.28284,-0.98995,-0.98995,0.28284,-0.28284,0.98995,0.0*
%
%ADD17ROTATEDRECTD17*%

%ADD18R,0.22000X1.70000*%
%ADD19R,1.70000X0.22000*%
%ADD20R,1.00000X0.60000*%
G04:AMPARAMS|DCode=21|XSize=1.4mm|YSize=0.95mm|CornerRadius=0.095mm|HoleSize=0mm|Usage=FLASHONLY|Rotation=90.000|XOffset=0mm|YOffset=0mm|HoleType=Round|Shape=RoundedRectangle|*
%AMROUNDEDRECTD21*
21,1,1.40000,0.76000,0,0,90.0*
21,1,1.21000,0.95000,0,0,90.0*
1,1,0.19000,0.38000,0.60500*
1,1,0.19000,0.38000,-0.60500*
1,1,0.19000,-0.38000,-0.60500*
1,1,0.19000,-0.38000,0.60500*
%
%ADD21ROUNDEDRECTD21*%
G04:AMPARAMS|DCode=22|XSize=0.95mm|YSize=0.85mm|CornerRadius=0.085mm|HoleSize=0mm|Usage=FLASHONLY|Rotation=180.000|XOffset=0mm|YOffset=0mm|HoleType=Round|Shape=RoundedRectangle|*
%AMROUNDEDRECTD22*
21,1,0.95000,0.68000,0,0,180.0*
21,1,0.78000,0.85000,0,0,180.0*
1,1,0.17000,-0.39000,0.34000*
1,1,0.17000,0.39000,0.34000*
1,1,0.17000,0.39000,-0.34000*
1,1,0.17000,-0.39000,-0.34000*
%
%ADD22ROUNDEDRECTD22*%
%ADD23R,0.60000X1.00000*%
%ADD24R,1.70000X2.90000*%
%ADD25R,1.00000X2.35000*%
%ADD26R,3.30000X2.35000*%
G04:AMPARAMS|DCode=27|XSize=0.762mm|YSize=0.762mm|CornerRadius=0.1905mm|HoleSize=0mm|Usage=FLASHONLY|Rotation=180.000|XOffset=0mm|YOffset=0mm|HoleType=Round|Shape=RoundedRectangle|*
%AMROUNDEDRECTD27*
21,1,0.76200,0.38100,0,0,180.0*
21,1,0.38100,0.76200,0,0,180.0*
1,1,0.38100,-0.19050,0.19050*
1,1,0.38100,0.19050,0.19050*
1,1,0.38100,0.19050,-0.19050*
1,1,0.38100,-0.19050,-0.19050*
%
%ADD27ROUNDEDRECTD27*%
%ADD28R,1.15000X1.40000*%
%ADD29R,2.30000X0.50800*%
%ADD30R,3.50000X2.00000*%
%ADD31R,1.20000X6.20000*%
%TA.AperFunction,Conductor*%
%ADD32C,0.20000*%
%ADD33C,1.00000*%
%ADD34C,0.40000*%
%ADD35C,0.45000*%
%ADD36C,0.30000*%
%ADD37C,2.00000*%
%TA.AperFunction,ComponentPad*%
%ADD38R,1.65000X1.65000*%
%ADD39C,1.65000*%
%ADD40C,1.60000*%
%ADD41C,1.00000*%
%ADD42R,1.65000X1.65000*%
%ADD43C,6.00000*%
%TA.AperFunction,ViaPad*%
%ADD44C,0.80000*%
%ADD45C,1.27000*%
G36*
X7149022Y50978D02*
X50978D01*
Y6249022D01*
X7149022D01*
Y50978D01*
D02*
G37*
%LPC*%
G36*
X6856876Y5934700D02*
X6855700D01*
Y5842000D01*
X6948400D01*
Y5843176D01*
X6941217Y5869983D01*
X6927341Y5894017D01*
X6907717Y5913641D01*
X6883683Y5927517D01*
X6856876Y5934700D01*
D02*
G37*
G36*
X6830300D02*
X6829124D01*
X6802317Y5927517D01*
X6778283Y5913641D01*
X6758659Y5894017D01*
X6744783Y5869983D01*
X6737600Y5843176D01*
Y5842000D01*
X6830300D01*
Y5934700D01*
D02*
G37*
G36*
X6423200Y5863184D02*
X6375400D01*
Y5802300D01*
X6458784D01*
Y5827600D01*
X6456075Y5841217D01*
X6448361Y5852761D01*
X6436817Y5860475D01*
X6423200Y5863184D01*
D02*
G37*
G36*
X6350000D02*
X6302200D01*
X6288583Y5860475D01*
X6277039Y5852761D01*
X6269325Y5841217D01*
X6266616Y5827600D01*
Y5802300D01*
X6350000D01*
Y5863184D01*
D02*
G37*
G36*
X6948400Y5816600D02*
X6855700D01*
Y5723900D01*
X6856876D01*
X6883683Y5731083D01*
X6907717Y5744959D01*
X6927341Y5764583D01*
X6941217Y5788617D01*
X6948400Y5815424D01*
Y5816600D01*
D02*
G37*
G36*
X6830300D02*
X6737600D01*
Y5815424D01*
X6744783Y5788617D01*
X6758659Y5764583D01*
X6778283Y5744959D01*
X6802317Y5731083D01*
X6829124Y5723900D01*
X6830300D01*
Y5816600D01*
D02*
G37*
G36*
X6458784Y5776900D02*
X6375400D01*
Y5716016D01*
X6423200D01*
X6436817Y5718725D01*
X6448361Y5726439D01*
X6456075Y5737983D01*
X6458784Y5751600D01*
Y5776900D01*
D02*
G37*
G36*
X6350000D02*
X6266616D01*
Y5751600D01*
X6269325Y5737983D01*
X6277039Y5726439D01*
X6288583Y5718725D01*
X6302200Y5716016D01*
X6350000D01*
Y5776900D01*
D02*
G37*
G36*
X2156000Y4845568D02*
X2084000D01*
X2072685Y4843317D01*
X2063092Y4836908D01*
X2056683Y4827315D01*
X2054432Y4816000D01*
Y4790588D01*
X1740001D01*
X1740000Y4790588D01*
X1728294Y4788259D01*
X1718371Y4781629D01*
X1648671Y4711929D01*
X1642041Y4702005D01*
X1639712Y4690300D01*
X1639712Y4690299D01*
Y4654700D01*
X1617800D01*
Y4560588D01*
X1302500D01*
Y4602500D01*
X1097500D01*
Y4397500D01*
X1302500D01*
Y4499412D01*
X1617800D01*
Y4494700D01*
X1707400D01*
Y4489300D01*
X1752600D01*
Y4574699D01*
Y4660100D01*
X1707400D01*
X1700888Y4667402D01*
Y4677630D01*
X1752670Y4729412D01*
X2054432D01*
Y4704000D01*
X2056683Y4692685D01*
X2063092Y4683092D01*
X2072685Y4676683D01*
X2084000Y4674432D01*
X2156000D01*
X2167315Y4676683D01*
X2176908Y4683092D01*
X2183317Y4692685D01*
X2185568Y4704000D01*
Y4816000D01*
X2183317Y4827315D01*
X2176908Y4836908D01*
X2167315Y4843317D01*
X2156000Y4845568D01*
D02*
G37*
G36*
X5605300Y5975288D02*
X5605299Y5975288D01*
X3194700D01*
X3182994Y5972959D01*
X3173071Y5966329D01*
X3173071Y5966328D01*
X2218371Y5011629D01*
X2211741Y5001706D01*
X2209412Y4990000D01*
X2209412Y4989999D01*
Y4625001D01*
X2209412Y4625000D01*
X2211741Y4613295D01*
X2218371Y4603371D01*
X2254794Y4566948D01*
X2264432Y4560509D01*
Y4479000D01*
X2266683Y4467685D01*
X2270201Y4462419D01*
X2269766Y4460234D01*
X2224766Y4415234D01*
X2217031Y4403656D01*
X2214314Y4390000D01*
Y4194782D01*
X2205218Y4185686D01*
X2066899D01*
X2053243Y4182969D01*
X2041665Y4175234D01*
X2014766Y4148335D01*
X2007031Y4136757D01*
X2004314Y4123101D01*
Y4054781D01*
X1962719Y4013186D01*
X1947392D01*
X1941047Y4020916D01*
X1941064Y4021000D01*
Y4047300D01*
X1872500D01*
X1799200D01*
X1793936Y4044667D01*
X1790558Y4047198D01*
Y4099000D01*
X1788346Y4110120D01*
X1782047Y4119547D01*
X1772620Y4125846D01*
X1764876Y4127387D01*
X1763351Y4137846D01*
X1786928Y4161424D01*
X1786929Y4161424D01*
X1793559Y4171348D01*
X1795888Y4183053D01*
Y4199700D01*
X1912800D01*
Y4279412D01*
X2054432D01*
Y4254000D01*
X2056683Y4242685D01*
X2063092Y4233092D01*
X2072685Y4226683D01*
X2084000Y4224432D01*
X2156000D01*
X2167315Y4226683D01*
X2176908Y4233092D01*
X2183317Y4242685D01*
X2185568Y4254000D01*
Y4366000D01*
X2183317Y4377315D01*
X2176908Y4386908D01*
X2167315Y4393317D01*
X2156000Y4395568D01*
X2084000D01*
X2072685Y4393317D01*
X2063092Y4386908D01*
X2056683Y4377315D01*
X2054432Y4366000D01*
Y4340588D01*
X1912800D01*
Y4359700D01*
X1866080D01*
X1866059Y4359805D01*
X1859429Y4369729D01*
X1859428Y4369729D01*
X1837829Y4391329D01*
X1827905Y4397959D01*
X1825781Y4398382D01*
X1822490Y4409232D01*
X1881928Y4468671D01*
X1881929Y4468671D01*
X1888559Y4478594D01*
X1890888Y4490300D01*
Y4494700D01*
X1912800D01*
Y4544112D01*
X2054432D01*
Y4479000D01*
X2056683Y4467685D01*
X2063092Y4458092D01*
X2072685Y4451682D01*
X2084000Y4449432D01*
X2156000D01*
X2167315Y4451682D01*
X2176908Y4458092D01*
X2183317Y4467685D01*
X2185568Y4479000D01*
Y4591000D01*
X2183317Y4602315D01*
X2176908Y4611907D01*
X2167315Y4618317D01*
X2156000Y4620568D01*
X2084000D01*
X2072685Y4618317D01*
X2063092Y4611907D01*
X2058669Y4605287D01*
X1912800D01*
Y4654700D01*
X1823200D01*
Y4660100D01*
X1778000D01*
Y4574699D01*
Y4489300D01*
X1802977D01*
X1806803Y4480061D01*
X1767030Y4440288D01*
X1529701D01*
X1529700Y4440288D01*
X1517995Y4437959D01*
X1508071Y4431329D01*
X1508071Y4431328D01*
X1374879Y4298137D01*
X1288255D01*
X1282020Y4308936D01*
X1262936Y4328020D01*
X1239563Y4341515D01*
X1213494Y4348500D01*
X1186506D01*
X1160436Y4341515D01*
X1137064Y4328020D01*
X1117979Y4308936D01*
X1104485Y4285563D01*
X1097500Y4259494D01*
Y4232506D01*
X1104485Y4206436D01*
X1117979Y4183064D01*
X1137064Y4163979D01*
X1160436Y4150485D01*
X1186506Y4143500D01*
X1213494D01*
X1239563Y4150485D01*
X1262936Y4163979D01*
X1282020Y4183064D01*
X1295515Y4206436D01*
X1302500Y4232506D01*
Y4236962D01*
X1360638D01*
X1364465Y4227723D01*
X1227492Y4090749D01*
X1213494Y4094500D01*
X1186506D01*
X1160436Y4087515D01*
X1137064Y4074020D01*
X1117979Y4054936D01*
X1104485Y4031563D01*
X1097500Y4005494D01*
Y3978506D01*
X1104485Y3952436D01*
X1117979Y3929064D01*
X1137064Y3909979D01*
X1160436Y3896485D01*
X1186506Y3889500D01*
X1213494D01*
X1239563Y3896485D01*
X1262936Y3909979D01*
X1282020Y3929064D01*
X1295515Y3952436D01*
X1299412Y3966983D01*
X1309412Y3965667D01*
Y3890670D01*
X1247611Y3828868D01*
X1239563Y3833515D01*
X1213494Y3840500D01*
X1186506D01*
X1160436Y3833515D01*
X1137064Y3820020D01*
X1117979Y3800936D01*
X1104485Y3777563D01*
X1097500Y3751494D01*
Y3724506D01*
X1104485Y3698436D01*
X1117979Y3675064D01*
X1137064Y3655979D01*
X1138672Y3655051D01*
X1136083Y3645392D01*
X891898Y3645391D01*
X887869Y3655391D01*
X904820Y3677482D01*
X916911Y3706674D01*
X921035Y3738000D01*
X916911Y3769326D01*
X904820Y3798518D01*
X885585Y3823585D01*
X860518Y3842820D01*
X831326Y3854911D01*
X800000Y3859035D01*
X399999D01*
X368673Y3854911D01*
X339482Y3842820D01*
X314414Y3823585D01*
X295179Y3798518D01*
X283088Y3769326D01*
X278964Y3738000D01*
X283088Y3706674D01*
X295179Y3677482D01*
X312131Y3655391D01*
X308103Y3645391D01*
X250000Y3645390D01*
X242196Y3643838D01*
X235580Y3639418D01*
X231160Y3632802D01*
X229608Y3624999D01*
X229608Y3350000D01*
X231160Y3342196D01*
X235581Y3335580D01*
X242196Y3331160D01*
X250000Y3329608D01*
X337407D01*
X339995Y3319948D01*
X333747Y3316341D01*
X313658Y3296252D01*
X299453Y3271648D01*
X292099Y3244205D01*
Y3242700D01*
X399999D01*
X507899D01*
Y3244205D01*
X500546Y3271648D01*
X486341Y3296252D01*
X466252Y3316341D01*
X460004Y3319948D01*
X462592Y3329608D01*
X737407D01*
X739996Y3319949D01*
X733748Y3316341D01*
X713658Y3296252D01*
X699453Y3271648D01*
X692100Y3244205D01*
Y3242700D01*
X800000D01*
X907900D01*
Y3244205D01*
X900547Y3271648D01*
X886341Y3296252D01*
X866252Y3316341D01*
X860004Y3319949D01*
X862592Y3329608D01*
X1137407D01*
X1139996Y3319949D01*
X1133748Y3316341D01*
X1113658Y3296252D01*
X1099453Y3271648D01*
X1092100Y3244205D01*
Y3242700D01*
X1200000D01*
X1307900D01*
Y3244205D01*
X1300547Y3271648D01*
X1286341Y3296252D01*
X1266252Y3316341D01*
X1260004Y3319949D01*
X1262592Y3329608D01*
X1291553D01*
X1335581Y3285581D01*
X1342196Y3281160D01*
X1350000Y3279608D01*
X1391160D01*
X1394194Y3269608D01*
X1387539Y3265161D01*
X1379825Y3253617D01*
X1377116Y3240000D01*
Y3214700D01*
X1569284D01*
Y3240000D01*
X1566575Y3253617D01*
X1558861Y3265161D01*
X1551906Y3269809D01*
X1554038Y3280411D01*
X1557804Y3281160D01*
X1564420Y3285581D01*
X1595369Y3316530D01*
X1604608Y3312704D01*
Y3300000D01*
X1606160Y3292196D01*
X1610581Y3285581D01*
X1617196Y3281160D01*
X1625000Y3279608D01*
X1716553D01*
X1779608Y3216553D01*
Y2970001D01*
X1779608Y2970000D01*
X1781160Y2962196D01*
X1785581Y2955580D01*
X1785581Y2955580D01*
X1830580Y2910581D01*
X1837196Y2906160D01*
X1845000Y2904608D01*
X1873711D01*
X1883500Y2904100D01*
X1883500Y2894608D01*
Y2746400D01*
X2104300D01*
Y2896261D01*
X2104300Y2902701D01*
X2108724Y2909509D01*
X2110409Y2911570D01*
X2153916Y2955078D01*
X2156179Y2954917D01*
X2163402Y2952194D01*
X2163948Y2951841D01*
X2166625Y2938382D01*
X2174339Y2926838D01*
X2185883Y2919125D01*
X2199500Y2916416D01*
X2247300D01*
Y2990000D01*
Y3063584D01*
X2199500D01*
X2185883Y3060875D01*
X2174339Y3053161D01*
X2170392Y3047255D01*
X2160392Y3050288D01*
Y3081554D01*
X2188982Y3110144D01*
X2189545Y3110986D01*
X2190327Y3111628D01*
X2191739Y3114269D01*
X2193402Y3116759D01*
X2199501Y3121922D01*
X2320500D01*
X2332010Y3124212D01*
X2341768Y3130732D01*
X2348288Y3140490D01*
X2350578Y3152000D01*
X2354210Y3154981D01*
X2356084Y3154608D01*
X2499999D01*
X2500000Y3154608D01*
X2507804Y3156160D01*
X2514419Y3160581D01*
X2514420Y3160581D01*
X2560552Y3206714D01*
X2571403Y3203422D01*
X2571741Y3201727D01*
X2578371Y3191803D01*
X2823533Y2946642D01*
X2819706Y2937403D01*
X2552503D01*
Y2662403D01*
X2922503D01*
Y2919412D01*
X3172726D01*
X3174134Y2916013D01*
X3191013Y2899134D01*
X3213065Y2890000D01*
X3236935D01*
X3258987Y2899134D01*
X3270967Y2911114D01*
X3277500Y2915032D01*
X3284033Y2911114D01*
X3296013Y2899134D01*
X3318065Y2890000D01*
X3329660D01*
X3333802Y2880000D01*
X2819790Y2365988D01*
X2119500D01*
X2107795Y2363659D01*
X2097871Y2357029D01*
X2097871Y2357028D01*
X1959413Y2218571D01*
X1953223Y2219279D01*
X1948060Y2229171D01*
Y2229559D01*
X1950674Y2242700D01*
Y2286000D01*
X1879600D01*
X1808526D01*
Y2242700D01*
X1811196Y2229278D01*
X1814063Y2224988D01*
X1808717Y2214988D01*
X1777993D01*
X1735168Y2257813D01*
Y2354700D01*
X1732917Y2366015D01*
X1726508Y2375608D01*
X1716915Y2382017D01*
X1705600Y2384268D01*
X1633600D01*
X1622285Y2382017D01*
X1612692Y2375608D01*
X1606283Y2366015D01*
X1604032Y2354700D01*
Y2329288D01*
X1564168D01*
Y2354700D01*
X1561917Y2366015D01*
X1555508Y2375608D01*
X1545915Y2382017D01*
X1534600Y2384268D01*
X1462600D01*
X1451285Y2382017D01*
X1441692Y2375608D01*
X1435283Y2366015D01*
X1433032Y2354700D01*
Y2242700D01*
X1435283Y2231385D01*
X1441692Y2221792D01*
X1451285Y2215383D01*
X1462600Y2213132D01*
X1534600D01*
X1545915Y2215383D01*
X1555508Y2221792D01*
X1561917Y2231385D01*
X1564168Y2242700D01*
Y2268112D01*
X1604032D01*
Y2242700D01*
X1606283Y2231385D01*
X1612692Y2221792D01*
X1622285Y2215383D01*
X1633600Y2213132D01*
X1693333D01*
X1743694Y2162771D01*
X1753618Y2156141D01*
X1765323Y2153812D01*
X1765324Y2153812D01*
X1968499D01*
X1968500Y2153812D01*
X1980205Y2156141D01*
X1990129Y2162771D01*
X2132170Y2304813D01*
X2832459D01*
X2832460Y2304812D01*
X2840212Y2306355D01*
X2850212Y2300070D01*
Y1854938D01*
X2673462Y1678188D01*
X2071368D01*
Y1683600D01*
X2069118Y1694915D01*
X2062708Y1704508D01*
X2053115Y1710917D01*
X2041800Y1713168D01*
X1929800D01*
X1918485Y1710917D01*
X1908893Y1704508D01*
X1902483Y1694915D01*
X1901998Y1692478D01*
X1891802D01*
X1891318Y1694915D01*
X1884908Y1704508D01*
X1875315Y1710917D01*
X1864000Y1713168D01*
X1752000D01*
X1740685Y1710917D01*
X1731093Y1704508D01*
X1724683Y1694915D01*
X1722432Y1683600D01*
Y1611600D01*
X1724683Y1600285D01*
X1731093Y1590692D01*
X1740685Y1584283D01*
X1752000Y1582032D01*
X1850311D01*
X1881371Y1550972D01*
X1881371Y1550971D01*
X1891295Y1544341D01*
X1903000Y1542012D01*
X2102599D01*
X2102600Y1542012D01*
X2114305Y1544341D01*
X2124229Y1550971D01*
X2150270Y1577012D01*
X2710336D01*
X2710337Y1577012D01*
X2722043Y1579341D01*
X2731966Y1585971D01*
X2947828Y1801833D01*
X2947829Y1801834D01*
X2954459Y1811757D01*
X2956788Y1823463D01*
X2956788Y1823464D01*
Y1970666D01*
X2966447Y1973254D01*
X2967980Y1970599D01*
X2986599Y1951980D01*
X2999118Y1944753D01*
Y1810005D01*
X2990490Y1808288D01*
X2980732Y1801768D01*
X2974212Y1792010D01*
X2971922Y1780500D01*
Y1659500D01*
X2974212Y1647990D01*
X2980732Y1638232D01*
X2990490Y1631712D01*
X3002000Y1629422D01*
X3078000D01*
X3089510Y1631712D01*
X3099268Y1638232D01*
X3105788Y1647990D01*
X3108078Y1659500D01*
Y1780500D01*
X3105788Y1792010D01*
X3099268Y1801768D01*
X3089510Y1808288D01*
X3085782Y1809030D01*
Y1938596D01*
X3086598Y1938815D01*
X3109401Y1951980D01*
X3117978Y1960557D01*
X3127217Y1956730D01*
Y1955512D01*
X3127216Y1955511D01*
X3130321Y1939904D01*
X3139162Y1926673D01*
X3223456Y1842379D01*
X3223456Y1842378D01*
X3236687Y1833537D01*
X3252294Y1830433D01*
X3351890D01*
X3354432Y1827891D01*
Y1744000D01*
X3356683Y1732685D01*
X3363092Y1723092D01*
X3372685Y1716683D01*
X3379217Y1715383D01*
Y1684617D01*
X3372685Y1683317D01*
X3363092Y1676908D01*
X3356683Y1667315D01*
X3354432Y1656000D01*
Y1572109D01*
X3313107Y1530784D01*
X2452295D01*
X2436687Y1527679D01*
X2423456Y1518838D01*
X2423456Y1518838D01*
X2309161Y1404544D01*
X2300321Y1391313D01*
X2297216Y1375705D01*
X2297216Y1375704D01*
Y1337432D01*
X2287216Y1335842D01*
X2268717Y1354341D01*
X2244683Y1368217D01*
X2217876Y1375400D01*
X2216699D01*
Y1270000D01*
Y1164600D01*
X2217876D01*
X2244683Y1171783D01*
X2268717Y1185659D01*
X2288341Y1205283D01*
X2289580Y1207428D01*
X2296273Y1207329D01*
X2300122Y1205688D01*
X2300321Y1204687D01*
X2309161Y1191456D01*
X2379455Y1121162D01*
X2379456Y1121162D01*
X2392687Y1112321D01*
X2408294Y1109216D01*
X2408296Y1109216D01*
X2876810D01*
X3394865Y591162D01*
X3394865Y591162D01*
X3408096Y582321D01*
X3423704Y579216D01*
X3423705Y579217D01*
X4076295D01*
X4076296Y579216D01*
X4091904Y582321D01*
X4105135Y591162D01*
X4408838Y894865D01*
X4417679Y908096D01*
X4420783Y923704D01*
Y1719017D01*
X4561766Y1860000D01*
X4581935D01*
X4603987Y1869134D01*
X4620866Y1886013D01*
X4621221Y1886870D01*
X4697652D01*
X4697654Y1886870D01*
X4713261Y1889974D01*
X4726492Y1898815D01*
X4840173Y2012497D01*
X4849412Y2008670D01*
Y1600297D01*
X4849412Y1600296D01*
X4851741Y1588590D01*
X4858371Y1578667D01*
X5238666Y1198372D01*
X5238666Y1198371D01*
X5248590Y1191741D01*
X5260295Y1189412D01*
X5547330D01*
X5923412Y813331D01*
Y595332D01*
X5915402Y593185D01*
X5892599Y580020D01*
X5873980Y561401D01*
X5860815Y538598D01*
X5854000Y513165D01*
Y486835D01*
X5860815Y461402D01*
X5873980Y438599D01*
X5882753Y429827D01*
X5878926Y420588D01*
X5775074D01*
X5771248Y429827D01*
X5780020Y438599D01*
X5793185Y461402D01*
X5800000Y486835D01*
Y513165D01*
X5793185Y538598D01*
X5780020Y561401D01*
X5761401Y580020D01*
X5738598Y593185D01*
X5713165Y600000D01*
X5686835D01*
X5661402Y593185D01*
X5638599Y580020D01*
X5619980Y561401D01*
X5606815Y538598D01*
X5600000Y513165D01*
Y486835D01*
X5606815Y461402D01*
X5619980Y438599D01*
X5628753Y429827D01*
X5624926Y420588D01*
X5568670D01*
X5535038Y454220D01*
X5539185Y461402D01*
X5546000Y486835D01*
Y513165D01*
X5539185Y538598D01*
X5526020Y561401D01*
X5507401Y580020D01*
X5484598Y593185D01*
X5459165Y600000D01*
X5432835D01*
X5407402Y593185D01*
X5384599Y580020D01*
X5365980Y561401D01*
X5352815Y538598D01*
X5346000Y513165D01*
Y486835D01*
X5352815Y461402D01*
X5365980Y438599D01*
X5384599Y419980D01*
X5407402Y406815D01*
X5432835Y400000D01*
X5459165D01*
X5484598Y406815D01*
X5491780Y410962D01*
X5512916Y389827D01*
X5509089Y380588D01*
X5354670D01*
X5281038Y454219D01*
X5285185Y461402D01*
X5292000Y486835D01*
Y513165D01*
X5285185Y538598D01*
X5272020Y561401D01*
X5253401Y580020D01*
X5230598Y593185D01*
X5205165Y600000D01*
X5178835D01*
X5153402Y593185D01*
X5130599Y580020D01*
X5111980Y561401D01*
X5098815Y538598D01*
X5092000Y513165D01*
Y486835D01*
X5098815Y461402D01*
X5111980Y438599D01*
X5130599Y419980D01*
X5153402Y406815D01*
X5178835Y400000D01*
X5205165D01*
X5230598Y406815D01*
X5237781Y410962D01*
X5298900Y349843D01*
X5295073Y340604D01*
X3533284D01*
Y429432D01*
X3556000D01*
X3567315Y431683D01*
X3576908Y438092D01*
X3583317Y447685D01*
X3585568Y459000D01*
Y531000D01*
X3583317Y542315D01*
X3576908Y551908D01*
X3567315Y558317D01*
X3556000Y560568D01*
X3444000D01*
X3432685Y558317D01*
X3423092Y551908D01*
X3416683Y542315D01*
X3414432Y531000D01*
Y459000D01*
X3416683Y447685D01*
X3423092Y438092D01*
X3432685Y431683D01*
X3444000Y429432D01*
X3451716D01*
Y340604D01*
X2676683D01*
X2020604Y996683D01*
Y1199183D01*
X2030020Y1208599D01*
X2043185Y1231402D01*
X2050000Y1256835D01*
Y1283165D01*
X2043185Y1308598D01*
X2030020Y1331401D01*
X2011401Y1350020D01*
X1988598Y1363185D01*
X1963165Y1370000D01*
X1936835D01*
X1911402Y1363185D01*
X1888599Y1350020D01*
X1869980Y1331401D01*
X1856815Y1308598D01*
X1851248Y1287823D01*
X1771782D01*
X1770500Y1288078D01*
X1649500D01*
X1637990Y1285788D01*
X1628232Y1279268D01*
X1621712Y1269510D01*
X1619422Y1258000D01*
Y1182000D01*
X1621712Y1170490D01*
X1628232Y1160732D01*
X1637990Y1154212D01*
X1649500Y1151922D01*
X1770500D01*
X1782010Y1154212D01*
X1791768Y1160732D01*
X1798288Y1170490D01*
X1800578Y1182000D01*
Y1206256D01*
X1872323D01*
X1879396Y1199183D01*
Y967438D01*
X1881802Y949164D01*
X1888855Y932136D01*
X1900075Y917513D01*
X2123762Y693827D01*
X2119935Y684588D01*
X1497920D01*
X1495515Y693564D01*
X1482020Y716936D01*
X1462936Y736020D01*
X1439564Y749515D01*
X1413494Y756500D01*
X1386506D01*
X1360436Y749515D01*
X1337064Y736020D01*
X1327327Y726284D01*
X1318088Y730110D01*
Y782830D01*
X1352389Y817131D01*
X1360436Y812485D01*
X1386506Y805500D01*
X1413494D01*
X1439564Y812485D01*
X1462936Y825980D01*
X1482020Y845064D01*
X1495515Y868436D01*
X1502500Y894506D01*
Y921494D01*
X1495515Y947564D01*
X1482020Y970936D01*
X1462936Y990020D01*
X1439564Y1003515D01*
X1413494Y1010500D01*
X1386506D01*
X1360436Y1003515D01*
X1337064Y990020D01*
X1317980Y970936D01*
X1304485Y947564D01*
X1297500Y921494D01*
Y894506D01*
X1304485Y868436D01*
X1309131Y860389D01*
X1265871Y817129D01*
X1259241Y807205D01*
X1256912Y795500D01*
X1256912Y795499D01*
Y607402D01*
X1256912Y607401D01*
X1259241Y595696D01*
X1265871Y585772D01*
X1331772Y519871D01*
X1334723Y517900D01*
X1331689Y507900D01*
X1292100D01*
Y412700D01*
X1400000D01*
X1507900D01*
Y500912D01*
X1507900Y507900D01*
X1516652Y510912D01*
X1560704D01*
X1560705Y510912D01*
X1572411Y513241D01*
X1582334Y519871D01*
X1645875Y583412D01*
X2121062D01*
X2576103Y128372D01*
X2576103Y128371D01*
X2586027Y121741D01*
X2597732Y119412D01*
X2597733Y119412D01*
X6707066D01*
X6707068Y119412D01*
X6718773Y121741D01*
X6728696Y128371D01*
X6941628Y341303D01*
X6941629Y341304D01*
X6948259Y351227D01*
X6950588Y362932D01*
Y2017157D01*
X7001629Y2068198D01*
X7008260Y2078122D01*
X7010588Y2089827D01*
X7010588Y2089828D01*
Y2309999D01*
X7010588Y2310000D01*
X7008260Y2321705D01*
X7001629Y2331629D01*
X7001628Y2331629D01*
X6968592Y2364666D01*
X6970000Y2368065D01*
Y2391935D01*
X6960866Y2413987D01*
X6943987Y2430866D01*
X6921935Y2440000D01*
X6898065D01*
X6880604Y2432767D01*
X6870604Y2438522D01*
Y3670755D01*
X7093725Y3893876D01*
X7104945Y3908498D01*
X7111998Y3925527D01*
X7114404Y3943800D01*
Y5374500D01*
X7111998Y5392773D01*
X7104945Y5409802D01*
X7093725Y5424424D01*
X6943000Y5575149D01*
Y5588465D01*
X6936185Y5613898D01*
X6923020Y5636701D01*
X6904401Y5655320D01*
X6881598Y5668485D01*
X6856165Y5675300D01*
X6829835D01*
X6804402Y5668485D01*
X6781599Y5655320D01*
X6762980Y5636701D01*
X6755205Y5623233D01*
X6453278D01*
Y5627600D01*
X6450988Y5639110D01*
X6444468Y5648868D01*
X6434710Y5655388D01*
X6423200Y5657678D01*
X6302200D01*
X6290690Y5655388D01*
X6280932Y5648868D01*
X6274412Y5639110D01*
X6272122Y5627600D01*
Y5551600D01*
X6274412Y5540090D01*
X6280932Y5530332D01*
X6290690Y5523812D01*
X6302200Y5521522D01*
X6423200D01*
X6434710Y5523812D01*
X6444468Y5530332D01*
X6450988Y5540090D01*
X6451302Y5541666D01*
X6748485D01*
X6749815Y5536702D01*
X6762980Y5513899D01*
X6781599Y5495280D01*
X6804402Y5482115D01*
X6829835Y5475300D01*
X6843151D01*
X6907201Y5411251D01*
X6901061Y5403249D01*
X6881598Y5414485D01*
X6856165Y5421300D01*
X6829835D01*
X6804402Y5414485D01*
X6781599Y5401320D01*
X6762980Y5382701D01*
X6749815Y5359898D01*
X6743000Y5334465D01*
Y5308135D01*
X6749815Y5282702D01*
X6762980Y5259899D01*
X6781599Y5241280D01*
X6804402Y5228115D01*
X6829835Y5221300D01*
X6856165D01*
X6881598Y5228115D01*
X6904401Y5241280D01*
X6923020Y5259899D01*
X6936185Y5282702D01*
X6943000Y5308135D01*
Y5334465D01*
X6936185Y5359898D01*
X6924949Y5379361D01*
X6932951Y5385501D01*
X6973196Y5345255D01*
Y4902627D01*
X6963957Y4898801D01*
X6900829Y4961929D01*
X6891402Y4968228D01*
X6890653Y4971338D01*
X6889961Y4978943D01*
X6904401Y4987280D01*
X6923020Y5005899D01*
X6936185Y5028702D01*
X6943000Y5054135D01*
Y5080465D01*
X6936185Y5105898D01*
X6923020Y5128701D01*
X6904401Y5147320D01*
X6881598Y5160485D01*
X6856165Y5167300D01*
X6829835D01*
X6804402Y5160485D01*
X6781599Y5147320D01*
X6762980Y5128701D01*
X6749815Y5105898D01*
X6743000Y5080465D01*
Y5054135D01*
X6749815Y5028702D01*
X6762980Y5005899D01*
X6781599Y4987280D01*
X6792671Y4980888D01*
X6789992Y4970888D01*
X6622370D01*
X5626929Y5966329D01*
X5617005Y5972959D01*
X5605300Y5975288D01*
D02*
G37*
G36*
X800000Y4621035D02*
X399999D01*
X368673Y4616911D01*
X339482Y4604820D01*
X336458Y4602500D01*
X297500D01*
Y4563541D01*
X295179Y4560518D01*
X283088Y4531326D01*
X278964Y4500000D01*
X283088Y4468674D01*
X295179Y4439482D01*
X297500Y4436458D01*
Y4397500D01*
X336458D01*
X339482Y4395180D01*
X368673Y4383089D01*
X399999Y4378964D01*
X800000D01*
X831326Y4383089D01*
X860518Y4395180D01*
X863541Y4397500D01*
X902500D01*
Y4436458D01*
X904820Y4439482D01*
X916911Y4468674D01*
X921035Y4500000D01*
X916911Y4531326D01*
X904820Y4560518D01*
X902500Y4563541D01*
Y4602500D01*
X863541D01*
X860518Y4604820D01*
X831326Y4616911D01*
X800000Y4621035D01*
D02*
G37*
G36*
Y4367035D02*
X399999D01*
X368673Y4362911D01*
X339482Y4350820D01*
X314414Y4331585D01*
X295179Y4306518D01*
X283088Y4277326D01*
X278964Y4246000D01*
X283088Y4214674D01*
X295179Y4185482D01*
X314414Y4160415D01*
X339482Y4141180D01*
X368673Y4129089D01*
X399999Y4124964D01*
X800000D01*
X831326Y4129089D01*
X860518Y4141180D01*
X885585Y4160415D01*
X904820Y4185482D01*
X916911Y4214674D01*
X921035Y4246000D01*
X916911Y4277326D01*
X904820Y4306518D01*
X885585Y4331585D01*
X860518Y4350820D01*
X831326Y4362911D01*
X800000Y4367035D01*
D02*
G37*
G36*
X1906500Y4133564D02*
X1885200D01*
Y4072700D01*
X1941064D01*
Y4099000D01*
X1938433Y4112227D01*
X1930941Y4123441D01*
X1919727Y4130933D01*
X1906500Y4133564D01*
D02*
G37*
G36*
X1859800D02*
X1838500D01*
X1825273Y4130933D01*
X1814059Y4123441D01*
X1806567Y4112227D01*
X1803936Y4099000D01*
Y4072700D01*
X1859800D01*
Y4133564D01*
D02*
G37*
G36*
X800000Y4113035D02*
X399999D01*
X368673Y4108911D01*
X339482Y4096820D01*
X314414Y4077585D01*
X295179Y4052518D01*
X283088Y4023326D01*
X278964Y3992000D01*
X283088Y3960674D01*
X295179Y3931482D01*
X314414Y3906415D01*
X339482Y3887180D01*
X368673Y3875089D01*
X399999Y3870964D01*
X800000D01*
X831326Y3875089D01*
X860518Y3887180D01*
X885585Y3906415D01*
X904820Y3931482D01*
X916911Y3960674D01*
X921035Y3992000D01*
X916911Y4023326D01*
X904820Y4052518D01*
X885585Y4077585D01*
X860518Y4096820D01*
X831326Y4108911D01*
X800000Y4113035D01*
D02*
G37*
G36*
X1569284Y3189300D02*
X1485900D01*
Y3128416D01*
X1533700D01*
X1547317Y3131125D01*
X1558861Y3138839D01*
X1566575Y3150383D01*
X1569284Y3164000D01*
Y3189300D01*
D02*
G37*
G36*
X1460500D02*
X1377116D01*
Y3164000D01*
X1379825Y3150383D01*
X1387539Y3138839D01*
X1399083Y3131125D01*
X1412700Y3128416D01*
X1460500D01*
Y3189300D01*
D02*
G37*
G36*
X1307900Y3217300D02*
X1212700D01*
Y3122100D01*
X1214205D01*
X1241648Y3129453D01*
X1266252Y3143658D01*
X1286341Y3163748D01*
X1300547Y3188352D01*
X1307900Y3215795D01*
Y3217300D01*
D02*
G37*
G36*
X1187300D02*
X1092100D01*
Y3215795D01*
X1099453Y3188352D01*
X1113658Y3163748D01*
X1133748Y3143658D01*
X1158352Y3129453D01*
X1185795Y3122100D01*
X1187300D01*
Y3217300D01*
D02*
G37*
G36*
X907900D02*
X812700D01*
Y3122100D01*
X814205D01*
X841648Y3129453D01*
X866252Y3143658D01*
X886341Y3163748D01*
X900547Y3188352D01*
X907900Y3215795D01*
Y3217300D01*
D02*
G37*
G36*
X787300D02*
X692100D01*
Y3215795D01*
X699453Y3188352D01*
X713658Y3163748D01*
X733748Y3143658D01*
X758352Y3129453D01*
X785795Y3122100D01*
X787300D01*
Y3217300D01*
D02*
G37*
G36*
X507899D02*
X412699D01*
Y3122100D01*
X414205D01*
X441647Y3129453D01*
X466252Y3143658D01*
X486341Y3163748D01*
X500546Y3188352D01*
X507899Y3215795D01*
Y3217300D01*
D02*
G37*
G36*
X387299D02*
X292099D01*
Y3215795D01*
X299453Y3188352D01*
X313658Y3163748D01*
X333747Y3143658D01*
X358352Y3129453D01*
X385794Y3122100D01*
X387299D01*
Y3217300D01*
D02*
G37*
G36*
X2320500Y3063584D02*
X2272700D01*
Y3002700D01*
X2356084D01*
Y3028000D01*
X2353375Y3041617D01*
X2345661Y3053161D01*
X2334117Y3060875D01*
X2320500Y3063584D01*
D02*
G37*
G36*
X1214205Y3083900D02*
X1212700D01*
Y2988700D01*
X1307900D01*
Y2990205D01*
X1300547Y3017648D01*
X1286341Y3042252D01*
X1266252Y3062341D01*
X1241648Y3076547D01*
X1214205Y3083900D01*
D02*
G37*
G36*
X1187300D02*
X1185795D01*
X1158352Y3076547D01*
X1133748Y3062341D01*
X1113658Y3042252D01*
X1099453Y3017648D01*
X1092100Y2990205D01*
Y2988700D01*
X1187300D01*
Y3083900D01*
D02*
G37*
G36*
X2356084Y2977300D02*
X2272700D01*
Y2916416D01*
X2320500D01*
X2334117Y2919125D01*
X2345661Y2926838D01*
X2353375Y2938382D01*
X2356084Y2952000D01*
Y2977300D01*
D02*
G37*
G36*
X1307900Y2963300D02*
X1212700D01*
Y2868100D01*
X1214205D01*
X1241648Y2875453D01*
X1266252Y2889658D01*
X1286341Y2909748D01*
X1300547Y2934352D01*
X1307900Y2961795D01*
Y2963300D01*
D02*
G37*
G36*
X1187300D02*
X1092100D01*
Y2961795D01*
X1099453Y2934352D01*
X1113658Y2909748D01*
X1133748Y2889658D01*
X1158352Y2875453D01*
X1185795Y2868100D01*
X1187300D01*
Y2963300D01*
D02*
G37*
G36*
X800000Y3097035D02*
X399999D01*
X368673Y3092911D01*
X339482Y3080820D01*
X314414Y3061585D01*
X295179Y3036518D01*
X283088Y3007326D01*
X278964Y2976000D01*
X283088Y2944674D01*
X295179Y2915482D01*
X314414Y2890415D01*
X339482Y2871180D01*
X368673Y2859089D01*
X399999Y2854964D01*
X800000D01*
X831326Y2859089D01*
X860518Y2871180D01*
X885585Y2890415D01*
X904820Y2915482D01*
X916911Y2944674D01*
X921035Y2976000D01*
X916911Y3007326D01*
X904820Y3036518D01*
X885585Y3061585D01*
X860518Y3080820D01*
X831326Y3092911D01*
X800000Y3097035D01*
D02*
G37*
G36*
X1214205Y2829900D02*
X1212700D01*
Y2734700D01*
X1307900D01*
Y2736205D01*
X1300547Y2763648D01*
X1286341Y2788252D01*
X1266252Y2808341D01*
X1241648Y2822547D01*
X1214205Y2829900D01*
D02*
G37*
G36*
X1187300D02*
X1185795D01*
X1158352Y2822547D01*
X1133748Y2808341D01*
X1113658Y2788252D01*
X1099453Y2763648D01*
X1092100Y2736205D01*
Y2734700D01*
X1187300D01*
Y2829900D01*
D02*
G37*
G36*
X1307900Y2709300D02*
X1212700D01*
Y2614100D01*
X1214205D01*
X1241648Y2621453D01*
X1266252Y2635658D01*
X1286341Y2655748D01*
X1300547Y2680352D01*
X1307900Y2707795D01*
Y2709300D01*
D02*
G37*
G36*
X1187300D02*
X1092100D01*
Y2707795D01*
X1099453Y2680352D01*
X1113658Y2655748D01*
X1133748Y2635658D01*
X1158352Y2621453D01*
X1185795Y2614100D01*
X1187300D01*
Y2709300D01*
D02*
G37*
G36*
X800000Y2843035D02*
X399999D01*
X368673Y2838911D01*
X339482Y2826820D01*
X314414Y2807585D01*
X295179Y2782518D01*
X283088Y2753326D01*
X278964Y2722000D01*
X283088Y2690674D01*
X295179Y2661482D01*
X314414Y2636415D01*
X339482Y2617180D01*
X368673Y2605089D01*
X399999Y2600964D01*
X800000D01*
X831326Y2605089D01*
X860518Y2617180D01*
X885585Y2636415D01*
X904820Y2661482D01*
X916911Y2690674D01*
X921035Y2722000D01*
X916911Y2753326D01*
X904820Y2782518D01*
X885585Y2807585D01*
X860518Y2826820D01*
X831326Y2838911D01*
X800000Y2843035D01*
D02*
G37*
G36*
X2104300Y2721000D02*
X2006600D01*
Y2563300D01*
X2104300D01*
Y2721000D01*
D02*
G37*
G36*
X1981200D02*
X1883500D01*
Y2563300D01*
X1981200D01*
Y2721000D01*
D02*
G37*
G36*
X2807900Y2607900D02*
X2712699D01*
Y2512700D01*
X2807900D01*
Y2607900D01*
D02*
G37*
G36*
X2460205D02*
X2458699D01*
Y2512700D01*
X2553900D01*
Y2514205D01*
X2546547Y2541648D01*
X2532341Y2566252D01*
X2512252Y2586342D01*
X2487648Y2600547D01*
X2460205Y2607900D01*
D02*
G37*
G36*
X2687299D02*
X2592100D01*
Y2512700D01*
X2687299D01*
Y2607900D01*
D02*
G37*
G36*
X2433299D02*
X2431795D01*
X2404352Y2600547D01*
X2379748Y2586342D01*
X2359658Y2566252D01*
X2345453Y2541648D01*
X2338100Y2514205D01*
Y2512700D01*
X2433299D01*
Y2607900D01*
D02*
G37*
G36*
X2807900Y2487300D02*
X2712699D01*
Y2392100D01*
X2807900D01*
Y2487300D01*
D02*
G37*
G36*
X2687299D02*
X2592100D01*
Y2392100D01*
X2687299D01*
Y2487300D01*
D02*
G37*
G36*
X2553900D02*
X2458699D01*
Y2392100D01*
X2460205D01*
X2487648Y2399453D01*
X2512252Y2413659D01*
X2532341Y2433748D01*
X2546547Y2458352D01*
X2553900Y2485795D01*
Y2487300D01*
D02*
G37*
G36*
X2433299D02*
X2338100D01*
Y2485795D01*
X2345453Y2458352D01*
X2359658Y2433748D01*
X2379748Y2413659D01*
X2404352Y2399453D01*
X2431795Y2392100D01*
X2433299D01*
Y2487300D01*
D02*
G37*
G36*
X1915600Y2389774D02*
X1892300D01*
Y2311400D01*
X1950674D01*
Y2354700D01*
X1948004Y2368122D01*
X1940401Y2379501D01*
X1929022Y2387104D01*
X1915600Y2389774D01*
D02*
G37*
G36*
X1866900D02*
X1843600D01*
X1830178Y2387104D01*
X1818799Y2379501D01*
X1811196Y2368122D01*
X1808526Y2354700D01*
Y2311400D01*
X1866900D01*
Y2389774D01*
D02*
G37*
G36*
X1166600Y2413820D02*
X978900D01*
Y2301120D01*
X1166600D01*
Y2413820D01*
D02*
G37*
G36*
X666600D02*
X478900D01*
Y2301120D01*
X666600D01*
Y2413820D01*
D02*
G37*
G36*
X953500D02*
X765800D01*
Y2301120D01*
X953500D01*
Y2413820D01*
D02*
G37*
G36*
X453500D02*
X265800D01*
Y2301120D01*
X453500D01*
Y2413820D01*
D02*
G37*
G36*
X1166600Y2275720D02*
X978900D01*
Y2163020D01*
X1166600D01*
Y2275720D01*
D02*
G37*
G36*
X953500D02*
X765800D01*
Y2163020D01*
X953500D01*
Y2275720D01*
D02*
G37*
G36*
X666600D02*
X478900D01*
Y2163020D01*
X666600D01*
Y2275720D01*
D02*
G37*
G36*
X453500D02*
X265800D01*
Y2163020D01*
X453500D01*
Y2275720D01*
D02*
G37*
G36*
X1694000Y2181764D02*
X1672700D01*
Y2120900D01*
X1728564D01*
Y2147200D01*
X1725933Y2160427D01*
X1718441Y2171641D01*
X1707227Y2179133D01*
X1694000Y2181764D01*
D02*
G37*
G36*
X1647300D02*
X1626000D01*
X1612773Y2179133D01*
X1601559Y2171641D01*
X1594067Y2160427D01*
X1591436Y2147200D01*
Y2120900D01*
X1647300D01*
Y2181764D01*
D02*
G37*
G36*
X1689050Y3259165D02*
X1650950D01*
X1635714Y3256134D01*
X1622797Y3247503D01*
X1614166Y3234586D01*
X1611135Y3219350D01*
Y3181250D01*
X1614166Y3166013D01*
X1622797Y3153097D01*
X1635714Y3144466D01*
X1639412Y3143730D01*
Y2712770D01*
X1310910Y2384268D01*
X1252600D01*
X1241285Y2382017D01*
X1231692Y2375608D01*
X1225283Y2366015D01*
X1223032Y2354700D01*
Y2242700D01*
X1225283Y2231385D01*
X1231692Y2221792D01*
X1241285Y2215383D01*
X1252600Y2213132D01*
X1264451D01*
X1266325Y2203710D01*
X1272956Y2193787D01*
X1343571Y2123172D01*
X1343572Y2123171D01*
X1348635Y2119788D01*
X1345602Y2109788D01*
X1313791D01*
X1313790Y2109788D01*
X1302085Y2107459D01*
X1292161Y2100829D01*
X1292161Y2100828D01*
X1185340Y1994008D01*
X1096200D01*
Y2008820D01*
X826200D01*
Y1918020D01*
Y1838010D01*
Y1758000D01*
Y1694180D01*
X820800D01*
Y1656080D01*
X961200D01*
X1101600D01*
Y1694180D01*
X1096200D01*
Y1772812D01*
X1296330D01*
X1363800Y1705343D01*
Y1588600D01*
X1453400D01*
Y1583200D01*
X1498600D01*
Y1668600D01*
Y1754000D01*
X1481400D01*
X1477257Y1764000D01*
X1505469Y1792212D01*
X1751095D01*
X1752000Y1792032D01*
X1864000D01*
X1875315Y1794283D01*
X1884908Y1800692D01*
X1891318Y1810285D01*
X1891802Y1812722D01*
X1901998D01*
X1902483Y1810285D01*
X1908893Y1800692D01*
X1918485Y1794283D01*
X1929800Y1792032D01*
X2041800D01*
X2053115Y1794283D01*
X2062708Y1800692D01*
X2069118Y1810285D01*
X2071368Y1821600D01*
Y1893600D01*
X2069118Y1904915D01*
X2062708Y1914508D01*
X2053115Y1920917D01*
X2041800Y1923168D01*
X1943490D01*
X1912429Y1954229D01*
X1902505Y1960859D01*
X1890800Y1963188D01*
X1890799Y1963188D01*
X1717864D01*
X1717863Y1963188D01*
X1706158Y1960859D01*
X1696234Y1954229D01*
X1696234Y1954228D01*
X1668039Y1926033D01*
X1658800Y1929860D01*
Y2034636D01*
X1694000D01*
X1707227Y2037267D01*
X1718441Y2044759D01*
X1725933Y2055973D01*
X1728564Y2069200D01*
Y2095500D01*
X1660000D01*
X1591436D01*
Y2069200D01*
X1594067Y2055973D01*
X1595652Y2053600D01*
X1590307Y2043600D01*
X1578198D01*
X1572853Y2053600D01*
X1575846Y2058080D01*
X1578058Y2069200D01*
Y2147200D01*
X1575846Y2158320D01*
X1569547Y2167747D01*
X1560120Y2174046D01*
X1549000Y2176258D01*
X1481000D01*
X1476623Y2175388D01*
X1377870D01*
X1342663Y2210595D01*
X1343643Y2220547D01*
X1345508Y2221792D01*
X1351917Y2231385D01*
X1354168Y2242700D01*
Y2341010D01*
X1691628Y2678471D01*
X1691629Y2678471D01*
X1698259Y2688395D01*
X1700588Y2700100D01*
X1700588Y2700101D01*
Y3143730D01*
X1704286Y3144466D01*
X1717203Y3153097D01*
X1725834Y3166013D01*
X1728865Y3181250D01*
Y3219350D01*
X1725834Y3234586D01*
X1717203Y3247503D01*
X1704286Y3256134D01*
X1689050Y3259165D01*
D02*
G37*
G36*
X695415Y2093110D02*
X676984D01*
X659181Y2088339D01*
X643219Y2079124D01*
X630186Y2066091D01*
X620970Y2050129D01*
X616200Y2032326D01*
Y2013894D01*
X620970Y1996091D01*
X630186Y1980129D01*
X643219Y1967096D01*
X659181Y1957881D01*
X676984Y1953110D01*
X695415D01*
X713219Y1957881D01*
X729181Y1967096D01*
X742214Y1980129D01*
X751429Y1996091D01*
X756200Y2013894D01*
Y2032326D01*
X751429Y2050129D01*
X742214Y2066091D01*
X729181Y2079124D01*
X713219Y2088339D01*
X695415Y2093110D01*
D02*
G37*
G36*
X436600Y2139090D02*
X363900D01*
Y1816390D01*
X436600D01*
Y2139090D01*
D02*
G37*
G36*
X338500D02*
X265800D01*
Y1816390D01*
X338500D01*
Y2139090D01*
D02*
G37*
G36*
X3278000Y1816084D02*
X3252700D01*
Y1732700D01*
X3313584D01*
Y1780500D01*
X3310875Y1794117D01*
X3303162Y1805661D01*
X3291617Y1813375D01*
X3278000Y1816084D01*
D02*
G37*
G36*
X3227300D02*
X3202000D01*
X3188383Y1813375D01*
X3176839Y1805661D01*
X3169125Y1794117D01*
X3166416Y1780500D01*
Y1732700D01*
X3227300D01*
Y1816084D01*
D02*
G37*
G36*
X3313584Y1707300D02*
X3252700D01*
Y1623916D01*
X3278000D01*
X3291617Y1626625D01*
X3303162Y1634339D01*
X3310875Y1645883D01*
X3313584Y1659500D01*
Y1707300D01*
D02*
G37*
G36*
X3227300D02*
X3166416D01*
Y1659500D01*
X3169125Y1645883D01*
X3176839Y1634339D01*
X3188383Y1626625D01*
X3202000Y1623916D01*
X3227300D01*
Y1707300D01*
D02*
G37*
G36*
X1101600Y1630680D02*
X973900D01*
Y1592580D01*
X1101600D01*
Y1630680D01*
D02*
G37*
G36*
X948500D02*
X820800D01*
Y1592580D01*
X948500D01*
Y1630680D01*
D02*
G37*
G36*
X1569200Y1754000D02*
X1524000D01*
Y1668600D01*
Y1583200D01*
X1569200D01*
Y1588600D01*
X1658800D01*
Y1748600D01*
X1569200D01*
Y1754000D01*
D02*
G37*
G36*
X695415Y1653690D02*
X676984D01*
X659181Y1648919D01*
X643219Y1639704D01*
X630186Y1626671D01*
X620970Y1610709D01*
X616200Y1592906D01*
Y1574474D01*
X620970Y1556671D01*
X630186Y1540709D01*
X643219Y1527676D01*
X659181Y1518461D01*
X676984Y1513690D01*
X695415D01*
X713219Y1518461D01*
X729181Y1527676D01*
X742214Y1540709D01*
X751429Y1556671D01*
X756200Y1574474D01*
Y1592906D01*
X751429Y1610709D01*
X742214Y1626671D01*
X729181Y1639704D01*
X713219Y1648919D01*
X695415Y1653690D01*
D02*
G37*
G36*
X436600Y1790990D02*
X363900D01*
Y1468290D01*
X436600D01*
Y1790990D01*
D02*
G37*
G36*
X338500D02*
X265800D01*
Y1468290D01*
X338500D01*
Y1790990D01*
D02*
G37*
G36*
X1770500Y1493584D02*
X1722700D01*
Y1432700D01*
X1806084D01*
Y1458000D01*
X1803375Y1471617D01*
X1795661Y1483161D01*
X1784117Y1490875D01*
X1770500Y1493584D01*
D02*
G37*
G36*
X1697300D02*
X1649500D01*
X1635883Y1490875D01*
X1624339Y1483161D01*
X1616625Y1471617D01*
X1613916Y1458000D01*
Y1432700D01*
X1697300D01*
Y1493584D01*
D02*
G37*
G36*
X1806084Y1407300D02*
X1722700D01*
Y1346416D01*
X1770500D01*
X1784117Y1349125D01*
X1795661Y1356839D01*
X1803375Y1368383D01*
X1806084Y1382000D01*
Y1407300D01*
D02*
G37*
G36*
X1697300D02*
X1613916D01*
Y1382000D01*
X1616625Y1368383D01*
X1624339Y1356839D01*
X1635883Y1349125D01*
X1649500Y1346416D01*
X1697300D01*
Y1407300D01*
D02*
G37*
G36*
X1166600Y1443820D02*
X978900D01*
Y1331120D01*
X1166600D01*
Y1443820D01*
D02*
G37*
G36*
X666600D02*
X478900D01*
Y1331120D01*
X666600D01*
Y1443820D01*
D02*
G37*
G36*
X953500D02*
X765800D01*
Y1331120D01*
X953500D01*
Y1443820D01*
D02*
G37*
G36*
X453500D02*
X265800D01*
Y1331120D01*
X453500D01*
Y1443820D01*
D02*
G37*
G36*
X2191299Y1375400D02*
X2190124D01*
X2163317Y1368217D01*
X2139283Y1354341D01*
X2119659Y1334717D01*
X2105783Y1310683D01*
X2098600Y1283876D01*
Y1282700D01*
X2191299D01*
Y1375400D01*
D02*
G37*
G36*
X1166600Y1305720D02*
X978900D01*
Y1193020D01*
X1166600D01*
Y1305720D01*
D02*
G37*
G36*
X953500D02*
X765800D01*
Y1193020D01*
X953500D01*
Y1305720D01*
D02*
G37*
G36*
X666600D02*
X478900D01*
Y1193020D01*
X666600D01*
Y1305720D01*
D02*
G37*
G36*
X453500D02*
X265800D01*
Y1193020D01*
X453500D01*
Y1305720D01*
D02*
G37*
G36*
X2191299Y1257300D02*
X2098600D01*
Y1256124D01*
X2105783Y1229317D01*
X2119659Y1205283D01*
X2139283Y1185659D01*
X2163317Y1171783D01*
X2190124Y1164600D01*
X2191299D01*
Y1257300D01*
D02*
G37*
G36*
X4056000Y566074D02*
X4012700D01*
Y507700D01*
X4091074D01*
Y531000D01*
X4088404Y544422D01*
X4080801Y555801D01*
X4069422Y563404D01*
X4056000Y566074D01*
D02*
G37*
G36*
X3987300D02*
X3944000D01*
X3930578Y563404D01*
X3919199Y555801D01*
X3911596Y544422D01*
X3908926Y531000D01*
Y507700D01*
X3987300D01*
Y566074D01*
D02*
G37*
G36*
X4091074Y482300D02*
X4012700D01*
Y423926D01*
X4056000D01*
X4069422Y426596D01*
X4080801Y434199D01*
X4088404Y445578D01*
X4091074Y459000D01*
Y482300D01*
D02*
G37*
G36*
X3987300D02*
X3908926D01*
Y459000D01*
X3911596Y445578D01*
X3919199Y434199D01*
X3930578Y426596D01*
X3944000Y423926D01*
X3987300D01*
Y482300D01*
D02*
G37*
G36*
X4951165Y600000D02*
X4924835D01*
X4899402Y593185D01*
X4876599Y580020D01*
X4857980Y561401D01*
X4844815Y538598D01*
X4838000Y513165D01*
Y486835D01*
X4844815Y461402D01*
X4857980Y438599D01*
X4876599Y419980D01*
X4899402Y406815D01*
X4924835Y400000D01*
X4951165D01*
X4976598Y406815D01*
X4999401Y419980D01*
X5018020Y438599D01*
X5031185Y461402D01*
X5038000Y486835D01*
Y513165D01*
X5031185Y538598D01*
X5018020Y561401D01*
X4999401Y580020D01*
X4976598Y593185D01*
X4951165Y600000D01*
D02*
G37*
G36*
X1507900Y387300D02*
X1412700D01*
Y292100D01*
X1507900D01*
Y387300D01*
D02*
G37*
G36*
X1387300D02*
X1292100D01*
Y292100D01*
X1387300D01*
Y387300D01*
D02*
G37*
%LPD*%
G36*
X6588071Y4918672D02*
X6588071Y4918671D01*
X6597995Y4912041D01*
X6609700Y4909712D01*
X6609701Y4909712D01*
X6789992D01*
X6792671Y4899712D01*
X6781599Y4893320D01*
X6762980Y4874701D01*
X6749815Y4851898D01*
X6743000Y4826465D01*
Y4800135D01*
X6749815Y4774702D01*
X6750155Y4774113D01*
X6721030Y4744988D01*
X6588245D01*
X6586211Y4748793D01*
X6583908Y4754988D01*
X6586665Y4768850D01*
Y4806950D01*
X6583634Y4822186D01*
X6575003Y4835103D01*
X6562086Y4843734D01*
X6546850Y4846765D01*
X6512193D01*
X5646629Y5712329D01*
X5636705Y5718959D01*
X5625000Y5721288D01*
X5624999Y5721288D01*
X4757351D01*
X4757350Y5721288D01*
X4753771Y5720576D01*
X4597108D01*
X4595791Y5730576D01*
X4597683Y5731083D01*
X4621717Y5744959D01*
X4641341Y5764583D01*
X4655217Y5788617D01*
X4662400Y5815424D01*
Y5816600D01*
X4451600D01*
Y5815424D01*
X4458783Y5788617D01*
X4472659Y5764583D01*
X4492283Y5744959D01*
X4516317Y5731083D01*
X4518209Y5730576D01*
X4516892Y5720576D01*
X3891855D01*
X3888276Y5721288D01*
X3888275Y5721288D01*
X3161010D01*
X3161009Y5721288D01*
X3149304Y5718959D01*
X3139380Y5712329D01*
X3139380Y5712328D01*
X2308371Y4881320D01*
X2301741Y4871397D01*
X2299412Y4859691D01*
X2299412Y4859690D01*
Y4845568D01*
X2294000D01*
X2282685Y4843317D01*
X2280588Y4841916D01*
X2270588Y4847261D01*
Y4977330D01*
X3207370Y5914112D01*
X4478612D01*
X4482754Y5904112D01*
X4472659Y5894017D01*
X4458783Y5869983D01*
X4451600Y5843176D01*
Y5842000D01*
X4662400D01*
Y5843176D01*
X4655217Y5869983D01*
X4641341Y5894017D01*
X4631246Y5904112D01*
X4635388Y5914112D01*
X5592630D01*
X6588071Y4918672D01*
D02*
G37*
G36*
X6417550Y4854892D02*
X6412624Y4845676D01*
X6407150Y4846765D01*
X6369050D01*
X6353814Y4843734D01*
X6340897Y4835103D01*
X6332266Y4822186D01*
X6329235Y4806950D01*
Y4768850D01*
X6332266Y4753614D01*
X6340897Y4740697D01*
X6353814Y4732066D01*
X6369050Y4729035D01*
X6403707D01*
X6439971Y4692771D01*
X6449895Y4686141D01*
X6461600Y4683812D01*
X6461601Y4683812D01*
X6733699D01*
X6733700Y4683812D01*
X6745405Y4686141D01*
X6755329Y4692771D01*
X6790626Y4728069D01*
X6804402Y4720115D01*
X6829835Y4713300D01*
X6856165D01*
X6881598Y4720115D01*
X6904401Y4733280D01*
X6917812Y4746692D01*
X6927812Y4742549D01*
Y4630051D01*
X6917812Y4625908D01*
X6904401Y4639320D01*
X6881598Y4652485D01*
X6856165Y4659300D01*
X6829835D01*
X6804402Y4652485D01*
X6781599Y4639320D01*
X6769668Y4627389D01*
X6742629Y4654429D01*
X6732706Y4661059D01*
X6721000Y4663388D01*
X6720999Y4663388D01*
X6461601D01*
X6461600Y4663388D01*
X6449895Y4661059D01*
X6439971Y4654429D01*
X6403707Y4618165D01*
X6369050D01*
X6353814Y4615134D01*
X6340897Y4606503D01*
X6332266Y4593586D01*
X6329235Y4578350D01*
Y4540250D01*
X6332266Y4525014D01*
X6340897Y4512097D01*
X6353814Y4503466D01*
X6369050Y4500435D01*
X6407150D01*
X6422386Y4503466D01*
X6435303Y4512097D01*
X6443934Y4525014D01*
X6446965Y4540250D01*
Y4574907D01*
X6460808Y4588750D01*
X6470024Y4583824D01*
X6468935Y4578350D01*
Y4540250D01*
X6471966Y4525014D01*
X6480597Y4512097D01*
X6493514Y4503466D01*
X6508750Y4500435D01*
X6546850D01*
X6562086Y4503466D01*
X6575003Y4512097D01*
X6583634Y4525014D01*
X6584370Y4528712D01*
X6642130D01*
X6748571Y4422271D01*
X6758495Y4415641D01*
X6770200Y4413312D01*
X6821100D01*
X6822417Y4403312D01*
X6804402Y4398485D01*
X6781599Y4385320D01*
X6762980Y4366701D01*
X6749815Y4343898D01*
X6743000Y4318465D01*
Y4292135D01*
X6749815Y4266702D01*
X6762980Y4243899D01*
X6781599Y4225280D01*
X6804402Y4212115D01*
X6829835Y4205300D01*
X6856165D01*
X6881598Y4212115D01*
X6904401Y4225280D01*
X6923020Y4243899D01*
X6936185Y4266702D01*
X6943000Y4292135D01*
Y4318465D01*
X6936185Y4343898D01*
X6923020Y4366701D01*
X6904401Y4385320D01*
X6881598Y4398485D01*
X6863583Y4403312D01*
X6864900Y4413312D01*
X6890799D01*
X6890800Y4413312D01*
X6902506Y4415641D01*
X6912429Y4422271D01*
X6963957Y4473800D01*
X6973196Y4469973D01*
Y3973045D01*
X6750076Y3749925D01*
X6738855Y3735302D01*
X6731802Y3718274D01*
X6729396Y3700000D01*
Y2517535D01*
X6719396Y2515457D01*
X6703987Y2530866D01*
X6681935Y2540000D01*
X6658065D01*
X6654666Y2538592D01*
X6420061Y2773197D01*
Y3057096D01*
X6417732Y3068801D01*
X6411102Y3078725D01*
X6411101Y3078725D01*
X6018649Y3471177D01*
X6008726Y3477807D01*
X5997021Y3480136D01*
X5997019Y3480136D01*
X5567238D01*
X5565110Y3483260D01*
X5563393Y3490136D01*
X5776429Y3703171D01*
X5783059Y3713095D01*
X5785388Y3724800D01*
X5785388Y3724801D01*
Y3868032D01*
X5821800D01*
X5833115Y3870283D01*
X5842708Y3876692D01*
X5849117Y3886285D01*
X5851368Y3897600D01*
Y3969600D01*
X5849117Y3980915D01*
X5842708Y3990508D01*
X5833115Y3996917D01*
X5821800Y3999168D01*
X5709800D01*
X5698485Y3996917D01*
X5688892Y3990508D01*
X5682483Y3980915D01*
X5680232Y3969600D01*
Y3897600D01*
X5682483Y3886285D01*
X5688892Y3876692D01*
X5698485Y3870283D01*
X5709800Y3868032D01*
X5724212D01*
Y3737470D01*
X5527330Y3540588D01*
X5468506D01*
X5462761Y3550588D01*
X5470000Y3568065D01*
Y3573613D01*
X5473226Y3575769D01*
X5631629Y3734171D01*
X5638259Y3744095D01*
X5640588Y3755800D01*
X5640588Y3755801D01*
Y4197330D01*
X5971970Y4528712D01*
X6191830D01*
X6192566Y4525014D01*
X6201197Y4512097D01*
X6214114Y4503466D01*
X6229350Y4500435D01*
X6267450D01*
X6282686Y4503466D01*
X6295603Y4512097D01*
X6304234Y4525014D01*
X6307265Y4540250D01*
Y4578350D01*
X6304234Y4593586D01*
X6295603Y4606503D01*
X6282686Y4615134D01*
X6267450Y4618165D01*
X6229350D01*
X6214114Y4615134D01*
X6201197Y4606503D01*
X6192566Y4593586D01*
X6191830Y4589888D01*
X5959300D01*
X5947595Y4587559D01*
X5937671Y4580929D01*
X5937671Y4580928D01*
X5588371Y4231629D01*
X5581741Y4221705D01*
X5579412Y4210000D01*
X5579412Y4209999D01*
Y3768470D01*
X5442446Y3631504D01*
X5421935Y3640000D01*
X5398065D01*
X5376013Y3630865D01*
X5359135Y3613987D01*
X5350000Y3591935D01*
Y3568065D01*
X5357239Y3550588D01*
X5351494Y3540588D01*
X5326229D01*
X5320865Y3553535D01*
X5303987Y3570414D01*
X5281935Y3579548D01*
X5266948D01*
X5262806Y3589548D01*
X5511629Y3838371D01*
X5518259Y3848295D01*
X5520588Y3860000D01*
Y4257330D01*
X6020570Y4757312D01*
X6191830D01*
X6192566Y4753614D01*
X6201197Y4740697D01*
X6214114Y4732066D01*
X6229350Y4729035D01*
X6267450D01*
X6282686Y4732066D01*
X6295603Y4740697D01*
X6304234Y4753614D01*
X6307265Y4768850D01*
Y4806950D01*
X6304234Y4822186D01*
X6295603Y4835103D01*
X6282686Y4843734D01*
X6267450Y4846765D01*
X6229350D01*
X6214114Y4843734D01*
X6201197Y4835103D01*
X6192566Y4822186D01*
X6191830Y4818488D01*
X6007901D01*
X6007900Y4818488D01*
X5996195Y4816159D01*
X5986271Y4809529D01*
X5986270Y4809528D01*
X5468371Y4291629D01*
X5461741Y4281705D01*
X5459412Y4270000D01*
X5459412Y4269999D01*
Y3872670D01*
X5228941Y3642199D01*
X5217807Y3645207D01*
X5210568Y3662685D01*
X5193690Y3679563D01*
X5171637Y3688697D01*
X5147768D01*
X5125715Y3679563D01*
X5108837Y3662685D01*
X5099703Y3640632D01*
Y3628191D01*
X5091904Y3620393D01*
X4970121D01*
X4966295Y3629632D01*
X5032579Y3695916D01*
X4877016Y3851479D01*
X4778021Y3752484D01*
X4900874Y3629632D01*
X4897047Y3620393D01*
X4711648D01*
Y3819349D01*
X4667048D01*
Y3824750D01*
X4643349D01*
Y3714350D01*
Y3603239D01*
X4650060Y3601520D01*
X4652388Y3589815D01*
X4659019Y3579892D01*
X4670734Y3568177D01*
X4670735Y3568176D01*
X4680658Y3561546D01*
X4692363Y3559217D01*
X4692365Y3559217D01*
X5027330D01*
X5031157Y3549978D01*
X5011315Y3530136D01*
X5000449D01*
Y3530548D01*
X4790450D01*
Y3468548D01*
Y3392451D01*
X4780450Y3388309D01*
X4631629Y3537130D01*
X4631628Y3537131D01*
X4611236Y3557523D01*
Y3603950D01*
X4617949D01*
Y3714350D01*
Y3824750D01*
X4612236D01*
Y3868979D01*
X4672670Y3929412D01*
X4714442D01*
Y3921000D01*
X4716654Y3909880D01*
X4722953Y3900453D01*
X4732380Y3894154D01*
X4743500Y3891942D01*
X4811500D01*
X4822620Y3894154D01*
X4832047Y3900453D01*
X4838346Y3909880D01*
X4840558Y3921000D01*
Y3999000D01*
X4838346Y4010120D01*
X4832047Y4019547D01*
X4822620Y4025846D01*
X4811500Y4028058D01*
X4743500D01*
X4732380Y4025846D01*
X4722953Y4019547D01*
X4716654Y4010120D01*
X4714442Y3999000D01*
Y3990588D01*
X4660000D01*
X4648294Y3988259D01*
X4647197Y3987526D01*
X4639702Y3994545D01*
X4650185Y4012702D01*
X4657000Y4038135D01*
Y4064465D01*
X4650185Y4089898D01*
X4637020Y4112701D01*
X4618401Y4131320D01*
X4595598Y4144485D01*
X4570165Y4151300D01*
X4543835D01*
X4518402Y4144485D01*
X4495599Y4131320D01*
X4476980Y4112701D01*
X4463815Y4089898D01*
X4457000Y4064465D01*
Y4045499D01*
X4447000Y4041357D01*
X4437488Y4050870D01*
Y4396530D01*
X4511219Y4470262D01*
X4518402Y4466115D01*
X4543835Y4459300D01*
X4570165D01*
X4595598Y4466115D01*
X4618401Y4479280D01*
X4637020Y4497899D01*
X4650185Y4520702D01*
X4657000Y4546135D01*
Y4572465D01*
X4650185Y4597898D01*
X4637020Y4620701D01*
X4618401Y4639320D01*
X4595598Y4652485D01*
X4570165Y4659300D01*
X4543835D01*
X4518402Y4652485D01*
X4495599Y4639320D01*
X4476980Y4620701D01*
X4463815Y4597898D01*
X4457000Y4572465D01*
Y4546135D01*
X4463815Y4520702D01*
X4467962Y4513519D01*
X4401327Y4446884D01*
X4392088Y4450711D01*
Y4605130D01*
X4511220Y4724262D01*
X4518402Y4720115D01*
X4543835Y4713300D01*
X4570165D01*
X4595598Y4720115D01*
X4618401Y4733280D01*
X4637020Y4751899D01*
X4650185Y4774702D01*
X4657000Y4800135D01*
Y4826465D01*
X4650185Y4851898D01*
X4637020Y4874701D01*
X4618401Y4893320D01*
X4595598Y4906485D01*
X4570165Y4913300D01*
X4543835D01*
X4518402Y4906485D01*
X4495599Y4893320D01*
X4476980Y4874701D01*
X4463815Y4851898D01*
X4457000Y4826465D01*
Y4800135D01*
X4463815Y4774702D01*
X4467962Y4767520D01*
X4355927Y4655484D01*
X4346688Y4659311D01*
Y4813730D01*
X4511219Y4978262D01*
X4518402Y4974115D01*
X4543835Y4967300D01*
X4570165D01*
X4595598Y4974115D01*
X4618401Y4987280D01*
X4637020Y5005899D01*
X4650185Y5028702D01*
X4657000Y5054135D01*
Y5080465D01*
X4650185Y5105898D01*
X4637020Y5128701D01*
X4618401Y5147320D01*
X4595598Y5160485D01*
X4570165Y5167300D01*
X4543835D01*
X4518402Y5160485D01*
X4495599Y5147320D01*
X4476980Y5128701D01*
X4463815Y5105898D01*
X4457000Y5080465D01*
Y5054135D01*
X4463815Y5028702D01*
X4467962Y5021519D01*
X4310527Y4864084D01*
X4301288Y4867911D01*
Y5022330D01*
X4511220Y5232262D01*
X4518402Y5228115D01*
X4543835Y5221300D01*
X4570165D01*
X4595598Y5228115D01*
X4618401Y5241280D01*
X4637020Y5259899D01*
X4650185Y5282702D01*
X4657000Y5308135D01*
Y5334465D01*
X4650185Y5359898D01*
X4637020Y5382701D01*
X4628248Y5391473D01*
X4632074Y5400712D01*
X4794962D01*
X5267303Y4928371D01*
X5277227Y4921741D01*
X5288932Y4919412D01*
X5288933Y4919412D01*
X6097726D01*
X6099134Y4916013D01*
X6116013Y4899134D01*
X6138065Y4890000D01*
X6161935D01*
X6183987Y4899134D01*
X6200865Y4916013D01*
X6210000Y4938065D01*
Y4961935D01*
X6200865Y4983987D01*
X6183987Y5000866D01*
X6161935Y5010000D01*
X6138065D01*
X6116013Y5000866D01*
X6099134Y4983987D01*
X6097726Y4980588D01*
X5301602D01*
X4829261Y5452929D01*
X4819337Y5459559D01*
X4807632Y5461888D01*
X4807631Y5461888D01*
X4511438D01*
X4511437Y5461888D01*
X4499731Y5459559D01*
X4489808Y5452929D01*
X4489807Y5452928D01*
X4209071Y5172192D01*
X4202441Y5162269D01*
X4200112Y5150563D01*
X4200113Y5150562D01*
Y4147585D01*
X4190113Y4143165D01*
X4182227Y4148433D01*
X4169000Y4151064D01*
X4142701D01*
Y4082501D01*
Y4013936D01*
X4169000D01*
X4182227Y4016567D01*
X4190113Y4021835D01*
X4200113Y4017415D01*
Y3994235D01*
X4190113Y3991202D01*
X4189547Y3992047D01*
X4180120Y3998347D01*
X4169000Y4000558D01*
X4091000D01*
X4079880Y3998347D01*
X4070453Y3992047D01*
X4064154Y3982620D01*
X4061942Y3971500D01*
Y3964424D01*
X4028058D01*
Y3971500D01*
X4025846Y3982620D01*
X4019547Y3992047D01*
X4010120Y3998347D01*
X3999000Y4000558D01*
X3921000D01*
X3909880Y3998347D01*
X3900453Y3992047D01*
X3894154Y3982620D01*
X3891942Y3971500D01*
Y3903500D01*
X3894154Y3892380D01*
X3900453Y3882953D01*
X3909880Y3876654D01*
X3921000Y3874442D01*
X3999000D01*
X4010120Y3876654D01*
X4019547Y3882953D01*
X4025846Y3892380D01*
X4028008Y3903249D01*
X4043894D01*
X4047721Y3894010D01*
X4009021Y3855310D01*
X4002390Y3845387D01*
X4000062Y3833681D01*
X3997601Y3824750D01*
X3993349D01*
Y3714350D01*
X3967949D01*
Y3824750D01*
X3944250D01*
Y3819349D01*
X3899650D01*
Y3756673D01*
X3890411Y3752846D01*
X3810588Y3832670D01*
Y3874442D01*
X3819000D01*
X3830120Y3876654D01*
X3839547Y3882953D01*
X3845847Y3892380D01*
X3848058Y3903500D01*
Y3971500D01*
X3845847Y3982620D01*
X3839547Y3992047D01*
X3830120Y3998347D01*
X3819000Y4000558D01*
X3774407D01*
X3771876Y4003936D01*
X3776878Y4013936D01*
X3819000D01*
X3832227Y4016567D01*
X3843441Y4024060D01*
X3850933Y4035273D01*
X3853564Y4048500D01*
Y4069801D01*
X3780000D01*
Y4082501D01*
X3767300D01*
Y4151064D01*
X3741000D01*
X3739260Y4152493D01*
X3738681Y4165415D01*
X3935938Y4362672D01*
X3935938Y4362672D01*
X3944779Y4375903D01*
X3947883Y4391511D01*
Y4559481D01*
X3957883Y4563623D01*
X3972348Y4549159D01*
X3996952Y4534953D01*
X4024395Y4527600D01*
X4025900D01*
Y4635500D01*
Y4743400D01*
X4024395D01*
X3996952Y4736047D01*
X3972348Y4721841D01*
X3954474Y4703968D01*
X3952323Y4703498D01*
X3945863Y4703955D01*
X3942627Y4705070D01*
X3935938Y4715079D01*
X3935938Y4715080D01*
X3812179Y4838838D01*
X3798948Y4847679D01*
X3783341Y4850784D01*
X3783340Y4850784D01*
X2943101D01*
X2943100Y4850784D01*
X2927493Y4847679D01*
X2914262Y4838838D01*
X2813423Y4738000D01*
X2666100D01*
Y4533000D01*
X2727816D01*
Y4335568D01*
X2684000D01*
X2672685Y4333317D01*
X2663092Y4326908D01*
X2662944Y4326686D01*
X2624501D01*
X2490953Y4460234D01*
X2479376Y4467969D01*
X2465720Y4470686D01*
X2401796D01*
X2395452Y4478416D01*
X2395568Y4479000D01*
Y4591000D01*
X2393318Y4602315D01*
X2386908Y4611907D01*
X2377315Y4618317D01*
X2366000Y4620568D01*
X2294000D01*
X2288737Y4619521D01*
X2270588Y4637670D01*
Y4672739D01*
X2280588Y4678084D01*
X2282685Y4676683D01*
X2294000Y4674432D01*
X2366000D01*
X2377315Y4676683D01*
X2386908Y4683092D01*
X2393318Y4692685D01*
X2395568Y4704000D01*
Y4816000D01*
X2393318Y4827315D01*
X2386908Y4836908D01*
X2377315Y4843317D01*
X2372069Y4844361D01*
X2368778Y4855211D01*
X3173679Y5660112D01*
X3885409D01*
X3888988Y5659400D01*
X3888989Y5659401D01*
X4485538D01*
X4489680Y5649401D01*
X4476980Y5636701D01*
X4463815Y5613898D01*
X4457000Y5588465D01*
Y5562135D01*
X4463815Y5536702D01*
X4476980Y5513899D01*
X4495599Y5495280D01*
X4518402Y5482115D01*
X4543835Y5475300D01*
X4570165D01*
X4595598Y5482115D01*
X4618401Y5495280D01*
X4637020Y5513899D01*
X4650185Y5536702D01*
X4657000Y5562135D01*
Y5588465D01*
X4650185Y5613898D01*
X4637020Y5636701D01*
X4624320Y5649401D01*
X4628462Y5659401D01*
X4756637D01*
X4756638Y5659400D01*
X4760217Y5660112D01*
X5612330D01*
X6417550Y4854892D01*
D02*
G37*
G36*
X3788425Y4747239D02*
X3784598Y4738000D01*
X3771106D01*
X3745036Y4731015D01*
X3721664Y4717520D01*
X3702580Y4698436D01*
X3689085Y4675064D01*
X3682100Y4648994D01*
Y4622006D01*
X3689085Y4595936D01*
X3702580Y4572564D01*
X3721664Y4553480D01*
X3745036Y4539985D01*
X3754012Y4537580D01*
Y4517980D01*
X3643571Y4407539D01*
X3636941Y4397616D01*
X3634612Y4385910D01*
X3634612Y4385909D01*
Y4335258D01*
X3608280D01*
X3599288Y4338432D01*
X3596959Y4350137D01*
X3590329Y4360060D01*
X3561188Y4389202D01*
Y4537580D01*
X3570164Y4539985D01*
X3593536Y4553480D01*
X3612620Y4572564D01*
X3626115Y4595936D01*
X3633100Y4622006D01*
Y4648994D01*
X3626115Y4675064D01*
X3612620Y4698436D01*
X3593536Y4717520D01*
X3570164Y4731015D01*
X3544094Y4738000D01*
X3517106D01*
X3491036Y4731015D01*
X3467664Y4717520D01*
X3448580Y4698436D01*
X3435085Y4675064D01*
X3428100Y4648994D01*
Y4622006D01*
X3435085Y4595936D01*
X3448580Y4572564D01*
X3467664Y4553480D01*
X3491036Y4539985D01*
X3500012Y4537580D01*
Y4376533D01*
X3500012Y4376532D01*
X3502341Y4364826D01*
X3508971Y4354903D01*
X3513871Y4350003D01*
X3510044Y4340764D01*
X3508900D01*
Y4267200D01*
Y4193636D01*
X3530200D01*
X3530382Y4193672D01*
X3538112Y4187328D01*
Y4127658D01*
X3508371Y4097917D01*
X3501741Y4087994D01*
X3499412Y4076289D01*
X3499412Y4076287D01*
Y3820001D01*
X3499412Y3820000D01*
X3501741Y3808295D01*
X3508371Y3798371D01*
X3591408Y3715334D01*
X3590000Y3711935D01*
Y3688065D01*
X3596328Y3672788D01*
X3589646Y3662788D01*
X3505470D01*
X3287496Y3880761D01*
X3290799Y3891601D01*
X3304025Y3897079D01*
X3304531Y3896741D01*
X3316236Y3894412D01*
X3316237Y3894412D01*
X3329432D01*
Y3869000D01*
X3331683Y3857685D01*
X3338092Y3848092D01*
X3347685Y3841683D01*
X3359000Y3839432D01*
X3431000D01*
X3442315Y3841683D01*
X3451908Y3848092D01*
X3458317Y3857685D01*
X3460568Y3869000D01*
Y3981000D01*
X3458317Y3992315D01*
X3451908Y4001908D01*
X3442315Y4008317D01*
X3431000Y4010568D01*
X3359000D01*
X3347685Y4008317D01*
X3338092Y4001908D01*
X3331683Y3992315D01*
X3331682Y3992313D01*
X3320832Y3989021D01*
X3308987Y4000866D01*
X3286935Y4010000D01*
X3263065D01*
X3241013Y4000866D01*
X3224135Y3983987D01*
X3216601Y3965799D01*
X3205761Y3962496D01*
X3138688Y4029570D01*
Y4168932D01*
X3144100D01*
X3155415Y4171183D01*
X3165008Y4177592D01*
X3171417Y4187185D01*
X3173668Y4198500D01*
Y4310500D01*
X3171417Y4321815D01*
X3165008Y4331408D01*
X3155415Y4337817D01*
X3144100Y4340068D01*
X3138688D01*
Y4454330D01*
X3228989Y4544631D01*
X3237036Y4539985D01*
X3263106Y4533000D01*
X3290094D01*
X3316164Y4539985D01*
X3339536Y4553480D01*
X3358620Y4572564D01*
X3372115Y4595936D01*
X3379100Y4622006D01*
Y4648994D01*
X3372115Y4675064D01*
X3358620Y4698436D01*
X3339536Y4717520D01*
X3316164Y4731015D01*
X3290094Y4738000D01*
X3263106D01*
X3237036Y4731015D01*
X3213664Y4717520D01*
X3194580Y4698436D01*
X3181085Y4675064D01*
X3174100Y4648994D01*
Y4622006D01*
X3181085Y4595936D01*
X3185731Y4587889D01*
X3086471Y4488629D01*
X3079841Y4478705D01*
X3077512Y4467000D01*
X3077512Y4466999D01*
Y4340068D01*
X3072100D01*
X3060785Y4337817D01*
X3051192Y4331408D01*
X3044783Y4321815D01*
X3042532Y4310500D01*
Y4198500D01*
X3044783Y4187185D01*
X3051192Y4177592D01*
X3060785Y4171183D01*
X3072100Y4168932D01*
X3077512D01*
Y4029888D01*
X3067512Y4025746D01*
X3055588Y4037670D01*
Y4124999D01*
X3055588Y4125000D01*
X3053259Y4136705D01*
X3046629Y4146629D01*
X3046628Y4146630D01*
X2995568Y4197690D01*
Y4306000D01*
X2993317Y4317315D01*
X2986908Y4326908D01*
X2977315Y4333317D01*
X2966000Y4335568D01*
X2954988D01*
Y4524630D01*
X2974989Y4544631D01*
X2983036Y4539985D01*
X3009106Y4533000D01*
X3036094D01*
X3062164Y4539985D01*
X3085536Y4553480D01*
X3104620Y4572564D01*
X3118115Y4595936D01*
X3125100Y4622006D01*
Y4648994D01*
X3118115Y4675064D01*
X3104620Y4698436D01*
X3085536Y4717520D01*
X3062164Y4731015D01*
X3036094Y4738000D01*
X3009106D01*
X2983036Y4731015D01*
X2959664Y4717520D01*
X2940580Y4698436D01*
X2927085Y4675064D01*
X2920100Y4648994D01*
Y4622006D01*
X2927085Y4595936D01*
X2931731Y4587889D01*
X2902771Y4558929D01*
X2896141Y4549005D01*
X2893812Y4537300D01*
X2893812Y4537299D01*
Y4335531D01*
X2882685Y4333317D01*
X2873092Y4326908D01*
X2866683Y4317315D01*
X2864432Y4306000D01*
Y4194000D01*
X2866683Y4182685D01*
X2873092Y4173092D01*
X2882685Y4166683D01*
X2894000Y4164432D01*
X2942311D01*
X2994412Y4112330D01*
Y4025001D01*
X2994412Y4025000D01*
X2996741Y4013295D01*
X3003371Y4003371D01*
X3446971Y3559771D01*
X3456895Y3553141D01*
X3468600Y3550812D01*
X3759054D01*
X3770080Y3539787D01*
X3766253Y3530548D01*
X3610150D01*
Y3468548D01*
Y3368548D01*
Y3268548D01*
Y3168549D01*
Y3080137D01*
X3546610D01*
X3546609Y3080137D01*
X3534904Y3077808D01*
X3524980Y3071178D01*
X3524979Y3071177D01*
X3508039Y3054236D01*
X3498800Y3058063D01*
Y3136900D01*
X3390900D01*
X3283000D01*
Y3057087D01*
X3273761Y3053261D01*
X3268293Y3058729D01*
X3258369Y3065359D01*
X3246664Y3067688D01*
X3246663Y3067688D01*
X2845570D01*
X2670587Y3242670D01*
Y3267403D01*
X2807503D01*
Y3542403D01*
X2772035D01*
Y3561220D01*
X2774510Y3561712D01*
X2784268Y3568232D01*
X2790788Y3577990D01*
X2793078Y3589500D01*
Y3710500D01*
X2790788Y3722010D01*
X2784268Y3731768D01*
X2774510Y3738288D01*
X2763000Y3740578D01*
X2753334D01*
Y3764432D01*
X2756000D01*
X2767315Y3766683D01*
X2776908Y3773092D01*
X2783317Y3782685D01*
X2785568Y3794000D01*
Y3906000D01*
X2783317Y3917315D01*
X2776908Y3926908D01*
X2767315Y3933317D01*
X2756000Y3935568D01*
X2755183D01*
Y3954031D01*
X2755183Y3954032D01*
X2753081Y3964600D01*
X2759452Y3973976D01*
X2760512Y3974600D01*
X2810400D01*
Y4037300D01*
X2755000D01*
Y4062700D01*
X2810400D01*
Y4125400D01*
X2760512D01*
X2759452Y4126024D01*
X2753081Y4135400D01*
X2755183Y4145968D01*
X2755183Y4145969D01*
Y4164432D01*
X2756000D01*
X2767315Y4166683D01*
X2776908Y4173092D01*
X2783317Y4182685D01*
X2785568Y4194000D01*
Y4277723D01*
X2797438Y4289593D01*
X2797438Y4289593D01*
X2806279Y4302824D01*
X2809384Y4318432D01*
Y4533000D01*
X2871100D01*
Y4680323D01*
X2959993Y4769217D01*
X3766448D01*
X3788425Y4747239D01*
D02*
G37*
G36*
X3866316Y4559194D02*
Y4408404D01*
X3713497Y4255585D01*
X3704258Y4259412D01*
Y4306200D01*
X3702046Y4317320D01*
X3695788Y4326687D01*
Y4373240D01*
X3806229Y4483681D01*
X3812859Y4493605D01*
X3815188Y4505310D01*
Y4537580D01*
X3824164Y4539985D01*
X3847536Y4553480D01*
X3857077Y4563021D01*
X3866316Y4559194D01*
D02*
G37*
G36*
X2589412Y4097330D02*
Y3916911D01*
X2580173Y3913084D01*
X2432629Y4060629D01*
X2422706Y4067259D01*
X2411000Y4069588D01*
X2410999Y4069587D01*
X2400568D01*
Y4106000D01*
X2398318Y4117315D01*
X2391908Y4126908D01*
X2382315Y4133317D01*
X2371000Y4135568D01*
X2299000D01*
X2287685Y4133317D01*
X2278092Y4126908D01*
X2271683Y4117315D01*
X2269432Y4106000D01*
Y3994000D01*
X2271683Y3982685D01*
X2278092Y3973092D01*
X2287685Y3966683D01*
X2299000Y3964432D01*
X2371000D01*
X2382315Y3966683D01*
X2391908Y3973092D01*
X2398318Y3982685D01*
X2400242Y3992359D01*
X2409304Y3997438D01*
X2556351Y3850392D01*
X2552209Y3840392D01*
X2440059Y3840392D01*
X2440057Y3840392D01*
X2432254Y3838840D01*
X2425638Y3834419D01*
X2411479Y3820260D01*
X2407059Y3813645D01*
X2405506Y3805841D01*
Y3661888D01*
X2395507Y3660903D01*
X2393375Y3671617D01*
X2385661Y3683162D01*
X2374117Y3690875D01*
X2360500Y3693584D01*
X2312701D01*
Y3620000D01*
X2300001D01*
Y3607300D01*
X2203917D01*
Y3582000D01*
X2206625Y3568383D01*
X2214339Y3556839D01*
X2223987Y3550392D01*
X2222497Y3540818D01*
X2222323Y3540392D01*
X2157677D01*
X2157503Y3540818D01*
X2156013Y3550392D01*
X2165661Y3556839D01*
X2173375Y3568383D01*
X2176084Y3582000D01*
Y3607300D01*
X2080000D01*
X1983917D01*
Y3582000D01*
X1986625Y3568383D01*
X1994339Y3556839D01*
X2003987Y3550392D01*
X2002498Y3540819D01*
X2002324Y3540392D01*
X1937677D01*
X1937503Y3540819D01*
X1936013Y3550392D01*
X1945662Y3556839D01*
X1953375Y3568383D01*
X1956084Y3582000D01*
Y3607300D01*
X1860000D01*
X1763917D01*
Y3582000D01*
X1766625Y3568383D01*
X1774339Y3556839D01*
X1783987Y3550392D01*
X1782498Y3540820D01*
X1782324Y3540392D01*
X1750392D01*
X1740392Y3548753D01*
Y3549998D01*
X1740392Y3550000D01*
X1738840Y3557803D01*
X1734419Y3564419D01*
X1734418Y3564420D01*
X1584420Y3714419D01*
X1577804Y3718840D01*
X1570000Y3720392D01*
X1558682D01*
X1555649Y3730392D01*
X1558861Y3732539D01*
X1566575Y3744083D01*
X1569284Y3757700D01*
Y3783000D01*
X1473200D01*
X1377116D01*
Y3757700D01*
X1379825Y3744083D01*
X1387539Y3732539D01*
X1390751Y3730392D01*
X1387718Y3720392D01*
X1375001D01*
X1375000Y3720392D01*
X1367196Y3718840D01*
X1360580Y3714419D01*
X1291553Y3645392D01*
X1263917D01*
X1261328Y3655051D01*
X1262936Y3655979D01*
X1282020Y3675064D01*
X1295515Y3698436D01*
X1302500Y3724506D01*
Y3751494D01*
X1295515Y3777563D01*
X1290868Y3785611D01*
X1361629Y3856371D01*
X1368259Y3866295D01*
X1370588Y3878000D01*
Y4057330D01*
X1562370Y4249112D01*
X1609812D01*
X1613955Y4239112D01*
X1591271Y4216429D01*
X1584641Y4206505D01*
X1582312Y4194800D01*
X1582312Y4194799D01*
Y3977101D01*
X1582312Y3977100D01*
X1584641Y3965395D01*
X1591271Y3955471D01*
X1658371Y3888371D01*
X1668295Y3881741D01*
X1680000Y3879412D01*
X1984999D01*
X1985000Y3879412D01*
X1996705Y3881741D01*
X2006629Y3888371D01*
X2083737Y3965479D01*
X2089000Y3964432D01*
X2161000D01*
X2172315Y3966683D01*
X2181908Y3973092D01*
X2188317Y3982685D01*
X2190568Y3994000D01*
Y4106000D01*
X2190452Y4106584D01*
X2196796Y4114314D01*
X2220000D01*
X2233656Y4117031D01*
X2245234Y4124766D01*
X2275234Y4154767D01*
X2282969Y4166344D01*
X2285686Y4180000D01*
Y4218204D01*
X2293416Y4224548D01*
X2294000Y4224432D01*
X2366000D01*
X2377315Y4226683D01*
X2386908Y4233092D01*
X2393318Y4242685D01*
X2395568Y4254000D01*
Y4279412D01*
X2407330D01*
X2589412Y4097330D01*
D02*
G37*
G36*
X2584486Y4265766D02*
X2596063Y4258031D01*
X2609720Y4255314D01*
X2654432D01*
Y4194000D01*
X2656683Y4182685D01*
X2663092Y4173092D01*
X2667333Y4170259D01*
X2668792Y4158037D01*
X2656162Y4145407D01*
X2650306Y4136643D01*
X2648950Y4135859D01*
X2638866Y4134872D01*
X2638161Y4135097D01*
X2441629Y4331629D01*
X2431706Y4338259D01*
X2420000Y4340588D01*
X2419999Y4340588D01*
X2395568D01*
Y4366000D01*
X2393318Y4377315D01*
X2386908Y4386908D01*
X2383306Y4389314D01*
X2386340Y4399314D01*
X2450938D01*
X2584486Y4265766D01*
D02*
G37*
G36*
X3711942Y3942882D02*
Y3903500D01*
X3714154Y3892380D01*
X3720453Y3882953D01*
X3729880Y3876654D01*
X3741000Y3874442D01*
X3749412D01*
Y3820001D01*
X3749412Y3820000D01*
X3751741Y3808294D01*
X3758371Y3798371D01*
X3878236Y3678506D01*
X3878237Y3678505D01*
X3888160Y3671875D01*
X3899650Y3669589D01*
Y3622934D01*
X3890411Y3619107D01*
X3670588Y3838930D01*
Y3910000D01*
X3670568Y3910099D01*
Y3970113D01*
X3680568Y3974255D01*
X3711942Y3942882D01*
D02*
G37*
G36*
X1720000Y3550000D02*
Y3450000D01*
X1625000Y3449999D01*
X1600000Y3424999D01*
Y3350000D01*
X1550000Y3300000D01*
X1350000D01*
X1300000Y3350000D01*
X250000Y3350000D01*
X250000Y3624999D01*
X359233Y3624999D01*
X368673Y3621089D01*
X399999Y3616964D01*
X800000D01*
X831326Y3621089D01*
X840768Y3624999D01*
X1300000Y3625000D01*
X1375000Y3700000D01*
X1570000D01*
X1720000Y3550000D01*
D02*
G37*
G36*
X2560000Y3820000D02*
X2569412Y3810588D01*
Y3244412D01*
X2500000Y3175000D01*
X2356084D01*
Y3177300D01*
X2163916D01*
Y3152000D01*
X2166625Y3138383D01*
X2174339Y3126839D01*
X2174563Y3124563D01*
X2140000Y3090000D01*
Y2970000D01*
X2095000Y2925000D01*
X1845000Y2925000D01*
X1800000Y2970000D01*
Y3225000D01*
X1725000Y3300000D01*
X1625000D01*
Y3400652D01*
X1646140Y3421792D01*
X1650950Y3420835D01*
X1689050D01*
X1704286Y3423866D01*
X1712880Y3429608D01*
X1720000D01*
X1727804Y3431160D01*
X1734419Y3435580D01*
X1738840Y3442196D01*
X1740392Y3450000D01*
Y3516044D01*
X1744348Y3520000D01*
X2370000Y3520000D01*
X2425898Y3575898D01*
Y3805841D01*
X2440057Y3820000D01*
X2560000Y3820000D01*
D02*
G37*
G36*
X4310020Y3603295D02*
X4335593Y3577722D01*
X4335594Y3577721D01*
X4345517Y3571090D01*
X4357223Y3568762D01*
X4357224Y3568762D01*
X4432979D01*
X4483444Y3518297D01*
X4479135Y3513987D01*
X4470000Y3491935D01*
Y3468065D01*
X4479135Y3446013D01*
X4496013Y3429134D01*
X4518065Y3420000D01*
X4541935D01*
X4563987Y3429134D01*
X4570173Y3435320D01*
X4579412Y3431494D01*
Y3393111D01*
X4496888Y3310588D01*
X4192670D01*
X3980737Y3522521D01*
Y3572678D01*
X3980738Y3572679D01*
X3978409Y3584385D01*
X3972018Y3593950D01*
X3972879Y3598340D01*
X3975202Y3603950D01*
X4017050D01*
Y3609350D01*
X4150062D01*
Y3568172D01*
X4148371Y3566481D01*
X4141741Y3556558D01*
X4139412Y3544852D01*
X4139412Y3544851D01*
Y3450002D01*
X4139412Y3450000D01*
X4141741Y3438295D01*
X4148371Y3428372D01*
X4198371Y3378372D01*
X4198371Y3378371D01*
X4208295Y3371741D01*
X4220000Y3369412D01*
X4220001Y3369412D01*
X4323994D01*
X4323995Y3369412D01*
X4335700Y3371741D01*
X4345624Y3378371D01*
X4365623Y3398370D01*
X4365623Y3398371D01*
X4372254Y3408294D01*
X4374583Y3420000D01*
X4374582Y3420001D01*
Y3435239D01*
X4383987Y3439134D01*
X4400865Y3456013D01*
X4410000Y3478065D01*
Y3501935D01*
X4400865Y3523987D01*
X4383987Y3540865D01*
X4361935Y3550000D01*
X4338065D01*
X4316013Y3540865D01*
X4300941Y3525794D01*
X4295000Y3524729D01*
X4289059Y3525794D01*
X4273987Y3540865D01*
X4261237Y3546147D01*
Y3609350D01*
X4305974D01*
X4310020Y3603295D01*
D02*
G37*
G36*
X4361802Y2998372D02*
X4361803Y2998371D01*
X4371726Y2991741D01*
X4383432Y2989412D01*
X4689999D01*
X4690000Y2989412D01*
X4701705Y2991741D01*
X4711629Y2998371D01*
X4733219Y3019961D01*
X4790450D01*
Y2918549D01*
Y2818549D01*
Y2732512D01*
X4780450Y2728370D01*
X4758142Y2750679D01*
X4748218Y2757309D01*
X4736513Y2759638D01*
X4736511Y2759637D01*
X4123388D01*
X4111682Y2757309D01*
X4101759Y2750679D01*
X4101758Y2750678D01*
X4009322Y2658242D01*
X4003025Y2648816D01*
X4002566Y2648295D01*
X3999842Y2647791D01*
X3996955Y2649267D01*
X3990588Y2656247D01*
Y2880000D01*
X3988259Y2891706D01*
X3981629Y2901629D01*
X3981628Y2901629D01*
X3945887Y2937370D01*
Y3061391D01*
X3955887Y3066125D01*
X3968281Y3058970D01*
X3986084Y3054200D01*
X4004515D01*
X4022319Y3058970D01*
X4038281Y3068186D01*
X4051314Y3081219D01*
X4060529Y3097181D01*
X4065300Y3114984D01*
Y3133415D01*
X4060529Y3151219D01*
X4051314Y3167181D01*
X4038281Y3180214D01*
X4022319Y3189429D01*
X4008496Y3193133D01*
X4004773Y3203552D01*
X4016628Y3215408D01*
X4016629Y3215408D01*
X4023259Y3225332D01*
X4025588Y3237037D01*
Y3321520D01*
X4034827Y3325347D01*
X4361802Y2998372D01*
D02*
G37*
G36*
X3889412Y2850762D02*
Y2681763D01*
X3867323Y2659674D01*
X3860693Y2649751D01*
X3858364Y2638046D01*
X3858365Y2638044D01*
Y2436625D01*
X3858364Y2436624D01*
X3849529Y2429783D01*
X3836935Y2435000D01*
X3813065D01*
X3791013Y2425866D01*
X3774134Y2408987D01*
X3765000Y2386935D01*
Y2363065D01*
X3772239Y2345588D01*
X3767177Y2336777D01*
X3757234Y2336023D01*
X3683592Y2409666D01*
X3685000Y2413065D01*
Y2431363D01*
X3695000Y2435505D01*
X3733584Y2396921D01*
X3832579Y2495916D01*
X3677016Y2651479D01*
X3578021Y2552484D01*
X3635505Y2495000D01*
X3631363Y2485000D01*
X3613065D01*
X3591013Y2475866D01*
X3574135Y2458987D01*
X3565000Y2436935D01*
Y2413065D01*
X3574135Y2391013D01*
X3591013Y2374134D01*
X3613065Y2365000D01*
X3636935D01*
X3640334Y2366408D01*
X3723371Y2283372D01*
X3723371Y2283371D01*
X3733295Y2276741D01*
X3745000Y2274412D01*
X4034999D01*
X4035000Y2274412D01*
X4046705Y2276741D01*
X4056629Y2283371D01*
X4072670Y2299412D01*
X4139087D01*
X4141692Y2295024D01*
X4143271Y2289412D01*
X4136596Y2279422D01*
X4133926Y2266000D01*
Y2222700D01*
X4205000D01*
X4276074D01*
Y2266000D01*
X4273404Y2279422D01*
X4266729Y2289412D01*
X4268308Y2295024D01*
X4270913Y2299412D01*
X4321962D01*
X4321963Y2299412D01*
X4333669Y2301741D01*
X4343592Y2308371D01*
X4440123Y2404902D01*
X4449362Y2401075D01*
Y2390370D01*
X4410671Y2351679D01*
X4404041Y2341755D01*
X4401712Y2330050D01*
X4401712Y2330048D01*
Y2295568D01*
X4379000D01*
X4367685Y2293317D01*
X4358092Y2286908D01*
X4351683Y2277315D01*
X4349432Y2266000D01*
Y2154000D01*
X4351683Y2142685D01*
X4358092Y2133092D01*
X4367685Y2126683D01*
X4379000Y2124432D01*
X4451000D01*
X4462315Y2126683D01*
X4463397Y2127405D01*
X4469772Y2119638D01*
X4297321Y1947188D01*
X4134751D01*
X4130608Y1957188D01*
X4144020Y1970599D01*
X4157185Y1993402D01*
X4164000Y2018835D01*
Y2045165D01*
X4157185Y2070598D01*
X4144020Y2093401D01*
X4125401Y2112020D01*
X4102598Y2125185D01*
X4077165Y2132000D01*
X4050835D01*
X4025402Y2125185D01*
X4002599Y2112020D01*
X3983980Y2093401D01*
X3970815Y2070598D01*
X3965988Y2052583D01*
X3955988Y2053900D01*
Y2079801D01*
X3953659Y2091506D01*
X3947029Y2101430D01*
X3947028Y2101430D01*
X3876830Y2171629D01*
X3866906Y2178259D01*
X3855201Y2180588D01*
X3855200Y2180588D01*
X3701301D01*
X3701300Y2180588D01*
X3689594Y2178259D01*
X3679671Y2171629D01*
X3618731Y2110689D01*
X3617401Y2112020D01*
X3594598Y2125185D01*
X3569165Y2132000D01*
X3542835D01*
X3517402Y2125185D01*
X3494599Y2112020D01*
X3475980Y2093401D01*
X3462815Y2070598D01*
X3456000Y2045165D01*
Y2018835D01*
X3462815Y1993402D01*
X3475980Y1970599D01*
X3494599Y1951980D01*
X3517402Y1938815D01*
X3524412Y1936936D01*
Y1693579D01*
X3524412Y1693577D01*
X3526741Y1681872D01*
X3533371Y1671948D01*
X3564432Y1640887D01*
Y1557690D01*
X3477330Y1470588D01*
X3381330D01*
X3377503Y1479827D01*
X3412108Y1514432D01*
X3456000D01*
X3467315Y1516683D01*
X3476908Y1523092D01*
X3483317Y1532685D01*
X3485568Y1544000D01*
Y1656000D01*
X3483317Y1667315D01*
X3476908Y1676908D01*
X3467315Y1683317D01*
X3460784Y1684617D01*
Y1715383D01*
X3467315Y1716683D01*
X3476908Y1723092D01*
X3483317Y1732685D01*
X3485568Y1744000D01*
Y1856000D01*
X3483317Y1867315D01*
X3476908Y1876908D01*
X3467315Y1883317D01*
X3456000Y1885568D01*
X3412109D01*
X3397622Y1900055D01*
X3384391Y1908896D01*
X3368783Y1912000D01*
X3368782Y1912000D01*
X3269188D01*
X3255720Y1925467D01*
X3261317Y1933783D01*
X3288124Y1926600D01*
X3289300D01*
Y2032000D01*
Y2137400D01*
X3288124D01*
X3261317Y2130217D01*
X3237283Y2116341D01*
X3218784Y2097842D01*
X3208784Y2099432D01*
Y2461107D01*
X3423556Y2675879D01*
X3429880Y2671654D01*
X3441000Y2669442D01*
X3519000D01*
X3530120Y2671654D01*
X3539547Y2677953D01*
X3545846Y2687380D01*
X3548058Y2698500D01*
Y2718962D01*
X3610150D01*
Y2718550D01*
X3820150D01*
Y2763150D01*
X3825550D01*
Y2786849D01*
X3715150D01*
Y2812249D01*
X3825550D01*
Y2828483D01*
X3826205Y2828920D01*
X3851778Y2854494D01*
X3851779Y2854494D01*
X3858409Y2864418D01*
X3858941Y2867091D01*
X3869792Y2870382D01*
X3889412Y2850762D01*
D02*
G37*
G36*
X4975871Y2570871D02*
X4985795Y2564241D01*
X4997500Y2561912D01*
X4997501Y2561912D01*
X5041942D01*
Y2558500D01*
X5044153Y2547380D01*
X5050453Y2537953D01*
X5059880Y2531654D01*
X5071000Y2529442D01*
X5130012D01*
X5132543Y2526064D01*
X5127541Y2516064D01*
X5122700D01*
Y2447500D01*
Y2378936D01*
X5149000D01*
X5151185Y2369199D01*
X5151391Y2364648D01*
X5125334Y2338592D01*
X5121935Y2340000D01*
X5098065D01*
X5076013Y2330866D01*
X5059134Y2313987D01*
X5050000Y2291935D01*
Y2268065D01*
X5059134Y2246013D01*
X5076013Y2229134D01*
X5098065Y2220000D01*
X5121935D01*
X5143987Y2229134D01*
X5160865Y2246013D01*
X5170000Y2268065D01*
Y2291935D01*
X5168592Y2295334D01*
X5187673Y2314415D01*
X5196912Y2310589D01*
Y1452843D01*
X5187673Y1449017D01*
X5000588Y1636102D01*
Y2495562D01*
X4998259Y2507268D01*
X4991629Y2517191D01*
X4928820Y2580000D01*
X4932962Y2590000D01*
X4951935D01*
X4955334Y2591408D01*
X4975871Y2570871D01*
D02*
G37*
G36*
X4849412Y2459756D02*
Y2298830D01*
X4840173Y2295003D01*
X4808058Y2327119D01*
Y2366500D01*
X4805846Y2377620D01*
X4799547Y2387047D01*
X4790120Y2393346D01*
X4779000Y2395558D01*
X4756852D01*
X4754975Y2404990D01*
X4748345Y2414913D01*
X4711537Y2451721D01*
Y2533049D01*
X4711538Y2533050D01*
X4710950Y2536006D01*
Y2585153D01*
X4720189Y2588980D01*
X4849412Y2459756D01*
D02*
G37*
G36*
X3127217Y2452977D02*
Y2107270D01*
X3117978Y2103443D01*
X3109401Y2112020D01*
X3086598Y2125185D01*
X3061165Y2132000D01*
X3034835D01*
X3009402Y2125185D01*
X2986599Y2112020D01*
X2967980Y2093401D01*
X2966447Y2090746D01*
X2956788Y2093334D01*
Y2295614D01*
X3117978Y2456804D01*
X3127217Y2452977D01*
D02*
G37*
G36*
X4642649Y2423650D02*
X4655159D01*
X4659321Y2417422D01*
X4681281Y2395461D01*
X4680452Y2387047D01*
X4674153Y2377620D01*
X4671942Y2366500D01*
Y2298500D01*
X4674153Y2287380D01*
X4680453Y2277953D01*
X4689880Y2271654D01*
X4701000Y2269442D01*
X4745593D01*
X4748124Y2266064D01*
X4743122Y2256064D01*
X4701000D01*
X4687773Y2253433D01*
X4676559Y2245941D01*
X4669067Y2234727D01*
X4666436Y2221500D01*
Y2200200D01*
X4740000D01*
Y2187500D01*
X4752700D01*
Y2118936D01*
X4779000D01*
X4786716Y2112603D01*
Y2074393D01*
X4680760Y1968437D01*
X4606416D01*
X4603987Y1970866D01*
X4581935Y1980000D01*
X4558065D01*
X4536013Y1970866D01*
X4519134Y1953987D01*
X4510000Y1931935D01*
Y1923588D01*
X4351161Y1764749D01*
X4342321Y1751518D01*
X4339216Y1735911D01*
X4339216Y1735909D01*
Y1309797D01*
X4329216Y1308481D01*
X4329185Y1308598D01*
X4316020Y1331401D01*
X4297401Y1350020D01*
X4274598Y1363185D01*
X4249165Y1370000D01*
X4222835D01*
X4197402Y1363185D01*
X4174599Y1350020D01*
X4155980Y1331401D01*
X4142815Y1308598D01*
X4136000Y1283165D01*
Y1256835D01*
X4142815Y1231402D01*
X4155980Y1208599D01*
X4174599Y1189980D01*
X4197402Y1176815D01*
X4222835Y1170000D01*
X4249165D01*
X4274598Y1176815D01*
X4297401Y1189980D01*
X4316020Y1208599D01*
X4329185Y1231402D01*
X4329216Y1231519D01*
X4339216Y1230203D01*
Y940597D01*
X4094807Y696187D01*
X4085568Y700014D01*
Y741000D01*
X4083317Y752315D01*
X4076908Y761908D01*
X4067315Y768317D01*
X4056000Y770568D01*
X4015884D01*
Y1175552D01*
X4020598Y1176815D01*
X4043401Y1189980D01*
X4062020Y1208599D01*
X4075185Y1231402D01*
X4082000Y1256835D01*
Y1283165D01*
X4075185Y1308598D01*
X4062020Y1331401D01*
X4043401Y1350020D01*
X4020598Y1363185D01*
X3995165Y1370000D01*
X3968835D01*
X3943402Y1363185D01*
X3920599Y1350020D01*
X3901980Y1331401D01*
X3888815Y1308598D01*
X3882000Y1283165D01*
Y1256835D01*
X3888815Y1231402D01*
X3901980Y1208599D01*
X3920599Y1189980D01*
X3934316Y1182060D01*
Y768642D01*
X3932685Y768317D01*
X3923092Y761908D01*
X3916683Y752315D01*
X3914432Y741000D01*
Y669000D01*
X3914529Y668514D01*
X3908184Y660784D01*
X3591816D01*
X3585471Y668514D01*
X3585568Y669000D01*
Y741000D01*
X3583317Y752315D01*
X3576908Y761908D01*
X3567315Y768317D01*
X3556000Y770568D01*
X3533284D01*
Y1188758D01*
X3535401Y1189980D01*
X3554020Y1208599D01*
X3567185Y1231402D01*
X3574000Y1256835D01*
Y1283165D01*
X3567185Y1308598D01*
X3554020Y1331401D01*
X3535401Y1350020D01*
X3519132Y1359413D01*
X3521812Y1369413D01*
X3577153D01*
X3577155Y1369412D01*
X3588860Y1371741D01*
X3598784Y1378371D01*
X3726628Y1506216D01*
X3726629Y1506217D01*
X3733259Y1516140D01*
X3735588Y1527846D01*
X3735588Y1527847D01*
Y1706422D01*
X3735588Y1706423D01*
X3733259Y1718128D01*
X3726629Y1728052D01*
X3695568Y1759113D01*
Y1840887D01*
X3788827Y1934146D01*
X3796835Y1932000D01*
X3823165D01*
X3848598Y1938815D01*
X3855780Y1942962D01*
X3856952Y1941790D01*
X3858371Y1939666D01*
X3952766Y1845272D01*
X3952766Y1845271D01*
X3962689Y1838641D01*
X3974395Y1836312D01*
X4324495D01*
X4324496Y1836312D01*
X4336202Y1838641D01*
X4346125Y1845271D01*
X4601579Y2100725D01*
X4608209Y2110648D01*
X4610538Y2122354D01*
Y2423650D01*
X4617249D01*
Y2534050D01*
X4642649D01*
Y2423650D01*
D02*
G37*
G36*
X4754324Y3327919D02*
X4764248Y3321289D01*
X4775953Y3318961D01*
X4785050D01*
Y3312248D01*
X4895450D01*
X5005850D01*
Y3318961D01*
X5017781D01*
X5018370Y3318371D01*
X5018371Y3318370D01*
X5028294Y3311740D01*
X5040000Y3309411D01*
X5053398D01*
X5059134Y3295561D01*
X5076013Y3278683D01*
X5098065Y3269548D01*
X5121935D01*
X5143987Y3278683D01*
X5160865Y3295561D01*
X5173080Y3298917D01*
X5174442Y3298134D01*
Y3241000D01*
X5176654Y3229880D01*
X5182953Y3220453D01*
X5192380Y3214154D01*
X5203500Y3211942D01*
X5271500D01*
X5282620Y3214154D01*
X5292047Y3220453D01*
X5298347Y3229880D01*
X5300558Y3241000D01*
Y3319000D01*
X5298347Y3330120D01*
X5292047Y3339547D01*
X5282620Y3345846D01*
X5271500Y3348058D01*
X5217699D01*
X5206797Y3358961D01*
X5210940Y3368960D01*
X5977782D01*
X6318885Y3027858D01*
Y2700001D01*
X6318885Y2700000D01*
X6321214Y2688295D01*
X6327844Y2678371D01*
X6620681Y2385534D01*
X6619135Y2383987D01*
X6610000Y2361935D01*
Y2338065D01*
X6619135Y2316013D01*
X6636013Y2299135D01*
X6658065Y2290000D01*
X6681935D01*
X6703987Y2299135D01*
X6719396Y2314544D01*
X6729396Y2312465D01*
Y629481D01*
X6698846Y598931D01*
X6677402Y593185D01*
X6654599Y580020D01*
X6635980Y561401D01*
X6622815Y538598D01*
X6616000Y513165D01*
Y486835D01*
X6622815Y461402D01*
X6635980Y438599D01*
X6645337Y429242D01*
Y357824D01*
X6628117Y340604D01*
X6260491D01*
X6256664Y349843D01*
X6339628Y432807D01*
X6339629Y432808D01*
X6346259Y442731D01*
X6348588Y454437D01*
Y477389D01*
X6358588Y478706D01*
X6363783Y459317D01*
X6377659Y435283D01*
X6397283Y415659D01*
X6421317Y401783D01*
X6448124Y394600D01*
X6449300D01*
Y500000D01*
Y605400D01*
X6448124D01*
X6421317Y598217D01*
X6397283Y584341D01*
X6377659Y564717D01*
X6363783Y540683D01*
X6358588Y521294D01*
X6348588Y522611D01*
Y578289D01*
X6346259Y589995D01*
X6339629Y599918D01*
X6339628Y599919D01*
X6110588Y828959D01*
Y869705D01*
X6108259Y881411D01*
X6101629Y891334D01*
X6101628Y891335D01*
X5631334Y1361629D01*
X5621411Y1368259D01*
X5609706Y1370588D01*
X5609704Y1370588D01*
X5322671D01*
X5258088Y1435171D01*
Y2536073D01*
X5268088Y2544070D01*
X5271800Y2543332D01*
X5343800D01*
X5355115Y2545583D01*
X5364708Y2551992D01*
X5371117Y2561585D01*
X5373368Y2572900D01*
Y2684900D01*
X5371117Y2696215D01*
X5364708Y2705808D01*
X5355115Y2712217D01*
X5343800Y2714468D01*
X5310398D01*
X5309132Y2720833D01*
X5302502Y2730756D01*
X5302501Y2730757D01*
X5295965Y2737293D01*
X5299791Y2746532D01*
X5343800D01*
X5355115Y2748783D01*
X5364708Y2755192D01*
X5371117Y2764785D01*
X5373368Y2776100D01*
Y2888100D01*
X5371117Y2899415D01*
X5364708Y2909008D01*
X5355115Y2915417D01*
X5343800Y2917668D01*
X5271800D01*
X5260485Y2915417D01*
X5250892Y2909008D01*
X5244483Y2899415D01*
X5242232Y2888100D01*
Y2862688D01*
X5227138D01*
X5168648Y2921178D01*
X5158725Y2927808D01*
X5147019Y2930137D01*
X5147018Y2930137D01*
X5000449D01*
Y3053522D01*
X5009688Y3057349D01*
X5068665Y2998372D01*
X5068666Y2998371D01*
X5078589Y2991741D01*
X5090295Y2989412D01*
X5090296Y2989413D01*
X5479999D01*
X5480000Y2989412D01*
X5491706Y2991741D01*
X5501629Y2998371D01*
X5652670Y3149412D01*
X5836377D01*
X5867686Y3118103D01*
X5863859Y3108864D01*
X5832300D01*
X5819073Y3106233D01*
X5807859Y3098741D01*
X5800367Y3087527D01*
X5797736Y3074300D01*
Y3048000D01*
X5866300D01*
Y3035300D01*
X5879000D01*
Y2961736D01*
X5900300D01*
X5913527Y2964367D01*
X5924740Y2971859D01*
X5932233Y2983073D01*
X5934864Y2996300D01*
Y3037859D01*
X5944103Y3041686D01*
X6069412Y2916377D01*
Y2407075D01*
X5842925Y2180588D01*
X5719601D01*
X5719600Y2180588D01*
X5707895Y2178259D01*
X5697971Y2171629D01*
X5625210Y2098868D01*
X5546900D01*
X5535585Y2096617D01*
X5525992Y2090208D01*
X5519583Y2080615D01*
X5517332Y2069300D01*
Y1997300D01*
X5519583Y1985985D01*
X5525992Y1976392D01*
X5535585Y1969983D01*
X5546900Y1967732D01*
X5658900D01*
X5670215Y1969983D01*
X5679808Y1976392D01*
X5686217Y1985985D01*
X5688468Y1997300D01*
Y2069300D01*
X5687421Y2074563D01*
X5732270Y2119412D01*
X5855593D01*
X5855595Y2119412D01*
X5867300Y2121741D01*
X5873750Y2126050D01*
X5880959Y2118841D01*
X5879441Y2116568D01*
X5877112Y2104862D01*
X5870005Y2098868D01*
X5851700D01*
X5840385Y2096617D01*
X5830792Y2090208D01*
X5824383Y2080615D01*
X5822132Y2069300D01*
Y1997300D01*
X5824383Y1985985D01*
X5830792Y1976392D01*
X5840385Y1969983D01*
X5851700Y1967732D01*
X5963700D01*
X5975015Y1969983D01*
X5984608Y1976392D01*
X5991017Y1985985D01*
X5993268Y1997300D01*
Y2069300D01*
X5991017Y2080615D01*
X5984608Y2090208D01*
X5975015Y2096617D01*
X5963700Y2098868D01*
X5958029D01*
X5954202Y2108107D01*
X6140173Y2294078D01*
X6149412Y2290251D01*
Y2097458D01*
X6145185Y2096617D01*
X6135592Y2090208D01*
X6129183Y2080615D01*
X6126932Y2069300D01*
Y1997300D01*
X6129183Y1985985D01*
X6135592Y1976392D01*
X6145185Y1969983D01*
X6156500Y1967732D01*
X6268500D01*
X6279815Y1969983D01*
X6289408Y1976392D01*
X6295817Y1985985D01*
X6298068Y1997300D01*
Y2056209D01*
X6307307Y2060036D01*
X6329672Y2037671D01*
X6339595Y2031041D01*
X6351300Y2028712D01*
X6351302Y2028712D01*
X6431732D01*
Y1997300D01*
X6433983Y1985985D01*
X6440392Y1976392D01*
X6449985Y1969983D01*
X6461300Y1967732D01*
X6573300D01*
X6584615Y1969983D01*
X6594208Y1976392D01*
X6600617Y1985985D01*
X6602868Y1997300D01*
Y2069300D01*
X6600617Y2080615D01*
X6594208Y2090208D01*
X6584615Y2096617D01*
X6573300Y2098868D01*
X6461300D01*
X6449985Y2096617D01*
X6440392Y2090208D01*
X6440179Y2089888D01*
X6363971D01*
X6250588Y2203271D01*
Y2978751D01*
X6250588Y2978752D01*
X6248259Y2990457D01*
X6241629Y3000381D01*
X6241628Y3000381D01*
X5920381Y3321629D01*
X5910458Y3328259D01*
X5898752Y3330588D01*
X5898751Y3330587D01*
X5590000D01*
X5578294Y3328259D01*
X5568371Y3321629D01*
X5568370Y3321628D01*
X5417330Y3170588D01*
X5152670D01*
X5052080Y3271177D01*
X5042157Y3277808D01*
X5030451Y3280136D01*
X5030450Y3280136D01*
X5005850D01*
Y3286848D01*
X4895450D01*
X4785050D01*
Y3263148D01*
X4790450D01*
Y3168549D01*
Y3081137D01*
X4720550D01*
X4720549Y3081137D01*
X4708844Y3078808D01*
X4698920Y3072178D01*
X4677330Y3050588D01*
X4647800D01*
X4645120Y3060588D01*
X4658280Y3068186D01*
X4671313Y3081219D01*
X4680529Y3097181D01*
X4685299Y3114984D01*
Y3133415D01*
X4680529Y3151219D01*
X4671313Y3167181D01*
X4658280Y3180214D01*
X4642319Y3189429D01*
X4624515Y3194200D01*
X4606084D01*
X4588281Y3189429D01*
X4572319Y3180214D01*
X4559286Y3167181D01*
X4550070Y3151219D01*
X4545300Y3133415D01*
Y3114984D01*
X4550070Y3097181D01*
X4559286Y3081219D01*
X4572319Y3068186D01*
X4585479Y3060588D01*
X4582800Y3050588D01*
X4396101D01*
X4206516Y3240173D01*
X4210343Y3249412D01*
X4509557D01*
X4509558Y3249412D01*
X4521264Y3251741D01*
X4531187Y3258371D01*
X4631628Y3358812D01*
X4631629Y3358813D01*
X4638259Y3368736D01*
X4640588Y3380442D01*
Y3428590D01*
X4649827Y3432417D01*
X4754324Y3327919D01*
D02*
G37*
G36*
X3745991Y2109412D02*
X3729980Y2093401D01*
X3716815Y2070598D01*
X3710000Y2045165D01*
Y2018835D01*
X3716815Y1993402D01*
X3729980Y1970599D01*
X3734372Y1966207D01*
X3653733Y1885568D01*
X3594000D01*
X3593318Y1885432D01*
X3585588Y1891776D01*
Y1936400D01*
X3594598Y1938815D01*
X3617401Y1951980D01*
X3636020Y1970599D01*
X3649185Y1993402D01*
X3656000Y2018835D01*
Y2045165D01*
X3652560Y2058003D01*
X3713970Y2119412D01*
X3742304D01*
X3745991Y2109412D01*
D02*
G37*
G36*
X2836800Y1400173D02*
X2780023Y1343397D01*
X2773401Y1350020D01*
X2750598Y1363185D01*
X2725165Y1370000D01*
X2698835D01*
X2673402Y1363185D01*
X2650599Y1350020D01*
X2631980Y1331401D01*
X2618815Y1308598D01*
X2612000Y1283165D01*
Y1256835D01*
X2618815Y1231402D01*
X2631980Y1208599D01*
X2640557Y1200022D01*
X2636730Y1190783D01*
X2533270D01*
X2529443Y1200022D01*
X2538020Y1208599D01*
X2551185Y1231402D01*
X2558000Y1256835D01*
Y1283165D01*
X2551185Y1308598D01*
X2547038Y1315780D01*
X2640670Y1409412D01*
X2832973D01*
X2836800Y1400173D01*
D02*
G37*
G36*
X3428867Y1359413D02*
X3412599Y1350020D01*
X3393980Y1331401D01*
X3380815Y1308598D01*
X3374000Y1283165D01*
Y1256835D01*
X3380815Y1231402D01*
X3393980Y1208599D01*
X3412599Y1189980D01*
X3435402Y1176815D01*
X3451716Y1172443D01*
Y770568D01*
X3444000D01*
X3432685Y768317D01*
X3423092Y761908D01*
X3416683Y752315D01*
X3414432Y741000D01*
Y700014D01*
X3405193Y696187D01*
X2937670Y1163711D01*
X2942846Y1172677D01*
X2952835Y1170000D01*
X2979165D01*
X3004598Y1176815D01*
X3027401Y1189980D01*
X3046020Y1208599D01*
X3059185Y1231402D01*
X3066000Y1256835D01*
Y1283165D01*
X3059185Y1308598D01*
X3046020Y1331401D01*
X3027401Y1350020D01*
X3011132Y1359413D01*
X3013812Y1369413D01*
X3172188D01*
X3174867Y1359413D01*
X3158599Y1350020D01*
X3139980Y1331401D01*
X3126815Y1308598D01*
X3120000Y1283165D01*
Y1256835D01*
X3126815Y1231402D01*
X3139980Y1208599D01*
X3158599Y1189980D01*
X3181402Y1176815D01*
X3206835Y1170000D01*
X3233165D01*
X3258598Y1176815D01*
X3281401Y1189980D01*
X3300020Y1208599D01*
X3313185Y1231402D01*
X3320000Y1256835D01*
Y1283165D01*
X3313185Y1308598D01*
X3300020Y1331401D01*
X3281401Y1350020D01*
X3265132Y1359413D01*
X3267812Y1369413D01*
X3426188D01*
X3428867Y1359413D01*
D02*
G37*
%LPC*%
G36*
X4052805Y4743400D02*
X4051300D01*
Y4648200D01*
X4146500D01*
Y4649705D01*
X4139147Y4677148D01*
X4124941Y4701752D01*
X4104852Y4721841D01*
X4080248Y4736047D01*
X4052805Y4743400D01*
D02*
G37*
G36*
X4146500Y4622800D02*
X4051300D01*
Y4527600D01*
X4052805D01*
X4080248Y4534953D01*
X4104852Y4549159D01*
X4124941Y4569248D01*
X4139147Y4593852D01*
X4146500Y4621295D01*
Y4622800D01*
D02*
G37*
G36*
X4570165Y4405300D02*
X4543835D01*
X4518402Y4398485D01*
X4495599Y4385320D01*
X4476980Y4366701D01*
X4463815Y4343898D01*
X4457000Y4318465D01*
Y4292135D01*
X4463815Y4266702D01*
X4476980Y4243899D01*
X4495599Y4225280D01*
X4518402Y4212115D01*
X4543835Y4205300D01*
X4570165D01*
X4595598Y4212115D01*
X4618401Y4225280D01*
X4637020Y4243899D01*
X4650185Y4266702D01*
X4657000Y4292135D01*
Y4318465D01*
X4650185Y4343898D01*
X4637020Y4366701D01*
X4618401Y4385320D01*
X4595598Y4398485D01*
X4570165Y4405300D01*
D02*
G37*
G36*
X6037700Y4209168D02*
X5925700D01*
X5914385Y4206917D01*
X5904792Y4200508D01*
X5898383Y4190915D01*
X5896132Y4179600D01*
Y4179286D01*
X5851368D01*
Y4179600D01*
X5849117Y4190915D01*
X5842708Y4200508D01*
X5833115Y4206917D01*
X5821800Y4209168D01*
X5709800D01*
X5698485Y4206917D01*
X5688892Y4200508D01*
X5682483Y4190915D01*
X5680232Y4179600D01*
Y4107600D01*
X5682483Y4096285D01*
X5688892Y4086692D01*
X5698485Y4080283D01*
X5709800Y4078032D01*
X5821800D01*
X5833115Y4080283D01*
X5842708Y4086692D01*
X5849117Y4096285D01*
X5851368Y4107600D01*
Y4107914D01*
X5896132D01*
Y4107600D01*
X5898383Y4096285D01*
X5904792Y4086692D01*
X5914385Y4080283D01*
X5925700Y4078032D01*
X6037700D01*
X6049015Y4080283D01*
X6058608Y4086692D01*
X6065017Y4096285D01*
X6066336Y4102914D01*
X6153121D01*
X6153809Y4099455D01*
X6159555Y4090855D01*
X6168155Y4085108D01*
X6178300Y4083091D01*
X6306300D01*
X6316445Y4085108D01*
X6325045Y4090855D01*
X6330791Y4099455D01*
X6332809Y4109600D01*
Y4157600D01*
X6330791Y4167745D01*
X6325045Y4176345D01*
X6316445Y4182091D01*
X6306300Y4184109D01*
X6178300D01*
X6168155Y4182091D01*
X6159555Y4176345D01*
X6158179Y4174286D01*
X6067268D01*
Y4179600D01*
X6065017Y4190915D01*
X6058608Y4200508D01*
X6049015Y4206917D01*
X6037700Y4209168D01*
D02*
G37*
G36*
X3819000Y4151064D02*
X3792700D01*
Y4095201D01*
X3853564D01*
Y4116500D01*
X3850933Y4129727D01*
X3843441Y4140941D01*
X3832227Y4148433D01*
X3819000Y4151064D01*
D02*
G37*
G36*
X4117301D02*
X4091000D01*
X4077773Y4148433D01*
X4066560Y4140941D01*
X4059067Y4129727D01*
X4056436Y4116500D01*
Y4095201D01*
X4117301D01*
Y4151064D01*
D02*
G37*
G36*
X3999000D02*
X3972700D01*
Y4095200D01*
X4033564D01*
Y4116500D01*
X4030933Y4129727D01*
X4023441Y4140941D01*
X4012227Y4148433D01*
X3999000Y4151064D01*
D02*
G37*
G36*
X3947300D02*
X3921000D01*
X3907773Y4148433D01*
X3896559Y4140941D01*
X3889067Y4129727D01*
X3886436Y4116500D01*
Y4095200D01*
X3947300D01*
Y4151064D01*
D02*
G37*
G36*
X6856165Y4151300D02*
X6829835D01*
X6804402Y4144485D01*
X6781599Y4131320D01*
X6762980Y4112701D01*
X6749815Y4089898D01*
X6747333Y4080635D01*
X6515519D01*
X6515045Y4081345D01*
X6506444Y4087091D01*
X6496300Y4089109D01*
X6368300D01*
X6358155Y4087091D01*
X6349555Y4081345D01*
X6343808Y4072744D01*
X6341791Y4062600D01*
Y4014600D01*
X6343808Y4004455D01*
X6349555Y3995855D01*
X6358155Y3990108D01*
X6368300Y3988091D01*
X6496300D01*
X6506444Y3990108D01*
X6515045Y3995855D01*
X6520791Y4004455D01*
X6521748Y4009264D01*
X6751800D01*
X6762980Y3989899D01*
X6781599Y3971280D01*
X6804402Y3958115D01*
X6829835Y3951300D01*
X6856165D01*
X6881598Y3958115D01*
X6904401Y3971280D01*
X6923020Y3989899D01*
X6936185Y4012702D01*
X6943000Y4038135D01*
Y4064465D01*
X6936185Y4089898D01*
X6923020Y4112701D01*
X6904401Y4131320D01*
X6881598Y4144485D01*
X6856165Y4151300D01*
D02*
G37*
G36*
X4117301Y4069801D02*
X4056436D01*
Y4048500D01*
X4059067Y4035273D01*
X4066560Y4024060D01*
X4077773Y4016567D01*
X4091000Y4013936D01*
X4117301D01*
Y4069801D01*
D02*
G37*
G36*
X4033564Y4069800D02*
X3972700D01*
Y4013936D01*
X3999000D01*
X4012227Y4016567D01*
X4023441Y4024060D01*
X4030933Y4035273D01*
X4033564Y4048500D01*
Y4069800D01*
D02*
G37*
G36*
X3947300D02*
X3886436D01*
Y4048500D01*
X3889067Y4035273D01*
X3896559Y4024060D01*
X3907773Y4016567D01*
X3921000Y4013936D01*
X3947300D01*
Y4069800D01*
D02*
G37*
G36*
X4956500Y4033564D02*
X4935200D01*
Y3972700D01*
X4991064D01*
Y3999000D01*
X4988433Y4012227D01*
X4980941Y4023441D01*
X4969727Y4030933D01*
X4956500Y4033564D01*
D02*
G37*
G36*
X4909800D02*
X4888500D01*
X4875273Y4030933D01*
X4864059Y4023441D01*
X4856567Y4012227D01*
X4853936Y3999000D01*
Y3972700D01*
X4909800D01*
Y4033564D01*
D02*
G37*
G36*
X6306300Y3999615D02*
X6255000D01*
Y3956300D01*
X6338315D01*
Y3967600D01*
X6335878Y3979852D01*
X6328938Y3990238D01*
X6318551Y3997178D01*
X6306300Y3999615D01*
D02*
G37*
G36*
X6229600D02*
X6178300D01*
X6166048Y3997178D01*
X6155662Y3990238D01*
X6148722Y3979852D01*
X6146285Y3967600D01*
Y3956300D01*
X6229600D01*
Y3999615D01*
D02*
G37*
G36*
X6037700Y4004674D02*
X5994400D01*
Y3946300D01*
X6072774D01*
Y3969600D01*
X6070104Y3983022D01*
X6062501Y3994401D01*
X6051122Y4002004D01*
X6037700Y4004674D01*
D02*
G37*
G36*
X5969000D02*
X5925700D01*
X5912278Y4002004D01*
X5900899Y3994401D01*
X5893296Y3983022D01*
X5890626Y3969600D01*
Y3946300D01*
X5969000D01*
Y4004674D01*
D02*
G37*
G36*
X6338315Y3930900D02*
X6255000D01*
Y3887585D01*
X6306300D01*
X6318551Y3890022D01*
X6328938Y3896962D01*
X6335878Y3907348D01*
X6338315Y3919600D01*
Y3930900D01*
D02*
G37*
G36*
X6229600D02*
X6146285D01*
Y3919600D01*
X6148722Y3907348D01*
X6155662Y3896962D01*
X6166048Y3890022D01*
X6178300Y3887585D01*
X6229600D01*
Y3930900D01*
D02*
G37*
G36*
X4991064Y3947300D02*
X4935200D01*
Y3886436D01*
X4956500D01*
X4969727Y3889067D01*
X4980941Y3896559D01*
X4988433Y3907773D01*
X4991064Y3921000D01*
Y3947300D01*
D02*
G37*
G36*
X4909800D02*
X4853936D01*
Y3921000D01*
X4856567Y3907773D01*
X4864059Y3896559D01*
X4875273Y3889067D01*
X4888500Y3886436D01*
X4909800D01*
Y3947300D01*
D02*
G37*
G36*
X6072774Y3920900D02*
X5994400D01*
Y3862526D01*
X6037700D01*
X6051122Y3865196D01*
X6062501Y3872799D01*
X6070104Y3884178D01*
X6072774Y3897600D01*
Y3920900D01*
D02*
G37*
G36*
X5969000D02*
X5890626D01*
Y3897600D01*
X5893296Y3884178D01*
X5900899Y3872799D01*
X5912278Y3865196D01*
X5925700Y3862526D01*
X5969000D01*
Y3920900D01*
D02*
G37*
G36*
X3483500Y4340764D02*
X3462200D01*
X3448973Y4338133D01*
X3437759Y4330641D01*
X3430267Y4319427D01*
X3427636Y4306200D01*
Y4279900D01*
X3483500D01*
Y4340764D01*
D02*
G37*
G36*
X3354100Y4345574D02*
X3330800D01*
Y4267200D01*
X3389174D01*
Y4310500D01*
X3386504Y4323922D01*
X3378901Y4335301D01*
X3367522Y4342904D01*
X3354100Y4345574D01*
D02*
G37*
G36*
X3305400D02*
X3282100D01*
X3268678Y4342904D01*
X3257299Y4335301D01*
X3249696Y4323922D01*
X3247026Y4310500D01*
Y4267200D01*
X3305400D01*
Y4345574D01*
D02*
G37*
G36*
X3483500Y4254500D02*
X3427636D01*
Y4228200D01*
X3430267Y4214973D01*
X3437759Y4203759D01*
X3448973Y4196267D01*
X3462200Y4193636D01*
X3483500D01*
Y4254500D01*
D02*
G37*
G36*
X3389174Y4241800D02*
X3330800D01*
Y4163426D01*
X3354100D01*
X3367522Y4166096D01*
X3378901Y4173699D01*
X3386504Y4185078D01*
X3389174Y4198500D01*
Y4241800D01*
D02*
G37*
G36*
X3305400D02*
X3247026D01*
Y4198500D01*
X3249696Y4185078D01*
X3257299Y4173699D01*
X3268678Y4166096D01*
X3282100Y4163426D01*
X3305400D01*
Y4241800D01*
D02*
G37*
G36*
X2945000Y4120000D02*
X2845000D01*
Y3980000D01*
X2899412D01*
Y3935568D01*
X2894000D01*
X2882685Y3933317D01*
X2873092Y3926908D01*
X2866683Y3917315D01*
X2864432Y3906000D01*
Y3794000D01*
X2866683Y3782685D01*
X2873092Y3773092D01*
X2882685Y3766683D01*
X2894000Y3764432D01*
X2966000D01*
X2977315Y3766683D01*
X2986908Y3773092D01*
X2993317Y3782685D01*
X2995568Y3794000D01*
Y3906000D01*
X2993317Y3917315D01*
X2986908Y3926908D01*
X2977315Y3933317D01*
X2966000Y3935568D01*
X2960588D01*
Y3999583D01*
X2960588Y3999584D01*
X2958259Y4011289D01*
X2951629Y4021213D01*
X2951628Y4021213D01*
X2945000Y4027842D01*
Y4120000D01*
D02*
G37*
G36*
X2963000Y3746084D02*
X2937700D01*
Y3662700D01*
X2998584D01*
Y3710500D01*
X2995875Y3724117D01*
X2988161Y3735661D01*
X2976617Y3743375D01*
X2963000Y3746084D01*
D02*
G37*
G36*
X2912300D02*
X2887000D01*
X2873383Y3743375D01*
X2861839Y3735661D01*
X2854125Y3724117D01*
X2851416Y3710500D01*
Y3662700D01*
X2912300D01*
Y3746084D01*
D02*
G37*
G36*
X2998584Y3637300D02*
X2925000D01*
X2851416D01*
Y3589500D01*
X2854125Y3575883D01*
X2861839Y3564339D01*
X2873383Y3556625D01*
X2884815Y3554351D01*
X2889042Y3550553D01*
X2892103Y3545512D01*
X2892103Y3543916D01*
Y3417603D01*
X3042903D01*
Y3547803D01*
X2980043D01*
X2979422Y3549403D01*
X2978380Y3557803D01*
X2988161Y3564339D01*
X2995875Y3575883D01*
X2998584Y3589500D01*
Y3637300D01*
D02*
G37*
G36*
X3404394Y3506100D02*
X3377406D01*
X3351336Y3499115D01*
X3327964Y3485620D01*
X3308880Y3466536D01*
X3295385Y3443164D01*
X3288400Y3417094D01*
Y3390106D01*
X3295385Y3364036D01*
X3308880Y3340664D01*
X3327964Y3321580D01*
X3351336Y3308085D01*
X3377406Y3301100D01*
X3404394D01*
X3430464Y3308085D01*
X3453836Y3321580D01*
X3472920Y3340664D01*
X3486415Y3364036D01*
X3493400Y3390106D01*
Y3417094D01*
X3486415Y3443164D01*
X3472920Y3466536D01*
X3453836Y3485620D01*
X3430464Y3499115D01*
X3404394Y3506100D01*
D02*
G37*
G36*
X3042903Y3392203D02*
X2980203D01*
Y3262003D01*
X3042903D01*
Y3392203D01*
D02*
G37*
G36*
X2954803D02*
X2892103D01*
Y3262003D01*
X2954803D01*
Y3392203D01*
D02*
G37*
G36*
X3498800Y3257500D02*
X3403600D01*
Y3162300D01*
X3498800D01*
Y3257500D01*
D02*
G37*
G36*
X3378200D02*
X3283000D01*
Y3162300D01*
X3378200D01*
Y3257500D01*
D02*
G37*
G36*
X1533700Y3869284D02*
X1485900D01*
Y3808400D01*
X1569284D01*
Y3833700D01*
X1566575Y3847317D01*
X1558861Y3858861D01*
X1547317Y3866575D01*
X1533700Y3869284D01*
D02*
G37*
G36*
X1460500D02*
X1412700D01*
X1399083Y3866575D01*
X1387539Y3858861D01*
X1379825Y3847317D01*
X1377116Y3833700D01*
Y3808400D01*
X1460500D01*
Y3869284D01*
D02*
G37*
G36*
X1920500Y3693584D02*
X1872700D01*
Y3632700D01*
X1956084D01*
Y3658000D01*
X1953375Y3671617D01*
X1945662Y3683162D01*
X1934118Y3690875D01*
X1920500Y3693584D01*
D02*
G37*
G36*
X2140500D02*
X2092700D01*
Y3632700D01*
X2176084D01*
Y3658000D01*
X2173375Y3671617D01*
X2165661Y3683162D01*
X2154117Y3690875D01*
X2140500Y3693584D01*
D02*
G37*
G36*
X2067300D02*
X2019500D01*
X2005883Y3690875D01*
X1994339Y3683162D01*
X1986625Y3671617D01*
X1983917Y3658000D01*
Y3632700D01*
X2067300D01*
Y3693584D01*
D02*
G37*
G36*
X1847300D02*
X1799501D01*
X1785883Y3690875D01*
X1774339Y3683162D01*
X1766625Y3671617D01*
X1763917Y3658000D01*
Y3632700D01*
X1847300D01*
Y3693584D01*
D02*
G37*
G36*
X2287301D02*
X2239500D01*
X2225883Y3690875D01*
X2214339Y3683162D01*
X2206625Y3671617D01*
X2203917Y3658000D01*
Y3632700D01*
X2287301D01*
Y3693584D01*
D02*
G37*
G36*
X1533700Y3669284D02*
X1485900D01*
Y3608400D01*
X1569284D01*
Y3633700D01*
X1566575Y3647317D01*
X1558861Y3658861D01*
X1547317Y3666575D01*
X1533700Y3669284D01*
D02*
G37*
G36*
X1460500D02*
X1412700D01*
X1399083Y3666575D01*
X1387539Y3658861D01*
X1379825Y3647317D01*
X1377116Y3633700D01*
Y3608400D01*
X1460500D01*
Y3669284D01*
D02*
G37*
G36*
X1569284Y3583000D02*
X1485900D01*
Y3522116D01*
X1533700D01*
X1547317Y3524825D01*
X1558861Y3532539D01*
X1566575Y3544083D01*
X1569284Y3557700D01*
Y3583000D01*
D02*
G37*
G36*
X1460500D02*
X1377116D01*
Y3557700D01*
X1379825Y3544083D01*
X1387539Y3532539D01*
X1399083Y3524825D01*
X1412700Y3522116D01*
X1460500D01*
Y3583000D01*
D02*
G37*
G36*
X1214205Y3591900D02*
X1212700D01*
Y3496700D01*
X1307900D01*
Y3498205D01*
X1300547Y3525648D01*
X1286341Y3550252D01*
X1266252Y3570341D01*
X1241648Y3584547D01*
X1214205Y3591900D01*
D02*
G37*
G36*
X814205D02*
X812700D01*
Y3496700D01*
X907900D01*
Y3498205D01*
X900547Y3525648D01*
X886341Y3550252D01*
X866252Y3570341D01*
X841648Y3584547D01*
X814205Y3591900D01*
D02*
G37*
G36*
X414205D02*
X412699D01*
Y3496700D01*
X507899D01*
Y3498205D01*
X500546Y3525648D01*
X486341Y3550252D01*
X466252Y3570341D01*
X441647Y3584547D01*
X414205Y3591900D01*
D02*
G37*
G36*
X1187300D02*
X1185795D01*
X1158352Y3584547D01*
X1133748Y3570341D01*
X1113658Y3550252D01*
X1099453Y3525648D01*
X1092100Y3498205D01*
Y3496700D01*
X1187300D01*
Y3591900D01*
D02*
G37*
G36*
X787300D02*
X785795D01*
X758352Y3584547D01*
X733748Y3570341D01*
X713658Y3550252D01*
X699453Y3525648D01*
X692100Y3498205D01*
Y3496700D01*
X787300D01*
Y3591900D01*
D02*
G37*
G36*
X387299D02*
X385794D01*
X358352Y3584547D01*
X333747Y3570341D01*
X313658Y3550252D01*
X299453Y3525648D01*
X292099Y3498205D01*
Y3496700D01*
X387299D01*
Y3591900D01*
D02*
G37*
G36*
X1533700Y3475584D02*
X1485900D01*
Y3414700D01*
X1569284D01*
Y3440000D01*
X1566575Y3453617D01*
X1558861Y3465161D01*
X1547317Y3472875D01*
X1533700Y3475584D01*
D02*
G37*
G36*
X1460500D02*
X1412700D01*
X1399083Y3472875D01*
X1387539Y3465161D01*
X1379825Y3453617D01*
X1377116Y3440000D01*
Y3414700D01*
X1460500D01*
Y3475584D01*
D02*
G37*
G36*
X1307900Y3471300D02*
X1212700D01*
Y3376100D01*
X1214205D01*
X1241648Y3383453D01*
X1266252Y3397658D01*
X1286341Y3417748D01*
X1300547Y3442352D01*
X1307900Y3469795D01*
Y3471300D01*
D02*
G37*
G36*
X1187300D02*
X1092100D01*
Y3469795D01*
X1099453Y3442352D01*
X1113658Y3417748D01*
X1133748Y3397658D01*
X1158352Y3383453D01*
X1185795Y3376100D01*
X1187300D01*
Y3471300D01*
D02*
G37*
G36*
X907900D02*
X812700D01*
Y3376100D01*
X814205D01*
X841648Y3383453D01*
X866252Y3397658D01*
X886341Y3417748D01*
X900547Y3442352D01*
X907900Y3469795D01*
Y3471300D01*
D02*
G37*
G36*
X787300D02*
X692100D01*
Y3469795D01*
X699453Y3442352D01*
X713658Y3417748D01*
X733748Y3397658D01*
X758352Y3383453D01*
X785795Y3376100D01*
X787300D01*
Y3471300D01*
D02*
G37*
G36*
X507899D02*
X412699D01*
Y3376100D01*
X414205D01*
X441647Y3383453D01*
X466252Y3397658D01*
X486341Y3417748D01*
X500546Y3442352D01*
X507899Y3469795D01*
Y3471300D01*
D02*
G37*
G36*
X387299D02*
X292099D01*
Y3469795D01*
X299453Y3442352D01*
X313658Y3417748D01*
X333747Y3397658D01*
X358352Y3383453D01*
X385794Y3376100D01*
X387299D01*
Y3471300D01*
D02*
G37*
G36*
X1569284Y3389300D02*
X1485900D01*
Y3328416D01*
X1533700D01*
X1547317Y3331125D01*
X1558861Y3338839D01*
X1566575Y3350383D01*
X1569284Y3364000D01*
Y3389300D01*
D02*
G37*
G36*
X1460500D02*
X1377116D01*
Y3364000D01*
X1379825Y3350383D01*
X1387539Y3338839D01*
X1399083Y3331125D01*
X1412700Y3328416D01*
X1460500D01*
Y3389300D01*
D02*
G37*
G36*
X2360500Y3493584D02*
X2312701D01*
Y3432701D01*
X2396084D01*
Y3458000D01*
X2393375Y3471617D01*
X2385661Y3483161D01*
X2374117Y3490875D01*
X2360500Y3493584D01*
D02*
G37*
G36*
X1920500D02*
X1872700D01*
Y3432701D01*
X1956084D01*
Y3458000D01*
X1953375Y3471617D01*
X1945662Y3483161D01*
X1934118Y3490875D01*
X1920500Y3493584D01*
D02*
G37*
G36*
X2140500D02*
X2092700D01*
Y3432701D01*
X2176084D01*
Y3458000D01*
X2173375Y3471617D01*
X2165661Y3483161D01*
X2154117Y3490875D01*
X2140500Y3493584D01*
D02*
G37*
G36*
X2067300D02*
X2019500D01*
X2005883Y3490875D01*
X1994339Y3483161D01*
X1986625Y3471617D01*
X1983917Y3458000D01*
Y3432701D01*
X2067300D01*
Y3493584D01*
D02*
G37*
G36*
X1847300D02*
X1799501D01*
X1785883Y3490875D01*
X1774339Y3483161D01*
X1766625Y3471617D01*
X1763917Y3458000D01*
Y3432701D01*
X1847300D01*
Y3493584D01*
D02*
G37*
G36*
X2287301D02*
X2239500D01*
X2225883Y3490875D01*
X2214339Y3483161D01*
X2206625Y3471617D01*
X2203917Y3458000D01*
Y3432701D01*
X2287301D01*
Y3493584D01*
D02*
G37*
G36*
X2396084Y3407301D02*
X2312701D01*
Y3346416D01*
X2360500D01*
X2374117Y3349125D01*
X2385661Y3356839D01*
X2393375Y3368383D01*
X2396084Y3382000D01*
Y3407301D01*
D02*
G37*
G36*
X2287301D02*
X2203917D01*
Y3382000D01*
X2206625Y3368383D01*
X2214339Y3356839D01*
X2225883Y3349125D01*
X2239500Y3346416D01*
X2287301D01*
Y3407301D01*
D02*
G37*
G36*
X2176084D02*
X2092700D01*
Y3346416D01*
X2140500D01*
X2154117Y3349125D01*
X2165661Y3356839D01*
X2173375Y3368383D01*
X2176084Y3382000D01*
Y3407301D01*
D02*
G37*
G36*
X2067300D02*
X1983917D01*
Y3382000D01*
X1986625Y3368383D01*
X1994339Y3356839D01*
X2005883Y3349125D01*
X2019500Y3346416D01*
X2067300D01*
Y3407301D01*
D02*
G37*
G36*
X1956084D02*
X1872700D01*
Y3346416D01*
X1920500D01*
X1934118Y3349125D01*
X1945662Y3356839D01*
X1953375Y3368383D01*
X1956084Y3382000D01*
Y3407301D01*
D02*
G37*
G36*
X1847300D02*
X1763917D01*
Y3382000D01*
X1766625Y3368383D01*
X1774339Y3356839D01*
X1785883Y3349125D01*
X1799501Y3346416D01*
X1847300D01*
Y3407301D01*
D02*
G37*
G36*
X2320500Y3263584D02*
X2272700D01*
Y3202700D01*
X2356084D01*
Y3228000D01*
X2353375Y3241617D01*
X2345661Y3253161D01*
X2334117Y3260875D01*
X2320500Y3263584D01*
D02*
G37*
G36*
X2247300D02*
X2199500D01*
X2185883Y3260875D01*
X2174339Y3253161D01*
X2166625Y3241617D01*
X2163916Y3228000D01*
Y3202700D01*
X2247300D01*
Y3263584D01*
D02*
G37*
G36*
X2104300Y3304100D02*
X2006600D01*
Y3146400D01*
X2104300D01*
Y3304100D01*
D02*
G37*
G36*
X1981200D02*
X1883500D01*
Y3146400D01*
X1981200D01*
Y3304100D01*
D02*
G37*
G36*
X2104300Y3121000D02*
X2006600D01*
Y2963300D01*
X2104300D01*
Y3121000D01*
D02*
G37*
G36*
X1981200D02*
X1883500D01*
Y2963300D01*
X1981200D01*
Y3121000D01*
D02*
G37*
G36*
X3519000Y2656064D02*
X3492700D01*
Y2600200D01*
X3553564D01*
Y2621500D01*
X3550933Y2634727D01*
X3543440Y2645941D01*
X3532227Y2653433D01*
X3519000Y2656064D01*
D02*
G37*
G36*
X3467300D02*
X3441000D01*
X3427773Y2653433D01*
X3416559Y2645941D01*
X3409067Y2634727D01*
X3406436Y2621500D01*
Y2600200D01*
X3467300D01*
Y2656064D01*
D02*
G37*
G36*
X3553564Y2574800D02*
X3492700D01*
Y2518936D01*
X3519000D01*
X3532227Y2521567D01*
X3543440Y2529059D01*
X3550933Y2540273D01*
X3553564Y2553500D01*
Y2574800D01*
D02*
G37*
G36*
X3467300D02*
X3406436D01*
Y2553500D01*
X3409067Y2540273D01*
X3416559Y2529059D01*
X3427773Y2521567D01*
X3441000Y2518936D01*
X3467300D01*
Y2574800D01*
D02*
G37*
G36*
X4276074Y2197300D02*
X4217700D01*
Y2118926D01*
X4241000D01*
X4254422Y2121596D01*
X4265801Y2129199D01*
X4273404Y2140578D01*
X4276074Y2154000D01*
Y2197300D01*
D02*
G37*
G36*
X4192300D02*
X4133926D01*
Y2154000D01*
X4136596Y2140578D01*
X4144199Y2129199D01*
X4155578Y2121596D01*
X4169000Y2118926D01*
X4192300D01*
Y2197300D01*
D02*
G37*
G36*
X3315876Y2137400D02*
X3314700D01*
Y2044700D01*
X3407400D01*
Y2045876D01*
X3400217Y2072683D01*
X3386341Y2096717D01*
X3366717Y2116341D01*
X3342683Y2130217D01*
X3315876Y2137400D01*
D02*
G37*
G36*
X3407400Y2019300D02*
X3314700D01*
Y1926600D01*
X3315876D01*
X3342683Y1933783D01*
X3366717Y1947659D01*
X3386341Y1967283D01*
X3400217Y1991317D01*
X3407400Y2018124D01*
Y2019300D01*
D02*
G37*
G36*
X5097300Y2516064D02*
X5071000D01*
X5057773Y2513433D01*
X5046559Y2505941D01*
X5039067Y2494727D01*
X5036436Y2481500D01*
Y2460200D01*
X5097300D01*
Y2516064D01*
D02*
G37*
G36*
Y2434800D02*
X5036436D01*
Y2413500D01*
X5039067Y2400273D01*
X5046559Y2389059D01*
X5057773Y2381567D01*
X5071000Y2378936D01*
X5097300D01*
Y2434800D01*
D02*
G37*
G36*
X4727300Y2174800D02*
X4666436D01*
Y2153500D01*
X4669067Y2140273D01*
X4676559Y2129059D01*
X4687773Y2121567D01*
X4701000Y2118936D01*
X4727300D01*
Y2174800D01*
D02*
G37*
G36*
X3741165Y1370000D02*
X3714835D01*
X3689402Y1363185D01*
X3666599Y1350020D01*
X3647980Y1331401D01*
X3634815Y1308598D01*
X3628000Y1283165D01*
Y1256835D01*
X3634815Y1231402D01*
X3647980Y1208599D01*
X3666599Y1189980D01*
X3689402Y1176815D01*
X3714835Y1170000D01*
X3741165D01*
X3766598Y1176815D01*
X3789401Y1189980D01*
X3808020Y1208599D01*
X3821185Y1231402D01*
X3828000Y1256835D01*
Y1283165D01*
X3821185Y1308598D01*
X3808020Y1331401D01*
X3789401Y1350020D01*
X3766598Y1363185D01*
X3741165Y1370000D01*
D02*
G37*
G36*
X5416500Y3353564D02*
X5395200D01*
Y3292700D01*
X5451064D01*
Y3319000D01*
X5448433Y3332227D01*
X5440941Y3343441D01*
X5429727Y3350933D01*
X5416500Y3353564D01*
D02*
G37*
G36*
X5369800D02*
X5348500D01*
X5335273Y3350933D01*
X5324059Y3343441D01*
X5316567Y3332227D01*
X5313936Y3319000D01*
Y3292700D01*
X5369800D01*
Y3353564D01*
D02*
G37*
G36*
X5451064Y3267300D02*
X5395200D01*
Y3206436D01*
X5416500D01*
X5429727Y3209067D01*
X5440941Y3216559D01*
X5448433Y3227773D01*
X5451064Y3241000D01*
Y3267300D01*
D02*
G37*
G36*
X5369800D02*
X5313936D01*
Y3241000D01*
X5316567Y3227773D01*
X5324059Y3216559D01*
X5335273Y3209067D01*
X5348500Y3206436D01*
X5369800D01*
Y3267300D01*
D02*
G37*
G36*
X5853600Y3022600D02*
X5797736D01*
Y2996300D01*
X5800367Y2983073D01*
X5807859Y2971859D01*
X5819073Y2964367D01*
X5832300Y2961736D01*
X5853600D01*
Y3022600D01*
D02*
G37*
G36*
X5755300Y3103358D02*
X5687300D01*
X5676180Y3101146D01*
X5666753Y3094847D01*
X5660453Y3085420D01*
X5658242Y3074300D01*
Y2996300D01*
X5660453Y2985180D01*
X5666753Y2975753D01*
X5676180Y2969454D01*
X5687300Y2967242D01*
X5690712D01*
Y2930500D01*
X5636300D01*
Y2862688D01*
X5583368D01*
Y2888100D01*
X5581117Y2899415D01*
X5574708Y2909008D01*
X5565115Y2915417D01*
X5553800Y2917668D01*
X5481800D01*
X5470485Y2915417D01*
X5460892Y2909008D01*
X5454483Y2899415D01*
X5452232Y2888100D01*
Y2776100D01*
X5454483Y2764785D01*
X5460892Y2755192D01*
X5470485Y2748783D01*
X5481800Y2746532D01*
X5553800D01*
X5559083Y2747583D01*
X5564009Y2738367D01*
X5540111Y2714468D01*
X5481800D01*
X5470485Y2712217D01*
X5460892Y2705808D01*
X5454483Y2696215D01*
X5452232Y2684900D01*
Y2572900D01*
X5454483Y2561585D01*
X5460892Y2551992D01*
X5470485Y2545583D01*
X5481800Y2543332D01*
X5553800D01*
X5565115Y2545583D01*
X5574708Y2551992D01*
X5581117Y2561585D01*
X5583368Y2572900D01*
Y2671211D01*
X5602070Y2689912D01*
X5630900D01*
Y2633199D01*
X5713800D01*
Y2620499D01*
X5726500D01*
Y2525100D01*
X5796700D01*
Y2530500D01*
X5848412D01*
Y2493758D01*
X5845000D01*
X5833880Y2491546D01*
X5824453Y2485247D01*
X5818153Y2475820D01*
X5815942Y2464700D01*
Y2386700D01*
X5818153Y2375580D01*
X5824453Y2366153D01*
X5833880Y2359854D01*
X5845000Y2357642D01*
X5913000D01*
X5924120Y2359854D01*
X5933547Y2366153D01*
X5939846Y2375580D01*
X5942058Y2386700D01*
Y2464700D01*
X5939846Y2475820D01*
X5933547Y2485247D01*
X5924120Y2491546D01*
X5913000Y2493758D01*
X5909588D01*
Y2530500D01*
X5951300D01*
Y2710500D01*
X5839558D01*
X5814958Y2735100D01*
X5819100Y2745100D01*
X5861100D01*
Y2840501D01*
Y2935900D01*
X5790900D01*
Y2930500D01*
X5751888D01*
Y2967242D01*
X5755300D01*
X5766420Y2969454D01*
X5775847Y2975753D01*
X5782146Y2985180D01*
X5784358Y2996300D01*
Y3074300D01*
X5782146Y3085420D01*
X5775847Y3094847D01*
X5766420Y3101146D01*
X5755300Y3103358D01*
D02*
G37*
G36*
X5956700Y2935900D02*
X5886500D01*
Y2853201D01*
X5956700D01*
Y2935900D01*
D02*
G37*
G36*
Y2827801D02*
X5886500D01*
Y2745100D01*
X5956700D01*
Y2827801D01*
D02*
G37*
G36*
X5701100Y2607799D02*
X5630900D01*
Y2525100D01*
X5701100D01*
Y2607799D01*
D02*
G37*
G36*
X5768000Y2499264D02*
X5746700D01*
Y2438400D01*
X5802564D01*
Y2464700D01*
X5799933Y2477927D01*
X5792441Y2489141D01*
X5781227Y2496633D01*
X5768000Y2499264D01*
D02*
G37*
G36*
X5721300D02*
X5700000D01*
X5686773Y2496633D01*
X5675559Y2489141D01*
X5668067Y2477927D01*
X5665436Y2464700D01*
Y2438400D01*
X5721300D01*
Y2499264D01*
D02*
G37*
G36*
X5802564Y2413000D02*
X5746700D01*
Y2352136D01*
X5768000D01*
X5781227Y2354767D01*
X5792441Y2362259D01*
X5799933Y2373473D01*
X5802564Y2386700D01*
Y2413000D01*
D02*
G37*
G36*
X5721300D02*
X5665436D01*
Y2386700D01*
X5668067Y2373473D01*
X5675559Y2362259D01*
X5686773Y2354767D01*
X5700000Y2352136D01*
X5721300D01*
Y2413000D01*
D02*
G37*
G36*
X6573300Y1888868D02*
X6461300D01*
X6449985Y1886617D01*
X6440392Y1880208D01*
X6433983Y1870615D01*
X6431732Y1859300D01*
Y1787300D01*
X6433983Y1775985D01*
X6440392Y1766392D01*
X6449985Y1759983D01*
X6461300Y1757732D01*
X6486712D01*
Y1654600D01*
X6447300D01*
Y1554600D01*
X6587300D01*
Y1654600D01*
X6547888D01*
Y1757732D01*
X6573300D01*
X6584615Y1759983D01*
X6594208Y1766392D01*
X6600617Y1775985D01*
X6602868Y1787300D01*
Y1859300D01*
X6600617Y1870615D01*
X6594208Y1880208D01*
X6584615Y1886617D01*
X6573300Y1888868D01*
D02*
G37*
G36*
X6268500D02*
X6156500D01*
X6145185Y1886617D01*
X6135592Y1880208D01*
X6129183Y1870615D01*
X6126932Y1859300D01*
Y1787300D01*
X6129183Y1775985D01*
X6135592Y1766392D01*
X6145185Y1759983D01*
X6156500Y1757732D01*
X6181912D01*
Y1654600D01*
X6142500D01*
Y1554600D01*
X6282500D01*
Y1654600D01*
X6243088D01*
Y1757732D01*
X6268500D01*
X6279815Y1759983D01*
X6289408Y1766392D01*
X6295817Y1775985D01*
X6298068Y1787300D01*
Y1859300D01*
X6295817Y1870615D01*
X6289408Y1880208D01*
X6279815Y1886617D01*
X6268500Y1888868D01*
D02*
G37*
G36*
X5963700D02*
X5851700D01*
X5840385Y1886617D01*
X5830792Y1880208D01*
X5824383Y1870615D01*
X5822132Y1859300D01*
Y1787300D01*
X5824383Y1775985D01*
X5830792Y1766392D01*
X5840385Y1759983D01*
X5851700Y1757732D01*
X5877112D01*
Y1654600D01*
X5837700D01*
Y1554600D01*
X5977700D01*
Y1654600D01*
X5938288D01*
Y1757732D01*
X5963700D01*
X5975015Y1759983D01*
X5984608Y1766392D01*
X5991017Y1775985D01*
X5993268Y1787300D01*
Y1859300D01*
X5991017Y1870615D01*
X5984608Y1880208D01*
X5975015Y1886617D01*
X5963700Y1888868D01*
D02*
G37*
G36*
X5658900D02*
X5546900D01*
X5535585Y1886617D01*
X5525992Y1880208D01*
X5519583Y1870615D01*
X5517332Y1859300D01*
Y1787300D01*
X5519583Y1775985D01*
X5525992Y1766392D01*
X5535585Y1759983D01*
X5546900Y1757732D01*
X5572312D01*
Y1654600D01*
X5532900D01*
Y1554600D01*
X5672900D01*
Y1654600D01*
X5633488D01*
Y1757732D01*
X5658900D01*
X5670215Y1759983D01*
X5679808Y1766392D01*
X5686217Y1775985D01*
X5688468Y1787300D01*
Y1859300D01*
X5686217Y1870615D01*
X5679808Y1880208D01*
X5670215Y1886617D01*
X5658900Y1888868D01*
D02*
G37*
G36*
X6592700Y1520000D02*
X6530000D01*
Y1477300D01*
X6592700D01*
Y1520000D01*
D02*
G37*
G36*
X6504600D02*
X6441900D01*
Y1477300D01*
X6504600D01*
Y1520000D01*
D02*
G37*
G36*
X6287900D02*
X6225200D01*
Y1477300D01*
X6287900D01*
Y1520000D01*
D02*
G37*
G36*
X6199800D02*
X6137100D01*
Y1477300D01*
X6199800D01*
Y1520000D01*
D02*
G37*
G36*
X5983100D02*
X5920400D01*
Y1477300D01*
X5983100D01*
Y1520000D01*
D02*
G37*
G36*
X5895000D02*
X5832300D01*
Y1477300D01*
X5895000D01*
Y1520000D01*
D02*
G37*
G36*
X5678300D02*
X5615600D01*
Y1477300D01*
X5678300D01*
Y1520000D01*
D02*
G37*
G36*
X5590200D02*
X5527500D01*
Y1477300D01*
X5590200D01*
Y1520000D01*
D02*
G37*
G36*
X6592700Y1451900D02*
X6530000D01*
Y1409200D01*
X6592700D01*
Y1451900D01*
D02*
G37*
G36*
X6504600D02*
X6441900D01*
Y1409200D01*
X6504600D01*
Y1451900D01*
D02*
G37*
G36*
X6287900D02*
X6225200D01*
Y1409200D01*
X6287900D01*
Y1451900D01*
D02*
G37*
G36*
X6199800D02*
X6137100D01*
Y1409200D01*
X6199800D01*
Y1451900D01*
D02*
G37*
G36*
X5983100D02*
X5920400D01*
Y1409200D01*
X5983100D01*
Y1451900D01*
D02*
G37*
G36*
X5895000D02*
X5832300D01*
Y1409200D01*
X5895000D01*
Y1451900D01*
D02*
G37*
G36*
X5678300D02*
X5615600D01*
Y1409200D01*
X5678300D01*
Y1451900D01*
D02*
G37*
G36*
X5590200D02*
X5527500D01*
Y1409200D01*
X5590200D01*
Y1451900D01*
D02*
G37*
G36*
X6475876Y605400D02*
X6474700D01*
Y512700D01*
X6567400D01*
Y513876D01*
X6560217Y540683D01*
X6546341Y564717D01*
X6526717Y584341D01*
X6502683Y598217D01*
X6475876Y605400D01*
D02*
G37*
G36*
X6567400Y487300D02*
X6474700D01*
Y394600D01*
X6475876D01*
X6502683Y401783D01*
X6526717Y415659D01*
X6546341Y435283D01*
X6560217Y459317D01*
X6567400Y486124D01*
Y487300D01*
D02*
G37*
%LPD*%
G36*
X1363800Y1883600D02*
X1410189D01*
X1410541Y1881831D01*
X1417171Y1871908D01*
X1442508Y1846572D01*
X1442508Y1846571D01*
X1452432Y1839940D01*
X1452522Y1839922D01*
X1455814Y1829072D01*
X1417171Y1790429D01*
X1410541Y1780505D01*
X1408212Y1768800D01*
X1408212Y1768799D01*
Y1761588D01*
X1398212Y1757445D01*
X1330629Y1825029D01*
X1320705Y1831659D01*
X1309000Y1833988D01*
X1308999Y1833988D01*
X1096200D01*
Y1852822D01*
X1182204D01*
X1182205Y1852822D01*
X1193910Y1855151D01*
X1203834Y1861781D01*
X1275065Y1933012D01*
X1363800D01*
Y1883600D01*
D02*
G37*
D10*
X4205000Y2210000D02*
D03*
X4415000D02*
D03*
X1879600Y2298700D02*
D03*
X1669600D02*
D03*
X1498600D02*
D03*
X1288600D02*
D03*
X2930000Y4250000D02*
D03*
X2720000D02*
D03*
X3318100Y4254500D02*
D03*
X3108100D02*
D03*
X3420000Y1600000D02*
D03*
X3630000D02*
D03*
X3420000Y1800000D02*
D03*
X3630000D02*
D03*
X3605000Y3925000D02*
D03*
X3395000D02*
D03*
X2930000Y3850000D02*
D03*
X2720000D02*
D03*
X2125000Y4050000D02*
D03*
X2335000D02*
D03*
X2120000Y4310000D02*
D03*
X2330000D02*
D03*
X2120000Y4535000D02*
D03*
X2330000D02*
D03*
X2120000Y4760000D02*
D03*
X2330000D02*
D03*
X5307800Y2832100D02*
D03*
X5517800D02*
D03*
X5307800Y2628900D02*
D03*
X5517800D02*
D03*
D11*
X5765800Y4143600D02*
D03*
Y3933600D02*
D03*
X5981700D02*
D03*
Y4143600D02*
D03*
X1808000Y1857600D02*
D03*
Y1647600D02*
D03*
X1985800Y1857600D02*
D03*
Y1647600D02*
D03*
X3500000Y495000D02*
D03*
Y705000D02*
D03*
X4000000Y495000D02*
D03*
Y705000D02*
D03*
X6517300Y2033300D02*
D03*
Y1823300D02*
D03*
X5602900Y2033300D02*
D03*
Y1823300D02*
D03*
X5907700Y2033300D02*
D03*
Y1823300D02*
D03*
X6212500Y2033300D02*
D03*
Y1823300D02*
D03*
D12*
X6362700Y5589600D02*
D03*
Y5789600D02*
D03*
X1710000Y1220000D02*
D03*
Y1420000D02*
D03*
X2260000Y2990000D02*
D03*
Y3190000D02*
D03*
X1473200Y3402000D02*
D03*
Y3202000D02*
D03*
X2080000Y3420000D02*
D03*
Y3620000D02*
D03*
X1860000Y3420000D02*
D03*
Y3620000D02*
D03*
X1473200Y3595700D02*
D03*
Y3795700D02*
D03*
X2300000Y3420000D02*
D03*
Y3620000D02*
D03*
D13*
X6242300Y3943600D02*
D03*
Y4133600D02*
D03*
X6432300Y4038600D02*
D03*
D14*
X1670000Y3200300D02*
D03*
Y3340000D02*
D03*
Y3479700D02*
D03*
D15*
X1727500Y4060000D02*
D03*
X1872500D02*
D03*
X1515000Y2108200D02*
D03*
X1660000D02*
D03*
X4777500Y3960000D02*
D03*
X4922500D02*
D03*
X5237500Y3280000D02*
D03*
X5382500D02*
D03*
X3496200Y4267200D02*
D03*
X3641200D02*
D03*
X5721300Y3035300D02*
D03*
X5866300D02*
D03*
X5879000Y2425700D02*
D03*
X5734000D02*
D03*
D16*
X1416300Y1668600D02*
D03*
X1511300D02*
D03*
X1606300D02*
D03*
Y1963600D02*
D03*
X1511300D02*
D03*
X1416300D02*
D03*
X1670300Y4279700D02*
D03*
X1765300D02*
D03*
X1860300D02*
D03*
Y4574700D02*
D03*
X1765300D02*
D03*
X1670300D02*
D03*
D17*
X4905300Y3724200D02*
D03*
X3705300Y2524200D02*
D03*
D18*
X3980650Y3714350D02*
D03*
X3930650D02*
D03*
X4030650D02*
D03*
X4230649D02*
D03*
X4180649D02*
D03*
X4280649D02*
D03*
X4080649D02*
D03*
X4130649D02*
D03*
X4530649D02*
D03*
X4480649D02*
D03*
X4580648D02*
D03*
X4380649D02*
D03*
X4330649D02*
D03*
X4430649D02*
D03*
X4680648D02*
D03*
X4630648D02*
D03*
X4079951Y2534050D02*
D03*
X4029951D02*
D03*
X4129951D02*
D03*
X3929951D02*
D03*
X3979951D02*
D03*
X4329950D02*
D03*
X4279951D02*
D03*
X4379950D02*
D03*
X4179951D02*
D03*
X4229951D02*
D03*
X4579950D02*
D03*
X4529950D02*
D03*
X4629950D02*
D03*
X4429950D02*
D03*
X4479950D02*
D03*
X4679950D02*
D03*
D19*
X3715150Y3249548D02*
D03*
Y3199549D02*
D03*
Y3299548D02*
D03*
Y3099549D02*
D03*
Y3149549D02*
D03*
Y3449548D02*
D03*
Y3399548D02*
D03*
Y3499548D02*
D03*
Y3349548D02*
D03*
X4895450Y3199549D02*
D03*
Y3149549D02*
D03*
Y3249548D02*
D03*
Y3099549D02*
D03*
Y3449548D02*
D03*
Y3399548D02*
D03*
Y3499548D02*
D03*
Y3299548D02*
D03*
Y3349548D02*
D03*
X3715150Y2949549D02*
D03*
Y2899549D02*
D03*
Y2999549D02*
D03*
Y2849549D02*
D03*
Y2799550D02*
D03*
Y3049549D02*
D03*
X3715150Y2749550D02*
D03*
X4895450Y2799549D02*
D03*
Y2849549D02*
D03*
Y2749550D02*
D03*
Y2999549D02*
D03*
Y2949549D02*
D03*
Y3049549D02*
D03*
Y2899549D02*
D03*
D20*
X6517300Y1604600D02*
D03*
Y1464600D02*
D03*
X5602900Y1604600D02*
D03*
Y1464600D02*
D03*
X5907700Y1604600D02*
D03*
Y1464600D02*
D03*
X6212500Y1604600D02*
D03*
Y1464600D02*
D03*
D21*
X3040000Y1720000D02*
D03*
X3240000D02*
D03*
X2725000Y3650000D02*
D03*
X2925000D02*
D03*
D22*
X4130000Y4082500D02*
D03*
Y3937500D02*
D03*
X3960000D02*
D03*
Y4082500D02*
D03*
X3780000Y3937500D02*
D03*
Y4082500D02*
D03*
X3480000Y2732500D02*
D03*
Y2587500D02*
D03*
X4740000Y2332500D02*
D03*
Y2187500D02*
D03*
X5110000Y2447500D02*
D03*
Y2592500D02*
D03*
D23*
X2755000Y4050000D02*
D03*
X2895000D02*
D03*
D24*
X1993900Y3133700D02*
D03*
Y2733700D02*
D03*
D25*
X2507503Y3404903D02*
D03*
X2967503D02*
D03*
X2737503D02*
D03*
D26*
Y2799903D02*
D03*
D27*
X6527800Y4787900D02*
D03*
X6388100D02*
D03*
X6248400D02*
D03*
X6527800Y4559300D02*
D03*
X6388100D02*
D03*
X6248400D02*
D03*
D28*
X5713800Y2620500D02*
D03*
Y2840500D02*
D03*
X5873800D02*
D03*
Y2620500D02*
D03*
D29*
X961200Y1963420D02*
D03*
Y1883410D02*
D03*
Y1803400D02*
D03*
Y1723390D02*
D03*
Y1643380D02*
D03*
D30*
X966200Y1318420D02*
D03*
Y2288420D02*
D03*
X466200Y1318420D02*
D03*
Y2288420D02*
D03*
D31*
X351200Y1803690D02*
D03*
D32*
X1287500Y607401D02*
Y795500D01*
X1400000Y908000D02*
Y908000D01*
X1287500Y795500D02*
X1400000Y908000D01*
X4895450Y3449548D02*
X5997021D01*
X6389473Y3057096D01*
Y2760527D02*
X6670000Y2480000D01*
X6349473Y2700000D02*
X6658520Y2390953D01*
Y2361480D02*
X6670000Y2350000D01*
X6349473Y2700000D02*
Y3040527D01*
X6658520Y2361480D02*
Y2390953D01*
X6389473Y2760527D02*
Y3057096D01*
X5990452Y3399548D02*
X6349473Y3040527D01*
X1633205Y614000D02*
X2133732D01*
X2597732Y150000D01*
X1400000Y654000D02*
X2150300D01*
X1287500Y607401D02*
X1353401Y541500D01*
X1560705D01*
X1633205Y614000D01*
X2597732Y150000D02*
X6707068D01*
X6920000Y362932D01*
Y2029827D01*
X6980000Y2089827D01*
Y2310000D01*
X6910000Y2380000D02*
X6980000Y2310000D01*
X6880000Y379501D02*
Y2046395D01*
X6910000Y2076395D02*
Y2250000D01*
X6880000Y2046395D02*
X6910000Y2076395D01*
X2150300Y654000D02*
X2614301Y190000D01*
X6690499D01*
X6880000Y379501D01*
X6213563Y350000D02*
X6318000Y454437D01*
X5192000Y500000D02*
X5342000Y350000D01*
X6213563D01*
X6318000Y454437D02*
Y578289D01*
X6080000Y816289D02*
X6318000Y578289D01*
X5556000Y390000D02*
X5999563D01*
X6064000Y454437D01*
X5099549Y3339999D02*
X5110000Y3329548D01*
X4895450Y3399548D02*
X5990452D01*
X5040000Y3339999D02*
X5099549D01*
X5029999Y3349999D02*
X5040000Y3339999D01*
X5110000Y3340000D02*
X5115784Y3345784D01*
X5029548Y3349548D02*
X5029999Y3349999D01*
X5115784Y3345784D02*
X5176716D01*
X5237500Y3285000D01*
X5754800Y3724800D02*
Y3922600D01*
X5540000Y3510000D02*
X5754800Y3724800D01*
Y3922600D02*
X5765800Y3933600D01*
X5279548Y3510000D02*
X5540000D01*
X6100000Y2394405D02*
Y2929047D01*
X5270000Y3519548D02*
X5279548Y3510000D01*
X5865615Y3220000D02*
X6140000Y2945615D01*
X5590000Y3300000D02*
X5898752D01*
X6220000Y2978752D01*
X5849047Y3180000D02*
X6100000Y2929047D01*
X5640000Y3180000D02*
X5849047D01*
X4895450Y3349548D02*
X5029548D01*
X5623431Y3220000D02*
X5865615D01*
X5882184Y3260000D02*
X6180000Y2962184D01*
X4775953Y3349548D02*
X4895450D01*
X5606863Y3260000D02*
X5882184D01*
X6220000Y2190601D02*
Y2978752D01*
X6140000Y2337162D02*
Y2945615D01*
X6180000Y2065800D02*
Y2962184D01*
X5104574Y3589805D02*
X5143466Y3628697D01*
X4692363Y3589805D02*
X5104574D01*
X5179805Y3549805D02*
X5490000Y3860000D01*
X5074242Y3549805D02*
X5179805D01*
X5143466Y3628697D02*
X5159702D01*
X4895450Y3499548D02*
X5023985D01*
X5074242Y3549805D01*
X5490000Y3860000D02*
Y4270000D01*
X3930650Y3592179D02*
Y3701134D01*
Y3714350D01*
X1288600Y2318700D02*
X1670000Y2700100D01*
X5140000Y3140000D02*
X5430000D01*
X5590000Y3300000D01*
X4757350Y5690700D02*
X5625000D01*
X4756638Y5689988D02*
X4757350Y5690700D01*
X3888988Y5689988D02*
X4756638D01*
X3888276Y5690700D02*
X3888988Y5689988D01*
X3161009Y5690700D02*
X3888276D01*
X5560000Y1220000D02*
X5954000Y826000D01*
X5576569Y1260000D02*
X6000000Y836569D01*
X5593137Y1300000D02*
X6040000Y853137D01*
X6080000Y816289D02*
Y869705D01*
X5609706Y1340000D02*
X6080000Y869705D01*
X6180000Y2065800D02*
X6212500Y2033300D01*
X6220000Y2190601D02*
X6351300Y2059300D01*
X5907700Y2033300D02*
Y2104862D01*
X6140000Y2337162D01*
X5719600Y2150000D02*
X5855595D01*
X6100000Y2394405D01*
X5480000Y3020000D02*
X5640000Y3180000D01*
X5090295Y3020000D02*
X5480000D01*
X5010746Y3099549D02*
X5090295Y3020000D01*
X4895450Y3099549D02*
X5010746D01*
X5463432Y3060000D02*
X5623431Y3220000D01*
X5106863Y3060000D02*
X5463432D01*
X5017315Y3149549D02*
X5106863Y3060000D01*
X4895450Y3149549D02*
X5017315D01*
X5446863Y3100000D02*
X5606863Y3260000D01*
X5123431Y3100000D02*
X5446863D01*
X5023883Y3199549D02*
X5123431Y3100000D01*
X4895450Y3199549D02*
X5023883D01*
X6351300Y2059300D02*
X6484700D01*
X6510700Y2033300D01*
X5030451Y3249548D02*
X5140000Y3140000D01*
X4895450Y3249548D02*
X5030451D01*
X5227500Y1422501D02*
X5310001Y1340000D01*
X5609706D01*
X5293432Y1300000D02*
X5593137D01*
X4930000Y1606864D02*
X5276864Y1260000D01*
X4970000Y1623432D02*
X5293432Y1300000D01*
X4880000Y1600296D02*
X5260295Y1220000D01*
X5560000D01*
X5276864Y1260000D02*
X5576569D01*
X6040000Y688122D02*
X6208000Y520122D01*
X6040000Y688122D02*
Y853137D01*
X6064000Y454437D02*
Y545563D01*
X5954000Y500000D02*
Y826000D01*
X6000000Y609563D02*
Y836569D01*
X6208000Y500000D02*
Y520122D01*
X6000000Y609563D02*
X6064000Y545563D01*
X5602900Y2033300D02*
X5719600Y2150000D01*
X5227500Y1422501D02*
Y2672500D01*
X5101451Y2798549D02*
X5227500Y2672500D01*
X4896450Y2798549D02*
X5101451D01*
X4895450Y2799549D02*
X4896450Y2798549D01*
X4930000Y1606864D02*
Y2478994D01*
X4880000Y1600296D02*
Y2472426D01*
X4970000Y1623432D02*
Y2495562D01*
X3246664Y3037100D02*
X3330000Y2953764D01*
Y2950000D02*
Y2953764D01*
X2863432Y2950000D02*
X3225000D01*
X2880800Y1842268D02*
Y2327089D01*
X2832460Y2335400D02*
X3546609Y3049549D01*
X3503260Y2949549D02*
X3715150D01*
X3546609Y3049549D02*
X3715150D01*
X2880800Y2327089D02*
X3503260Y2949549D01*
X2119500Y2335400D02*
X2832460D01*
X3625000Y2425000D02*
X3745000Y2305000D01*
X4035000D01*
X1492800Y1822800D02*
X1773200D01*
X1438800Y1768800D02*
X1492800Y1822800D01*
X1438800Y1691100D02*
Y1768800D01*
X5490000Y4270000D02*
X6007900Y4787900D01*
X6248400D01*
X5959300Y4559300D02*
X6248400D01*
X5610000Y4210000D02*
X5959300Y4559300D01*
X5610000Y3755800D02*
Y4210000D01*
X5451597Y3597397D02*
X5610000Y3755800D01*
X3980650Y3599350D02*
X4040000Y3540000D01*
X3980650Y3599350D02*
Y3714350D01*
X3930650Y3592179D02*
X3950150Y3572679D01*
X4125000Y3937500D02*
X4128144D01*
X4092500Y3895532D02*
Y3905000D01*
X4127733Y3933837D02*
X4130000Y3936104D01*
X3963663Y3933837D02*
X4127733D01*
X3960000Y3937500D02*
X3963663Y3933837D01*
X4092500Y3905000D02*
X4125000Y3937500D01*
X4030650Y3833681D02*
X4092500Y3895532D01*
X4030650Y3714350D02*
Y3833681D01*
X4131649Y3803776D02*
X4230700Y3902827D01*
Y5150563D01*
X3780000Y3820000D02*
Y3937500D01*
Y3820000D02*
X3899866Y3700134D01*
X3929650D01*
X3930650Y3701134D01*
X2714400Y4581300D02*
X2768600Y4635500D01*
X4131649Y3715350D02*
Y3803776D01*
X2714400Y4581300D02*
X2768600Y4635500D01*
X3950150Y3509850D02*
Y3572679D01*
Y3509850D02*
X4180000Y3280000D01*
X3640000Y3826260D02*
X3910150Y3556111D01*
X3771724Y3581400D02*
X3830150Y3522974D01*
X3777492Y3632200D02*
X3870150Y3539543D01*
Y3476714D02*
Y3539543D01*
X3910150Y3493282D02*
Y3556111D01*
X3830150Y2876123D02*
Y3522974D01*
X4383432Y3020000D02*
X4690000D01*
X3804576Y2850549D02*
X3830150Y2876123D01*
X3870150Y3476714D02*
X3995000Y3351863D01*
X3910150Y3493282D02*
X4383432Y3020000D01*
X3716150Y2850549D02*
X3804576D01*
X3995000Y3237037D02*
Y3351863D01*
X3681195Y3632200D02*
X3777492D01*
X4180000Y3280000D02*
X4509558D01*
X3468600Y3581400D02*
X3771724D01*
X3925000Y3223605D02*
Y3305000D01*
X3920000Y3310000D02*
X3925000Y3305000D01*
X4690000Y3020000D02*
X4720549Y3050549D01*
X4894450D01*
X5147019Y2899549D02*
X5214468Y2832100D01*
X4895450Y2899549D02*
X5147019D01*
X5214468Y2832100D02*
X5307800D01*
X2620000Y3886568D02*
Y4110000D01*
Y3886568D02*
X2640000Y3866569D01*
X2420000Y4310000D02*
X2620000Y4110000D01*
X2640000Y3230000D02*
Y3866569D01*
X2330000Y4310000D02*
X2420000D01*
X1549700Y4279700D02*
X1670300D01*
X1340000Y4070000D02*
X1549700Y4279700D01*
X1340000Y3878000D02*
Y4070000D01*
X1200000Y3738000D02*
X1340000Y3878000D01*
X2240000Y4990000D02*
X3194700Y5944700D01*
X2240000Y4625000D02*
X2276423Y4588577D01*
X2330000Y4535000D02*
Y4553577D01*
X2276423Y4588577D02*
X2295000D01*
X2240000Y4625000D02*
Y4990000D01*
X2295000Y4588577D02*
X2330000Y4553577D01*
X3665000Y1745000D02*
X3666423D01*
X3705000Y1706423D01*
X3630000Y1780000D02*
X3665000Y1745000D01*
X3705000Y1527846D02*
Y1706423D01*
X3630000Y1780000D02*
Y1820000D01*
X3595000Y1655000D02*
X3630000Y1620000D01*
X3555000Y1693577D02*
Y2011250D01*
X3593577Y1655000D02*
X3595000D01*
X3555000Y1693577D02*
X3593577Y1655000D01*
X3630000Y1580000D02*
Y1620000D01*
X2458000Y1270000D02*
X2628000Y1440000D01*
X2749884Y1270000D02*
X2879884Y1400000D01*
X2628000Y1440000D02*
X3490000D01*
X2879884Y1400000D02*
X3577155D01*
X2712000Y1270000D02*
X2749884D01*
X3577155Y1400000D02*
X3705000Y1527846D01*
X3490000Y1440000D02*
X3595000Y1545000D01*
X3595000D02*
X3630000Y1580000D01*
X3595000Y1545000D02*
X3595000D01*
X2102600Y1572600D02*
X2137600Y1607600D01*
X1903000Y1572600D02*
X2102600D01*
X2137600Y1607600D02*
X2710337D01*
X3915300Y2924700D02*
X3960000Y2880000D01*
Y2652525D02*
Y2880000D01*
X3930951Y2623476D02*
X3960000Y2652525D01*
X3920000Y2669093D02*
Y2863432D01*
X3875300Y2908132D02*
X3920000Y2863432D01*
X3888952Y2638046D02*
X3920000Y2669093D01*
X3915300Y2924700D02*
Y3157337D01*
X3875300Y2908132D02*
Y3173905D01*
X3925000Y3223605D01*
X3915300Y3157337D02*
X3995000Y3237037D01*
X3929951Y2534050D02*
X3930951Y2535050D01*
Y2623476D01*
X3906526Y2419050D02*
X4203377D01*
X3888952Y2436624D02*
Y2638046D01*
Y2436624D02*
X3906526Y2419050D01*
X4030951Y2636613D02*
X4123388Y2729050D01*
X4030951Y2535050D02*
Y2636613D01*
X1985800Y1647600D02*
X2686132D01*
X2880800Y1842268D01*
X2710337Y1607600D02*
X2926200Y1823463D01*
X1740000Y4760000D02*
X2120000D01*
X1670300Y4690300D02*
X1740000Y4760000D01*
X1670300Y4552500D02*
Y4690300D01*
X1680000Y3910000D02*
X1985000D01*
X2125000Y4031423D02*
Y4050000D01*
X2090000Y3996423D02*
X2125000Y4031423D01*
X2071423Y3996423D02*
X2090000D01*
X1985000Y3910000D02*
X2071423Y3996423D01*
X1612900Y3977100D02*
X1680000Y3910000D01*
X1612900Y3977100D02*
Y4194800D01*
X2346000Y4039000D02*
X2411000D01*
X2335000Y4050000D02*
X2346000Y4039000D01*
X2411000D02*
X2600000Y3850000D01*
Y3213432D02*
Y3850000D01*
Y3213432D02*
X2863432Y2950000D01*
X1670300Y4252200D02*
Y4279700D01*
X1612900Y4194800D02*
X1670300Y4252200D01*
X1882800Y4302200D02*
Y4310000D01*
X2120000D01*
X1882800D02*
Y4325600D01*
Y4302200D02*
Y4310000D01*
X1860300Y4279700D02*
X1882800Y4302200D01*
X1841900Y4325600D02*
X1860300D01*
X1837800Y4329700D02*
X1841900Y4325600D01*
X1837800Y4329700D02*
Y4348100D01*
X1816200Y4369700D02*
X1837800Y4348100D01*
X1549700Y4369700D02*
X1816200D01*
X1860300Y4303100D02*
Y4325600D01*
X1882800D01*
X1860300Y4279700D02*
Y4303100D01*
X1200000Y4020000D02*
X1549700Y4369700D01*
X1529700Y4409700D02*
X1779700D01*
X1221549Y4267549D02*
X1387549D01*
X1529700Y4409700D01*
X2085000Y4574700D02*
X2120000Y4539700D01*
X1860300Y4574700D02*
X2085000D01*
X2120000Y4535000D02*
Y4539700D01*
X1779700Y4409700D02*
X1860300Y4490300D01*
Y4549737D01*
Y4574700D01*
X1200000Y4500000D02*
X1230000Y4530000D01*
X1647800D02*
X1670300Y4552500D01*
X1230000Y4530000D02*
X1647800D01*
X1200000Y4246000D02*
X1221549Y4267549D01*
X2330000Y4859691D02*
X3161009Y5690700D01*
X2330000Y4760000D02*
Y4859691D01*
X2832900Y3037100D02*
X3246664D01*
X3480000Y2732500D02*
X3497050Y2749550D01*
X3715150D01*
X4415000Y2190000D02*
Y2210000D01*
Y2190000D02*
X4421800Y2183200D01*
X4421800D01*
X4432300Y2193700D01*
Y2330050D01*
X4479950Y2377700D01*
Y2534050D01*
X4321963Y2330000D02*
X4428950Y2436987D01*
X4060000Y2330000D02*
X4321963D01*
X4035000Y2305000D02*
X4060000Y2330000D01*
X3825000Y2375000D02*
X4309327D01*
X4378950Y2444624D01*
X4203377Y2419050D02*
X4228951Y2444624D01*
X4680950Y2439050D02*
Y2533050D01*
Y2439050D02*
X4726716Y2393284D01*
Y2345784D02*
X4740000Y2332500D01*
X4726716Y2345784D02*
Y2393284D01*
X4679950Y2534050D02*
X4680950Y2533050D01*
X4719944Y2689050D02*
X4930000Y2478994D01*
X4736513Y2729050D02*
X4970000Y2495562D01*
X4703376Y2649050D02*
X4880000Y2472426D01*
X5237500Y3280000D02*
Y3285000D01*
X4581648Y3715350D02*
Y3881649D01*
X4660000Y3960000D02*
X4777500D01*
X4581648Y3881649D02*
X4660000Y3960000D01*
X4580648Y3714350D02*
X4581648Y3715350D01*
X3194700Y5944700D02*
X5605300D01*
X6609700Y4940300D01*
X6879200D01*
X5426236Y3580000D02*
X5443634Y3597397D01*
X5410000Y3580000D02*
X5426236D01*
X5443634Y3597397D02*
X5451597D01*
X4610000Y3515501D02*
X4775953Y3349548D01*
X4997500Y2592500D02*
X5110000D01*
X4940000Y2650000D02*
X4997500Y2592500D01*
X4509558Y3280000D02*
X4610000Y3380442D01*
Y3515501D01*
X5115000Y2592500D02*
X5187500Y2520000D01*
Y2357500D02*
Y2520000D01*
X5110000Y2592500D02*
X5115000D01*
X5110000Y2280000D02*
X5187500Y2357500D01*
X5061450Y2748550D02*
X5110000Y2700000D01*
X4896450Y2748550D02*
X5061450D01*
X5110000Y2592500D02*
Y2700000D01*
X4895450Y2749550D02*
X4896450Y2748550D01*
X4580648Y3544853D02*
X4610000Y3515501D01*
X4580648Y3544853D02*
Y3714350D01*
X1765300Y4183053D02*
Y4279700D01*
X1730900Y4063400D02*
Y4148653D01*
X1765300Y4183053D01*
X1727500Y4060000D02*
X1730900Y4063400D01*
X6517300Y1604600D02*
Y1823300D01*
X6212500Y1604600D02*
Y1823300D01*
X5907700Y1604600D02*
Y1823300D01*
X5602900Y1604600D02*
Y1823300D01*
X4170000Y3450000D02*
X4220000Y3400000D01*
X4323995D02*
X4343995Y3420000D01*
X4220000Y3400000D02*
X4323995D01*
X4357223Y3599350D02*
X4445649D01*
X4331649Y3624923D02*
X4357223Y3599350D01*
X4331649Y3624923D02*
Y3713350D01*
X4518520Y3491480D02*
Y3526479D01*
X4445649Y3599350D02*
X4518520Y3526479D01*
Y3491480D02*
X4530000Y3480000D01*
X4170000Y3450000D02*
Y3544852D01*
X3701300Y2150000D02*
X3855201D01*
X3925400Y2079801D01*
X3583300Y2032000D02*
X3701300Y2150000D01*
X1670000Y2700100D02*
Y3200300D01*
X1294585Y2215416D02*
Y2292715D01*
X1288600Y2298700D02*
X1294585Y2292715D01*
Y2215416D02*
X1365200Y2144800D01*
X1482500D01*
X5280873Y2655827D02*
X5307800Y2628900D01*
X5141451Y2848549D02*
X5280873Y2709127D01*
X4896450Y2848549D02*
X5141451D01*
X5280873Y2655827D02*
Y2709127D01*
X4895450Y2849549D02*
X4896450Y2848549D01*
X1200000Y3992000D02*
Y4020000D01*
X6527800Y4559300D02*
X6654800D01*
X6770200Y4443900D01*
X6890800D01*
X6958400Y4511500D01*
Y4861100D01*
X6879200Y4940300D02*
X6958400Y4861100D01*
X2640000Y3230000D02*
X2832900Y3037100D01*
X5625000Y5690700D02*
X6527800Y4787900D01*
X1653463Y1868200D02*
X1717863Y1932600D01*
X1890800D01*
X1965800Y1857600D01*
X1985800D01*
X1464137Y1868200D02*
X1653463D01*
X1438800Y1893537D02*
X1464137Y1868200D01*
X1438800Y1893537D02*
Y1941100D01*
X1416300Y1963600D02*
X1438800Y1941100D01*
X1828000Y1647600D02*
X1903000Y1572600D01*
X1808000Y1647600D02*
X1828000D01*
X3517465Y2899549D02*
X3715150D01*
X2926200Y2308284D02*
X3517465Y2899549D01*
X2926200Y1823463D02*
Y2308284D01*
X1773200Y1822800D02*
X1808000Y1857600D01*
X1416300Y1668600D02*
X1438800Y1691100D01*
X4343995Y3420000D02*
Y3483995D01*
X4350000Y3490000D01*
X4180649Y3555502D02*
Y3714350D01*
X4230649Y3499351D02*
Y3714350D01*
Y3499351D02*
X4240000Y3490000D01*
X4170000Y3544852D02*
X4180649Y3555502D01*
X1288600Y2298700D02*
Y2318700D01*
X5288932Y4950000D02*
X6150000D01*
X4807632Y5431300D02*
X5288932Y4950000D01*
X4511437Y5431300D02*
X4807632D01*
X4230700Y5150563D02*
X4511437Y5431300D01*
X4130649Y3714350D02*
X4131649Y3715350D01*
X4270700Y3971600D02*
Y5035000D01*
X4557000Y5321300D01*
X3275000Y3950000D02*
X3291236D01*
X3316236Y3925000D01*
X3395000D01*
X3025000Y4025000D02*
X3468600Y3581400D01*
X3108100Y4016900D02*
X3492800Y3632200D01*
X1860300Y4303100D02*
X1882800Y4325600D01*
X3555000Y2011250D02*
X3575750Y2032000D01*
X3810000Y1998577D02*
Y2031999D01*
Y2032000D01*
X3575750D02*
X3583300D01*
X3556000D02*
X3575750D01*
X3665000Y1855000D02*
X3666423D01*
X3630000Y1820000D02*
X3665000Y1855000D01*
X3666423D02*
X3810000Y1998577D01*
X4378950Y2533050D02*
X4379950Y2534050D01*
X4378950Y2444624D02*
Y2533050D01*
X4428950Y2436987D02*
Y2533050D01*
X2924400Y4255600D02*
Y4537300D01*
Y4255600D02*
X2930000Y4250000D01*
X2924400Y4537300D02*
X3022600Y4635500D01*
X2929450Y4249450D02*
X2930000Y4250000D01*
X3715150Y2849549D02*
X3716150Y2850549D01*
X3025000Y4025000D02*
Y4125000D01*
X2959400Y4190600D02*
X3025000Y4125000D01*
X2959400Y4190600D02*
Y4219500D01*
X2929450Y4249450D02*
X2959400Y4219500D01*
X2889400Y4044400D02*
X2895000Y4050000D01*
X2889400Y4031300D02*
Y4044400D01*
Y4031300D02*
X2909400Y4011300D01*
X2918284D01*
X2930000Y3999584D01*
Y3850000D02*
Y3999584D01*
X3784600Y4505310D02*
Y4635500D01*
X3665200Y4385910D02*
X3784600Y4505310D01*
X3665200Y4291200D02*
Y4385910D01*
X3625000Y4251000D02*
X3665200Y4291200D01*
X3625000Y3945000D02*
Y4251000D01*
X3530600Y4376532D02*
Y4635500D01*
Y4376532D02*
X3568700Y4338432D01*
Y4114988D02*
Y4338432D01*
X3530000Y4076289D02*
X3568700Y4114988D01*
X3530000Y3820000D02*
Y4076289D01*
Y3820000D02*
X3650000Y3700000D01*
X4228951Y2444624D02*
Y2533050D01*
X4229951Y2534050D01*
X3678995Y3630000D02*
X3681195Y3632200D01*
X3492800D02*
X3618805D01*
X3621005Y3630000D01*
X3678995D01*
X3108100Y4016900D02*
Y4254500D01*
Y4467000D01*
X3276600Y4635500D01*
X3640000Y3826260D02*
Y3910000D01*
X5705400Y2832100D02*
X5721300Y2848000D01*
X5517800Y2832100D02*
X5705400D01*
X5873800Y2620500D02*
X5879000Y2615300D01*
Y2425700D02*
Y2615300D01*
X5709000Y2450700D02*
Y2615700D01*
Y2450700D02*
X5734000Y2425700D01*
X5709000Y2615700D02*
X5713800Y2620500D01*
X5721300Y2848000D02*
Y3035300D01*
X5873800Y2620500D02*
Y2633000D01*
X5786300Y2720500D02*
X5873800Y2633000D01*
X5589400Y2720500D02*
X5786300D01*
X5517800Y2648900D02*
X5589400Y2720500D01*
X5517800Y2628900D02*
Y2648900D01*
X5866300Y2848000D02*
Y3035300D01*
Y2848000D02*
X5873800Y2840500D01*
X4123388Y2729050D02*
X4736513D01*
X5446000Y500000D02*
X5556000Y390000D01*
X4156525Y2649050D02*
X4703376D01*
X4139956Y2689050D02*
X4719944D01*
X4029951Y2534050D02*
X4030951Y2535050D01*
X4080951Y2630045D02*
X4139956Y2689050D01*
X4080951Y2535050D02*
Y2630045D01*
X4079951Y2534050D02*
X4080951Y2535050D01*
X4130951Y2623476D02*
X4156525Y2649050D01*
X4130951Y2535050D02*
Y2623476D01*
X4129951Y2534050D02*
X4130951Y2535050D01*
X3615000Y3935000D02*
X3640000Y3910000D01*
X3615000Y3935000D02*
X3625000Y3945000D01*
X3605000Y3925000D02*
X3615000Y3935000D01*
X4406900Y4038200D02*
X4530649Y3914451D01*
X4316100Y3990407D02*
X4431649Y3874859D01*
X4361500Y4009212D02*
Y4617800D01*
Y4009212D02*
X4480649Y3890064D01*
X4270700Y3971600D02*
X4380149Y3862151D01*
X4406900Y4038200D02*
Y4409200D01*
X4316100Y4826400D02*
X4557000Y5067300D01*
X4361500Y4617800D02*
X4557000Y4813300D01*
X4316100Y3990407D02*
Y4826400D01*
X4406900Y4409200D02*
X4557000Y4559300D01*
X4894450Y3050549D02*
X4895450Y3049549D01*
X4380149Y3789350D02*
Y3862151D01*
X4680648Y3601521D02*
X4692363Y3589805D01*
X4680648Y3601521D02*
Y3714350D01*
X1968500Y2184400D02*
X2119500Y2335400D01*
X1765323Y2184400D02*
X1968500D01*
X1669600Y2278700D02*
Y2298700D01*
X1704600Y2243700D02*
X1706023D01*
X1765323Y2184400D01*
X1669600Y2278700D02*
X1704600Y2243700D01*
X4428950Y2533050D02*
X4429950Y2534050D01*
X4579950Y2122354D02*
Y2534050D01*
X3974395Y1866900D02*
X4324496D01*
X3988900Y1916600D02*
X4309991D01*
X4529950Y2136559D02*
Y2534050D01*
X4309991Y1916600D02*
X4529950Y2136559D01*
X4324496Y1866900D02*
X4579950Y2122354D01*
X3925400Y1980100D02*
Y2079801D01*
Y1980100D02*
X3988900Y1916600D01*
X3880000Y1961295D02*
X3974395Y1866900D01*
X3810000Y2031999D02*
X3880000Y1961999D01*
Y1961295D02*
Y1961999D01*
X4380149Y3789350D02*
X4380649Y3714350D01*
X4530649D02*
Y3914451D01*
X4431649Y3715350D02*
Y3874859D01*
X4480649Y3714350D02*
Y3890064D01*
X4430649Y3714350D02*
X4431649Y3715350D01*
X6816212Y4586088D02*
X6843000Y4559300D01*
X6721000Y4632800D02*
X6767713Y4586088D01*
X6816212D01*
X6461600Y4632800D02*
X6721000D01*
X6733700Y4714400D02*
X6851684Y4832384D01*
X6461600Y4714400D02*
X6733700D01*
X6388100Y4559300D02*
X6461600Y4632800D01*
X6388100Y4787900D02*
X6461600Y4714400D01*
X1486000Y2079200D02*
X1515000Y2108200D01*
X1313790Y2079200D02*
X1486000D01*
X1198010Y1963420D02*
X1313790Y2079200D01*
X961200Y1963420D02*
X1198010D01*
X1262395Y1963600D02*
X1416300D01*
X1182205Y1883410D02*
X1262395Y1963600D01*
X1511300D02*
X1515000Y1967300D01*
Y2108200D01*
Y2112300D01*
X1482500Y2144800D02*
X1515000Y2112300D01*
X1498600Y2298700D02*
X1669600D01*
X1416300Y1668600D02*
Y1696100D01*
X1309000Y1803400D02*
X1416300Y1696100D01*
X961200Y1803400D02*
X1309000D01*
X961200Y1883410D02*
X1182205D01*
D33*
X2647438Y270000D02*
X6657362D01*
X6800000Y600236D02*
Y3700000D01*
X7043800Y3943800D01*
X6715941Y328579D02*
Y499941D01*
X6657362Y270000D02*
X6715941Y328579D01*
X1950000Y967438D02*
X2647438Y270000D01*
X6715941Y499941D02*
X6716000Y500000D01*
Y516236D02*
X6800000Y600236D01*
X6843000Y5575300D02*
X7043800Y5374500D01*
Y3943800D02*
Y5374500D01*
X1950000Y967438D02*
Y1270000D01*
D34*
X4380000Y923704D02*
Y1735911D01*
X4571743Y1927653D01*
X4076296Y620000D02*
X4380000Y923704D01*
X3420000Y1800000D02*
Y1820000D01*
Y1580000D02*
Y1600000D01*
X4570000Y1920000D02*
X4571743Y1921743D01*
Y1927653D01*
X3907100Y4391511D02*
Y4686241D01*
X3692500Y4176911D02*
X3907100Y4391511D01*
X3692500Y4020000D02*
Y4176911D01*
Y4020000D02*
X3775000Y3937500D01*
X3780000D01*
X3783341Y4810000D02*
X3907100Y4686241D01*
X2943100Y4810000D02*
X3783341D01*
X2768600Y4635500D02*
X2943100Y4810000D01*
X2685000Y3983431D02*
Y4116569D01*
X2714400Y3855600D02*
X2720000Y3850000D01*
X2714400Y3855600D02*
Y3954032D01*
X2685000Y3983431D02*
X2714400Y3954032D01*
X2452295Y1490000D02*
X3330000D01*
X2338000Y1375705D02*
X2452295Y1490000D01*
X1710000Y1220000D02*
X1737039Y1247039D01*
X1927039D01*
X2893704Y1150000D02*
X3423704Y620000D01*
X2408294Y1150000D02*
X2893704D01*
X3330000Y1490000D02*
X3420000Y1580000D01*
X3975100Y729900D02*
Y1263100D01*
X3982000Y1270000D01*
X3975100Y729900D02*
X4000000Y705000D01*
X3492500Y712500D02*
Y1251500D01*
X3474000Y1270000D02*
X3492500Y1251500D01*
Y712500D02*
X3500000Y705000D01*
X1927039Y1247039D02*
X1950000Y1270000D01*
X2338000Y1220294D02*
Y1375705D01*
Y1220294D02*
X2408294Y1150000D01*
X3420000Y1580000D02*
Y1820000D01*
X3252294Y1871216D02*
X3368783D01*
X3420000Y1820000D01*
X3168000Y1955511D02*
Y2478000D01*
X3428763Y2738763D01*
X3168000Y1955511D02*
X3252294Y1871216D01*
X3428763Y2738763D02*
X3473737D01*
X3480000Y2732500D01*
X4571743Y1927653D02*
X4697654D01*
X4827500Y2057500D02*
Y2250000D01*
X4697654Y1927653D02*
X4827500Y2057500D01*
X4745000Y2332500D02*
X4827500Y2250000D01*
X4740000Y2332500D02*
X4745000D01*
X2685000Y4116569D02*
X2714400Y4145968D01*
Y4255600D01*
X2714400Y4255600D01*
X3423704Y620000D02*
X4076296D01*
X2731251Y3411154D02*
X2737503Y3404903D01*
X2731251Y3411154D02*
Y3631299D01*
X2712550Y3650000D02*
X2731251Y3631299D01*
X2712550Y3650000D02*
Y3842550D01*
X2720000Y4270000D02*
X2745000Y4295000D01*
X2745168D01*
X2768600Y4318432D01*
Y4635500D01*
X2712550Y3842550D02*
X2720000Y3850000D01*
X3492500Y300000D02*
Y487500D01*
X3500000Y495000D01*
X6835850Y5582450D02*
X6843000Y5575300D01*
X6369850Y5582450D02*
X6835850D01*
X6362700Y5589600D02*
X6369850Y5582450D01*
D35*
X3042450Y1722450D02*
Y2026450D01*
X3040000Y1720000D02*
X3042450Y1722450D01*
Y2026450D02*
X3048000Y2032000D01*
D36*
X2295000Y4435000D02*
X2465720D01*
X2250000Y4180000D02*
Y4390000D01*
X2295000Y4435000D01*
X1977500Y3977500D02*
X2040000Y4040000D01*
Y4123101D01*
X1805000Y3977500D02*
X1977500D01*
X1727500Y4055000D02*
X1805000Y3977500D01*
X1727500Y4055000D02*
Y4060000D01*
X2040000Y4123101D02*
X2066899Y4150000D01*
X2220000D01*
X2250000Y4180000D01*
X2465720Y4435000D02*
X2609720Y4291000D01*
X2690000D01*
X2714400Y4266600D01*
Y4255600D02*
Y4266600D01*
Y4255600D02*
X2720000Y4250000D01*
X5765800Y4143600D02*
X5981700D01*
X5986700Y4138600D01*
X6237300D01*
X6242300Y4133600D01*
X6432300Y4038600D02*
X6438650Y4044950D01*
X6836650D01*
X6843000Y4051300D01*
D37*
X399999Y2722000D02*
X800000D01*
X399999Y2976000D02*
X800000D01*
X399999Y4500000D02*
X800000D01*
X399999Y4246000D02*
X800000D01*
X399999Y3992000D02*
X800000D01*
X399999Y3738000D02*
X800000D01*
D38*
X1400000Y400000D02*
D03*
X3390900Y3149600D02*
D03*
X1200000Y4500000D02*
D03*
X800000D02*
D03*
X399999D02*
D03*
D39*
X1400000Y654000D02*
D03*
Y908000D02*
D03*
X3390900Y3403600D02*
D03*
X3784600Y4635500D02*
D03*
X4038600D02*
D03*
X3022600D02*
D03*
X3530600D02*
D03*
X3276600D02*
D03*
X2446000Y2500000D02*
D03*
X1200000Y2976000D02*
D03*
Y2722000D02*
D03*
Y3484000D02*
D03*
Y3992000D02*
D03*
Y4246000D02*
D03*
Y3738000D02*
D03*
Y3230000D02*
D03*
X800000Y2976000D02*
D03*
Y2722000D02*
D03*
Y3484000D02*
D03*
Y3992000D02*
D03*
Y4246000D02*
D03*
Y3738000D02*
D03*
Y3230000D02*
D03*
X399999Y3484000D02*
D03*
Y3738000D02*
D03*
Y3230000D02*
D03*
Y4246000D02*
D03*
Y3992000D02*
D03*
Y2976000D02*
D03*
Y2722000D02*
D03*
D40*
X4557000Y4305300D02*
D03*
Y4051300D02*
D03*
Y4559300D02*
D03*
Y4813300D02*
D03*
Y5067300D02*
D03*
Y5321300D02*
D03*
Y5575300D02*
D03*
Y5829300D02*
D03*
X6843000D02*
D03*
Y5575300D02*
D03*
Y5321300D02*
D03*
Y5067300D02*
D03*
Y4813300D02*
D03*
Y4559300D02*
D03*
Y4305300D02*
D03*
Y4051300D02*
D03*
X5700000Y500000D02*
D03*
X5446000D02*
D03*
X5954000D02*
D03*
X5192000D02*
D03*
X4938000D02*
D03*
X6716000D02*
D03*
X6208000D02*
D03*
X6462000D02*
D03*
X1950000Y1270000D02*
D03*
X2204000D02*
D03*
X2458000D02*
D03*
X2712000D02*
D03*
X2966000D02*
D03*
X3220000D02*
D03*
X3474000D02*
D03*
X3728000D02*
D03*
X3982000D02*
D03*
X4236000D02*
D03*
X3810000Y2032000D02*
D03*
X4064000D02*
D03*
X3556000D02*
D03*
X3302000D02*
D03*
X3048000D02*
D03*
D41*
X3995300Y3124200D02*
D03*
X4615300D02*
D03*
X686200Y2023110D02*
D03*
Y1583690D02*
D03*
D42*
X2768600Y4635500D02*
D03*
X2700000Y2500000D02*
D03*
D43*
X700000Y700000D02*
D03*
Y5300000D02*
D03*
X2500000Y2000000D02*
D03*
D44*
X1020000Y4400000D02*
D03*
X1000000Y3930000D02*
D03*
X2750000Y5390000D02*
D03*
X6348025Y5089329D02*
D03*
X6654375Y4844763D02*
D03*
X5910000Y4830000D02*
D03*
X2000000Y740000D02*
D03*
X2470000Y110000D02*
D03*
X6800000Y100000D02*
D03*
X6680000Y2640000D02*
D03*
X6670000Y2480000D02*
D03*
X1902200Y544000D02*
D03*
X6910000Y2380000D02*
D03*
X1662200Y544000D02*
D03*
X6990000Y2000832D02*
D03*
Y577400D02*
D03*
X1419997Y471500D02*
D03*
X6990000Y1057400D02*
D03*
Y1537401D02*
D03*
X7062201Y1777401D02*
D03*
X6910000Y2250000D02*
D03*
X6670000Y2350000D02*
D03*
X3136147Y418098D02*
D03*
X7062201Y2257401D02*
D03*
X1542200Y817400D02*
D03*
X2262200D02*
D03*
X6629987Y1729997D02*
D03*
X6616600Y2240000D02*
D03*
X3342200Y577400D02*
D03*
X5110000Y3329548D02*
D03*
X1419997Y1109998D02*
D03*
X5820000Y770000D02*
D03*
X5050000Y1990000D02*
D03*
X5347262Y1589735D02*
D03*
X5300000Y2020000D02*
D03*
X6025723Y3513393D02*
D03*
X6215182Y3330382D02*
D03*
X5742201Y3519548D02*
D03*
X6296539Y2539943D02*
D03*
X5994673Y2838306D02*
D03*
X5270000Y3519548D02*
D03*
X6222201Y3457401D02*
D03*
X5518802Y3327797D02*
D03*
X5159702Y3628697D02*
D03*
X1664443Y2595548D02*
D03*
X4297000Y5857401D02*
D03*
X4179992Y5759988D02*
D03*
X2310000Y300000D02*
D03*
X5220000Y1070000D02*
D03*
X5012276Y1187085D02*
D03*
X5520000Y1100000D02*
D03*
X2767935Y523301D02*
D03*
X6677579Y3098305D02*
D03*
X6620000Y3450000D02*
D03*
X6910000Y3217401D02*
D03*
X6942201Y3457401D02*
D03*
Y2497401D02*
D03*
Y2977401D02*
D03*
X3859992Y5619989D02*
D03*
X5999988Y1519997D02*
D03*
X6039988Y1989996D02*
D03*
X4300000Y1537401D02*
D03*
X6156600Y845284D02*
D03*
X5870050Y1185250D02*
D03*
X5990050Y1065250D02*
D03*
X5382201Y817400D02*
D03*
X5142201D02*
D03*
X4577764Y541837D02*
D03*
X4546591Y1189998D02*
D03*
X756600Y1760000D02*
D03*
X1366600Y4720000D02*
D03*
X2946600Y5330000D02*
D03*
X2566600Y5450000D02*
D03*
X3330000Y2950000D02*
D03*
X3225000D02*
D03*
X3625000Y2425000D02*
D03*
X6628330Y6117819D02*
D03*
X6146600Y6150000D02*
D03*
X4986600D02*
D03*
X4006600Y6130000D02*
D03*
X3216600D02*
D03*
X2716600Y6040000D02*
D03*
X6026600Y2420000D02*
D03*
X6176600Y5850000D02*
D03*
X4046600Y4260000D02*
D03*
X4461862Y3180930D02*
D03*
X4646600Y3280000D02*
D03*
X5316600Y2470000D02*
D03*
X2496600Y3060000D02*
D03*
X4456600Y2840000D02*
D03*
X4186600D02*
D03*
X5057711Y3831854D02*
D03*
X3652815Y4510160D02*
D03*
X3026600Y4400000D02*
D03*
X2846600Y3170000D02*
D03*
X2446600Y4170000D02*
D03*
X3766600Y440000D02*
D03*
X3986600Y2200000D02*
D03*
X1009248Y4161207D02*
D03*
X1006600Y3730000D02*
D03*
X1496600Y4040000D02*
D03*
X5586600Y2390000D02*
D03*
X6296600Y1270000D02*
D03*
X5966600Y1260000D02*
D03*
X1906600Y1450000D02*
D03*
X1226600Y1670000D02*
D03*
X6136600Y5310000D02*
D03*
X5816600Y5620000D02*
D03*
X2976600Y5860000D02*
D03*
X2366600Y5260000D02*
D03*
X1976600Y4200000D02*
D03*
X2186600Y3810000D02*
D03*
X1986600D02*
D03*
X1766600D02*
D03*
X7062201Y5617401D02*
D03*
Y3697401D02*
D03*
Y3217401D02*
D03*
Y2737401D02*
D03*
Y1297401D02*
D03*
Y817400D02*
D03*
Y337400D02*
D03*
X6702201Y3937401D02*
D03*
X6462201Y5377401D02*
D03*
X6582201Y5137401D02*
D03*
X6462201Y4417401D02*
D03*
X6582201Y4177401D02*
D03*
X6462201Y3937401D02*
D03*
X6582201Y3697401D02*
D03*
Y1297401D02*
D03*
X6462201Y1057400D02*
D03*
X6582201Y817400D02*
D03*
X6342201Y4657401D02*
D03*
X6222201Y4417401D02*
D03*
X6342201Y3697401D02*
D03*
Y2257401D02*
D03*
X6222201Y1057400D02*
D03*
X6342201Y817400D02*
D03*
X5982201Y5857401D02*
D03*
X6102201Y5617401D02*
D03*
Y4657401D02*
D03*
X5982201Y4417401D02*
D03*
X6102201Y3697401D02*
D03*
X5742201Y5377401D02*
D03*
X5862201Y5137401D02*
D03*
Y3697401D02*
D03*
Y2257401D02*
D03*
X5502201Y5857401D02*
D03*
Y5377401D02*
D03*
X5622201Y5137401D02*
D03*
Y4657401D02*
D03*
X5502201Y4417401D02*
D03*
X5622201Y2257401D02*
D03*
X5262201Y5857401D02*
D03*
X5382201Y5617401D02*
D03*
X5262201Y5377401D02*
D03*
X5382201Y5137401D02*
D03*
Y4657401D02*
D03*
X5262201Y4417401D02*
D03*
X5382201Y4177401D02*
D03*
X5262201Y3937401D02*
D03*
X5382201Y2257401D02*
D03*
X5022201Y5857401D02*
D03*
X5142201Y5617401D02*
D03*
X5022201Y5377401D02*
D03*
Y4897401D02*
D03*
X5142201Y4657401D02*
D03*
X5022201Y4417401D02*
D03*
X5142201Y4177401D02*
D03*
Y1777401D02*
D03*
X4782200Y5857401D02*
D03*
X4902201Y5617401D02*
D03*
Y5137401D02*
D03*
X4782200Y4897401D02*
D03*
X4902201Y4657401D02*
D03*
X4782200Y4417401D02*
D03*
X4902201Y4177401D02*
D03*
X4782200Y1537401D02*
D03*
X4902201Y1297401D02*
D03*
Y817400D02*
D03*
X4782200Y577400D02*
D03*
X4662200Y1777401D02*
D03*
X4542200Y1537401D02*
D03*
X4662200Y1297401D02*
D03*
Y817400D02*
D03*
X4302200Y5377401D02*
D03*
Y2977401D02*
D03*
Y2017401D02*
D03*
Y577400D02*
D03*
X4062200Y5857401D02*
D03*
Y5377401D02*
D03*
Y4897401D02*
D03*
Y4417401D02*
D03*
Y2977401D02*
D03*
X4182200Y1777401D02*
D03*
X4062200Y1537401D02*
D03*
X3822200Y5857401D02*
D03*
Y5377401D02*
D03*
X3942200Y5137401D02*
D03*
X3822200Y4897401D02*
D03*
X3942200Y1777401D02*
D03*
X3822200Y1537401D02*
D03*
Y1057400D02*
D03*
X3582200Y5857401D02*
D03*
X3702200Y5617401D02*
D03*
X3582200Y5377401D02*
D03*
X3702200Y5137401D02*
D03*
X3582200Y4897401D02*
D03*
Y1057400D02*
D03*
X3702200Y817400D02*
D03*
X3342200Y5857401D02*
D03*
Y5377401D02*
D03*
X3462200Y5137401D02*
D03*
X3342200Y4897401D02*
D03*
Y4417401D02*
D03*
Y2497401D02*
D03*
X3462200Y2257401D02*
D03*
X3342200Y1057400D02*
D03*
X3102200Y5377401D02*
D03*
X3222200Y5137401D02*
D03*
X3102200Y4897401D02*
D03*
X3222200Y3697401D02*
D03*
X3102200Y3457401D02*
D03*
X3222200Y3217401D02*
D03*
X2982200Y5617401D02*
D03*
Y5137401D02*
D03*
X2862200Y4897401D02*
D03*
X2982200Y3217401D02*
D03*
Y2737401D02*
D03*
X2862200Y2497401D02*
D03*
Y1057400D02*
D03*
X2982200Y817400D02*
D03*
X2742200Y5617401D02*
D03*
Y5137401D02*
D03*
X2622200Y4897401D02*
D03*
Y4417401D02*
D03*
Y1057400D02*
D03*
X2742200Y817400D02*
D03*
X2382200Y5857401D02*
D03*
X2502200Y5137401D02*
D03*
Y4657401D02*
D03*
Y2737401D02*
D03*
X2382200Y1057400D02*
D03*
X2502200Y817400D02*
D03*
X2142200Y5857401D02*
D03*
X2262200Y5617401D02*
D03*
Y2737401D02*
D03*
X2142200Y2497401D02*
D03*
Y1057400D02*
D03*
X1902200Y5857401D02*
D03*
X2022200Y5617401D02*
D03*
X1902200Y5377401D02*
D03*
X2022200Y5137401D02*
D03*
X1902200Y4897401D02*
D03*
X2022200Y4657401D02*
D03*
X1902200Y4417401D02*
D03*
Y2497401D02*
D03*
Y2017401D02*
D03*
X2022200Y337400D02*
D03*
X1662200Y5857401D02*
D03*
X1782200Y5617401D02*
D03*
X1662200Y5377401D02*
D03*
X1782200Y5137401D02*
D03*
X1662200Y4897401D02*
D03*
X1782200Y2737401D02*
D03*
X1662200Y1057400D02*
D03*
X1782200Y817400D02*
D03*
Y337400D02*
D03*
X1422200Y5857401D02*
D03*
X1542200Y5617401D02*
D03*
X1422200Y5377401D02*
D03*
X1542200Y5137401D02*
D03*
X1422200Y4897401D02*
D03*
X1542200Y4657401D02*
D03*
X1422200Y4417401D02*
D03*
Y2977401D02*
D03*
X1542200Y2737401D02*
D03*
X1422200Y1537401D02*
D03*
X1542200Y1297401D02*
D03*
Y337400D02*
D03*
X1182200Y5857401D02*
D03*
X1302200Y5617401D02*
D03*
X1182200Y5377401D02*
D03*
X1302200Y5137401D02*
D03*
X1182200Y4897401D02*
D03*
Y2497401D02*
D03*
Y1537401D02*
D03*
X1302200Y1297401D02*
D03*
X1182200Y1057400D02*
D03*
Y577400D02*
D03*
X1302200Y337400D02*
D03*
X942200Y5857401D02*
D03*
X1062200Y5617401D02*
D03*
Y5137401D02*
D03*
X942200Y4897401D02*
D03*
X1062200Y4657401D02*
D03*
X942200Y2497401D02*
D03*
Y1537401D02*
D03*
Y1057400D02*
D03*
X1062200Y817400D02*
D03*
Y337400D02*
D03*
X702200Y5857401D02*
D03*
Y4897401D02*
D03*
Y2497401D02*
D03*
X822200Y337400D02*
D03*
X462200Y5857401D02*
D03*
Y4897401D02*
D03*
X582200Y3217401D02*
D03*
X462200Y2497401D02*
D03*
X582200Y1777401D02*
D03*
X462200Y1057400D02*
D03*
X582200Y337400D02*
D03*
X222200Y5857401D02*
D03*
X342200Y5617401D02*
D03*
X222200Y5377401D02*
D03*
X342200Y5137401D02*
D03*
X222200Y4897401D02*
D03*
Y4417401D02*
D03*
Y3937401D02*
D03*
Y2977401D02*
D03*
Y2497401D02*
D03*
Y2017401D02*
D03*
Y1537401D02*
D03*
Y1057400D02*
D03*
X342200Y817400D02*
D03*
X222200Y577400D02*
D03*
X342200Y337400D02*
D03*
X3920000Y3310000D02*
D03*
X3825000Y2375000D02*
D03*
X5410000Y3580000D02*
D03*
X4940000Y2650000D02*
D03*
X4570000Y1920000D02*
D03*
X5110000Y2280000D02*
D03*
X4530000Y3480000D02*
D03*
X4350000Y3490000D02*
D03*
X4240000D02*
D03*
X6150000Y4950000D02*
D03*
X3275000Y3950000D02*
D03*
X3650000Y3700000D02*
D03*
D45*
X2500000Y3530000D02*
D03*
Y3740000D02*
D03*
%TF.MD5,cf47391f9efd77df2220f2d0fe4c5781*%
M02*
