%TF.GenerationSoftware,Altium Limited,Altium Designer,25.3.3 (18)*%
G04 Layer_Color=0*
%FSLAX45Y45*%
%MOMM*%
%TF.SameCoordinates,BD87FDF2-1F07-4250-B4CA-E9600B944348*%
%TF.FilePolarity,Positive*%
%TF.FileFunction,Plated,1,2,PTH,Drill*%
%TF.Part,Single*%
G01*
G75*
%TA.AperFunction,ComponentDrill*%
%ADD102C,1.10000*%
%ADD103C,3.20000*%
%ADD104C,0.85000*%
%ADD105C,1.10000*%
%TA.AperFunction,ViaDrill,NotFilled*%
%ADD106C,0.40000*%
D102*
X1400000Y5600000D02*
D03*
Y5346000D02*
D03*
Y5092000D02*
D03*
X799999Y2262000D02*
D03*
Y2516000D02*
D03*
Y2008000D02*
D03*
Y3024000D02*
D03*
Y3278000D02*
D03*
Y2770000D02*
D03*
Y1754000D02*
D03*
Y1500000D02*
D03*
X1199999Y2262000D02*
D03*
Y2516000D02*
D03*
Y2008000D02*
D03*
Y3024000D02*
D03*
Y3278000D02*
D03*
Y2770000D02*
D03*
Y1754000D02*
D03*
Y1500000D02*
D03*
X4260000Y5185000D02*
D03*
Y5685000D02*
D03*
Y5435000D02*
D03*
Y4935000D02*
D03*
Y4685000D02*
D03*
Y4435000D02*
D03*
D103*
X700000Y700000D02*
D03*
X2500000Y4000000D02*
D03*
X6202500Y-3785000D02*
D03*
Y-2835000D02*
D03*
X700000Y5300000D02*
D03*
D104*
X292700Y3402700D02*
D03*
Y3652700D02*
D03*
X290000Y1770000D02*
D03*
Y2020000D02*
D03*
Y2590000D02*
D03*
Y2840000D02*
D03*
X6616700Y-67500D02*
D03*
Y-317500D02*
D03*
Y-1667700D02*
D03*
Y-1917700D02*
D03*
Y-867600D02*
D03*
Y-1117600D02*
D03*
D105*
X4001900Y-602600D02*
D03*
X3493900D02*
D03*
X2731900D02*
D03*
X2985900D02*
D03*
X3239900D02*
D03*
X3747900D02*
D03*
X2699999Y3500000D02*
D03*
X2445999D02*
D03*
X4624200Y-602600D02*
D03*
X4370200D02*
D03*
D106*
X3150000Y3400000D02*
D03*
X3450000Y3380000D02*
D03*
X1330000Y-1230000D02*
D03*
X2510000Y-410000D02*
D03*
X2280000Y-620000D02*
D03*
X2150000Y-80000D02*
D03*
X3350000Y1620000D02*
D03*
X4170000Y1460000D02*
D03*
X4960000Y1010000D02*
D03*
X5050000Y980000D02*
D03*
X5040000Y860000D02*
D03*
X4930000Y740000D02*
D03*
X4990000Y620000D02*
D03*
X4880000Y470000D02*
D03*
X4782699Y583675D02*
D03*
X4800691Y1100899D02*
D03*
X4790000Y450000D02*
D03*
X5000000Y-190000D02*
D03*
X3380000Y1230000D02*
D03*
X1100000Y650000D02*
D03*
X1400000Y2980000D02*
D03*
X990000Y2790000D02*
D03*
X1000000Y3060000D02*
D03*
X1180000Y3650000D02*
D03*
X936694Y3654267D02*
D03*
X750000Y3510000D02*
D03*
X270000Y3850000D02*
D03*
X550000Y3600000D02*
D03*
X420000Y3260000D02*
D03*
X680000Y3130000D02*
D03*
X410000Y2970000D02*
D03*
X510000Y2530000D02*
D03*
X4179992Y1039998D02*
D03*
X3990000Y1630000D02*
D03*
X3850000Y1500000D02*
D03*
X4110000Y1650000D02*
D03*
X3167827Y1451830D02*
D03*
X2610000Y1980000D02*
D03*
X2420000D02*
D03*
X2000000Y1880000D02*
D03*
X2043463Y2060000D02*
D03*
X2638122Y2218222D02*
D03*
X3320000Y1870000D02*
D03*
X3890000Y1990000D02*
D03*
X3990000Y1850000D02*
D03*
X3694896Y1675104D02*
D03*
X3546913Y1515347D02*
D03*
X3619896Y1600104D02*
D03*
X3831337Y1811471D02*
D03*
X3690000Y1850000D02*
D03*
X3580000Y1750000D02*
D03*
X4300000Y2230000D02*
D03*
X4030000Y2140000D02*
D03*
X4100000Y2010000D02*
D03*
X3810000Y2100000D02*
D03*
X3709587Y1409379D02*
D03*
X3450000Y1540000D02*
D03*
X3740000Y1310000D02*
D03*
X3790000Y1150000D02*
D03*
X3770000Y1050000D02*
D03*
X3050000Y4810000D02*
D03*
X2930000D02*
D03*
Y4930000D02*
D03*
X3050000D02*
D03*
X2990000Y4870000D02*
D03*
X1770000Y4910000D02*
D03*
X1610000Y5250000D02*
D03*
Y5060000D02*
D03*
X6050000Y430000D02*
D03*
Y770000D02*
D03*
Y600000D02*
D03*
X6280000Y603789D02*
D03*
X5390000Y770000D02*
D03*
X5400000Y410000D02*
D03*
X5700000Y80000D02*
D03*
X5940000Y20000D02*
D03*
X6050000Y140000D02*
D03*
X6100000Y1090000D02*
D03*
X6330000Y2030000D02*
D03*
X5760000Y3350000D02*
D03*
X3910000Y3650000D02*
D03*
X4459217Y3801619D02*
D03*
X6330000Y1740000D02*
D03*
Y2420000D02*
D03*
Y2990000D02*
D03*
X6220000Y3220000D02*
D03*
X6520000Y3003790D02*
D03*
Y2523790D02*
D03*
X6519651Y1561600D02*
D03*
X6520000Y2043790D02*
D03*
X5903762Y3530363D02*
D03*
X5500000Y3930000D02*
D03*
X4890000Y4010000D02*
D03*
X4410000D02*
D03*
X6257801Y3483790D02*
D03*
X5777801Y3963790D02*
D03*
X3183577Y3918014D02*
D03*
X2900000Y3963790D02*
D03*
X1773124Y4159113D02*
D03*
X1598846Y4443790D02*
D03*
X1857801Y4683790D02*
D03*
X1217801Y4923790D02*
D03*
X1457801D02*
D03*
X1217801Y5403790D02*
D03*
X1577801Y4683790D02*
D03*
X1580000Y3700000D02*
D03*
X1730000D02*
D03*
X3497801Y3723790D02*
D03*
X3737801D02*
D03*
X5537801Y1563790D02*
D03*
X5777801D02*
D03*
X6017801D02*
D03*
X6290000Y1260000D02*
D03*
X6620000Y1280000D02*
D03*
X5897801D02*
D03*
X6137801D02*
D03*
X5810000Y1210000D02*
D03*
X6737801Y1083790D02*
D03*
X5019100Y1729100D02*
D03*
X3790000Y150000D02*
D03*
X3110000Y160000D02*
D03*
X2537801Y-116211D02*
D03*
X3110000Y310000D02*
D03*
X2990000Y270000D02*
D03*
X3090000Y-110000D02*
D03*
X3230000Y160000D02*
D03*
X3630000Y0D02*
D03*
X3410000Y160000D02*
D03*
X3780000Y-10000D02*
D03*
X3676098Y366905D02*
D03*
X3536098Y380000D02*
D03*
X4217801Y-596211D02*
D03*
X3970000Y150000D02*
D03*
X4300000Y1030000D02*
D03*
X4220000Y720000D02*
D03*
X1940000Y700000D02*
D03*
X1690000D02*
D03*
X1629995Y895984D02*
D03*
X1472440Y1698565D02*
D03*
X1382499Y1990000D02*
D03*
X1378356Y1628356D02*
D03*
X1370000Y1760000D02*
D03*
X971626Y1750000D02*
D03*
X1200000Y1350000D02*
D03*
X1108995Y1218995D02*
D03*
X860000Y1330000D02*
D03*
X1029292Y1992298D02*
D03*
X1000000Y2250000D02*
D03*
X617499Y2283790D02*
D03*
X1276564Y1051426D02*
D03*
X960000Y1870000D02*
D03*
X956944Y1169655D02*
D03*
X1463995Y863995D02*
D03*
X1690000Y1260000D02*
D03*
X1490000Y1330000D02*
D03*
X1630000Y1110000D02*
D03*
X2540000Y900000D02*
D03*
X2090000Y1170000D02*
D03*
X1560000Y1030000D02*
D03*
X1390000Y1170000D02*
D03*
X857801Y3740000D02*
D03*
X1260006D02*
D03*
X1457801Y3963790D02*
D03*
X497801D02*
D03*
X737801D02*
D03*
X1697801D02*
D03*
X1217801D02*
D03*
X977801D02*
D03*
X1510000Y3620000D02*
D03*
X1430000Y3700000D02*
D03*
X1600000Y3140000D02*
D03*
X5820000Y-150000D02*
D03*
X5422060Y-290764D02*
D03*
X6420000Y-300000D02*
D03*
X6770000Y-230000D02*
D03*
X6736830Y-411996D02*
D03*
X6100000Y-740000D02*
D03*
X5289134Y-1316211D02*
D03*
Y-836211D02*
D03*
X5185000Y1803790D02*
D03*
X6737801Y3963790D02*
D03*
X6617801Y3723790D02*
D03*
X6737801Y3483790D02*
D03*
Y3003790D02*
D03*
X6617801Y2763790D02*
D03*
X6737801Y2523790D02*
D03*
X6617801Y2283790D02*
D03*
X6737801Y2043790D02*
D03*
X6617801Y1803790D02*
D03*
X6737801Y1563790D02*
D03*
Y603789D02*
D03*
X6617801Y363789D02*
D03*
X6737801Y123789D02*
D03*
X6617801Y-596211D02*
D03*
X6737801Y-1316211D02*
D03*
Y-1796211D02*
D03*
Y-2276211D02*
D03*
X6617801Y-2516211D02*
D03*
X6737801Y-2756211D02*
D03*
X6617801Y-2996211D02*
D03*
X6737801Y-3236211D02*
D03*
X6617801Y-3476211D02*
D03*
X6737801Y-3716211D02*
D03*
X6617801Y-3956211D02*
D03*
X6497801Y3963790D02*
D03*
X6377801Y3723790D02*
D03*
X6497801Y603789D02*
D03*
X6377801Y363789D02*
D03*
X6497801Y123789D02*
D03*
X6377801Y-116211D02*
D03*
X6497801Y-1316211D02*
D03*
Y-1796211D02*
D03*
X6377801Y-2036211D02*
D03*
X6497801Y-2276211D02*
D03*
Y-3236211D02*
D03*
X6257801Y3963790D02*
D03*
X6137801Y3723790D02*
D03*
Y2763790D02*
D03*
Y2283790D02*
D03*
Y1803790D02*
D03*
X6257801Y1083790D02*
D03*
Y123789D02*
D03*
X6137801Y-116211D02*
D03*
X6257801Y-356211D02*
D03*
X6137801Y-596211D02*
D03*
X6257801Y-836211D02*
D03*
Y-1796211D02*
D03*
Y-2276211D02*
D03*
Y-3236211D02*
D03*
X6017801Y3963790D02*
D03*
Y3003790D02*
D03*
Y2523790D02*
D03*
Y2043790D02*
D03*
Y-356211D02*
D03*
X5897801Y-2516211D02*
D03*
X6017801Y-3236211D02*
D03*
X5897801Y-3476211D02*
D03*
X5777801Y-356211D02*
D03*
Y-836211D02*
D03*
X5657801Y-2516211D02*
D03*
X5777801Y-2756211D02*
D03*
X5657801Y-2996211D02*
D03*
X5777801Y-3236211D02*
D03*
X5657801Y-3476211D02*
D03*
X5777801Y-3716211D02*
D03*
X5657801Y-3956211D02*
D03*
X5417801Y3723790D02*
D03*
X5537801Y3483790D02*
D03*
X5417801Y3243790D02*
D03*
Y2283790D02*
D03*
Y1803790D02*
D03*
X5537801Y123789D02*
D03*
X5417801Y-116211D02*
D03*
X5537801Y-2276211D02*
D03*
X5417801Y-2516211D02*
D03*
X5537801Y-2756211D02*
D03*
X5417801Y-2996211D02*
D03*
X5537801Y-3236211D02*
D03*
X5417801Y-3476211D02*
D03*
X5537801Y-3716211D02*
D03*
X5417801Y-3956211D02*
D03*
X5177801Y3723790D02*
D03*
X5297801Y3483790D02*
D03*
X5177801Y3243790D02*
D03*
X5297801Y3003790D02*
D03*
X5177801Y-596211D02*
D03*
Y-1076211D02*
D03*
Y-1556211D02*
D03*
X5297801Y-1796211D02*
D03*
X5177801Y-2036211D02*
D03*
X5297801Y-2276211D02*
D03*
Y-2756211D02*
D03*
Y-3236211D02*
D03*
Y-3716211D02*
D03*
X4937801Y3723790D02*
D03*
X5057801Y3483790D02*
D03*
X4937801Y2763790D02*
D03*
Y2283790D02*
D03*
X5057801Y-356211D02*
D03*
X4937801Y-596211D02*
D03*
X5057801Y-836211D02*
D03*
X4937801Y-1076211D02*
D03*
X5057801Y-1316211D02*
D03*
X4937801Y-1556211D02*
D03*
X5057801Y-1796211D02*
D03*
X4697801Y3723790D02*
D03*
X4817801Y3483790D02*
D03*
X4697801Y2763790D02*
D03*
Y1323790D02*
D03*
Y843790D02*
D03*
X4817801Y-356211D02*
D03*
Y-836211D02*
D03*
X4697801Y-1076211D02*
D03*
X4817801Y-1316211D02*
D03*
X4697801Y-1556211D02*
D03*
X4457801Y2763790D02*
D03*
Y1323790D02*
D03*
X4577801Y1083790D02*
D03*
Y-356211D02*
D03*
Y-836211D02*
D03*
X4457801Y-1076211D02*
D03*
X4577801Y-1316211D02*
D03*
X4217801Y3723790D02*
D03*
X4337801Y2523790D02*
D03*
X4217801Y-116211D02*
D03*
X4337801Y-356211D02*
D03*
Y-836211D02*
D03*
X4217801Y-1076211D02*
D03*
X4097801Y-836211D02*
D03*
X3857801D02*
D03*
X3497801Y2283790D02*
D03*
X3617801Y2043790D02*
D03*
X3497801Y1323790D02*
D03*
X3617801Y-836211D02*
D03*
X3257801Y3723790D02*
D03*
Y3243790D02*
D03*
X3377801Y2043790D02*
D03*
X3257801Y1323790D02*
D03*
X3377801Y-836211D02*
D03*
X3017801Y3723790D02*
D03*
Y3243790D02*
D03*
Y843790D02*
D03*
X2777801Y1803790D02*
D03*
X2537801D02*
D03*
Y-596211D02*
D03*
X2297801Y-116211D02*
D03*
X2417801Y-836211D02*
D03*
X2177801Y4443790D02*
D03*
X2057801Y4203790D02*
D03*
X2177801Y-356211D02*
D03*
X2057801Y-596211D02*
D03*
X2177801Y-836211D02*
D03*
X1817801Y5643790D02*
D03*
Y5163790D02*
D03*
X1937801Y4443790D02*
D03*
X1817801Y2283790D02*
D03*
X1937801Y123789D02*
D03*
X1817801Y-116211D02*
D03*
X1937801Y-356211D02*
D03*
X1697801Y5403790D02*
D03*
X1577801Y4203790D02*
D03*
X1697801Y123789D02*
D03*
X1577801Y-116211D02*
D03*
Y-1076211D02*
D03*
X1337801Y4683790D02*
D03*
X1457801Y4443790D02*
D03*
X1337801Y4203790D02*
D03*
Y363789D02*
D03*
X1457801Y123789D02*
D03*
X1097801Y5643790D02*
D03*
Y5163790D02*
D03*
Y4683790D02*
D03*
X1217801Y4443790D02*
D03*
X1097801Y4203790D02*
D03*
X1217801Y603789D02*
D03*
X1097801Y363789D02*
D03*
X1217801Y123789D02*
D03*
Y-1316211D02*
D03*
X1097801Y-1556211D02*
D03*
X857801Y5643790D02*
D03*
X977801Y4923790D02*
D03*
X857801Y4683790D02*
D03*
X977801Y4443790D02*
D03*
X857801Y4203790D02*
D03*
Y363789D02*
D03*
X977801Y123789D02*
D03*
Y-356211D02*
D03*
Y-1316211D02*
D03*
X857801Y-1556211D02*
D03*
X977801Y-1796211D02*
D03*
X737801Y4923790D02*
D03*
X617801Y4683790D02*
D03*
X737801Y4443790D02*
D03*
X617801Y4203790D02*
D03*
X737801Y1083790D02*
D03*
Y123789D02*
D03*
X617801Y-596211D02*
D03*
X737801Y-1316211D02*
D03*
X617801Y-1556211D02*
D03*
X737801Y-1796211D02*
D03*
X377801Y5643790D02*
D03*
X497801Y4923790D02*
D03*
X377801Y4683790D02*
D03*
X497801Y4443790D02*
D03*
X377801Y4203790D02*
D03*
X497801Y2043790D02*
D03*
Y1563790D02*
D03*
X377801Y1323790D02*
D03*
X497801Y1083790D02*
D03*
X377801Y363789D02*
D03*
X497801Y123789D02*
D03*
Y-356211D02*
D03*
Y-836211D02*
D03*
Y-1316211D02*
D03*
X377801Y-1556211D02*
D03*
X497801Y-1796211D02*
D03*
X137801Y5643790D02*
D03*
X257801Y5403790D02*
D03*
X137801Y5163790D02*
D03*
X257801Y4923790D02*
D03*
X137801Y4683790D02*
D03*
X257801Y4443790D02*
D03*
X137801Y4203790D02*
D03*
Y2763790D02*
D03*
Y2283790D02*
D03*
Y1803790D02*
D03*
X257801Y1563790D02*
D03*
X137801Y1323790D02*
D03*
X257801Y1083790D02*
D03*
X137801Y843790D02*
D03*
X257801Y603789D02*
D03*
X137801Y363789D02*
D03*
X257801Y123789D02*
D03*
X137801Y-116211D02*
D03*
Y-596211D02*
D03*
Y-1076211D02*
D03*
X257801Y-1316211D02*
D03*
X137801Y-1556211D02*
D03*
X257801Y-1796211D02*
D03*
X2640000Y470000D02*
D03*
X2510000Y450000D02*
D03*
X2630721Y584361D02*
D03*
X2510000Y690000D02*
D03*
X2640000Y800000D02*
D03*
X2700000Y1180000D02*
D03*
X2600000Y1100000D02*
D03*
X5290000Y-580000D02*
D03*
X5780000Y-520000D02*
D03*
X5620000Y-290000D02*
D03*
X5584391Y-586957D02*
D03*
X5460000Y-720000D02*
D03*
X5483065Y-820000D02*
D03*
X5690000Y-608065D02*
D03*
X5540000Y-450000D02*
D03*
X5440000D02*
D03*
X5359135Y-713987D02*
D03*
X4700000Y3310000D02*
D03*
X4430230Y3590982D02*
D03*
X5410000Y2130000D02*
D03*
X5370000Y1560000D02*
D03*
X5310000Y1720000D02*
D03*
X5130000Y1710000D02*
D03*
X5009896Y1840104D02*
D03*
X4970104Y2180104D02*
D03*
X3120000Y2740000D02*
D03*
X3200000Y2940000D02*
D03*
X3090000D02*
D03*
X3380000Y2210000D02*
D03*
X3070000Y2130000D02*
D03*
X2720000Y2590000D02*
D03*
Y2760000D02*
D03*
X2400000Y3080000D02*
D03*
Y2880000D02*
D03*
Y2300000D02*
D03*
Y2490000D02*
D03*
Y2680000D02*
D03*
X2000000Y2490000D02*
D03*
X1850000Y2390000D02*
D03*
X1730000Y2490000D02*
D03*
X1640000Y2230000D02*
D03*
X1510000Y2090000D02*
D03*
X1570000Y1860000D02*
D03*
X1800000Y2070000D02*
D03*
X2090000Y1350000D02*
D03*
X1830000Y1260000D02*
D03*
X4640000Y-120000D02*
D03*
X5690000Y-740000D02*
D03*
X4950000Y-1920000D02*
D03*
X4380000Y-1290000D02*
D03*
X3910000Y-1030000D02*
D03*
X1420000Y-1320000D02*
D03*
X1760000Y-1110000D02*
D03*
X1990000Y-960000D02*
D03*
X2720000Y-810000D02*
D03*
X3130000D02*
D03*
X2980000Y-190000D02*
D03*
X4420000Y20000D02*
D03*
X4100000Y-120000D02*
D03*
X6030000Y-1490000D02*
D03*
X5810000Y-1420000D02*
D03*
Y-1290000D02*
D03*
X5830000Y-2070000D02*
D03*
X5820000Y-1960000D02*
D03*
X5830000Y-1840000D02*
D03*
X2164341Y3082881D02*
D03*
X2020000Y3080000D02*
D03*
X1660000Y3610000D02*
D03*
X2040000Y3350000D02*
D03*
X2010000Y3460000D02*
D03*
X1820000Y3610000D02*
D03*
X1760000Y3510000D02*
D03*
X1930000Y3400000D02*
D03*
X1900000Y3530000D02*
D03*
X1600000Y3520000D02*
D03*
X1720000Y3140000D02*
D03*
X1870000Y3200000D02*
D03*
X1880000Y3310000D02*
D03*
X1830000Y3390000D02*
D03*
X1730000Y3400000D02*
D03*
X1630000D02*
D03*
X1670000Y2830000D02*
D03*
X1620000Y2110000D02*
D03*
X3500000Y1850000D02*
D03*
X3390000Y1410000D02*
D03*
X1110000Y-440000D02*
D03*
X1260000Y-650000D02*
D03*
X5464285Y2981799D02*
D03*
X5490000Y2720000D02*
D03*
X5380000Y2520000D02*
D03*
X4380000Y1940000D02*
D03*
X4500000Y2000000D02*
D03*
X4620000Y2030000D02*
D03*
X4720000Y2120000D02*
D03*
X4820000Y2240000D02*
D03*
X2970000Y1170000D02*
D03*
X1420000Y1480000D02*
D03*
X590000Y1310000D02*
D03*
X1129497Y999497D02*
D03*
X1370000Y760000D02*
D03*
X2250000Y200000D02*
D03*
X1780000Y400000D02*
D03*
X1640000Y530000D02*
D03*
X2370000Y120000D02*
D03*
X2830000Y170000D02*
D03*
X3870000Y930000D02*
D03*
X3190000Y910000D02*
D03*
X3160000Y520000D02*
D03*
X2500000Y250000D02*
D03*
X2640000Y260000D02*
D03*
X3780000Y850000D02*
D03*
X3640000Y480000D02*
D03*
X3550000Y740000D02*
D03*
X3160000Y720000D02*
D03*
X4860000Y5880000D02*
D03*
X4870000Y5580000D02*
D03*
X4860000Y5320000D02*
D03*
X4850000Y5050000D02*
D03*
X4870000Y4810000D02*
D03*
X4900000Y4580000D02*
D03*
X4920000Y4340000D02*
D03*
X4630000Y4310000D02*
D03*
X4620000Y4490000D02*
D03*
X4600000Y4690000D02*
D03*
X4602283Y4933234D02*
D03*
X4600000Y5170000D02*
D03*
Y5430000D02*
D03*
X4570000Y5720000D02*
D03*
X4040000Y5280000D02*
D03*
X2490000Y4620000D02*
D03*
X2788577Y4668577D02*
D03*
X2948574Y4508580D02*
D03*
X2240000Y4560000D02*
D03*
X2400000Y4410000D02*
D03*
X2880000Y4240000D02*
D03*
X3100000D02*
D03*
X3690000Y5130000D02*
D03*
X2990000Y5900000D02*
D03*
X4430000Y4400000D02*
D03*
X3890000Y4610000D02*
D03*
X3720000Y4640000D02*
D03*
X3301942Y4660000D02*
D03*
X2160000Y4780093D02*
D03*
X2370000Y4860000D02*
D03*
X2430000Y4990000D02*
D03*
X2429497Y5210502D02*
D03*
X2472501Y4885658D02*
D03*
X2710000Y4530000D02*
D03*
X3180000Y5070000D02*
D03*
X3920000Y5420000D02*
D03*
X4095209Y5513640D02*
D03*
X3980000Y5690000D02*
D03*
X3510000Y5910000D02*
D03*
X3700000Y5920000D02*
D03*
X3881940Y5895524D02*
D03*
X4130000Y5900000D02*
D03*
X4390000Y5870000D02*
D03*
X4430000Y5550000D02*
D03*
Y5310000D02*
D03*
Y5060000D02*
D03*
Y4810000D02*
D03*
Y4590000D02*
D03*
X3920000Y4310000D02*
D03*
X3680000D02*
D03*
X3540000D02*
D03*
X3330000Y4280000D02*
D03*
X3470000Y4640000D02*
D03*
X3630000Y5250000D02*
D03*
X3510000Y5160000D02*
D03*
X4800000Y1290000D02*
D03*
X5140000Y400000D02*
D03*
X3900000Y230000D02*
D03*
X4210000Y0D02*
D03*
X4610000Y-10000D02*
D03*
X3860000Y750000D02*
D03*
X2990000Y990000D02*
D03*
X2000000Y1000000D02*
D03*
X2050000Y4850000D02*
D03*
X2790000Y5900000D02*
D03*
X2750000Y5370000D02*
D03*
X2020000Y5150000D02*
D03*
X2750000Y5620000D02*
D03*
X2420000Y5610000D02*
D03*
X2030000Y5600000D02*
D03*
X3070000Y5180000D02*
D03*
X3190000Y5870000D02*
D03*
X3330000D02*
D03*
X3490000Y5420000D02*
D03*
Y5290000D02*
D03*
X3350000Y4493764D02*
D03*
X2460000Y4740000D02*
D03*
X3640000Y5010000D02*
D03*
%TF.MD5,095184c9e3905ea4f7e22f7aca92e87c*%
M02*
