%TF.GenerationSoftware,Altium Limited,Altium Designer,25.3.3 (18)*%
G04 Layer_Color=8421504*
%FSLAX45Y45*%
%MOMM*%
%TF.SameCoordinates,BD87FDF2-1F07-4250-B4CA-E9600B944348*%
%TF.FilePolarity,Positive*%
%TF.FileFunction,Paste,Top*%
%TF.Part,Single*%
G01*
G75*
%TA.AperFunction,SMDPad,CuDef*%
G04:AMPARAMS|DCode=10|XSize=0.95mm|YSize=0.85mm|CornerRadius=0.085mm|HoleSize=0mm|Usage=FLASHONLY|Rotation=270.000|XOffset=0mm|YOffset=0mm|HoleType=Round|Shape=RoundedRectangle|*
%AMROUNDEDRECTD10*
21,1,0.95000,0.68000,0,0,270.0*
21,1,0.78000,0.85000,0,0,270.0*
1,1,0.17000,-0.34000,-0.39000*
1,1,0.17000,-0.34000,0.39000*
1,1,0.17000,0.34000,0.39000*
1,1,0.17000,0.34000,-0.39000*
%
%ADD10ROUNDEDRECTD10*%
%ADD11R,1.15000X1.40000*%
G04:AMPARAMS|DCode=12|XSize=1.3mm|YSize=0.9mm|CornerRadius=0.09mm|HoleSize=0mm|Usage=FLASHONLY|Rotation=180.000|XOffset=0mm|YOffset=0mm|HoleType=Round|Shape=RoundedRectangle|*
%AMROUNDEDRECTD12*
21,1,1.30000,0.72000,0,0,180.0*
21,1,1.12000,0.90000,0,0,180.0*
1,1,0.18000,-0.56000,0.36000*
1,1,0.18000,0.56000,0.36000*
1,1,0.18000,0.56000,-0.36000*
1,1,0.18000,-0.56000,-0.36000*
%
%ADD12ROUNDEDRECTD12*%
G04:AMPARAMS|DCode=13|XSize=1.3mm|YSize=0.9mm|CornerRadius=0.09mm|HoleSize=0mm|Usage=FLASHONLY|Rotation=90.000|XOffset=0mm|YOffset=0mm|HoleType=Round|Shape=RoundedRectangle|*
%AMROUNDEDRECTD13*
21,1,1.30000,0.72000,0,0,90.0*
21,1,1.12000,0.90000,0,0,90.0*
1,1,0.18000,0.36000,0.56000*
1,1,0.18000,0.36000,-0.56000*
1,1,0.18000,-0.36000,-0.56000*
1,1,0.18000,-0.36000,0.56000*
%
%ADD13ROUNDEDRECTD13*%
%ADD14R,0.85000X0.35000*%
%ADD15R,0.35000X0.85000*%
%ADD16R,2.15000X2.15000*%
%ADD17R,0.22000X1.70000*%
%ADD18R,1.70000X0.22000*%
G04:AMPARAMS|DCode=19|XSize=1mm|YSize=1.8mm|CornerRadius=0mm|HoleSize=0mm|Usage=FLASHONLY|Rotation=315.000|XOffset=0mm|YOffset=0mm|HoleType=Round|Shape=Rectangle|*
%AMROTATEDRECTD19*
4,1,4,-0.98995,-0.28284,0.28284,0.98995,0.98995,0.28284,-0.28284,-0.98995,-0.98995,-0.28284,0.0*
%
%ADD19ROTATEDRECTD19*%

G04:AMPARAMS|DCode=20|XSize=1mm|YSize=1.8mm|CornerRadius=0mm|HoleSize=0mm|Usage=FLASHONLY|Rotation=225.000|XOffset=0mm|YOffset=0mm|HoleType=Round|Shape=Rectangle|*
%AMROTATEDRECTD20*
4,1,4,-0.28284,0.98995,0.98995,-0.28284,0.28284,-0.98995,-0.98995,0.28284,-0.28284,0.98995,0.0*
%
%ADD20ROTATEDRECTD20*%

%ADD21R,2.41300X3.42900*%
%ADD22R,0.65000X1.20000*%
G04:AMPARAMS|DCode=23|XSize=0.95mm|YSize=0.85mm|CornerRadius=0.085mm|HoleSize=0mm|Usage=FLASHONLY|Rotation=180.000|XOffset=0mm|YOffset=0mm|HoleType=Round|Shape=RoundedRectangle|*
%AMROUNDEDRECTD23*
21,1,0.95000,0.68000,0,0,180.0*
21,1,0.78000,0.85000,0,0,180.0*
1,1,0.17000,-0.39000,0.34000*
1,1,0.17000,0.39000,0.34000*
1,1,0.17000,0.39000,-0.34000*
1,1,0.17000,-0.39000,-0.34000*
%
%ADD23ROUNDEDRECTD23*%
%ADD24R,0.60000X1.00000*%
G04:AMPARAMS|DCode=25|XSize=1.4mm|YSize=0.95mm|CornerRadius=0.095mm|HoleSize=0mm|Usage=FLASHONLY|Rotation=0.000|XOffset=0mm|YOffset=0mm|HoleType=Round|Shape=RoundedRectangle|*
%AMROUNDEDRECTD25*
21,1,1.40000,0.76000,0,0,0.0*
21,1,1.21000,0.95000,0,0,0.0*
1,1,0.19000,0.60500,-0.38000*
1,1,0.19000,-0.60500,-0.38000*
1,1,0.19000,-0.60500,0.38000*
1,1,0.19000,0.60500,0.38000*
%
%ADD25ROUNDEDRECTD25*%
G04:AMPARAMS|DCode=26|XSize=0.762mm|YSize=0.762mm|CornerRadius=0.1905mm|HoleSize=0mm|Usage=FLASHONLY|Rotation=0.000|XOffset=0mm|YOffset=0mm|HoleType=Round|Shape=RoundedRectangle|*
%AMROUNDEDRECTD26*
21,1,0.76200,0.38100,0,0,0.0*
21,1,0.38100,0.76200,0,0,0.0*
1,1,0.38100,0.19050,-0.19050*
1,1,0.38100,-0.19050,-0.19050*
1,1,0.38100,-0.19050,0.19050*
1,1,0.38100,0.19050,0.19050*
%
%ADD26ROUNDEDRECTD26*%
%ADD27R,1.00000X0.60000*%
G04:AMPARAMS|DCode=28|XSize=1.85mm|YSize=1.05mm|CornerRadius=0.105mm|HoleSize=0mm|Usage=FLASHONLY|Rotation=90.000|XOffset=0mm|YOffset=0mm|HoleType=Round|Shape=RoundedRectangle|*
%AMROUNDEDRECTD28*
21,1,1.85000,0.84000,0,0,90.0*
21,1,1.64000,1.05000,0,0,90.0*
1,1,0.21000,0.42000,0.82000*
1,1,0.21000,0.42000,-0.82000*
1,1,0.21000,-0.42000,-0.82000*
1,1,0.21000,-0.42000,0.82000*
%
%ADD28ROUNDEDRECTD28*%
%ADD29R,1.05000X0.85000*%
G04:AMPARAMS|DCode=30|XSize=1.4mm|YSize=0.95mm|CornerRadius=0.095mm|HoleSize=0mm|Usage=FLASHONLY|Rotation=270.000|XOffset=0mm|YOffset=0mm|HoleType=Round|Shape=RoundedRectangle|*
%AMROUNDEDRECTD30*
21,1,1.40000,0.76000,0,0,270.0*
21,1,1.21000,0.95000,0,0,270.0*
1,1,0.19000,-0.38000,-0.60500*
1,1,0.19000,-0.38000,0.60500*
1,1,0.19000,0.38000,0.60500*
1,1,0.19000,0.38000,-0.60500*
%
%ADD30ROUNDEDRECTD30*%
%ADD31R,1.00000X2.35000*%
%ADD32R,3.30000X2.35000*%
%ADD33O,0.65000X1.65000*%
%ADD34O,1.65000X0.65000*%
%ADD35R,3.50000X2.00000*%
%ADD36R,2.30000X0.50800*%
%ADD37R,1.20000X6.20000*%
D10*
X5754700Y292100D02*
D03*
X5899700D02*
D03*
X2890000Y2990000D02*
D03*
X2745000D02*
D03*
X3055000Y2330000D02*
D03*
X2910000D02*
D03*
X3086942Y4491000D02*
D03*
X3231942D02*
D03*
X5937500Y-2130000D02*
D03*
X6082500D02*
D03*
X1736000Y1008400D02*
D03*
X1881000D02*
D03*
X1197500Y-533400D02*
D03*
X1342500D02*
D03*
X5647703Y1213619D02*
D03*
X5502703D02*
D03*
X3497600Y-323200D02*
D03*
X3642600D02*
D03*
X5899700Y914400D02*
D03*
X5754700D02*
D03*
X1710600Y1872000D02*
D03*
X1855600D02*
D03*
D11*
X5916100Y711200D02*
D03*
Y491200D02*
D03*
X5756100Y711200D02*
D03*
Y491200D02*
D03*
D12*
X5535100Y301400D02*
D03*
Y511400D02*
D03*
X1850000Y2845000D02*
D03*
Y3055000D02*
D03*
X2742500Y2315000D02*
D03*
Y2105000D02*
D03*
X2230000Y5290000D02*
D03*
Y5500000D02*
D03*
X2590000Y5290000D02*
D03*
Y5500000D02*
D03*
X5081400Y2536600D02*
D03*
Y2746600D02*
D03*
X1854200Y-568100D02*
D03*
Y-778100D02*
D03*
X1638300Y-568100D02*
D03*
Y-778100D02*
D03*
X4800000Y75000D02*
D03*
Y-135000D02*
D03*
X5535100Y695100D02*
D03*
Y905100D02*
D03*
D13*
X2885000Y3180000D02*
D03*
X2675000D02*
D03*
X5645000Y1930000D02*
D03*
X5855000D02*
D03*
X5645000Y2330000D02*
D03*
X5855000D02*
D03*
X5655000Y2740000D02*
D03*
X5865000D02*
D03*
X5665000Y3170000D02*
D03*
X5875000D02*
D03*
X2407000Y1237000D02*
D03*
X2197000D02*
D03*
X2407000Y1643400D02*
D03*
X2197000D02*
D03*
X2407000Y1846600D02*
D03*
X2197000D02*
D03*
X2407000Y1440200D02*
D03*
X2197000D02*
D03*
X2295000Y3180000D02*
D03*
X2505000D02*
D03*
X2295000Y2400000D02*
D03*
X2505000D02*
D03*
Y2200000D02*
D03*
X2295000D02*
D03*
Y2580000D02*
D03*
X2505000D02*
D03*
Y2780000D02*
D03*
X2295000D02*
D03*
X2505000Y2980000D02*
D03*
X2295000D02*
D03*
X5693000Y-1600200D02*
D03*
X5483000D02*
D03*
X5693000Y-2006600D02*
D03*
X5483000D02*
D03*
X5693000Y-1397000D02*
D03*
X5483000D02*
D03*
X5693000Y-1193800D02*
D03*
X5483000D02*
D03*
X6137500Y-1397000D02*
D03*
X5927500D02*
D03*
X6137500Y-1193800D02*
D03*
X5927500D02*
D03*
X2367000Y983000D02*
D03*
X2157000D02*
D03*
X2367000Y779800D02*
D03*
X2157000D02*
D03*
X2367000Y576600D02*
D03*
X2157000D02*
D03*
X2367000Y373400D02*
D03*
X2157000D02*
D03*
X2795000Y1330000D02*
D03*
X3005000D02*
D03*
X2785000Y1600000D02*
D03*
X2995000D02*
D03*
X1425800Y-139700D02*
D03*
X1215800D02*
D03*
Y-342900D02*
D03*
X1425800D02*
D03*
X4018000Y-323200D02*
D03*
X3808000D02*
D03*
X3122200D02*
D03*
X3332200D02*
D03*
X2741200D02*
D03*
X2951200D02*
D03*
D14*
X3185000Y4772500D02*
D03*
Y4837500D02*
D03*
Y4902500D02*
D03*
Y4967500D02*
D03*
X2795000D02*
D03*
Y4902500D02*
D03*
Y4837500D02*
D03*
Y4772500D02*
D03*
D15*
X3087500Y5065000D02*
D03*
X3022500D02*
D03*
X2957500D02*
D03*
X2892500D02*
D03*
Y4675000D02*
D03*
X2957500D02*
D03*
X3022500D02*
D03*
X3087500D02*
D03*
D16*
X2990000Y4870000D02*
D03*
D17*
X4243652Y298850D02*
D03*
X4793651D02*
D03*
X4344350Y1479150D02*
D03*
X4394350D02*
D03*
X4293652Y298850D02*
D03*
X4993650D02*
D03*
X4943650D02*
D03*
X4893650D02*
D03*
X4843650D02*
D03*
X4743651D02*
D03*
X4693651D02*
D03*
X4643651D02*
D03*
X4593651D02*
D03*
X4543651D02*
D03*
X4493651D02*
D03*
X4443651D02*
D03*
X4393651D02*
D03*
X4343651D02*
D03*
X4244350Y1479150D02*
D03*
X4294350D02*
D03*
X4444350D02*
D03*
X4494350D02*
D03*
X4544350D02*
D03*
X4594349D02*
D03*
X4644349D02*
D03*
X4694349D02*
D03*
X4744349D02*
D03*
X4794349D02*
D03*
X4844349D02*
D03*
X4894349D02*
D03*
X4944349D02*
D03*
X4994348D02*
D03*
D18*
X5209150Y514350D02*
D03*
Y564350D02*
D03*
Y864349D02*
D03*
Y1014349D02*
D03*
Y914349D02*
D03*
X4028850Y514350D02*
D03*
X4028850Y564350D02*
D03*
Y614350D02*
D03*
Y664349D02*
D03*
Y714349D02*
D03*
Y764349D02*
D03*
Y814349D02*
D03*
Y864349D02*
D03*
Y914349D02*
D03*
Y964349D02*
D03*
Y1014349D02*
D03*
Y1064349D02*
D03*
Y1114349D02*
D03*
Y1164348D02*
D03*
Y1214348D02*
D03*
Y1264348D02*
D03*
X5209150D02*
D03*
Y1214348D02*
D03*
Y1164348D02*
D03*
Y1114349D02*
D03*
Y1064349D02*
D03*
Y964349D02*
D03*
Y814349D02*
D03*
Y764349D02*
D03*
Y714349D02*
D03*
Y664349D02*
D03*
Y614350D02*
D03*
D19*
X4019000Y1489000D02*
D03*
X5219000Y289000D02*
D03*
D20*
Y1489000D02*
D03*
X4019000Y289000D02*
D03*
D21*
X3952100Y2600000D02*
D03*
X3367900D02*
D03*
D22*
X1428500Y-792300D02*
D03*
X1333500D02*
D03*
X1238500D02*
D03*
X1428500Y-1087300D02*
D03*
X1238500D02*
D03*
X1333500D02*
D03*
X2910000Y2512500D02*
D03*
X3005000D02*
D03*
X2815000D02*
D03*
Y2807500D02*
D03*
X3005000D02*
D03*
X2910000D02*
D03*
X3795000Y5402500D02*
D03*
X3700000D02*
D03*
X3605000D02*
D03*
Y5697500D02*
D03*
X3700000D02*
D03*
X3795000D02*
D03*
X1937900Y1689300D02*
D03*
X1842900D02*
D03*
X1747900D02*
D03*
Y1394300D02*
D03*
X1842900D02*
D03*
X1937900D02*
D03*
X1868300Y530700D02*
D03*
X1963300D02*
D03*
X1773300D02*
D03*
Y825700D02*
D03*
X1963300D02*
D03*
X1868300D02*
D03*
X6178300Y-1617800D02*
D03*
X6083300D02*
D03*
X5988300D02*
D03*
Y-1912800D02*
D03*
X6083300D02*
D03*
X6178300D02*
D03*
D23*
X4040000Y4377500D02*
D03*
Y4522500D02*
D03*
X2620000Y4657500D02*
D03*
Y4802500D02*
D03*
Y5082500D02*
D03*
Y4937500D02*
D03*
X3880000Y5192500D02*
D03*
Y5047500D02*
D03*
Y4757500D02*
D03*
Y4902500D02*
D03*
X4040000Y3842500D02*
D03*
Y3697500D02*
D03*
X3600000Y897500D02*
D03*
Y1042500D02*
D03*
X3800000Y622500D02*
D03*
Y477500D02*
D03*
X5000000Y-52500D02*
D03*
Y92500D02*
D03*
X5208400Y-47100D02*
D03*
Y97900D02*
D03*
X4273200Y1812400D02*
D03*
Y1667400D02*
D03*
X4890000Y1822500D02*
D03*
Y1677500D02*
D03*
X4425600Y1667400D02*
D03*
Y1812400D02*
D03*
X4578000D02*
D03*
Y1667400D02*
D03*
D24*
X5680000Y1730000D02*
D03*
X5820000D02*
D03*
X5680000Y2130000D02*
D03*
X5820000D02*
D03*
X5680000Y2530000D02*
D03*
X5820000D02*
D03*
X5700000Y2960000D02*
D03*
X5840000D02*
D03*
D25*
X1470000Y2430000D02*
D03*
Y2230000D02*
D03*
Y2820000D02*
D03*
Y2620000D02*
D03*
X5081400Y2921000D02*
D03*
Y3121000D02*
D03*
D26*
X3250000Y5610000D02*
D03*
X3389700D02*
D03*
X3110300D02*
D03*
X3389700Y5290000D02*
D03*
X3250000D02*
D03*
X3110300D02*
D03*
X3389400Y5450000D02*
D03*
X3249700D02*
D03*
X3110000D02*
D03*
X3389700Y5770000D02*
D03*
X3250000D02*
D03*
X3110300D02*
D03*
D27*
X1850000Y2630000D02*
D03*
Y2490000D02*
D03*
X2230000Y5850000D02*
D03*
Y5710000D02*
D03*
X2590000Y5850000D02*
D03*
Y5710000D02*
D03*
X5081400Y2177900D02*
D03*
Y2317900D02*
D03*
D28*
X3230000Y2130000D02*
D03*
X2915000D02*
D03*
X3917500Y3370000D02*
D03*
X3602500D02*
D03*
X3917500Y3110000D02*
D03*
X3602500D02*
D03*
D29*
X3400000Y3080000D02*
D03*
X3040000D02*
D03*
D30*
X3700000Y4810000D02*
D03*
X3500000D02*
D03*
X4350000Y3320000D02*
D03*
X4550000D02*
D03*
X5688000Y-1803400D02*
D03*
X5488000D02*
D03*
X5688000Y-990600D02*
D03*
X5488000D02*
D03*
X6140000Y-960000D02*
D03*
X5940000D02*
D03*
D31*
X4816100Y3033000D02*
D03*
X4586100D02*
D03*
X4356100D02*
D03*
D32*
X4586100Y2428000D02*
D03*
D33*
X3727000Y4455000D02*
D03*
X3854000D02*
D03*
X3600000D02*
D03*
X3473000D02*
D03*
Y3890000D02*
D03*
X3600000D02*
D03*
X3727000D02*
D03*
X3854000D02*
D03*
D34*
X3395400Y919500D02*
D03*
Y1046500D02*
D03*
Y665500D02*
D03*
Y792500D02*
D03*
Y538500D02*
D03*
Y284500D02*
D03*
Y411500D02*
D03*
X2830400Y538500D02*
D03*
Y665500D02*
D03*
Y1046500D02*
D03*
Y792500D02*
D03*
Y919500D02*
D03*
Y284500D02*
D03*
Y411500D02*
D03*
D35*
X420800Y-147760D02*
D03*
X920800D02*
D03*
X420800Y-1117760D02*
D03*
X920800D02*
D03*
D36*
X915800Y-632780D02*
D03*
Y-472760D02*
D03*
Y-552770D02*
D03*
Y-792800D02*
D03*
Y-712790D02*
D03*
D37*
X305800Y-632490D02*
D03*
%TF.MD5,d4091abd6d9b3f3b10c650b01ad23005*%
M02*
