%TF.GenerationSoftware,Altium Limited,Altium Designer,25.3.3 (18)*%
G04 Layer_Color=8388736*
%FSLAX45Y45*%
%MOMM*%
%TF.SameCoordinates,BD87FDF2-1F07-4250-B4CA-E9600B944348*%
%TF.FilePolarity,Negative*%
%TF.FileFunction,Soldermask,Top*%
%TF.Part,Single*%
G01*
G75*
%TA.AperFunction,SMDPad,CuDef*%
G04:AMPARAMS|DCode=63|XSize=1.1532mm|YSize=1.0532mm|CornerRadius=0.1866mm|HoleSize=0mm|Usage=FLASHONLY|Rotation=270.000|XOffset=0mm|YOffset=0mm|HoleType=Round|Shape=RoundedRectangle|*
%AMROUNDEDRECTD63*
21,1,1.15320,0.68000,0,0,270.0*
21,1,0.78000,1.05320,0,0,270.0*
1,1,0.37320,-0.34000,-0.39000*
1,1,0.37320,-0.34000,0.39000*
1,1,0.37320,0.34000,0.39000*
1,1,0.37320,0.34000,-0.39000*
%
%ADD63ROUNDEDRECTD63*%
%ADD64R,1.35320X1.60320*%
G04:AMPARAMS|DCode=65|XSize=1.5032mm|YSize=1.1032mm|CornerRadius=0.1916mm|HoleSize=0mm|Usage=FLASHONLY|Rotation=180.000|XOffset=0mm|YOffset=0mm|HoleType=Round|Shape=RoundedRectangle|*
%AMROUNDEDRECTD65*
21,1,1.50320,0.72000,0,0,180.0*
21,1,1.12000,1.10320,0,0,180.0*
1,1,0.38320,-0.56000,0.36000*
1,1,0.38320,0.56000,0.36000*
1,1,0.38320,0.56000,-0.36000*
1,1,0.38320,-0.56000,-0.36000*
%
%ADD65ROUNDEDRECTD65*%
G04:AMPARAMS|DCode=66|XSize=1.5032mm|YSize=1.1032mm|CornerRadius=0.1916mm|HoleSize=0mm|Usage=FLASHONLY|Rotation=90.000|XOffset=0mm|YOffset=0mm|HoleType=Round|Shape=RoundedRectangle|*
%AMROUNDEDRECTD66*
21,1,1.50320,0.72000,0,0,90.0*
21,1,1.12000,1.10320,0,0,90.0*
1,1,0.38320,0.36000,0.56000*
1,1,0.38320,0.36000,-0.56000*
1,1,0.38320,-0.36000,-0.56000*
1,1,0.38320,-0.36000,0.56000*
%
%ADD66ROUNDEDRECTD66*%
%ADD67R,1.05320X0.55320*%
%ADD68R,0.55320X1.05320*%
%ADD69R,2.35320X2.35320*%
%ADD70R,0.42320X1.90320*%
%ADD71R,1.90320X0.42320*%
G04:AMPARAMS|DCode=72|XSize=1.2032mm|YSize=2.0032mm|CornerRadius=0mm|HoleSize=0mm|Usage=FLASHONLY|Rotation=315.000|XOffset=0mm|YOffset=0mm|HoleType=Round|Shape=Rectangle|*
%AMROTATEDRECTD72*
4,1,4,-1.13364,-0.28284,0.28284,1.13364,1.13364,0.28284,-0.28284,-1.13364,-1.13364,-0.28284,0.0*
%
%ADD72ROTATEDRECTD72*%

G04:AMPARAMS|DCode=73|XSize=1.2032mm|YSize=2.0032mm|CornerRadius=0mm|HoleSize=0mm|Usage=FLASHONLY|Rotation=225.000|XOffset=0mm|YOffset=0mm|HoleType=Round|Shape=Rectangle|*
%AMROTATEDRECTD73*
4,1,4,-0.28284,1.13364,1.13364,-0.28284,0.28284,-1.13364,-1.13364,0.28284,-0.28284,1.13364,0.0*
%
%ADD73ROTATEDRECTD73*%

%ADD74R,2.61620X3.63220*%
%ADD75R,0.85320X1.40320*%
G04:AMPARAMS|DCode=76|XSize=1.1532mm|YSize=1.0532mm|CornerRadius=0.1866mm|HoleSize=0mm|Usage=FLASHONLY|Rotation=180.000|XOffset=0mm|YOffset=0mm|HoleType=Round|Shape=RoundedRectangle|*
%AMROUNDEDRECTD76*
21,1,1.15320,0.68000,0,0,180.0*
21,1,0.78000,1.05320,0,0,180.0*
1,1,0.37320,-0.39000,0.34000*
1,1,0.37320,0.39000,0.34000*
1,1,0.37320,0.39000,-0.34000*
1,1,0.37320,-0.39000,-0.34000*
%
%ADD76ROUNDEDRECTD76*%
%ADD77R,0.80320X1.20320*%
G04:AMPARAMS|DCode=78|XSize=1.6032mm|YSize=1.1532mm|CornerRadius=0.1966mm|HoleSize=0mm|Usage=FLASHONLY|Rotation=0.000|XOffset=0mm|YOffset=0mm|HoleType=Round|Shape=RoundedRectangle|*
%AMROUNDEDRECTD78*
21,1,1.60320,0.76000,0,0,0.0*
21,1,1.21000,1.15320,0,0,0.0*
1,1,0.39320,0.60500,-0.38000*
1,1,0.39320,-0.60500,-0.38000*
1,1,0.39320,-0.60500,0.38000*
1,1,0.39320,0.60500,0.38000*
%
%ADD78ROUNDEDRECTD78*%
G04:AMPARAMS|DCode=79|XSize=0.9652mm|YSize=0.9652mm|CornerRadius=0.2921mm|HoleSize=0mm|Usage=FLASHONLY|Rotation=0.000|XOffset=0mm|YOffset=0mm|HoleType=Round|Shape=RoundedRectangle|*
%AMROUNDEDRECTD79*
21,1,0.96520,0.38100,0,0,0.0*
21,1,0.38100,0.96520,0,0,0.0*
1,1,0.58420,0.19050,-0.19050*
1,1,0.58420,-0.19050,-0.19050*
1,1,0.58420,-0.19050,0.19050*
1,1,0.58420,0.19050,0.19050*
%
%ADD79ROUNDEDRECTD79*%
%ADD80R,1.20320X0.80320*%
G04:AMPARAMS|DCode=81|XSize=2.0532mm|YSize=1.2532mm|CornerRadius=0.2066mm|HoleSize=0mm|Usage=FLASHONLY|Rotation=90.000|XOffset=0mm|YOffset=0mm|HoleType=Round|Shape=RoundedRectangle|*
%AMROUNDEDRECTD81*
21,1,2.05320,0.84000,0,0,90.0*
21,1,1.64000,1.25320,0,0,90.0*
1,1,0.41320,0.42000,0.82000*
1,1,0.41320,0.42000,-0.82000*
1,1,0.41320,-0.42000,-0.82000*
1,1,0.41320,-0.42000,0.82000*
%
%ADD81ROUNDEDRECTD81*%
%ADD82R,1.25320X1.05320*%
G04:AMPARAMS|DCode=83|XSize=1.6032mm|YSize=1.1532mm|CornerRadius=0.1966mm|HoleSize=0mm|Usage=FLASHONLY|Rotation=270.000|XOffset=0mm|YOffset=0mm|HoleType=Round|Shape=RoundedRectangle|*
%AMROUNDEDRECTD83*
21,1,1.60320,0.76000,0,0,270.0*
21,1,1.21000,1.15320,0,0,270.0*
1,1,0.39320,-0.38000,-0.60500*
1,1,0.39320,-0.38000,0.60500*
1,1,0.39320,0.38000,0.60500*
1,1,0.39320,0.38000,-0.60500*
%
%ADD83ROUNDEDRECTD83*%
%ADD84R,1.20320X2.55320*%
%ADD85R,3.50320X2.55320*%
%ADD86O,0.85320X1.85320*%
%ADD87O,1.85320X0.85320*%
%ADD88R,3.70320X2.20320*%
%ADD89R,2.50320X0.71120*%
%ADD90R,1.40320X6.40320*%
%TA.AperFunction,ComponentPad*%
%ADD91R,1.85320X1.85320*%
%ADD92C,1.85320*%
%ADD93C,6.20000*%
%ADD94C,1.20320*%
%ADD95R,1.47820X1.47820*%
%ADD96C,1.47820*%
%ADD97R,1.85320X1.85320*%
D63*
X5754700Y292100D02*
D03*
X5899700D02*
D03*
X2890000Y2990000D02*
D03*
X2745000D02*
D03*
X3055000Y2330000D02*
D03*
X2910000D02*
D03*
X3086942Y4491000D02*
D03*
X3231942D02*
D03*
X5937500Y-2130000D02*
D03*
X6082500D02*
D03*
X1736000Y1008400D02*
D03*
X1881000D02*
D03*
X1197500Y-533400D02*
D03*
X1342500D02*
D03*
X5647703Y1213619D02*
D03*
X5502703D02*
D03*
X3497600Y-323200D02*
D03*
X3642600D02*
D03*
X5899700Y914400D02*
D03*
X5754700D02*
D03*
X1710600Y1872000D02*
D03*
X1855600D02*
D03*
D64*
X5916100Y711200D02*
D03*
Y491200D02*
D03*
X5756100Y711200D02*
D03*
Y491200D02*
D03*
D65*
X5535100Y301400D02*
D03*
Y511400D02*
D03*
X1850000Y2845000D02*
D03*
Y3055000D02*
D03*
X2742500Y2315000D02*
D03*
Y2105000D02*
D03*
X2230000Y5290000D02*
D03*
Y5500000D02*
D03*
X2590000Y5290000D02*
D03*
Y5500000D02*
D03*
X5081400Y2536600D02*
D03*
Y2746600D02*
D03*
X1854200Y-568100D02*
D03*
Y-778100D02*
D03*
X1638300Y-568100D02*
D03*
Y-778100D02*
D03*
X4800000Y75000D02*
D03*
Y-135000D02*
D03*
X5535100Y695100D02*
D03*
Y905100D02*
D03*
D66*
X2885000Y3180000D02*
D03*
X2675000D02*
D03*
X5645000Y1930000D02*
D03*
X5855000D02*
D03*
X5645000Y2330000D02*
D03*
X5855000D02*
D03*
X5655000Y2740000D02*
D03*
X5865000D02*
D03*
X5665000Y3170000D02*
D03*
X5875000D02*
D03*
X2407000Y1237000D02*
D03*
X2197000D02*
D03*
X2407000Y1643400D02*
D03*
X2197000D02*
D03*
X2407000Y1846600D02*
D03*
X2197000D02*
D03*
X2407000Y1440200D02*
D03*
X2197000D02*
D03*
X2295000Y3180000D02*
D03*
X2505000D02*
D03*
X2295000Y2400000D02*
D03*
X2505000D02*
D03*
Y2200000D02*
D03*
X2295000D02*
D03*
Y2580000D02*
D03*
X2505000D02*
D03*
Y2780000D02*
D03*
X2295000D02*
D03*
X2505000Y2980000D02*
D03*
X2295000D02*
D03*
X5693000Y-1600200D02*
D03*
X5483000D02*
D03*
X5693000Y-2006600D02*
D03*
X5483000D02*
D03*
X5693000Y-1397000D02*
D03*
X5483000D02*
D03*
X5693000Y-1193800D02*
D03*
X5483000D02*
D03*
X6137500Y-1397000D02*
D03*
X5927500D02*
D03*
X6137500Y-1193800D02*
D03*
X5927500D02*
D03*
X2367000Y983000D02*
D03*
X2157000D02*
D03*
X2367000Y779800D02*
D03*
X2157000D02*
D03*
X2367000Y576600D02*
D03*
X2157000D02*
D03*
X2367000Y373400D02*
D03*
X2157000D02*
D03*
X2795000Y1330000D02*
D03*
X3005000D02*
D03*
X2785000Y1600000D02*
D03*
X2995000D02*
D03*
X1425800Y-139700D02*
D03*
X1215800D02*
D03*
Y-342900D02*
D03*
X1425800D02*
D03*
X4018000Y-323200D02*
D03*
X3808000D02*
D03*
X3122200D02*
D03*
X3332200D02*
D03*
X2741200D02*
D03*
X2951200D02*
D03*
D67*
X3185000Y4772500D02*
D03*
Y4837500D02*
D03*
Y4902500D02*
D03*
Y4967500D02*
D03*
X2795000D02*
D03*
Y4902500D02*
D03*
Y4837500D02*
D03*
Y4772500D02*
D03*
D68*
X3087500Y5065000D02*
D03*
X3022500D02*
D03*
X2957500D02*
D03*
X2892500D02*
D03*
Y4675000D02*
D03*
X2957500D02*
D03*
X3022500D02*
D03*
X3087500D02*
D03*
D69*
X2990000Y4870000D02*
D03*
D70*
X4243652Y298850D02*
D03*
X4793651D02*
D03*
X4344350Y1479150D02*
D03*
X4394350D02*
D03*
X4293652Y298850D02*
D03*
X4993650D02*
D03*
X4943650D02*
D03*
X4893650D02*
D03*
X4843650D02*
D03*
X4743651D02*
D03*
X4693651D02*
D03*
X4643651D02*
D03*
X4593651D02*
D03*
X4543651D02*
D03*
X4493651D02*
D03*
X4443651D02*
D03*
X4393651D02*
D03*
X4343651D02*
D03*
X4244350Y1479150D02*
D03*
X4294350D02*
D03*
X4444350D02*
D03*
X4494350D02*
D03*
X4544350D02*
D03*
X4594349D02*
D03*
X4644349D02*
D03*
X4694349D02*
D03*
X4744349D02*
D03*
X4794349D02*
D03*
X4844349D02*
D03*
X4894349D02*
D03*
X4944349D02*
D03*
X4994348D02*
D03*
D71*
X5209150Y514350D02*
D03*
Y564350D02*
D03*
Y864349D02*
D03*
Y1014349D02*
D03*
Y914349D02*
D03*
X4028850Y514350D02*
D03*
X4028850Y564350D02*
D03*
Y614350D02*
D03*
Y664349D02*
D03*
Y714349D02*
D03*
Y764349D02*
D03*
Y814349D02*
D03*
Y864349D02*
D03*
Y914349D02*
D03*
Y964349D02*
D03*
Y1014349D02*
D03*
Y1064349D02*
D03*
Y1114349D02*
D03*
Y1164348D02*
D03*
Y1214348D02*
D03*
Y1264348D02*
D03*
X5209150D02*
D03*
Y1214348D02*
D03*
Y1164348D02*
D03*
Y1114349D02*
D03*
Y1064349D02*
D03*
Y964349D02*
D03*
Y814349D02*
D03*
Y764349D02*
D03*
Y714349D02*
D03*
Y664349D02*
D03*
Y614350D02*
D03*
D72*
X4019000Y1489000D02*
D03*
X5219000Y289000D02*
D03*
D73*
Y1489000D02*
D03*
X4019000Y289000D02*
D03*
D74*
X3952100Y2600000D02*
D03*
X3367900D02*
D03*
D75*
X1428500Y-792300D02*
D03*
X1333500D02*
D03*
X1238500D02*
D03*
X1428500Y-1087300D02*
D03*
X1238500D02*
D03*
X1333500D02*
D03*
X2910000Y2512500D02*
D03*
X3005000D02*
D03*
X2815000D02*
D03*
Y2807500D02*
D03*
X3005000D02*
D03*
X2910000D02*
D03*
X3795000Y5402500D02*
D03*
X3700000D02*
D03*
X3605000D02*
D03*
Y5697500D02*
D03*
X3700000D02*
D03*
X3795000D02*
D03*
X1937900Y1689300D02*
D03*
X1842900D02*
D03*
X1747900D02*
D03*
Y1394300D02*
D03*
X1842900D02*
D03*
X1937900D02*
D03*
X1868300Y530700D02*
D03*
X1963300D02*
D03*
X1773300D02*
D03*
Y825700D02*
D03*
X1963300D02*
D03*
X1868300D02*
D03*
X6178300Y-1617800D02*
D03*
X6083300D02*
D03*
X5988300D02*
D03*
Y-1912800D02*
D03*
X6083300D02*
D03*
X6178300D02*
D03*
D76*
X4040000Y4377500D02*
D03*
Y4522500D02*
D03*
X2620000Y4657500D02*
D03*
Y4802500D02*
D03*
Y5082500D02*
D03*
Y4937500D02*
D03*
X3880000Y5192500D02*
D03*
Y5047500D02*
D03*
Y4757500D02*
D03*
Y4902500D02*
D03*
X4040000Y3842500D02*
D03*
Y3697500D02*
D03*
X3600000Y897500D02*
D03*
Y1042500D02*
D03*
X3800000Y622500D02*
D03*
Y477500D02*
D03*
X5000000Y-52500D02*
D03*
Y92500D02*
D03*
X5208400Y-47100D02*
D03*
Y97900D02*
D03*
X4273200Y1812400D02*
D03*
Y1667400D02*
D03*
X4890000Y1822500D02*
D03*
Y1677500D02*
D03*
X4425600Y1667400D02*
D03*
Y1812400D02*
D03*
X4578000D02*
D03*
Y1667400D02*
D03*
D77*
X5680000Y1730000D02*
D03*
X5820000D02*
D03*
X5680000Y2130000D02*
D03*
X5820000D02*
D03*
X5680000Y2530000D02*
D03*
X5820000D02*
D03*
X5700000Y2960000D02*
D03*
X5840000D02*
D03*
D78*
X1470000Y2430000D02*
D03*
Y2230000D02*
D03*
Y2820000D02*
D03*
Y2620000D02*
D03*
X5081400Y2921000D02*
D03*
Y3121000D02*
D03*
D79*
X3250000Y5610000D02*
D03*
X3389700D02*
D03*
X3110300D02*
D03*
X3389700Y5290000D02*
D03*
X3250000D02*
D03*
X3110300D02*
D03*
X3389400Y5450000D02*
D03*
X3249700D02*
D03*
X3110000D02*
D03*
X3389700Y5770000D02*
D03*
X3250000D02*
D03*
X3110300D02*
D03*
D80*
X1850000Y2630000D02*
D03*
Y2490000D02*
D03*
X2230000Y5850000D02*
D03*
Y5710000D02*
D03*
X2590000Y5850000D02*
D03*
Y5710000D02*
D03*
X5081400Y2177900D02*
D03*
Y2317900D02*
D03*
D81*
X3230000Y2130000D02*
D03*
X2915000D02*
D03*
X3917500Y3370000D02*
D03*
X3602500D02*
D03*
X3917500Y3110000D02*
D03*
X3602500D02*
D03*
D82*
X3400000Y3080000D02*
D03*
X3040000D02*
D03*
D83*
X3700000Y4810000D02*
D03*
X3500000D02*
D03*
X4350000Y3320000D02*
D03*
X4550000D02*
D03*
X5688000Y-1803400D02*
D03*
X5488000D02*
D03*
X5688000Y-990600D02*
D03*
X5488000D02*
D03*
X6140000Y-960000D02*
D03*
X5940000D02*
D03*
D84*
X4816100Y3033000D02*
D03*
X4586100D02*
D03*
X4356100D02*
D03*
D85*
X4586100Y2428000D02*
D03*
D86*
X3727000Y4455000D02*
D03*
X3854000D02*
D03*
X3600000D02*
D03*
X3473000D02*
D03*
Y3890000D02*
D03*
X3600000D02*
D03*
X3727000D02*
D03*
X3854000D02*
D03*
D87*
X3395400Y919500D02*
D03*
Y1046500D02*
D03*
Y665500D02*
D03*
Y792500D02*
D03*
Y538500D02*
D03*
Y284500D02*
D03*
Y411500D02*
D03*
X2830400Y538500D02*
D03*
Y665500D02*
D03*
Y1046500D02*
D03*
Y792500D02*
D03*
Y919500D02*
D03*
Y284500D02*
D03*
Y411500D02*
D03*
D88*
X420800Y-147760D02*
D03*
X920800D02*
D03*
X420800Y-1117760D02*
D03*
X920800D02*
D03*
D89*
X915800Y-632780D02*
D03*
Y-472760D02*
D03*
Y-552770D02*
D03*
Y-792800D02*
D03*
Y-712790D02*
D03*
D90*
X305800Y-632490D02*
D03*
D91*
X1400000Y5600000D02*
D03*
X799999Y1500000D02*
D03*
X1199999D02*
D03*
X4260000Y4435000D02*
D03*
D92*
X1400000Y5346000D02*
D03*
Y5092000D02*
D03*
X799999Y2262000D02*
D03*
Y2516000D02*
D03*
Y2008000D02*
D03*
Y3024000D02*
D03*
Y3278000D02*
D03*
Y2770000D02*
D03*
Y1754000D02*
D03*
X1199999Y2262000D02*
D03*
Y2516000D02*
D03*
Y2008000D02*
D03*
Y3024000D02*
D03*
Y3278000D02*
D03*
Y2770000D02*
D03*
Y1754000D02*
D03*
X4260000Y5185000D02*
D03*
Y5685000D02*
D03*
Y5435000D02*
D03*
Y4935000D02*
D03*
Y4685000D02*
D03*
X4001900Y-602600D02*
D03*
X3493900D02*
D03*
X2985900D02*
D03*
X3239900D02*
D03*
X3747900D02*
D03*
X2699999Y3500000D02*
D03*
X4370200Y-602600D02*
D03*
D93*
X700000Y700000D02*
D03*
X2500000Y4000000D02*
D03*
X6202500Y-3785000D02*
D03*
Y-2835000D02*
D03*
X700000Y5300000D02*
D03*
D94*
X4929000Y889000D02*
D03*
X4309000D02*
D03*
X640800Y-413070D02*
D03*
Y-852490D02*
D03*
D95*
X292700Y3402700D02*
D03*
X290000Y1770000D02*
D03*
Y2590000D02*
D03*
X6616700Y-67500D02*
D03*
Y-1667700D02*
D03*
Y-867600D02*
D03*
D96*
X292700Y3652700D02*
D03*
X290000Y2020000D02*
D03*
Y2840000D02*
D03*
X6616700Y-317500D02*
D03*
Y-1917700D02*
D03*
Y-1117600D02*
D03*
D97*
X2731900Y-602600D02*
D03*
X2445999Y3500000D02*
D03*
X4624200Y-602600D02*
D03*
%TF.MD5,584c84027bd9285c0f54a3ca2ebd94f3*%
M02*
